<svg xmlns="http://www.w3.org/2000/svg" data-name="Layer 2" viewBox="0 0 435.3 408.56"><defs/><path fill="#381860" d="M216.68 33.22a214.81 214.81 0 0137.38 3.52c11.48 2.09 24.51 6.28 32.44 15.34 1.19 1.36 6.17-1.75 5.39-2.63-7.75-8.85-19.81-13-31-15.43a197.2 197.2 0 00-40-4c-1.48 0-6 3.24-4.18 3.25zM144.35 48.88c5.82-8.4 20-11.39 29.55-12.91a204.83 204.83 0 0135.42-2.73c1.48 0 6-3.22 4.18-3.25a191.7 191.7 0 00-43.08 4c-10.66 2.3-24.73 6.87-31.2 16.22-1.07 1.54 4.27 0 5.13-1.29z"/><path fill="#381860" d="M139.54 51.38c9.4 4.74 20.4 5.45 30.69 6.64a390.55 390.55 0 0042 2.82c25.74.21 53.79 2.39 77.74-8.9 3.17-1.5 2.26-3.45-.95-1.94-23.47 11.06-52.85 7.85-78 7.53a354.84 354.84 0 01-36.62-2.76c-10-1.16-20.75-1.82-29.92-6.44-1.51-.76-6.15 2.45-4.95 3.05zM214.15 41.32c-.12-7.9.22-15.84.73-23.72.31-4.78.28-12.58 5-15.28l-3.65.94c1.64.49.29 13.58.21 15.23q-.61 12.6-.64 25.2c0 1.59 5.45-.42 5.45-2 0-9.18.37-18.34.75-27.51.11-2.55 1.8-12.85-1.2-14.05-1.87-.75-5.68 2.45-6.83 3.63-2.21 2.26-3.08 5.43-3.65 8.46-1.89 10-1.74 21-1.58 31.14 0 1.61 5.48-.44 5.45-2z"/><path fill="#381860" d="M138.99 50.1c0 17.41.32 34.81 1.06 52.21s2 35 1.56 52.53c0 1.56 5.41-.41 5.45-2 .41-17.55-.81-35-1.56-52.53s-1.05-34.8-1.06-52.21c0-1.59-5.45.43-5.45 2zM286.63 52.38c0 34.32-.37 68.64.4 103 0 1.62 5.49-.44 5.45-2-.77-34.32-.41-68.63-.4-103 0-1.59-5.45.43-5.45 2zM287.51 277.16c0 38-.42 76.21-3.09 114.18l1.55-1.6c-15 10.26-34.91 11.21-52.58 11.89-22.22.85-45.06 1.91-66.35-5.7a73.65 73.65 0 01-14.3-6.71c-2.81-1.76-2.17-3.8-2.26-6.84q-.3-10-.55-20.08-.5-19-.91-38.06c-.37-16.52-1.06-33.05-1.1-49.58 0-1.6-5.46.43-5.45 2 0 20.1.87 40.21 1.33 60.3q.36 15.76.79 31.53.19 7.32.41 14.64c.08 2.62-.53 6.11 1.19 8.1 2 2.27 6.64 3.86 9.38 5.11a88.59 88.59 0 0012.42 4.52 121.47 121.47 0 0023.71 4.12c14.9 1.18 30 .34 44.87-.38 13.09-.63 26.45-2.38 38.79-7 4.49-1.67 9.25-3.61 13-6.71 2-1.66 1.66-3.12 1.83-5.73q.33-5.09.6-10.18c1.71-33.22 2.2-66.6 2.2-99.84 0-1.59-5.45.43-5.45 2z"/><path fill="#381860" d="M140.06 155.13c11 4.2 22.57 6.09 34.22 7.29a447.13 447.13 0 0045.3 2.54 253.49 253.49 0 0041.66-3.6c10.53-1.73 22.14-2.47 31.78-7.42 3.1-1.59 2.23-3.57-.95-1.94-9.27 4.77-21.1 5-31.23 6.74a221.07 221.07 0 01-42.57 2.91c-13.55-.25-27.15-1.13-40.63-2.56-11.11-1.18-22.16-3-32.64-7-1.62-.62-6.05 2.63-4.95 3.05z"/><path fill="#381860" d="M143.61 143.75c-6 2-4.73 11.36-4.85 16.23-.27 11.45 0 22.92.26 34.38q.82 40.41.87 80.87a.44.44 0 00.25.52c10.23 4.77 20.58 7.23 31.79 8.48a440.18 440.18 0 0046.72 2.74 221.33 221.33 0 0042.58-3.65c10.49-2 21.21-3.88 31.27-7.58.79-.29 3-1.22 3-2.3.67-22.57.26-45.19.3-67.77 0-13.49.54-27 .34-40.47-.07-4.84 1.1-15.88-3.26-19.49-1.19-1-6.22 2-4.95 3.05 1.78 1.48 1.94 5.06 2.19 7.15a131.6 131.6 0 01.6 15c0 13.53-.37 27.05-.37 40.58 0 21.3.34 42.65-.3 63.95l3-2.3c-7.93 2.92-16.36 4.49-24.62 6.13a218.07 218.07 0 01-34.2 4.24 356.42 356.42 0 01-37.41-.85c-10.85-.73-21.83-1.36-32.52-3.47a73.88 73.88 0 01-14-4.09c-1-.43-4.5-1.44-5-2.33s0-4.07 0-5.19c-.09-10.07-.25-20.14-.37-30.21-.19-17-.26-33.92-.59-50.88-.17-8.85-.33-17.7-.19-26.55.05-3.22.12-6.45.39-9.66.1-1.18.41-2.45.42-3.63 0-2.36 2-1.61-1.89-.34 2.37-.77 4.43-3.84.52-2.57zM59.23 126.48a163.85 163.85 0 0128.15 2.63c8.75 1.59 18.53 4.75 24.62 11.58 1.16 1.3 5.91-1.69 5.17-2.52-5.87-6.59-14.68-9.77-23.1-11.64a147.71 147.71 0 00-30.84-3.15c-1.42 0-5.76 3.11-4 3.12zM5.39 137.89c4.46-6.26 15.21-8.37 22.37-9.45a158.68 158.68 0 0125.9-1.94c1.42 0 5.77-3.09 4-3.12a142.3 142.3 0 00-33.54 3.18C15.91 128.45 5.54 132 .47 139.13c-1 1.45 4.08 0 4.92-1.24z"/><path fill="#381860" d="M.72 140.2c7.19 3.56 15.47 4.13 23.32 5a293.26 293.26 0 0031.95 2.18c19.74.17 40.87 1.66 59.26-6.87 3.06-1.42 2.17-3.29-.91-1.86-18 8.34-40.57 5.85-59.85 5.56a259.47 259.47 0 01-26.45-2.08c-7.61-.89-15.61-1.41-22.58-4.86-1.46-.72-5.89 2.36-4.74 2.93zM58.29 132.08c-.08-5.63.19-11.26.49-16.88.19-3.51 0-10.32 3.5-12.33l-3.5.9c1.34.6.17 10.09.11 11.49q-.46 9.51-.49 19c0 1.52 5.22-.41 5.23-1.94 0-7.29.34-14.56.61-21.85.08-2.21 1.46-9.36-1.58-9.74-4.24-.54-7.48 5.62-8.22 8.78-1.81 7.73-1.49 16.64-1.38 24.49 0 1.54 5.25-.42 5.23-1.94z"/><path fill="#381860" d="M.27 139.14c0 26.44 2.57 52.91 2 79.33 0 1.5 5.19-.39 5.23-1.94.59-26.42-2-52.88-2-79.33 0-1.53-5.23.41-5.23 1.94zM112.08 140.85c0 26-.28 52 .3 78 0 1.55 5.26-.43 5.23-1.94-.58-26-.31-52-.3-78 0-1.53-5.23.41-5.23 1.94zM112.75 311.11c0 28.82-.33 57.72-2.34 86.48l1.49-1.53c-11.18 7.62-26 8.29-39.14 8.79-17.2.66-35 1.51-51.38-4.73-3.13-1.19-7.62-2.59-10.1-5-1.49-1.41-1.15-2.83-1.22-4.92q-.22-7.4-.41-14.79-.38-14.46-.69-28.93c-.28-12.57-.8-25.14-.84-37.72 0-1.53-5.23.41-5.23 1.94 0 15.35.66 30.71 1 46.06q.29 12.66.64 25.33.13 5 .28 10.06c.06 2.1-.25 3.91 1 5.51 1.6 2 6.08 3.4 8.39 4.38a69.67 69.67 0 009 3.09 94.3 94.3 0 0018.31 3c11 .76 22.05.15 33-.39 10.36-.51 21-1.94 30.68-5.8a35.71 35.71 0 008.73-4.62c3-2.29 2-6.7 2.24-10.22 1.45-25.94 1.79-52 1.8-77.93 0-1.53-5.23.41-5.23 1.94z"/><path fill="#381860" d="M1.12 218.79c8.61 3.26 17.68 4.71 26.81 5.63a335.05 335.05 0 0035.13 1.84 200 200 0 0030.93-2.88c7.89-1.27 16.38-2 23.61-5.61 3-1.51 2.14-3.4-.91-1.86-6.91 3.48-15.71 3.67-23.24 5a168.52 168.52 0 01-31.84 2.21c-18.28-.32-38.42-.68-55.71-7.24-1.56-.59-5.8 2.53-4.74 2.93z"/><path fill="#381860" d="M4.36 209.6c-4.76 1.86-4.1 7.06-4.24 11.41-.28 8.88 0 17.79.15 26.67q.63 31 .68 62a.42.42 0 00.24.49 75.35 75.35 0 0024 6.43 330.94 330.94 0 0036 2.09c18.43.05 38.38-2.15 55.81-8.58.76-.28 2.83-1.17 2.86-2.2.5-17.17.19-34.39.23-51.56 0-10.25.43-20.52.25-30.77-.06-3.78.73-11.66-2.51-14.51-1.09-1-6 1.86-4.74 2.93 1.48 1.3 1.52 4.47 1.69 6.21.36 3.66.37 7.37.37 11 0 10.28-.28 20.56-.28 30.84 0 15.91.24 31.85-.23 47.75l2.86-2.2c-13.57 5-29.29 7.16-43.65 7.76-17.49.74-36.24.14-53.46-3.24A55.45 55.45 0 019.78 309c-3.79-1.58-3.62-1.48-3.66-5.34-.07-7.53-.19-15.06-.28-22.59-.15-13-.2-25.9-.45-38.86-.13-6.57-.25-13.15-.15-19.72 0-2.66.08-5.33.31-8a21.24 21.24 0 00.27-2.46c-.08-2.07 2-1.58-2 0 2.19-.86 4.18-3.9.5-2.47zM375.61 133.38a160.21 160.21 0 0127.46 2.57c8.53 1.54 18.07 4.64 24 11.3 1.13 1.27 5.77-1.65 5-2.46-5.68-6.41-14.27-9.55-22.48-11.41a144.09 144.09 0 00-30.07-3.09c-1.38 0-5.62 3-3.91 3zM323.09 144.49c4.35-6.1 14.83-8.16 21.82-9.22a154.78 154.78 0 0125.26-1.89c1.38 0 5.63-3 3.91-3a138.81 138.81 0 00-32.72 3.1c-8 1.84-18.12 5.31-23.07 12.26-1 1.42 4 0 4.8-1.21z"/><path fill="#381860" d="M318.54 146.75c7 3.47 15.09 4 22.75 4.93a286.06 286.06 0 0031.17 2.08c19.25.17 39.86 1.62 57.81-6.7 3-1.38 2.12-3.21-.89-1.82-17.56 8.14-39.58 5.71-58.38 5.42a253.1 253.1 0 01-25.8-2c-7.42-.87-15.23-1.37-22-4.74-1.42-.7-5.75 2.3-4.63 2.85zM374.69 138.83c-.07-5.66.17-11.34.51-17 .2-3.31.09-9.6 3.39-11.51l-3.41.88c1.32.63.16 10.11.09 11.39q-.45 9.18-.46 18.37c0 1.49 5.09-.4 5.1-1.89 0-7.09.33-14.15.59-21.22.08-2.11 1.41-9.23-1.53-9.59-3.86-.48-7.14 5.07-7.9 8-2 7.62-1.57 16.68-1.47 24.45 0 1.5 5.12-.41 5.1-1.89z"/><path fill="#381860" d="M318.09 145.72c0 25.79 2.51 51.61 1.93 77.38 0 1.46 5.07-.38 5.1-1.89.57-25.77-1.92-51.59-1.93-77.38 0-1.49-5.1.4-5.1 1.89zM427.16 147.38c0 25.36-.27 50.71.3 76.06 0 1.52 5.13-.42 5.1-1.89-.57-25.35-.3-50.7-.3-76.06 0-1.49-5.1.4-5.1 1.89zM427.81 313.46c0 28.11-.32 56.3-2.28 84.35l1.45-1.49c-11.08 7.56-25.82 8.11-38.83 8.6-16.32.62-33.07 1.33-48.68-4.35-3.13-1.14-8.25-2.7-10.64-5.12-1.37-1.39-1.12-2.49-1.18-4.52q-.22-7.32-.4-14.64-.37-14.18-.68-28.36c-.27-12.24-.78-24.48-.81-36.72 0-1.49-5.1.4-5.1 1.89 0 15.19.65 30.38 1 45.56q.29 12.4.63 24.8.13 4.88.28 9.76c.09 3-.26 3.89 2.4 5.58 19 12.06 44.11 10 65.57 8.92 9.58-.47 19.32-1.77 28.37-5.07a36.76 36.76 0 0010-5c3-2.31 2.07-6.63 2.27-10.18 1.41-25.25 1.74-50.57 1.75-75.86 0-1.49-5.1.4-5.1 1.89z"/><path fill="#381860" d="M318.92 223.38c18.37 7 40 7.3 59.42 7.28a190.91 190.91 0 0030.65-2.69c7.84-1.27 16.28-1.94 23.48-5.55 2.92-1.47 2.09-3.31-.89-1.82-7 3.51-15.91 3.68-23.54 5a162.31 162.31 0 01-31.38 2c-17.47-.38-36.63-.77-53.16-7-1.52-.58-5.66 2.46-4.63 2.85z"/><path fill="#381860" d="M322.08 214.45c-4.59 1.82-4 6.72-4.13 11-.29 8.62 0 17.26.13 25.88q.61 30.36.67 60.75a.41.41 0 00.24.48 74 74 0 0023.7 6.3 324.39 324.39 0 0034.73 2c18 .06 37.52-2.08 54.57-8.36.74-.27 2.76-1.14 2.79-2.15.49-16.76.18-33.56.22-50.33 0-10 .41-20 .25-30-.06-3.73.72-11.31-2.45-14.12-1.06-.94-5.81 1.81-4.63 2.85s1.41 3.85 1.59 5.44a101.23 101.23 0 01.41 11.46c0 10-.28 20.07-.28 30.1 0 15.49.23 31-.22 46.5l2.79-2.15c-13.74 5.06-29.68 7.18-44.23 7.63-17 .52-35.34.14-52-3.52a51.57 51.57 0 01-10-3.2c-1.54-.69-2-.79-2.47-2.23-.41-1.23 0-3.14 0-4.45-.08-7.32-.19-14.65-.27-22-.14-12.34-.2-24.67-.43-37-.12-6.3-.23-12.6-.12-18.9 0-2.33.08-4.67.28-7a21.37 21.37 0 00.31-2.72c-.11-1.92 2.05-1.43-2 .16 2.13-.84 4.07-3.82.49-2.4z"/></svg>