<svg id="Layer_2" data-name="Layer 2" xmlns="http://www.w3.org/2000/svg" viewBox="0 0 435.3 408.56"><title>candle</title><path d="M249.69,81.84a214.81,214.81,0,0,1,37.38,3.52c11.48,2.09,24.51,6.28,32.44,15.34,1.19,1.36,6.17-1.75,5.39-2.63-7.75-8.85-19.81-13-31-15.43a197.2,197.2,0,0,0-40-4c-1.48,0-6,3.24-4.18,3.25h0Z" transform="translate(-33.01 -48.62)" style="fill:#381860"/><path d="M177.36,97.5c5.82-8.4,20-11.39,29.55-12.91a204.83,204.83,0,0,1,35.42-2.73c1.48,0,6-3.22,4.18-3.25a191.7,191.7,0,0,0-43.08,4c-10.66,2.3-24.73,6.87-31.2,16.22-1.07,1.54,4.27,0,5.13-1.29h0Z" transform="translate(-33.01 -48.62)" style="fill:#381860"/><path d="M172.55,100c9.4,4.74,20.4,5.45,30.69,6.64a390.55,390.55,0,0,0,42,2.82c25.74,0.21,53.79,2.39,77.74-8.9,3.17-1.5,2.26-3.45-.95-1.94-23.47,11.06-52.85,7.85-78,7.53a354.84,354.84,0,0,1-36.62-2.76c-10-1.16-20.75-1.82-29.92-6.44-1.51-.76-6.15,2.45-4.95,3.05h0Z" transform="translate(-33.01 -48.62)" style="fill:#381860"/><path d="M247.16,89.94c-0.12-7.9.22-15.84,0.73-23.72,0.31-4.78.28-12.58,5-15.28l-3.65.94c1.64,0.49.29,13.58,0.21,15.23q-0.61,12.6-.64,25.2c0,1.59,5.45-.42,5.45-2,0-9.18.37-18.34,0.75-27.51,0.11-2.55,1.8-12.85-1.2-14.05-1.87-.75-5.68,2.45-6.83,3.63-2.21,2.26-3.08,5.43-3.65,8.46-1.89,10-1.74,21-1.58,31.14,0,1.61,5.48-.44,5.45-2h0Z" transform="translate(-33.01 -48.62)" style="fill:#381860"/><path d="M172,98.72c0,17.41.32,34.81,1.06,52.21s2,35,1.56,52.53c0,1.56,5.41-.41,5.45-2,0.41-17.55-.81-35-1.56-52.53s-1.05-34.8-1.06-52.21c0-1.59-5.45.43-5.45,2h0Z" transform="translate(-33.01 -48.62)" style="fill:#381860"/><path d="M319.64,101c0,34.32-.37,68.64.4,103,0,1.62,5.49-.44,5.45-2-0.77-34.32-.41-68.63-0.4-103,0-1.59-5.45.43-5.45,2h0Z" transform="translate(-33.01 -48.62)" style="fill:#381860"/><path d="M320.52,325.78c0,38-.42,76.21-3.09,114.18l1.55-1.6c-15,10.26-34.91,11.21-52.58,11.89-22.22.85-45.06,1.91-66.35-5.7a73.65,73.65,0,0,1-14.3-6.71c-2.81-1.76-2.17-3.8-2.26-6.84q-0.3-10-.55-20.08-0.5-19-.91-38.06c-0.37-16.52-1.06-33.05-1.1-49.58,0-1.6-5.46.43-5.45,2,0,20.1.87,40.21,1.33,60.3q0.36,15.76.79,31.53,0.19,7.32.41,14.64c0.08,2.62-.53,6.11,1.19,8.1,2,2.27,6.64,3.86,9.38,5.11A88.59,88.59,0,0,0,201,449.48a121.47,121.47,0,0,0,23.71,4.12c14.9,1.18,30,.34,44.87-0.38,13.09-.63,26.45-2.38,38.79-7,4.49-1.67,9.25-3.61,13-6.71,2-1.66,1.66-3.12,1.83-5.73q0.33-5.09.6-10.18C325.51,390.38,326,357,326,323.76c0-1.59-5.45.43-5.45,2h0Z" transform="translate(-33.01 -48.62)" style="fill:#381860"/><path d="M173.07,203.75c11,4.2,22.57,6.09,34.22,7.29a447.13,447.13,0,0,0,45.3,2.54,253.49,253.49,0,0,0,41.66-3.6c10.53-1.73,22.14-2.47,31.78-7.42,3.1-1.59,2.23-3.57-.95-1.94-9.27,4.77-21.1,5-31.23,6.74a221.07,221.07,0,0,1-42.57,2.91c-13.55-.25-27.15-1.13-40.63-2.56-11.11-1.18-22.16-3-32.64-7-1.62-.62-6.05,2.63-4.95,3.05h0Z" transform="translate(-33.01 -48.62)" style="fill:#381860"/><path d="M176.62,192.37c-6,2-4.73,11.36-4.85,16.23-0.27,11.45,0,22.92.26,34.38q0.82,40.41.87,80.87a0.44,0.44,0,0,0,.25.52c10.23,4.77,20.58,7.23,31.79,8.48a440.18,440.18,0,0,0,46.72,2.74,221.33,221.33,0,0,0,42.58-3.65c10.49-2,21.21-3.88,31.27-7.58,0.79-.29,3-1.22,3-2.3,0.67-22.57.26-45.19,0.3-67.77,0-13.49.54-27,.34-40.47-0.07-4.84,1.1-15.88-3.26-19.49-1.19-1-6.22,2-4.95,3.05,1.78,1.48,1.94,5.06,2.19,7.15a131.6,131.6,0,0,1,.6,15c0,13.53-.37,27.05-0.37,40.58,0,21.3.34,42.65-.3,63.95l3-2.3c-7.93,2.92-16.36,4.49-24.62,6.13a218.07,218.07,0,0,1-34.2,4.24,356.42,356.42,0,0,1-37.41-.85c-10.85-.73-21.83-1.36-32.52-3.47a73.88,73.88,0,0,1-14-4.09c-1-.43-4.5-1.44-5-2.33s0-4.07,0-5.19c-0.09-10.07-.25-20.14-0.37-30.21-0.19-17-.26-33.92-0.59-50.88-0.17-8.85-.33-17.7-0.19-26.55,0.05-3.22.12-6.45,0.39-9.66,0.1-1.18.41-2.45,0.42-3.63,0-2.36,2-1.61-1.89-.34,2.37-.77,4.43-3.84.52-2.57h0Z" transform="translate(-33.01 -48.62)" style="fill:#381860"/><path d="M92.24,175.1a163.85,163.85,0,0,1,28.15,2.63c8.75,1.59,18.53,4.75,24.62,11.58,1.16,1.3,5.91-1.69,5.17-2.52-5.87-6.59-14.68-9.77-23.1-11.64A147.71,147.71,0,0,0,96.24,172c-1.42,0-5.76,3.11-4,3.12h0Z" transform="translate(-33.01 -48.62)" style="fill:#381860"/><path d="M38.4,186.51c4.46-6.26,15.21-8.37,22.37-9.45a158.68,158.68,0,0,1,25.9-1.94c1.42,0,5.77-3.09,4-3.12a142.3,142.3,0,0,0-33.54,3.18c-8.21,1.89-18.58,5.44-23.65,12.57-1,1.45,4.08,0,4.92-1.24h0Z" transform="translate(-33.01 -48.62)" style="fill:#381860"/><path d="M33.73,188.82c7.19,3.56,15.47,4.13,23.32,5A293.26,293.26,0,0,0,89,196c19.74,0.17,40.87,1.66,59.26-6.87,3.06-1.42,2.17-3.29-.91-1.86-18,8.34-40.57,5.85-59.85,5.56a259.47,259.47,0,0,1-26.45-2.08c-7.61-.89-15.61-1.41-22.58-4.86-1.46-.72-5.89,2.36-4.74,2.93h0Z" transform="translate(-33.01 -48.62)" style="fill:#381860"/><path d="M91.3,180.7c-0.08-5.63.19-11.26,0.49-16.88,0.19-3.51,0-10.32,3.5-12.33l-3.5.9c1.34,0.6.17,10.09,0.11,11.49q-0.46,9.51-.49,19c0,1.52,5.22-.41,5.23-1.94,0-7.29.34-14.56,0.61-21.85,0.08-2.21,1.46-9.36-1.58-9.74-4.24-.54-7.48,5.62-8.22,8.78-1.81,7.73-1.49,16.64-1.38,24.49,0,1.54,5.25-.42,5.23-1.94h0Z" transform="translate(-33.01 -48.62)" style="fill:#381860"/><path d="M33.28,187.76c0,26.44,2.57,52.91,2,79.33,0,1.5,5.19-.39,5.23-1.94,0.59-26.42-2-52.88-2-79.33,0-1.53-5.23.41-5.23,1.94h0Z" transform="translate(-33.01 -48.62)" style="fill:#381860"/><path d="M145.09,189.47c0,26-.28,52,0.3,78,0,1.55,5.26-.43,5.23-1.94-0.58-26-.31-52-0.3-78,0-1.53-5.23.41-5.23,1.94h0Z" transform="translate(-33.01 -48.62)" style="fill:#381860"/><path d="M145.76,359.73c0,28.82-.33,57.72-2.34,86.48l1.49-1.53c-11.18,7.62-26,8.29-39.14,8.79-17.2.66-35,1.51-51.38-4.73-3.13-1.19-7.62-2.59-10.1-5-1.49-1.41-1.15-2.83-1.22-4.92q-0.22-7.4-.41-14.79-0.38-14.46-.69-28.93c-0.28-12.57-.8-25.14-0.84-37.72,0-1.53-5.23.41-5.23,1.94,0,15.35.66,30.71,1,46.06q0.29,12.66.64,25.33,0.13,5,.28,10.06c0.06,2.1-.25,3.91,1,5.51,1.6,2,6.08,3.4,8.39,4.38a69.67,69.67,0,0,0,9,3.09,94.3,94.3,0,0,0,18.31,3c11,0.76,22.05.15,33-.39,10.36-.51,21-1.94,30.68-5.8a35.71,35.71,0,0,0,8.73-4.62c3-2.29,2-6.7,2.24-10.22,1.45-25.94,1.79-52,1.8-77.93,0-1.53-5.23.41-5.23,1.94h0Z" transform="translate(-33.01 -48.62)" style="fill:#381860"/><path d="M34.13,267.41c8.61,3.26,17.68,4.71,26.81,5.63a335.05,335.05,0,0,0,35.13,1.84A200,200,0,0,0,127,272c7.89-1.27,16.38-2,23.61-5.61,3-1.51,2.14-3.4-.91-1.86-6.91,3.48-15.71,3.67-23.24,5a168.52,168.52,0,0,1-31.84,2.21c-18.28-.32-38.42-0.68-55.71-7.24-1.56-.59-5.8,2.53-4.74,2.93h0Z" transform="translate(-33.01 -48.62)" style="fill:#381860"/><path d="M37.37,258.22c-4.76,1.86-4.1,7.06-4.24,11.41-0.28,8.88,0,17.79.15,26.67q0.63,31,.68,62a0.42,0.42,0,0,0,.24.49,75.35,75.35,0,0,0,24,6.43,330.94,330.94,0,0,0,36,2.09c18.43,0.05,38.38-2.15,55.81-8.58,0.76-.28,2.83-1.17,2.86-2.2,0.5-17.17.19-34.39,0.23-51.56,0-10.25.43-20.52,0.25-30.77-0.06-3.78.73-11.66-2.51-14.51-1.09-1-6,1.86-4.74,2.93,1.48,1.3,1.52,4.47,1.69,6.21,0.36,3.66.37,7.37,0.37,11,0,10.28-.28,20.56-0.28,30.84,0,15.91.24,31.85-.23,47.75l2.86-2.2c-13.57,5-29.29,7.16-43.65,7.76-17.49.74-36.24,0.14-53.46-3.24a55.45,55.45,0,0,1-10.61-3.12c-3.79-1.58-3.62-1.48-3.66-5.34-0.07-7.53-.19-15.06-0.28-22.59-0.15-13-.2-25.9-0.45-38.86-0.13-6.57-.25-13.15-0.15-19.72,0-2.66.08-5.33,0.31-8a21.24,21.24,0,0,0,.27-2.46c-0.08-2.07,2-1.58-2,0,2.19-.86,4.18-3.9.5-2.47h0Z" transform="translate(-33.01 -48.62)" style="fill:#381860"/><path d="M408.62,182a160.21,160.21,0,0,1,27.46,2.57c8.53,1.54,18.07,4.64,24,11.3,1.13,1.27,5.77-1.65,5-2.46C459.4,187,450.81,183.86,442.6,182a144.09,144.09,0,0,0-30.07-3.09c-1.38,0-5.62,3-3.91,3h0Z" transform="translate(-33.01 -48.62)" style="fill:#381860"/><path d="M356.1,193.11c4.35-6.1,14.83-8.16,21.82-9.22A154.78,154.78,0,0,1,403.18,182c1.38,0,5.63-3,3.91-3a138.81,138.81,0,0,0-32.72,3.1c-8,1.84-18.12,5.31-23.07,12.26-1,1.42,4,0,4.8-1.21h0Z" transform="translate(-33.01 -48.62)" style="fill:#381860"/><path d="M351.55,195.37c7,3.47,15.09,4,22.75,4.93a286.06,286.06,0,0,0,31.17,2.08c19.25,0.17,39.86,1.62,57.81-6.7,3-1.38,2.12-3.21-.89-1.82-17.56,8.14-39.58,5.71-58.38,5.42a253.1,253.1,0,0,1-25.8-2c-7.42-.87-15.23-1.37-22-4.74-1.42-.7-5.75,2.3-4.63,2.85h0Z" transform="translate(-33.01 -48.62)" style="fill:#381860"/><path d="M407.7,187.45c-0.07-5.66.17-11.34,0.51-17,0.2-3.31.09-9.6,3.39-11.51l-3.41.88c1.32,0.63.16,10.11,0.09,11.39q-0.45,9.18-.46,18.37c0,1.49,5.09-.4,5.1-1.89,0-7.09.33-14.15,0.59-21.22,0.08-2.11,1.41-9.23-1.53-9.59-3.86-.48-7.14,5.07-7.9,8-2,7.62-1.57,16.68-1.47,24.45,0,1.5,5.12-.41,5.1-1.89h0Z" transform="translate(-33.01 -48.62)" style="fill:#381860"/><path d="M351.1,194.34c0,25.79,2.51,51.61,1.93,77.38,0,1.46,5.07-.38,5.1-1.89,0.57-25.77-1.92-51.59-1.93-77.38,0-1.49-5.1.4-5.1,1.89h0Z" transform="translate(-33.01 -48.62)" style="fill:#381860"/><path d="M460.17,196c0,25.36-.27,50.71.3,76.06,0,1.52,5.13-.42,5.1-1.89-0.57-25.35-.3-50.7-0.3-76.06,0-1.49-5.1.4-5.1,1.89h0Z" transform="translate(-33.01 -48.62)" style="fill:#381860"/><path d="M460.82,362.08c0,28.11-.32,56.3-2.28,84.35l1.45-1.49c-11.08,7.56-25.82,8.11-38.83,8.6-16.32.62-33.07,1.33-48.68-4.35-3.13-1.14-8.25-2.7-10.64-5.12-1.37-1.39-1.12-2.49-1.18-4.52q-0.22-7.32-.4-14.64-0.37-14.18-.68-28.36c-0.27-12.24-.78-24.48-0.81-36.72,0-1.49-5.1.4-5.1,1.89,0,15.19.65,30.38,1,45.56q0.29,12.4.63,24.8,0.13,4.88.28,9.76c0.09,3-.26,3.89,2.4,5.58,19,12.06,44.11,10,65.57,8.92,9.58-.47,19.32-1.77,28.37-5.07a36.76,36.76,0,0,0,10-5c3-2.31,2.07-6.63,2.27-10.18,1.41-25.25,1.74-50.57,1.75-75.86,0-1.49-5.1.4-5.1,1.89h0Z" transform="translate(-33.01 -48.62)" style="fill:#381860"/><path d="M351.93,272c18.37,7,40,7.3,59.42,7.28A190.91,190.91,0,0,0,442,276.59c7.84-1.27,16.28-1.94,23.48-5.55,2.92-1.47,2.09-3.31-.89-1.82-7,3.51-15.91,3.68-23.54,5a162.31,162.31,0,0,1-31.38,2c-17.47-.38-36.63-0.77-53.16-7-1.52-.58-5.66,2.46-4.63,2.85h0Z" transform="translate(-33.01 -48.62)" style="fill:#381860"/><path d="M355.09,263.07c-4.59,1.82-4,6.72-4.13,11-0.29,8.62,0,17.26.13,25.88q0.61,30.36.67,60.75a0.41,0.41,0,0,0,.24.48,74,74,0,0,0,23.7,6.3,324.39,324.39,0,0,0,34.73,2c18,0.06,37.52-2.08,54.57-8.36,0.74-.27,2.76-1.14,2.79-2.15,0.49-16.76.18-33.56,0.22-50.33,0-10,.41-20,0.25-30-0.06-3.73.72-11.31-2.45-14.12-1.06-.94-5.81,1.81-4.63,2.85s1.41,3.85,1.59,5.44a101.23,101.23,0,0,1,.41,11.46c0,10-.28,20.07-0.28,30.1,0,15.49.23,31-.22,46.5l2.79-2.15c-13.74,5.06-29.68,7.18-44.23,7.63-17,.52-35.34.14-52-3.52a51.57,51.57,0,0,1-10-3.2c-1.54-.69-2-0.79-2.47-2.23-0.41-1.23,0-3.14,0-4.45-0.08-7.32-.19-14.65-0.27-22-0.14-12.34-.2-24.67-0.43-37-0.12-6.3-.23-12.6-0.12-18.9,0-2.33.08-4.67,0.28-7a21.37,21.37,0,0,0,.31-2.72c-0.11-1.92,2.05-1.43-2,.16,2.13-.84,4.07-3.82.49-2.4h0Z" transform="translate(-33.01 -48.62)" style="fill:#381860"/></svg>