<svg xmlns="http://www.w3.org/2000/svg" viewBox="0 0 267.62 486.81"><defs/><path fill="#382360" d="M96.64 68.92c1.24 5.15 0 9.18-4.69 11.81a62.39 62.39 0 01-12.75 5.85c-.92.27-3.28 1-3.52 2.15s.59 1.16 1.62.86a72.74 72.74 0 0018.77-8.68c5.33-3.46 7.46-8.39 6-14.61-.29-1.2-5.81.89-5.39 2.63zM60.53 133.28c-4.37 5.59-10.19 7.28-16.66 9.31a69.22 69.22 0 00-14.31 6.13c-.33.19-2.33 1.63-1.3 2.11 8.4 3.91 12.37 13.67 17.22 21a134.66 134.66 0 0013.36 16.59c1 1.12 3.58-.51 4.47-1.14 8-5.77 13.8 1.61 15.5 9 1.44 6.28 1.3 21.89-9.2 16-3.72-2.1-6.46-5.66-8.69-9.22-2.35-3.76-5.31-5.89-8.69-8.76-6.69-5.7-14.08-9.86-21.24-14.88a85.26 85.26 0 01-23.52-25.5c-6.85-11.22 4.72-21.9 11.65-29.58 9.21-10.2 18.46-21.32 31.39-26.66 2.26-.93 4.33-4.15.52-2.57-7 2.9-13.25 6.26-18.73 11.54s-10.87 10.76-16.08 16.37-10.57 11.32-14.31 17.9c-3.56 6.25-1.78 12.95 2.25 18.41 3.56 4.83 6.74 9.79 11 14.06 7.6 7.58 17 12.22 25.5 18.52a112.26 112.26 0 0112 9.84c4 3.91 5.83 9.28 10.54 12.62 5.59 4 12.42 2.73 17.35-1.76 6.61-6 6-19.58.53-26.22-2.06-2.51-4.73-4.83-8.08-4.9-4.83-.09-9.5 2.66-13.28 5.38l4.47-1.14a134.92 134.92 0 01-14.2-17.87c-4.63-7.14-8.66-16.31-16.82-20.11l-1.3 2.11c11.58-6.74 24.95-6.64 33.75-17.91 1.11-1.42-4.2.1-5.13 1.29zM124.32 194.52h-13.74c-1.16 0-4.81 1-4.82 2.64 0 6.63-.19 13.5.62 20.09a.7.7 0 00.61.31c3.34.43 6.93-.13 10.29-.24s6.78-.17 10.16-.36c1.09-.06 4.24-1.21 4.3-2.63a180.24 180.24 0 00-.55-19.12.58.58 0 00-.64-.62q-3.12 0-6.23-.07a5.93 5.93 0 00-3.89 1.5c-.37.36-1.74 1.77-.32 1.8s4.3-.55 5.48.07c.61.32.36.62.27 1.88-.08 1.09 0 2.22 0 3.31 0 4.43.55 8.88.36 13.31l4.3-2.63c-2.69.16-5.38.21-8.07.3l-5 .16c-1.15 0-4.58.75-5.43.2-1.19-.78-.7-6.7-.75-8.38q-.16-5.43-.16-10.87l-4.68 2.6h13.74a6 6 0 003.86-1.45c.33-.3 1.72-1.79.29-1.8zM113.87 101.84c-3.59.94-8.33 3.28-8 7.73.45 5.34 7.57 7.42 11.91 5.94 3.61-1.23 8.76-5.24 7.11-9.62-1.72-4.57-6.9-5-11.07-4.06-1 .24-3.15 1-3.52 2.15s.72 1.06 1.62.86c2.07-.48 4.77-.12 6.28 1.49 1.37 1.46 2.43 4.34.6 5.92-1.6 1.38-4.9-.74-6.13-2.11a4.62 4.62 0 01-1.31-3.78 4.39 4.39 0 01.71-1.75q-1.49.66-.14.24c1-.27 3.15-1 3.52-2.15s-.68-1.09-1.58-.86z"/><path fill="#382360" d="M107.67 110.02c-6.77 3-9.77 9.63-9.86 16.84a30 30 0 001.83 10.8c.63 1.74 1.4 5.11 3.14 6.14 4.07 2.41 8.38-4.88 9.85-7.36a38.13 38.13 0 005.15-23c-.15-1.69-5.58.51-5.45 2a37.79 37.79 0 01-1.24 14.05 36.57 36.57 0 01-2.82 6.86c-.73 1.37-2.21 4.8-3.5 5.64l3.26-1c-2.21-.49-4.09-9.08-4.36-10.74-.87-5.27-1-15.57 5-18.26 3.21-1.44 2.28-3.39-.95-1.94z"/><path fill="#382360" d="M119.43 112.68c9.28 6.69 6.77 21.88 4 31.31l5.42-2.33a32.93 32.93 0 01-9.52-28.35c.19-1.4-5.22.34-5.45 2a33.54 33.54 0 009.58 29c1.25 1.23 5-.92 5.42-2.33 2.93-10 5.24-25.33-4.49-32.35-1.29-.93-6.22 2.13-4.95 3.05zM112.43 103.28c-10-2.72-22.51-5.07-30-12.8-1.45-1.48-2.13-3-4.25-3.71s-4.49-.27-6.53 0c-5.17.82-9.87 3-14.91 4.24-3 .74-7.19 1.89-8.7 4.91-1.88 3.79 2.09 6.64 4.78 8.59 7 5.06 14 6.38 22.4 7.91 10.64 1.94 21.18 2.44 31.84.06 1.68-.38 5.65-3.84 1.9-3-10.12 2.26-20.07 1.43-30.12-.41-8.76-1.61-16.65-3.18-23.43-9.45-2-1.81-3.64-4.21-.58-5.6 1.82-.83 4.16-1 6.08-1.74 3.32-1.22 6.86-2.65 10.48-2.57s4.42 2.32 6.81 4.46c7.89 7.09 19.4 9.41 29.32 12.11 1.7.46 5.92-2.79 4.95-3.05z"/><path fill="#382360" d="M121.43 105.64c10.62-3.11 21.62-5.38 30.54-12.31 2.4-1.87 4.07-3.91 7.34-3.66a34.85 34.85 0 018.37 2c3.43 1.18 10.32 2.8 10.89 7 .67 4.94-6.89 7.46-10.55 8.9-4.21 1.66-8.63 2.08-13.11 2.49-10.27.93-20 1.24-30.05-1.79-1.68-.51-6 2.75-4.95 3.05 11.81 3.57 23.62 3 35.72 1.58a49 49 0 0014.26-3.75c4.32-1.89 10.13-4.4 13-8.41 6.86-9.62-15.45-14.61-21.34-14.58-5.23 0-9.22 3.8-13.1 6.78-7.21 5.53-16.54 7.15-25.09 9.65-1.61.47-5.57 4.08-1.9 3z"/><path fill="#382360" d="M127.43 68.25c.1 5.42 2.72 13 7.38 16.22 5.12 3.54 12.73 4.73 18.64 6.14 1.44.34 6.22-2.76 4.18-3.25-5.47-1.3-12.41-2.55-17.32-5.63-4.52-2.83-7.33-10.41-7.43-15.49 0-1.62-5.48.44-5.45 2z"/><path fill="#382360" d="M87.33 46.02c1 4.18 2.87 7.8 4.28 11.8a46.15 46.15 0 004 9.39c4.4 7.21 11.21 11.1 19.93 10.17 9.21-1 15.76-6.88 19.49-15.11a96.07 96.07 0 006.88-19.16c.28-1.25-5.08.33-5.45 2a69.77 69.77 0 01-5 14.3c-1.56 3.44-2.69 7-5 10-4 5.47-11.11 5.72-17 3.25-5.61-2.37-9.29-8-11.4-13.58a142.12 142.12 0 01-5.42-15.77c-.3-1.2-5.82.9-5.39 2.63zM91.1 20.36c.35-6.67 4-13.46 10.56-15.68 5.53-1.88 12.34-1.88 18-.84 10.35 1.87 15.28 9.63 16.76 19.66.16 1.07 5.66-.79 5.39-2.63-.91-6.17-3.43-13.34-8.83-17C127.84.34 120.44-.06 114.45.08c-13.44.32-28 7.16-28.85 22.35-.08 1.52 5.36-.39 5.45-2zM179.24 98.74c14.47 3.65 27.15 16.32 37.41 26.43 6.12 6 12.55 12.3 17.78 19.13 5.11 6.68-.47 12.93-5.34 17.74-3.59 3.55-8 6.17-12.18 9-5.08 3.42-10.11 6.93-15.21 10.33a137 137 0 00-15 11.16c-1.93 1.71-4.15 3.53-5.53 5.75-2.23 3.57-3.63 7.18-6.25 10.59a6.4 6.4 0 01-1.07 1.12c1.89-1.35-.51-.37-1.68-.3a15.47 15.47 0 01-7.67-1.35c-2.94-1.51-3.21-4.87-3.35-7.92a30.89 30.89 0 01.84-9.21c1.32-4.87 6.55-9.61 10.84-4.41 1 1.27 4.13-.76 4.94-1.56 4.17-4.08 6.79-10 10.16-14.7a105.3 105.3 0 018.32-10.17c3.82-4.16 8.54-9.54 14.13-11.22.56-.17 4.9-2.14 3.43-3-12.4-7.45-27.94-6.67-39.83-15-1.32-.92-6.22 2.16-4.95 3.05 11.91 8.33 27.43 7.53 39.83 15l3.43-3c-10.89 3.27-19.18 12.61-26.06 21.21-4.57 5.71-7.77 13.3-12.94 18.37l4.94-1.56c-4.73-5.72-12.37-2.44-17.29 1.71s-5.62 11.62-5.18 17.66c.17 2.38.44 5.35 2.35 7 2.85 2.53 8.44 2.68 12 2.28 6.42-.72 10.14-4.64 13.39-10 1.42-2.33 2.23-5.11 3.94-7.25a35.22 35.22 0 015.1-4.72 135 135 0 0111.55-8.36c6.78-4.52 13.5-9.13 20.22-13.72 5.06-3.46 9.71-7 13.6-11.83 2.11-2.61 4.21-5.79 4.24-9.28 0-4.68-4-8-6.83-11.21a248.55 248.55 0 00-27-26.49c-7.34-6.05-15.46-12.13-24.83-14.49-1.43-.36-6.23 2.73-4.18 3.25z"/><path fill="#382360" d="M111.3 39.49c2.35 1 3.92 3.23 5.78 4.9a17.5 17.5 0 007.63 3.76 18.26 18.26 0 0015.2-3c8-5.73 8.26-23.8-2.4-26.87-5.34-1.54-11 1.18-15.92 3-3.91 1.42-7 1.95-11.09.71-3.33-1-6.43-2.66-9.83-3.44a16.59 16.59 0 00-14.62 3.7c-4.42 4-4.56 10.45-3.86 16 1 7.65 7.81 11.14 15.05 10.31a25.5 25.5 0 009.42-2.94 17.25 17.25 0 003.09-2.31c1.07-1 2.51-3.45 3.76-4 2.24-.95 4.32-4.18.52-2.57-4.58 1.94-7 6.76-11.75 8.1-9 2.55-14.73-3.64-14.8-12 0-2.79-.37-6.87 1.44-9.25 3-3.95 8.23-1.76 11.91-.36 4.5 1.72 8.76 3.39 13.65 2.56s9.45-3.88 14.47-4.54c7.64-1 10.66 5.58 10.86 12 .08 2.45.19 5.29-.61 7.64-1.74 5.14-8 4.91-12.27 3.32-4.45-1.66-6.51-6-10.68-7.8-1.58-.65-6.11 2.61-4.95 3.08z"/><path fill="#382360" d="M118.97 34.24c2.33 1.59 5.61 3.06 8.46 2.34a19 19 0 007.33-4.33c.47-.4 1.36-1.12.7-1.7a7.67 7.67 0 00-3.82-2.26 10.46 10.46 0 00-4.87 0 14.78 14.78 0 00-7.91 5.09c-.84 1.09 1.1 1 1.62.86a6.3 6.3 0 003.52-2.15 2.19 2.19 0 012.09-.76c2 .23 2.94 1 4.42 2.29l.7-1.7c-.36.31-.72.61-1.1.9l-.81.61c-1 .74-.38 0-.09.09a14.41 14.41 0 01-5.3-2.3c-1.32-.94-6.21 2.16-4.94 3.02zM105.22 32.13c-1.31.89-2.79 1.75-4.3 1a18.05 18.05 0 01-3.59-2.58l-.7 1.7c.35-.31.67-.62 1-.94-.3.29-.85.11-.09.07a5.67 5.67 0 012.91.24 7.78 7.78 0 013.25 2.4c1.06 1.39 6.17-1.61 5.39-2.63a8.48 8.48 0 00-6.66-3.37 13.89 13.89 0 00-9.4 3.91c-.46.4-1.37 1.12-.7 1.7 1.67 1.45 3.7 3.21 6 3.18 3.11 0 6.64-1.75 9.17-3.48.62-.42 2-1.29 1.3-2.11s-3.08.57-3.58.91zM128.43 279.87c-.72 4.34-.3 8.75.13 13.1.69 6.92 1.29 13.86 2 20.78a85.91 85.91 0 004.33 18.6c1.3 3.85 3.74 7.87 4.61 11.8.76 3.46-1.34 8.58-1.92 12.22a66.38 66.38 0 00-.91 16.62 136.67 136.67 0 009.18 36.67c2.7 6.91 5.72 14.19 5.59 21.74-.08 4.84-2.29 8-3.75 12.32-1.09 3.22-2 8.37.19 11.37 2.6 3.63 9.69 4.05 13.67 5.33 6 1.91 9.1 6 12.51 11 2.94 4.31 6.31 10 11.92 10.9 9.29 1.51 16.91-7.4 17.94-15.9.67-5.53-2.83-8.34-7-11.36a108.7 108.7 0 01-15-12.66c-2.91-3.05-7.08-6.67-7-11.15.09-3.89.72-7.84 1.17-11.7 2.38-20.18 6.4-40.18 3.71-60.57a84.72 84.72 0 00-1.93-10c-.84-3.26-2.59-6.82-2.95-10.13-.25-2.3.75-4.74 1.3-7a221.67 221.67 0 005.44-30.31c1-11-.49-22.2-1.81-33.17a215.81 215.81 0 00-3.35-22.21 172.37 172.37 0 00-10.11-31c-1.46-3.31-3.93-6.4-5.22-9.64-1.11-2.78-.92-7.16-.19-10.09 4.28-17.13 10.4-33.49 12.1-51.25a63.76 63.76 0 00.08-12.77c-.11-1-5.59.75-5.39 2.63 1 9.68-.89 19.7-2.87 29.14-1.87 8.87-4.22 17.63-6.85 26.3-1.83 6-3.4 10-2.63 16.43.37 3.09 2.22 5 3.63 7.73a110.69 110.69 0 015.75 13.8c6.18 17.31 8.86 34.7 10.71 52.89a123.2 123.2 0 01-.45 32.26c-1.33 8.48-3.14 16.9-5.24 25.23-.78 3.07 0 4.67 1 7.92a103.14 103.14 0 014.19 21.67 144.68 144.68 0 01-1.32 30.94c-1.2 8.49-2.33 17-3.29 25.51a90.94 90.94 0 00-.95 10.09c0 4.09 3.42 7.17 6 10a98.89 98.89 0 0012.63 11.31c4.33 3.36 10.86 6.27 10.42 12.59-.42 6-4.65 14.56-11.63 9.89-5.48-3.67-7.93-10.83-12.38-15.51-3.15-3.32-7-4.54-11.27-5.78-5.34-1.55-11.17-2-11.15-8.75 0-3.77 1.41-6.55 2.94-9.82 2.23-4.73 2.13-10.17 1.2-15.22-1.34-7.29-4.61-14-7-20.94a148.73 148.73 0 01-5.6-20.87 68.91 68.91 0 01-1.51-19.23c.29-3.36.8-6.71 1.4-10 .45-2.52 1.62-5.48 1.64-8 0-2.8-1.85-5.64-2.88-8.31a109 109 0 01-5.37-17.85c-1.49-7.48-1.69-15.28-2.51-22.87-.59-5.48-1.42-11.13-.51-16.63.22-1.35-5.17.34-5.45 2zM60.38 133.65c1.66 20.37 8.44 40.39 16.61 59a14.35 14.35 0 011.47 4.31 46.71 46.71 0 010 12.47c-.57 3-2.27 6.16-3.2 9.14q-2.39 7.6-4.21 15.37c-3 12.56-4 24.75-4.75 37.56-.49 8.28-1.09 16.3-.45 24.63a206.66 206.66 0 004.19 27.43c1 4.77 2.91 9.16 4.29 13.81 2.07 7 .29 13.91-1.31 20.81-3.11 13.4-4.12 26.65-1.61 40.26 2.26 12.26 8.29 26.19 5.76 38.83-1.17 5.88-6.51 9.47-10.56 13.36-3.86 3.7-8.33 5.91-12.39 9.26-6.5 5.37-4.45 14.3-.72 20.9 4.7 8.31 13.44 7.15 20.12 1.63 3.48-2.87 5.51-6.6 7.8-10.4 3.73-6.18 7.88-10.24 14.67-12.83 8.58-3.28 9.94-11.2 6-19-2.35-4.58-2-8.11-.91-13 1-4.53 1.63-9.13 2.78-13.64 2.87-11.22 6.72-22.18 9.47-33.44 2-8.12 1.9-15 1-23.28-.72-6.57-3-12.7-1.51-19.33 1.63-7.49 4.09-14.65 5.29-22.26a152.42 152.42 0 001.67-22.42c0-5 .24-10.29-.82-15.2-.25-1.17-5.78.86-5.39 2.63 2.21 10.19 1 22.39-.28 32.62a130.19 130.19 0 01-3.59 18.44c-1.56 5.71-3.81 11.37-2.73 17.39 1.35 7.58 3.08 15.24 2.82 23-.29 8.43-3.63 17.2-6 25.21-2.59 8.74-5.56 17.51-7.07 26.52-.75 4.47-2.77 9.57-2.16 14.16.48 3.62 3.16 6.41 4 9.94.66 2.72.79 7.4-2 9.08-1.28.77-3.25 1-4.63 1.64a32.52 32.52 0 00-11.93 9.61c-2.78 3.49-4.56 7.56-7.19 11.12-5.9 8-12 4-15-3-1.48-3.37-3-7.91-2.36-11.66.86-5.15 7.47-7 11.1-9.9a126.67 126.67 0 009.97-9.4c3.79-3.79 6-7.49 6.23-12.93.49-11.84-3.48-23.09-5.75-34.56a93.47 93.47 0 011-39.69c1.25-5.39 2.88-11 2.79-16.55-.09-5.76-3-11-4.52-16.4a181.28 181.28 0 01-4.64-26.48c-1.11-9.39-.76-18.62-.08-28 .71-9.93 1.07-19.6 2.94-29.44a199.1 199.1 0 018.18-30.49c1.85-5.11 2.35-13 .63-18.2-2.47-7.51-6.18-14.69-8.75-22.21-4.25-12.43-7.72-25.29-8.79-38.42-.14-1.68-5.58.5-5.45 2z"/><path fill="#382360" d="M126.98 202.09c9.48-.12 20.25-.53 29.44-3 1.64-.44 5.6-4 1.9-3-4.15 1.11-8.78 1.23-13 1.65-4.68.46-9.42 1-14.13 1.09a5.83 5.83 0 00-3.86 1.45c-.31.33-1.78 1.82-.32 1.8zM126.93 211.67c10-.09 21.07-.57 30.73-3.25 1.63-.45 5.59-4 1.9-3-8.91 2.47-19.24 2.93-28.46 3a5.81 5.81 0 00-3.86 1.45c-.31.34-1.78 1.81-.32 1.8zM110.06 198.82a136.9 136.9 0 01-25.85-2.22c-1.47-.26-6.19 2.9-4.18 3.25a141.91 141.91 0 0026.88 2.2c1.43 0 6.18-3.29 3.14-3.23zM110.81 208.92a209.43 209.43 0 01-27.55-2.12c-1.47-.21-6.16 3-4.18 3.25a209.44 209.44 0 0027.55 2.12c1.48 0 6-3.24 4.18-3.25zM73.74 367.79c11.08-4.19 27.18-1.85 35.2 7.46 1.18 1.36 6.17-1.73 5.39-2.63-9.38-10.89-27.34-12.22-40.07-7.4-2.3.87-4.37 4-.52 2.57zM142.98 373.25c3.49-5.39 9.25-5.85 15.08-6.43a25.27 25.27 0 0117.46 4.2c1.34.91 6.22-2.19 4.95-3.05-7.42-5-15.23-4.94-23.76-3.81-7.61 1-14.54 3.72-18.85 10.4-1 1.61 4.31 0 5.13-1.29zM172.6 250.02c-17.58.54-32.32 16.19-44.32 27.37-1.24 1.16 3.84 4.09 4.95 3.05 11.65-10.86 26.44-26.65 43.55-27.17 1.84-.06-2.66-3.3-4.18-3.25zM180.78 285.9c14.79-2.07 23.15-15.48 33.22-25 9.74-9.16 20.91-18 34.33-20.44a119.48 119.48 0 0112.47-1.24c1.76-.14 4.86-.07 6.12-1.63 2.51-3.09-2.56-10.28-4.33-12.73-6.57-9.1-16.92-14.25-26.8-18.95-11.79-5.61-23.47-11.4-23.93-26.1-.05-1.59-5.5-3.6-5.45-2 .75 23.88 28.95 27.23 44.25 38.93 4.81 3.68 9.17 8.82 10.94 14.72.78 2.6.38 3.72-2.34 4.26-3.87.77-8 .49-11.89 1-13.72 1.8-23.23 8.78-33.65 17.19-11.79 9.51-21 26.45-37.12 28.71-2 .27 2.67 3.46 4.18 3.25zM68.43 251.56c18 2.28 32.77 17.17 45.41 28.91 1.09 1 6.21-1.88 4.95-3.05-12.94-12-27.81-26.78-46.18-29.11-1.48-.19-6.15 3-4.18 3.25z"/><path fill="#382360" d="M114.65 280.57a38.68 38.68 0 0014-.25 6.33 6.33 0 003.81-1.86c.58-.77.63-1.6-.67-1.37a35.54 35.54 0 01-13 .23c-1.46-.28-6.2 2.86-4.18 3.25z"/></svg>