<svg xmlns="http://www.w3.org/2000/svg" data-name="Layer 2" viewBox="0 0 487.28 481.49"><defs/><path fill="#381860" d="M318.79 425.9c-59.31 5.42-117.22 19.24-173.63 38.29a366.3 366.3 0 00-37.32 14.43h3.49c-4.23-64-17-127.2-29.87-189.88-4.16-20.3-7.8-40.75-12.33-61a884.78 884.78 0 00-24.38-86c-5.84-17.55-12.14-35-19.2-52.06-3.2-7.75-6.56-15.44-10.18-23q-2.61-5.47-5.42-10.89c-1.34-2.54-4.77-6.49-3.65-9.3l-5.26 2.92c8.93 1 17.85-1 26.42-3.34 9.79-2.7 19.41-5.65 29.32-7.91 23.2-5.31 46.42-10.55 69.77-15.15C173.48 13.79 221.13 6.37 269 4.18q8.54-.39 17.09-.54c1.84 0 7.21-1.07 8.88 0a9.65 9.65 0 01.8 1.53c1.66 2.21 2.66 5.35 3.77 7.86 4 9 7.52 18.18 11 27.37 10.29 27.05 19.8 54.41 28.84 81.9 9.13 27.77 18.43 55.83 24.52 84.46.27 1.27 6.3-.94 5.89-2.87-6.31-29.65-16-58.7-25.51-87.45-10-30.3-20.51-60.51-32.23-90.21-3.46-8.78-8-17.2-11.39-25.93a.77.77 0 00-.66-.34C220.14.14 141.18 16.09 63.63 33.79c-9.64 2.2-19.1 4.61-28.58 7.42S15.62 46.98 5.6 45.87c-1.76-.2-4.58 1.19-5.26 2.88-1.05 2.63.49 4 1.8 6.4q2.54 4.66 4.9 9.42c3.25 6.53 6.28 13.16 9.17 19.85 6.48 15 12.27 30.28 17.68 45.68 10.32 29.42 19.4 59.36 26.8 89.65 4.84 19.83 8.32 40 12.44 60 6.28 30.5 12.46 61 17.88 91.69 6.41 36.22 11.93 72.65 14.36 109.37.1 1.47 2.89.24 3.49 0 22.89-10.64 47.5-18 71.69-25 26.44-7.66 53.21-14.64 80.34-19.4 18-3.16 36.22-5.29 54.45-7 1.53-.14 6.68-3.83 3.43-3.53zM390.97 354.64c3.15 23.29 6.19 47 6.86 70.5l5.26-2.88c-10.06-1.2-20.62-.27-30.72.1q-21.44.81-42.85 2.44c-1.54.12-6.7 3.78-3.43 3.53q20.62-1.57 41.3-2.38c10.24-.4 20.93-1.37 31.13-.14 1.22.15 5.31-1.23 5.26-2.88-.67-23.72-3.75-47.66-6.93-71.16-.16-1.15-6.16.85-5.89 2.87z"/><path fill="#381860" d="M464.89 48.07c-16.84 18.7-32.31 38.38-45.2 60-9.37 15.75-18.85 31.5-27.85 47.45-23.75 42.09-46.14 86.43-61.09 132.48-4.26 13.13-8.36 27-7.71 41 .58 12.33 5.84 23 11.4 33.82.78 1.52 6.66-1.39 5.89-2.87-4.8-9.29-9.68-18.68-11-29.2-1.61-12.78 1.59-25.77 5.2-37.95 6.91-23.36 16.62-45.93 26.82-68q15.12-32.72 32.56-64.32c8.76-15.86 18.32-31.27 27.39-47a390.81 390.81 0 0148.48-66c2.19-2.44-3.85-.63-4.9.53z"/><path fill="#381860" d="M476.64 32.28c4 3.86 4.45 10.74 4.64 15.94.35 9.66-.86 19.39-2.31 28.92-4.27 28.19-11.58 56-19.32 83.37-16.17 57.28-34.89 114.28-57.76 169.28a245.42 245.42 0 01-11.41 24.7c-4.54 8.21-10.39 16.23-19.63 19.31-9.51 3.17-20.1 3.3-30 4.67-1.5.21-6.63 4-3.43 3.53 16.31-2.26 34.4-2.12 47.31-13.88 8-7.33 12.87-17.45 17.28-27.22 10.47-23.11 19.22-46.92 27.71-70.74q16.79-47.09 31-95.05c8.77-29.69 17-59.71 22.51-90.2 2.15-11.92 4.06-24.09 4-36.23 0-6 0-14.72-4.75-19.27-1.48-1.41-6.7 2.1-5.89 2.87zM407.48 129.44a36.53 36.53 0 005.87 18.86c1 1.53 6.72-1.61 5.89-2.87a35.54 35.54 0 01-5.81-18.19c0-1.77-6 .49-6 2.21zM389.48 160.87c1.15 7.95 4.63 13.39 9.16 19.86 1.07 1.53 6.73-1.67 5.89-2.87-4.53-6.47-8-11.91-9.16-19.86-.17-1.17-6.18.86-5.89 2.87zM380.31 176.97c-.2 8.89 5.52 17.42 10.1 24.63 1 1.53 6.71-1.58 5.89-2.87-4.4-6.92-10.23-15.42-10-24 0-1.71-5.92.45-6 2.21z"/><path fill="#381860" d="M395.65 190.79c11.59 1.84 23.84.93 35.35-1 9.54-1.63 20.22-4 27.95-10.16 3.27-2.63-2.41-1.55-3.87-.38-6.81 5.47-17.67 6.74-26 7.82-9.51 1.23-19.33 1.73-28.84.22-1.61-.26-6.75 3.2-4.56 3.55zM49.25 110.92c7-.66 13.82 2.78 20.66 0a17.9 17.9 0 003.36-1.8 22.88 22.88 0 002.21-1.67 8.65 8.65 0 015.19.81c3 1 4.92 2.36 8.19 1.23 5-1.75 6.19-6 12.52-6.43 3.54-.24 6.89.71 10.41-.31a18.17 18.17 0 006.87-3.84c1.12-1 2.12-2.52 3.36-3.3 1.84-1.16 4.31-.85 6.36-.94a23.49 23.49 0 008.56-1.79 32.21 32.21 0 004.32-2.48 10.33 10.33 0 017-1.83 18.92 18.92 0 008.3-1.29c1.38-.61 2.39-1.7 3.68-2.35 1.71-.86 2.73-.33 4.53.1 3.55.86 7.16.31 10.68-.41a56.52 56.52 0 017.17-1.35c2.87-.2 5 .7 7.78 1.07 3.66.49 6.57-1 9.86-2.35a64.16 64.16 0 0115.42-3.86c1.5-.21 6.62-4 3.43-3.53a85.47 85.47 0 00-12.63 2.61c-4.65 1.39-8.43 3.72-13.35 3.14-3.94-.46-6.95-.79-10.94 0-2.38.46-4.74 1.15-7.16 1.43-3.21.37-5.25-.59-8.29-1.23a9 9 0 00-6.66 1.07c-1.25.68-2.11 1.7-3.26 2.46-2.25 1.48-4.41.81-6.93.87a17 17 0 00-8.4 2.22c-2.57 1.47-4.32 3.28-7.56 3.86a41.74 41.74 0 01-5.09.21 17.58 17.58 0 00-7.76 2c-2.59 1.41-4.1 3.82-6.45 5.43-3.51 2.4-9.05.44-13.06 1.19a23.35 23.35 0 00-8.86 3.71c-2 1.38-2.48 2.85-5.23 2.07-1.63-.47-3-1.44-4.73-1.74a13.45 13.45 0 00-8.6 1.52c-1.28.68-2.35 2-3.61 2.57-2.32 1.08-5.13.5-7.54.17-3.46-.47-6.79-1.06-10.29-.73-1.53.14-6.68 3.84-3.43 3.53zM105.39 149.47c7.64-4 15.4-7.19 24.19-5.86 6 .91 10.58 3.24 16.36.11 4.71-2.55 6.67-7.25 10.6-10.57 6.77-5.73 18.49-1.22 26.4-1.39 6.94-.15 13.17-2.87 19.74-4.74 3.51-1 7.08-1.24 10.67-1.83 3-.5 5.38-1.71 8.23-2.64 3.93-1.28 7.79-.63 11.76-1.32a51.17 51.17 0 009-2.83c8.64-3.21 18.09-3.29 27.2-2.63 1.62.12 6.66-3.4 4.56-3.55-7.95-.58-16.47-.67-24.28 1.13a97.48 97.48 0 00-9.92 3.38c-4.31 1.49-8.36.72-12.7 1.41-3.41.54-6.27 2.5-9.58 3.34-3.66.93-7.53.89-11.22 1.81-3.93 1-7.69 2.51-11.59 3.6-5.23 1.47-10.19 1.4-15.54.81-6.61-.73-13.15-1.4-19.53 1-5.51 2-8.78 5.69-12.41 10.1-2 2.38-2.54 3.45-6.2 3-2-.25-4.12-1.16-6.14-1.52a33.27 33.27 0 00-10.57-.19c-7.15 1-13.76 4-20.1 7.33-3.38 1.76-2.42 3.92 1 2.12zM215.09 175.61c7.89 1.53 16.11-.06 23.51-3 4-1.58 7.84-3.83 12-5.23 4.64-1.57 9.54-.38 14.16-1.94 3.63-1.23 6.39-4 10.16-4.64 4.63-.81 9.33.55 14.11-.33s9.59-2.84 14.52-3.69c5.34-.91 10.85-.75 16.24-1.13 1.54-.11 6.71-3.76 3.43-3.53-4.81.34-9.66.29-14.45.88-4.63.58-9 2-13.47 3.23-8.34 2.21-16.47-1.37-24.23 3-1.62.92-3.21 2.42-5 3.08-2.26.85-5.09.28-7.49.5a35.4 35.4 0 00-10.28 2.85c-9.45 4-18.06 8.37-28.64 6.32-1.59-.31-6.77 3.12-4.56 3.55zM84.24 247.79c11.22-.84 22.64-.11 32.5-6.5 2.88-1.87 5.21-4 8.78-4.53a50.86 50.86 0 017.94 0c3.72.09 6.93.09 10.49-1.17 9.79-3.48 17.73-10.25 28.22-11.94 4.61-.74 9.3-.7 13.93-1.18a68.56 68.56 0 0016.83-4.08c2.53-.94 4.79-4.37.57-2.81-10.31 3.82-20.75 2.88-31.29 5.17-9.3 2-16.63 7.18-25.15 11-7.76 3.48-16.68-.39-24.61 3-6.15 2.61-10.26 7.37-17.23 8.45-5.8.9-11.73.69-17.57 1.13-1.54.12-6.7 3.78-3.43 3.53zM232.48 230.32c7-.25 14 .79 20.77-1.39 4.66-1.51 8.55-3.37 13.5-3.88a92.88 92.88 0 0010.08-1.53 79.73 79.73 0 0019.51-7 26.12 26.12 0 0112.21-3.15c3.68-.19 6.67-1.62 10.26-2.15 1.5-.22 6.61-4 3.43-3.53-4 .58-7.43 2.07-11.5 2.15a27.82 27.82 0 00-7.36.87c-7.61 2.22-14.13 7-21.95 9-6.87 1.74-14.3 1.28-21 3.69-4.06 1.47-7.77 3.28-12.18 3.47-4.12.18-8.25-.17-12.38 0-1.55.06-6.73 3.65-3.43 3.53zM113.13 311.31c10.68 0 20.84.06 30-6.16 3.62-2.45 6.24-5.44 10.92-6.14 3-.45 6.31.06 9.38 0 6.6-.15 11.69-3 17.81-5 6.75-2.22 14-2.28 21-2.68 6.71-.38 13.37-1.27 20.07-1.79a52.34 52.34 0 0015.22-3.15c2.51-1 5-2.13 7.41-3.24 2.12-1 5.85-3.65 8.15-3.44 1.62.15 6.68-3.36 4.56-3.55-4.71-.42-8 2.14-12.06 4.11-5.6 2.74-11.14 4.89-17.39 5.53-13.05 1.34-26.61 1.19-39.51 3.59-6.4 1.19-12.12 5-18.47 5.94-5.86.83-11.73-.64-17.53 1.08-4.81 1.43-8 4.6-12 7.41-6.79 4.77-15.16 4-23 4a6.46 6.46 0 00-4.22 1.59c-.38.38-1.91 2-.35 2zM278.34 290.21c4.16-.13 8.15-1.05 12.26-1.54 4-.47 8 .15 11.88-.79 7.66-1.84 15.27-6.55 22.4-9.81 3.49-1.6 2.48-3.73-1-2.12-7 3.22-15.27 8.5-23.06 8.86-6.38.3-12.64 1.67-19 1.87-1.56 0-6.74 3.64-3.43 3.53zM272.48 32.02c-10.44 1.56-20.45 8.41-23.46 18.86-3.6 12.53-1 26.79 10.77 33.72 10.23 6 22.94 4.5 32.43-2.24 11.11-7.88 12.33-19.64 7.71-31.62-2.36-6.11-5.19-12-11-15.4a25.4 25.4 0 00-16.45-3.32c-1.52.17-6.66 3.89-3.43 3.53 11.34-1.26 19.43 5.09 23.79 15.1 2.34 5.38 4.6 11.16 4 17.13-.78 7.46-5.86 14.26-13.2 16.35-11.76 3.36-25.87-4.34-29.16-16.16s.1-30.26 14.51-32.42c1.22-.18 3.53-.84 4.17-2 .5-.89.87-1.76-.68-1.53zM125.06 448.87c7.63 1.77 14-5.4 16.92-11.58 3.94-8.44 6.2-18.31 8.73-27.25a301.94 301.94 0 007.16-33.11c1.78-10.77 3.67-22.47 9.81-31.77a8.37 8.37 0 011.53-2.08c-2.6.9-.64 1.09-.63 2.07 0 2.29 1.33 5.18 1.6 7.6a134.62 134.62 0 01.37 18.45c-.15 6.83-.3 13.7-.19 20.54.05 3.43-.78 13.64 2.86 15.8 5.75 3.41 10.7-7.49 11.88-11.13a57.89 57.89 0 001.62-7.39c.25-1.38.52-2.76.87-4.11a10.7 10.7 0 00.44-1.58 11.73 11.73 0 01.55-1.5q-5.32-.27-4 1.86c-.06 1.07 1.14 3.43 1.42 4.58.51 2.11.92 4.24 1.49 6.34.69 2.54 1.54 6.3 4.61 6.81 2.14.36 4.77-1.14 6.31-2.47s1.06-2 2.82 0a8.2 8.2 0 003.38 2.39c3.91 1.23 8.31-1.81 10.46-4.87 6.47-9.23 6.6-23.29 8.71-34a143 143 0 019-30.21 34 34 0 012.79-5.27c2.47-3.68 6.81-4.71 9.82-1 3.13 3.9 3.05 9.4 3.71 14.11 2.09 15 7.05 32.4 18.63 42.87a24.59 24.59 0 0021.11 6.26c11.14-2.06 19.32-10.1 26.63-18.17 2.2-2.43-3.85-.62-4.9.53-5.51 6.09-11.79 13.67-20.56 14.44a21.57 21.57 0 01-14.43-4.38c-7.55-5.5-12.12-14.54-15.28-23.1s-4.64-17.43-5.95-26.48c-.72-5-2.48-10.81-7.91-12.4-3.94-1.16-8.34.78-11.45 3.13-8 6.09-11.23 18.42-13.82 27.58-2.7 9.55-4.2 19.31-5.94 29.05a95.61 95.61 0 01-2.45 10.74 35 35 0 01-2 5.41c-.22.46-.46.94-.73 1.37a13.37 13.37 0 01-.79 1.19q-1.31 1.27.87-.15a29.08 29.08 0 00-4.63-3.31 6.41 6.41 0 00-5-.42 11.25 11.25 0 00-4.36 2.41c-.57.5-1 1.33-1.62 1.75q3-.34.6-1.88l-.52-1c-1.17-2.23-1.58-5-2.14-7.44-.45-2-.66-6.06-2.19-7.56-1.78-1.75-5-.13-6.51 1.47-2.15 2.31-2.54 6.24-3.09 9.2-.85 4.6-1.52 11.59-5.42 14.64l4.22-1.59c-4.76.07-3.22-20.4-3.19-23.86.06-6.4.26-12.81.25-19.21 0-3.24-.08-6.48-.39-9.71-.28-3-.3-7.71-2.27-10.15s-5.62-.93-7.85.66c-3.77 2.7-5.94 7.5-7.71 11.62-6.1 14.18-6.65 30-10.14 44.94-2.09 8.9-4.75 17.57-7.42 26.3-1.35 4.42-4.55 22-11.22 20.43-1.58-.37-6.8 3-4.56 3.55z"/><path fill="#381860" d="M233.99 387.27c0 4.06-2 13.47 4.59 13.41 5.7-.05 10.45-6 13.85-9.79 11.23-12.36 21-26.38 30.12-40.32 1.15-1.74-4.69 0-5.61 1.41-6.26 9.53-12.91 18.81-19.85 27.86a169 169 0 01-11.42 13.58c-1.76 1.86-3.93 5-5.66 1.23-1.12-2.43-.08-7-.06-9.6 0-1.73-5.95.46-6 2.21zM381.04 227.24c-22.56 64.33-45.56 128.67-64.61 194.14-3.11 10.68-6.14 21.4-9 32.15-1.18 4.46-2.34 8.92-3.41 13.4-.36 1.52-1.17 3.4-1.14 4.94s.65 2.23 1.58 3.63 4.58-1 5.39-1.7a89.2 89.2 0 007.52-8c2-2.34 5.65-5.41 6.79-8.27.79-2 .75-4.75 1.1-6.88q.73-4.52 1.58-9c2.89-15.37 6.58-30.58 10.54-45.71 4.76-18.17 10.09-36.18 15.25-54.24 18.2-63.7 34.33-128.45 63.3-188.33 20.33-42 41.67-83.07 66.12-122.87 1.11-1.81-4.74 0-5.61 1.41a1240.79 1240.79 0 00-59.57 109.37c-8.51 17.59-17.35 35.08-24.18 53.41-6.51 17.46-12.53 35.19-18.26 52.92-9.34 28.88-16.9 58.29-25.23 87.46-4.61 16.12-9.3 32.22-13.82 48.37-4.77 17-9.12 34.23-12.73 51.55-1.41 6.75-2.68 13.52-3.73 20.33-.63 4.11-2.27 6.06-4.95 9.26a100.7 100.7 0 01-9 9.8l5.39-1.7c-1.93-2.9-1.16-4.63-.38-7.9 1-4.1 2-8.19 3.11-12.27 2.49-9.45 5.13-18.87 7.83-28.26 4.18-14.52 8.52-29 13.45-43.27 4.33-12.53 8-25.32 12-38 5.54-17.51 11.59-34.87 17.61-52.22 7.61-21.93 15.34-43.81 23-65.71.39-1.12-5.31.38-6 2.21z"/><path fill="#381860" d="M397.97 145.66c.86 7.06 2.88 12.81 7.8 18.08 1.36 1.46 6.73-2 5.89-2.87-4.92-5.27-6.94-11-7.8-18.08-.14-1.13-6.14.84-5.89 2.87zM416.05 115.08a31.76 31.76 0 004.94 17.06c1 1.53 6.72-1.61 5.89-2.87a30.63 30.63 0 01-4.87-16.39c0-1.77-6 .48-6 2.21zM424.02 101.79c.09 5.51 1.94 9.68 5 14.16 1.05 1.53 6.73-1.65 5.89-2.87-2.92-4.26-4.86-8.21-5-13.49 0-1.76-6 .48-6 2.21zM431.71 90c.06 5 1.16 8.92 4.46 12.68 1.31 1.48 6.74-1.91 5.89-2.87a17.1 17.1 0 01-4.4-12c0-1.76-6 .48-6 2.21zM439.32 79.39a17.94 17.94 0 003.44 10.65c1.09 1.53 6.73-1.69 5.89-2.87a16.94 16.94 0 01-3.37-10c0-1.75-6 .47-6 2.21zM447.92 68.64c.28 2.65.68 5.38 2.31 7.57 1.13 1.52 6.74-1.73 5.89-2.87-1.63-2.2-2-4.92-2.31-7.57-.12-1.1-6.11.82-5.89 2.87zM403.58 174.22a104.17 104.17 0 0032.59.26c8.94-1.24 18.63-3.4 25.83-9.16 3.28-2.62-2.41-1.55-3.87-.38-6.34 5.07-16.26 6-24 6.63a98.2 98.2 0 01-25.94-.9c-1.6-.29-6.76 3.15-4.56 3.55zM411.54 155.93c17.19 3.78 37.86 2.31 53.79-5.45 3.44-1.68 2.46-3.82-1-2.12-14.14 6.89-33 7.36-48.19 4-1.58-.35-6.79 3.06-4.56 3.55zM419.05 140.48c16.32 3.47 33.84.88 49.5-4.32 2.58-.86 4.83-4.22.57-2.81-14.41 4.79-30.54 6.76-45.51 3.58-1.58-.34-6.79 3.08-4.56 3.55z"/><path fill="#381860" d="M425.65 125.02c7.13 2.62 15.89 2.06 23.33 1.59 8.72-.55 17.81-1.88 25.52-6.23 3.9-2.2-.22-2.6-2.56-1.28-6.29 3.55-15 3.84-22.05 4.11-6 .24-13.11.58-18.83-1.52-1.78-.66-6.6 2.9-5.41 3.33zM433.57 109.61c7.18 2.58 15.42 2.33 22.91 1.55s15.12-2.31 21.44-6.33c3.77-2.4-.26-2.75-2.56-1.28-5.1 3.25-12.17 3.89-18.07 4.31s-12.58.47-18.3-1.58c-1.79-.64-6.59 2.91-5.41 3.33zM441.11 95.64c12.8 3.54 26.49 2 38.55-3.35 3.51-1.56 2.49-3.69-1-2.12a48.78 48.78 0 01-32.18 2.13c-1.85-.51-6.48 3-5.41 3.33zM447.78 83.79c10.62 1.88 24 .63 33.68-4.21 3.42-1.7 2.45-3.86-1-2.12-7.86 3.92-19.55 4.29-28.09 2.78-1.6-.28-6.76 3.16-4.56 3.55zM453.68 72.07c9.78 3.13 20.9 1.38 29.93-3.2 3.4-1.72 2.44-3.88-1-2.12a32 32 0 01-23.5 2c-1.82-.58-6.54 3-5.41 3.33zM458.35 63.97c8.44 2.25 21.76-.31 27.91-6.91 2.23-2.39-3.84-.61-4.9.53-3.48 3.75-13 4.27-17.61 3-1.86-.49-6.46 3.05-5.41 3.33zM462.83 56.95c3.86.84 8.32-.6 11.92-1.91a33.69 33.69 0 0011.51-6.62c1.08-1 .25-1.37-.73-1.5-1.34-.18-3.25 1.18-4.17 2-3.19 3-9.63 5.4-14 4.45-1.58-.34-6.79 3.07-4.56 3.55zM468.48 48.53c7.71-.49 13.28-5.48 17.64-11.43.88-1.2-1.18-1.06-1.76-.94a6.78 6.78 0 00-3.88 2.35c-2.29 3.12-4.49 6.23-8.6 6.49a6.61 6.61 0 00-4.17 2c-.76.94-.59 1.58.73 1.5zM387.73 211.89a138.06 138.06 0 0035.33.84c9.46-.92 20.26-2.57 27.92-8.68 3.28-2.62-2.41-1.54-3.87-.38-6.61 5.27-18 5.49-26 5.94a133 133 0 01-28.82-1.27c-1.6-.26-6.75 3.2-4.56 3.55z"/></svg>