<?xml version="1.0" encoding="utf-8"?>
<!-- Generator: Adobe Illustrator 19.2.0, SVG Export Plug-In . SVG Version: 6.00 Build 0)  -->
<svg version="1.1" id="Layer_1" xmlns="http://www.w3.org/2000/svg" xmlns:xlink="http://www.w3.org/1999/xlink" x="0px" y="0px"
	 viewBox="0 0 150 100" style="enable-background:new 0 0 150 100;" xml:space="preserve">
<style type="text/css">
	.st0{stroke:#000000;stroke-miterlimit:10;}
	.st1{fill:#FFFFFF;}
	.st2{fill:none;stroke:#FFFFFF;stroke-width:2.1835;stroke-miterlimit:10;}
	.st3{fill:none;stroke:#FFFFFF;stroke-width:2.0047;stroke-miterlimit:10;}
	.st4{clip-path:url(#Blue_1_);}
	.st5{fill:#792287;}
	.st6{fill:#3572FF;}
	.st7{fill:#1B8039;}
	.st8{fill:#FFF135;}
	.st9{fill:#FFA435;}
	.st10{fill:#E43232;}
</style>
<path d="M98.6,89.1c-1.9-1.9-6.5-4.8-8.8-5.9c-2.6-1.3-3.6-1.2-5.5,0.1c-1.5,1.1-2.6,2.2-4.3,1.8c-1.8-0.4-5.3-3-8.7-6.4
	c-3.4-3.4-6.1-6.9-6.4-8.7c-0.4-1.8,0.7-2.8,1.8-4.3c1.3-1.9,1.4-2.8,0.1-5.5c-1.1-2.3-3.9-6.9-5.9-8.8c-1.9-1.9-2.3-1.5-3.4-1.1
	c0,0-1.6,0.6-3.1,1.7c-1.9,1.3-3,2.3-3.7,3.9c-0.7,1.6-1.6,4.6,2.8,12.4c3.5,6.3,7,11.1,12.1,16.2l0,0l0,0
	c5.1,5.1,9.9,8.6,16.2,12.1c7.8,4.4,10.8,3.5,12.4,2.8c1.6-0.7,2.7-1.8,3.9-3.7c1-1.5,1.7-3.1,1.7-3.1
	C100.1,91.5,100.5,91.1,98.6,89.1z"/>
<g>
	<path class="st0" d="M125.7,61.5c5.3,0,8.9,2.9,8.9,7.1c0,2.8-1.3,4.7-3.9,6.2c-2.4,1.4-3.3,2.5-3.3,4.3v1.1h-4.9l0-1.2
		c-0.2-2.9,0.8-4.7,3.3-6.2c2.4-1.4,3.4-2.3,3.4-4.1c0-1.7-1.7-3-3.8-3c-2.1,0-3.7,1.4-3.8,3.5h-5C116.7,64.7,120,61.5,125.7,61.5z
		 M122,85.6c0-1.6,1.3-2.9,3-2.9c1.7,0,3,1.3,3,2.9c0,1.6-1.3,2.9-3,2.9S122,87.2,122,85.6L122,85.6z"/>
	<g>
		<path d="M125,53.3c12,0,21.7,9.8,21.7,21.7S137,96.7,125,96.7S103.3,87,103.3,75S113,53.3,125,53.3 M125,50c-13.8,0-25,11.2-25,25
			s11.2,25,25,25s25-11.2,25-25S138.8,50,125,50L125,50z"/>
	</g>
</g>
<g>
	<path id="Blue_2_" d="M25,50c13.8,0,25-11.2,25-25v0C50,11.2,38.8,0,25,0l0,0C11.2,0,0,11.2,0,25l0,0C0,38.8,11.2,50,25,50L25,50z"
		/>
	<path id="f_1_" class="st1" d="M27.4,40.8V26.4h4.8l0.7-5.6h-5.6v-3.6c0-1.6,0.5-2.7,2.8-2.7l3,0v-5c-0.5-0.1-2.3-0.2-4.3-0.2
		c-4.3,0-7.2,2.6-7.2,7.4v4.1h-4.8v5.6h4.8v14.4H27.4z"/>
</g>
<g>
	<path id="Blue_8_" d="M75,50c13.8,0,25-11.2,25-25v0c0-13.8-11.2-25-25-25l0,0C61.2,0,50,11.2,50,25v0C50,38.8,61.2,50,75,50L75,50
		z"/>
	<g>
		<path class="st2" d="M81.9,38.4H68.1c-3.9,0-7-3.1-7-7V17.5c0-3.9,3.1-7,7-7h13.9c3.9,0,7,3.1,7,7v13.9
			C88.9,35.3,85.8,38.4,81.9,38.4z"/>
		<circle class="st3" cx="75" cy="24.5" r="8"/>
		<circle class="st1" cx="83.9" cy="15.9" r="1.6"/>
	</g>
</g>
<g>
	<defs>
		<path id="Blue_9_" d="M125,50c13.8,0,25-11.2,25-25v0c0-13.8-11.2-25-25-25l0,0c-13.8,0-25,11.2-25,25v0C100,38.8,111.2,50,125,50
			L125,50z"/>
	</defs>
	<clipPath id="Blue_1_">
		<use xlink:href="#Blue_9_"  style="overflow:visible;"/>
	</clipPath>
	<g class="st4">
		<rect x="100" y="0" class="st5" width="80.9" height="50"/>
		<rect x="100" y="0" class="st6" width="80.9" height="41.7"/>
		<rect x="100" y="0" class="st7" width="80.9" height="33.3"/>
		<rect x="100" y="0" class="st8" width="80.9" height="25"/>
		<rect x="100" y="0" class="st9" width="80.9" height="16.7"/>
		<rect x="100" y="0" class="st10" width="80.9" height="8.3"/>
	</g>
</g>
<path id="check4_1_" d="M14.7,70.3l-3.5,3.5L22.5,85l25-25L44,56.5L22.5,77.9L14.7,70.3L14.7,70.3z M45,75c0,11-9,20-20,20
	S5,86,5,75s9-20,20-20c1.9,0,3.8,0.3,5.5,0.8l3.9-3.9c-2.9-1.2-6-1.9-9.4-1.9C11.3,50,0,61.2,0,75s11.3,25,25,25s25-11.2,25-25H45z"
	/>
</svg>
