<svg xmlns="http://www.w3.org/2000/svg" data-name="Layer 2" viewBox="0 0 472.31 496.6"><defs/><path fill="#381860" d="M68.3 203c1.69 10.76 0 23.46-6.62 32.34-7.22 9.62-16.38 18-24.66 26.74-12.86 13.51-27 28.5-32.75 46.7-5.88 18.69-4.52 40.25-2.78 59.47 1.31 14.49 4.31 27.92 8.12 41.88 7.46 27.33 13.81 55.18 16 83.49.13 1.7 5.63-.5 5.51-2-2-25.43-7.24-50.5-13.67-75.15-3.8-14.58-8-28.56-9.77-43.58-2.33-20.17-3.72-42.11 1-62 4.57-19.42 19.57-35.29 32.87-49.3 8.79-9.23 18.67-18.17 26.08-28.58 6.46-9.07 7.81-21.92 6.12-32.66-.17-1.1-5.74.81-5.45 2.66z"/><path fill="#381860" d="M55.42 244.4c23.83 9.67 47.83 19.37 70.66 31.25a60.05 60.05 0 015.68 3.14c4.37 2.92 2.87 8.16 2.68 12.83-.14 3.66-.27 7.32-.46 11-.05 1-1.12 6.39-.66 7.14.59 1 1.78-.54 1.63-1.34s-1.93-1.76-2.64-2.46c-1.07-1.05-2.12-2.11-3.2-3.15q-3.78-3.65-7.72-7.14-8.67-7.68-18.07-14.48a197.46 197.46 0 00-53.45-27.77c-1.68-.55-6.06 2.73-5 3.09a196.93 196.93 0 0152.81 27.31 234.63 234.63 0 0120.28 16.34q4.56 4.11 8.9 8.47c1.79 1.79 3.48 4 6.23 3.7 4.89-.49 6-4.61 6.23-8.7s.41-8.27.57-12.4c.15-3.7 1.7-9.93-.36-13.2-2.34-3.72-9.67-6.1-13.42-7.94-6.5-3.2-13.09-6.21-19.71-9.17q-22.81-10.2-46-19.58c-1.62-.66-6.14 2.62-5 3.09zM34.15 267.13c14.08 9.61 27.15 20.53 40 31.72 4.72 4.12 9.39 8.29 14.22 12.29 2.75 2.27 5.66 5 9 6.32 1.51.6 3.73-.8 4.77-1.79a26.91 26.91 0 019.29-6.1l-2.49-.28a93.69 93.69 0 01-1.53 13 .44.44 0 00.25.52c4.5 2 8.43 5.63 12.07 8.88a200.48 200.48 0 0119.26 20c14.73 17.32 27.39 36.72 35.55 58 .51 1.34 6.05-1.09 5.45-2.66-9-23.36-23.31-44.55-40-63.09a176.79 176.79 0 00-18.74-18.34c-2.14-1.76-4.49-3.2-6.66-4.88-1.47-1.14-1.64-.75-1.29-2.91a84.37 84.37 0 001.11-10.55c0-1.14-2-.45-2.49-.28a41.2 41.2 0 00-14.35 9.19l4.77-1.79c-3.21-1.28-6-3.83-8.63-6-5-4.09-9.76-8.39-14.61-12.61-12.85-11.2-25.85-22.12-39.95-31.73-1.35-.92-6.28 2.21-5 3.09z"/><path fill="#381860" d="M133.95 308.36c8.77 10 14.77 22.18 20.71 34 6.63 13.21 14.25 26.26 17.3 40.89.24 1.17 5.82-.86 5.45-2.66-3-14.63-10.67-27.67-17.3-40.89-5.94-11.83-11.94-24-20.71-34-1.2-1.38-6.23 1.76-5.45 2.66zM131.42 274.3c2.78-2.77 7.4-7.23 11.6-5 2.52 1.32 3.67 5.39 4.69 7.77 1.11 2.6 3.16 6.2 3 9.12-.36 5.17-7.42 5.76-11.3 5.83-1.44 0-6.24 3.33-3.18 3.27 5.76-.11 12.42-1.78 16.91-5.63 4.9-4.2 2.5-9.41.39-14.45s-4.38-10.87-11-9.83c-5.84.91-11.53 5.44-15.56 9.46-2.12 2.11 3.52.51 4.53-.49z"/><path fill="#381860" d="M145.94 292.89c6.22 11.91 13.13 24.08 16.93 37a161.8 161.8 0 013.45 16.43 594.35 594.35 0 018.8 70.15 359 359 0 01.08 47.79c-.11 1.51 5.39-.38 5.51-2 1.95-27.46 0-55.13-3.37-82.4-2.06-16.49-4.44-33.12-8.17-49.33-3.26-14.16-11.1-27.5-17.77-40.26-.73-1.41-6.16 1.3-5.45 2.66z"/><path fill="#381860" d="M103.92 339.74c8.67 9.16 14.74 20.88 20.5 32 6 11.47 11.3 23.24 16.91 34.88 5 10.29 11.52 19.74 17.5 29.45 4.34 7 8.57 14.14 12.52 21.41 2 3.6 3.84 7.24 5.62 10.92q1.22 2.53 2.38 5.1c.67 1.51 1.36 4.82 2.56 5.88 2.77 2.43 8.94 3.1 12.36 4.32a134.34 134.34 0 0123.14 11.24c1.44.85 6.26-2.34 5-3.09a138.23 138.23 0 00-20.68-10.38c-4-1.56-8.44-2.45-12.39-4.2-2.83-1.25-3.31-3.71-4.55-6.48-1.77-3.95-3.68-7.83-5.68-11.67-3.87-7.43-8.09-14.68-12.44-21.84-6.26-10.31-13.43-20.28-18.8-31.1-5.29-10.66-10.12-21.55-15.47-32.19-6.43-12.75-13.12-26.47-23-36.94-1.28-1.35-6.22 1.84-5.45 2.66zM176.1 422.04c8 11.3 15.27 23 23.58 34.1 2.89 3.85 6.09 9 10.36 11.57 3.7 2.19 8.42 3.44 12.46 4.87 6.11 2.16 12.29 4.09 18.49 6 1.7.51 6-2.78 5-3.09-6-1.79-11.92-3.64-17.79-5.7-4.25-1.49-9.09-2.82-13-5-4.41-2.5-7.73-8.08-10.67-12-8-10.82-15.19-22.25-23-33.27-1-1.42-6.23 1.55-5.45 2.66zM31.36 369.69c2.37 6.88 6.19 13.41 9.61 19.8q8.61 16.08 18.06 31.7c5.93 9.84 12 19.62 18.84 28.89 5.41 7.38 11.89 13.81 18 20.61 5 5.52 10 11.06 15.29 16.23 3.69 3.57 7.8 7.87 12.76 9.61 1.66.58 6.08-2.7 5-3.09-4.47-1.57-8.21-5.28-11.56-8.48-4.88-4.64-9.43-9.63-13.94-14.62-6.17-6.87-12.89-13.39-18.48-20.75-14-18.37-25.53-38.85-36.54-59.09-4.11-7.55-8.78-15.3-11.59-23.47-.45-1.31-6 1-5.45 2.66zM151.33 107.29c6.59 10.29 5.67 23.17 9.77 34.5a128.65 128.65 0 008 16.83c1.36 2.54 3.37 4.91 4.5 7.55 1.69 3.94-.88 6.72-3.16 9.8-3.15 4.25-5.63 8-5.25 13.48s1.72 10.18.65 15.89c-.64 3.43-2.56 6.26-2.78 9.7-.15 2.37.2 4.77 0 7.13-.43 5.36-5.14 6.61-9.75 7.39-27.9 4.73-56.42-9.59-68.83-35.07-6.45-13.25-7.17-27.92-5.7-42.37.33-3.26.38-7 1.56-10.05 2.19-5.77 6.87-4 11.38-2.73 5.22 1.49 9.87 2.37 15.07.22 4.25-1.75 8.12-4.86 9.93-9.18 2.78-6.64-1.76-21.39 8.31-22.81 2.86-.4 5.64.37 8.53-.35a18.5 18.5 0 006.47-3.22c3.07-2.27 4.43-2.43 7.63-.12a22.11 22.11 0 013.71 3.41c1.2 1.38 6.23-1.76 5.45-2.66-2.25-2.58-5.28-5.37-8.73-6-6.36-1.2-9.91 5.79-15.83 5.77-5.5 0-10.69-.07-15 4-4.93 4.65-4.29 11.4-4.73 17.57-.41 5.65-2.59 11.37-9.19 11.7-3.83.19-7.6-1.95-11.32-2.68a15.44 15.44 0 00-14.24 4.38c-4.93 5.07-4.57 13.86-5 20.42a83.5 83.5 0 001.79 25.17c7.27 29.59 35.43 49.4 65.45 48.81 8.8-.17 27.72-1.57 28.52-13.61.18-2.73-.31-5.52.08-8.24.26-1.87 1.33-3.26 1.88-5a31.38 31.38 0 00.8-15.46c-.92-4.94-1.07-9 1.77-13.36 2-3 5-5.75 6.31-9.18 1.17-3-.24-5.27-1.84-7.81-2.14-3.41-4-6.91-5.87-10.5a96.3 96.3 0 01-8.73-26.24c-1.37-7.12-2.21-13.5-6.16-19.66-.91-1.5-6.22 1.39-5.45 2.58z"/><path fill="#381860" d="M153.17 103.16c3.32-2.74 6.73-5.63 8.52-9.65 2.38-5.34.91-10.63-1.42-15.68-1.47-3.19-3.34-6.2-4.64-9.45a15 15 0 00-3-5.26c-1.87-1.94-4-1.92-6.31-3.13-3.78-2-6.35-5.24-10.79-6-6.75-1.08-13.19 3.65-19.89 4.21-10.84.9-20.55-1.93-28.34 7.67-4.09 5-6.5 10.19-12.84 12.77a86.46 86.46 0 01-13.7 3.84c-2.67.6-5.61 1-8 2.49-3.84 2.33-3.35 5.81-4.58 9.67-1.79 5.83-9.45 6.83-12.8 11.6s-1.24 11.84-1.6 17.25a40 40 0 00-.08 8.78c.55 3.59 2.41 6.58 3.62 9.94 2.3 6.37-.36 13 2.08 19.34 1.3 3.38 3.53 6.26 5.07 9.51 1.43 3 2 6.47 3.7 9.35 1.6 2.66 4.09 3.75 6.38 5.7a24.56 24.56 0 015.48 7.57c2.56 4.79 4.91 9.78 11 9.57a18.67 18.67 0 0013-6.15c2.05-2.23-3.55-.57-4.53.49-6.56 7.12-11.46-1.62-14.1-6.57a28 28 0 00-8.33-9.72c-4.1-3.18-4.8-7-6.67-11.58s-5.52-8.69-6.55-13.79.85-10.36-.88-15.57c-.83-2.49-2.19-4.76-3-7.25-1.3-3.9-1-7.64-.74-11.67.33-5-1.89-12.79 1.68-17 2.94-3.45 8.1-4.33 10.95-8 2-2.59 2.37-6.2 3-9.31.37-1.82-1.16-.08 0-.63a8 8 0 011.39-.34c1.69-.41 3.39-.76 5.09-1.15 6.91-1.62 14.2-3.54 20.17-7.54a26.66 26.66 0 006.64-6.69c1.61-2.21 3-5 5-6.87 3.58-3.3 8.28-2.39 12.56-2.26a49.47 49.47 0 0014.32-1.4c6-1.6 10.74-4.49 16.53-.49a48.55 48.55 0 004.75 3.34c2.52 1.33 4.7 1.25 6.62 3.6s2.63 5.61 4 8.29c2 3.84 4.39 7.84 5.18 12.17 1.26 6.89-2.61 11.56-7.6 15.68-3 2.48 2.24 1.46 3.58.35zM130.88 233.26c-5.12 11.46-3.07 26 1.57 37.28.56 1.36 6.08-1.14 5.45-2.66-4.41-10.68-6.73-25-1.83-35.93.86-1.93-4.57-.09-5.19 1.31zM278.94 38.07c8.24-24.36 35.18-37.4 59.79-34.52 29.93 3.51 52.07 29 52.82 59 .21 8.28-1.34 16.69-2.55 24.86-1.34 9.08-2.87 18.14-4.44 27.19-.23 1.35 5.22-.34 5.51-2 1.61-9.33 3.19-18.67 4.56-28 1.23-8.41 2.81-17 2.37-25.57-.81-15.78-7.36-31.61-18.75-42.56-20.38-19.51-51.47-21-75.71-8.29-13.29 6.95-24.29 17.56-29.11 31.93-.36 1.06 4.94-.34 5.51-2z"/><path fill="#381860" d="M277.06 48.71c4.85-5.9 10.2-11 18.1-11.9 6.76-.8 18.37-.76 20.32 7.15 1.84 7.46 3.58 14.59 6.42 21.77s6.18 14.32 9.45 21.4c.7 1.51 5.27-1.18 5.48-2.35 1.42-8.15 4.42-16.74 10.42-22.66 5.8-5.65 16.46-2.29 21.56 2.88 5.47 5.53 8 14.71 10.06 22a143.21 143.21 0 015.16 28.6c.13 1.7 5.63-.5 5.51-2a141.79 141.79 0 00-6.79-34.33c-3.23-9.64-7.38-19.47-18-22.37-19.26-5.25-30.54 13.87-33.43 30l5.48-2.43c-4.17-9-8.4-18-11.7-27.39a98.37 98.37 0 01-4-14.45c-.78-4.13-2.44-6.8-6.66-8-16.53-4.49-31.41 1.69-41.95 14.51-1.94 2.37 3.61.63 4.53-.49z"/><path fill="#381860" d="M273.33 40.3c-2.67 11-.69 22.13 1.58 33.05 1 4.81 2.24 9.74 2.3 14.68a56.17 56.17 0 01-3.22 17.94 85.32 85.32 0 01-3.84 9.6c-.83 1.76-2.54 4-2.81 5.89-.64 4.63 3.3 4.27 6.45 4.76 5.8.9 6.4 5.56 8.43 10.23 2.44 5.6 5.7 10.49 9.08 15.54 4.9 7.33 6.57 16.18 10.6 23.93 3.64 7 11.07 6.93 18.25 6.26 18.89-1.77 33.09-13.52 46.58-26 6-5.56 11.45-11.79 15.19-19.12s5.83-15.49 7.66-23.54c.29-1.26-5.12.33-5.51 2-3.06 13.48-7.22 25.87-16.84 36.15-6.17 6.6-13.34 12.23-20.52 17.68-7.95 6-15.91 9.38-26 9.71-3.24.11-7.92.18-10.62-1.92-2.41-1.87-3.65-5.89-4.74-8.59-3.17-7.81-5.83-15.24-10.65-22.21a74.67 74.67 0 01-7.28-13.34c-1.4-3.29-2-7.11-5.37-8.94s-10.4.12-8.69-5.64c1.46-4.93 4.57-9.57 6.2-14.52a55.44 55.44 0 001.61-29.62c-2.41-11.95-5.2-23.92-2.27-36 .3-1.23-5.1.33-5.51 2z"/><path fill="#381860" d="M326.7 180.93c1.28 10.79-.7 25.85-7.44 34.85-1.11 1.48 4.27-.08 5.19-1.31 7.08-9.45 9-24.91 7.7-36.2-.12-1-5.67.77-5.45 2.66zM381.75 123.85a75.14 75.14 0 009.65 42c6.05 10.51 15.15 16.38 24.17 24 18.92 16 32.53 38.12 39.76 61.67 7.67 25 12.07 51.76 9.8 77.9-1.88 21.65-5.16 43.24-6.15 65-.6 13.21 1.17 26.36 3.11 39.39 2.57 17.22 4.65 34.37 4.71 51.81 0 1.61 5.52-.43 5.51-2a318 318 0 00-3.65-44.92c-1.87-12.79-4-25.57-4.25-38.53-.39-21.66 3.41-43.55 5.53-65.06a215.12 215.12 0 00-5.56-73.09c-6.11-25-16.82-48-34.79-66.75-8.76-9.14-20.69-15.4-28.39-25.43-10.28-13.41-15-31.17-13.93-47.9.1-1.52-5.41.38-5.51 2z"/><path fill="#381860" d="M401.09 172.84c-7.43 1.73-14.52 5.44-21.3 8.83-9.44 4.73-18.68 9.86-27.83 15.13-6.57 3.78-13.19 7.57-19.52 11.75-5.23 3.45-5.73 7.45-3.73 13.46 3.69 11.13 11 20.84 16.92 30.84.84 1.43 4.85-1 5.32-2 2.35-4.75 5.85-9.07 9-13.31q6.5-8.8 13.35-17.34c10.94-13.68 22.78-27.66 38-36.65 3.57-2.11-.21-2.46-2.37-1.19-15.56 9.18-27.75 23-39 36.89q-7.06 8.72-13.77 17.72c-3.61 4.83-7.68 9.74-10.36 15.17l5.32-2c-4.68-7.91-9.88-15.51-13.93-23.78-1.81-3.7-3.87-7.89-4.14-12.08-.17-2.67.21-3.5 1.61-4.48 13.08-9.08 27.64-16.67 41.75-24 7.2-3.73 14.82-8.13 22.79-10 1.69-.39 5.7-3.92 1.92-3zM372.94 253.74c-9.93 8.46-15 20.34-19.59 32.25-4.9 12.71-10.14 25-13.21 38.32-6.65 28.76-22.5 54.34-30.49 82.73l1.57-1.61c-14.45 8.74-26.55 21.3-37.87 33.67-15.5 17-29.81 35-43.86 53.14-1.12 1.44 4.25-.09 5.19-1.31 13.32-17.22 26.88-34.29 41.49-50.44 11.05-12.22 22.67-24.26 36.52-33.33 2.88-1.89 2.94-3.93 4-7.24 1.59-5.14 3.4-10.2 5.33-15.21 3.57-9.29 7.59-18.4 11.51-27.54 3.27-7.63 6.58-15.3 9.08-23.23 2.35-7.46 3.55-15.2 5.82-22.67 3.06-10 7.54-19.86 11.38-29.63 3.92-10 8.41-20.42 16.75-27.53 3-2.52-2.25-1.48-3.58-.35zM310.42 490.68c14.89-14 29.37-28.35 44.07-42.52 7.19-6.93 14.43-13.81 21.81-20.53a32.34 32.34 0 007.57-10.16q3.56-6.73 7.24-13.39c6.43-11.63 12.86-23.37 19.83-34.69 4.95-8 10.48-15.62 14.85-24a152 152 0 0015.26-49c.2-1.4-5.27.35-5.51 2-2.24 15.61-6.4 30.91-13.36 45.1-4.34 8.87-9.84 16.94-15.2 25.2-6.3 9.72-11.79 20.1-17.47 30.2-4.44 7.88-8.18 16.46-13.06 24.06-2.67 4.16-7.23 7.37-10.83 10.71s-7.29 6.84-10.9 10.29c-16.34 15.63-32.34 31.62-48.83 47.1-2.16 2 3.5.47 4.53-.49z"/><path fill="#381860" d="M332.7 213.19c-4.34-1.34-10.46 0-14.25 2.38-4.84 3.06-4.5 9.47-3.9 14.53.62 5.25 2.92 12.82 9 13.46 5.93.62 12.56-2.18 17-5.88 3-2.48-2.24-1.46-3.58-.35-2.79 2.3-8.44 4.48-11.84 2.09-2.72-1.91-4.16-6.42-4.83-9.5a28.62 28.62 0 01-.43-9.57c.53-4 4-5.24 7.74-4.08 1.69.52 6-2.76 5-3.09z"/><path fill="#381860" d="M334.25 239.68c1.35 31.53 3.45 63.11 3.49 94.68 0 1.61 5.51-.43 5.51-2 0-31.57-2.14-63.15-3.49-94.68-.07-1.66-5.58.47-5.51 2zM351.16 243.55c-1.91 6.52-1.34 14.22-1.26 20.92a174.08 174.08 0 001.89 26c.18 1.11 5.75-.82 5.45-2.66a173 173 0 01-1.84-26.7c0-6.29-.51-13.48 1.27-19.6.33-1.14-5 .33-5.51 2zM324.18 204.82a34.19 34.19 0 00-15.24 8.9c-1.68 1.6-4.46 3.8-4.79 6.17-.24 1.69.37 3.8.73 5.42 2.26 10.27 7 20.32 11.76 29.63.72 1.4 6.16-1.29 5.45-2.66a172.36 172.36 0 01-9.17-21 58.67 58.67 0 01-3-10.65c-.41-2.69 0-3.71 1.82-5.68 2.92-3.07 6.29-6.06 10.5-7.1 1.67-.41 5.69-4 1.92-3z"/><path fill="#381860" d="M318.91 241.72c-3.73 17.24-3.66 35.72-4.33 53.27-.91 23.56-1.31 47.15-1 70.72.11 9.14.21 18.32 1 27.43.15 1.71 5.64-.51 5.51-2-1.6-18.7-1.18-37.67-1-56.41.26-23.29.85-46.62 2.48-69.87.59-8.37 1.09-16.92 2.86-25.15.28-1.28-5.14.33-5.51 2z"/><path fill="#381860" d="M314.11 251.87c-3.79 6.37-5.25 14.22-6.6 21.41-2.17 11.46-3.45 23.1-4.51 34.71-2.28 25.2-3.33 50.54-3.47 75.84-.05 9.51-.1 19.08.67 28.57.14 1.7 5.64-.51 5.51-2-1.6-19.61-.73-39.59 0-59.21.94-25 2.33-50.21 6.41-74.91 1.4-8.46 2.7-18.17 7.17-25.67 1-1.71-4.4 0-5.19 1.31z"/><path fill="#381860" d="M300.31 326.68c-5.19 20.69-8.74 41.81-12.29 62.84-1.06 6.29-1.21 13.82-4.1 19.55-1.9 3.76-3.88 7.49-5.86 11.21-5.62 10.55-11.16 21.13-16.45 31.85-.92 1.86 4.51.07 5.19-1.31 5.29-10.72 10.84-21.3 16.45-31.85 2.07-3.88 4.13-7.77 6.11-11.69 2.71-5.38 2.88-12.06 3.87-18 3.63-21.63 7.26-43.37 12.6-64.66.3-1.22-5.08.33-5.51 2zM312.93 484.77c-.2 2.94.16 5.76 0 8.69-.08 1.54 5.43-.39 5.51-2 .15-3-.22-5.67 0-8.69.1-1.52-5.4.38-5.51 2z"/></svg>