<svg xmlns="http://www.w3.org/2000/svg" data-name="Layer 2" viewBox="0 0 474.51 462.04"><defs/><path fill="#381860" d="M222.76 431.29c7.18 5.85 14.61-2.23 19.86-6.8q12.05-10.49 23.62-21.53c10.72-10.29 21.07-21 30.76-32.24 9.43-11 19.47-22.68 26.14-35.59 5.63-10.9 8.47-23.42 10-35.5 1.55-11.86 2.14-24.78-1.39-36.37-6.3-20.63-27.89-30.08-48.09-28.53a68.48 68.48 0 00-31.72 10.76 56.27 56.27 0 00-12.65 11 45.46 45.46 0 00-4.39 6.2c-1.46 2.51-2.2 5.83-3.92 8.13l3.52-2.15c.82-.24-7.69-14.51-8.88-15.92a45.49 45.49 0 00-13.37-10.69c-9.79-5.16-21.44-6.51-32.36-5.69-17.46 1.32-33.27 10.6-42.23 25.72-8.49 14.47-10.9 31.55-7.9 47.95 5.22 28.63 25.31 52.17 44.27 73.17 15.29 16.94 32.52 31.68 48.53 47.86 1.3 1.32 6.15-1.87 5.39-2.63-12.9-13-26.87-25-39.58-38.25a388.64 388.64 0 01-26.89-31c-8.58-11.11-16.95-22.64-21.91-35.87-6.94-18.54-7.93-39 .46-57.13a49 49 0 0114.35-18.64c8.54-6.51 19.4-8.48 29.94-8 12 .54 23.36 3.93 32.35 12.12a42.7 42.7 0 0111 16.15c.69 1.79.82 3.93 3 4.26 1.34.21 3.36-.73 4.41-1.5 3-2.21 3.81-7.29 5.8-10.45a43.57 43.57 0 019-10.19 53.7 53.7 0 0125.92-11.42c18.77-2.94 38.76 3.71 48 21.17 4.86 9.13 5.32 20.19 4.9 30.3a133.28 133.28 0 01-5.82 34c-3.43 11-9.35 20.2-16.18 29.45a345.47 345.47 0 01-26.85 31.8 596.33 596.33 0 01-43.9 41.61c-2.87 2.48-4.37 4.49-8.21 1.36-1.21-.97-6.23 2.03-4.98 3.08z"/><path fill="#381860" d="M183.91 395.51c-6 14.36-11 30.6-11.86 46.2-.15 2.65-.56 4.14 1.34 5.84 2.89 2.58 6.92 4.44 10.41 6.06a89.3 89.3 0 0023 6.86 120.48 120.48 0 0049.26-2.23 95.65 95.65 0 0020.8-7.83c2.12-1.11 6-2.49 7.27-4.65.91-1.57.27-3.9.08-5.68a227.61 227.61 0 00-4.13-24.05c-1.43-6.55-2.73-13.72-5.84-19.73-.72-1.39-6.09 1.28-5.39 2.63 5.12 9.89 6.67 22.55 8.49 33.4.5 3 1 5.94 1.32 8.92a40.08 40.08 0 01.42 4.2c0 1.75.65.66-.69 1.61-6 4.23-14.06 6.58-21.07 8.32a114.87 114.87 0 01-46.36 1.8 86.64 86.64 0 01-21.6-6.39 65.48 65.48 0 01-8.43-4.56c-3.49-2.25-3.65-3.09-3.38-7.16 1-15.42 5.9-31.39 11.82-45.61.38-.91-4.77.37-5.45 2zM177.21 146.04a132.39 132.39 0 005-28.87c.75-11.43.57-25.68-7.85-34.52-.58-.61-1.77-.23-2.44 0-1.9.74-5.83 1.72-8.43 3.27a34.16 34.16 0 00-7.78 6.5c-5.79 6.43-9.64 14.47-12.48 22.57-5.47 15.63-9.21 36.41-2.1 52.15.62 1.36 6-1.18 5.39-2.63-6.23-13.78-3.69-31.34.23-45.4A78.58 78.58 0 01156.34 97a35.1 35.1 0 017.29-8.39c2.5-2 4.91-2.3 7.75-3.4h-2.44c8.59 9 8.59 23.46 7.71 35.08a132.94 132.94 0 01-4.89 27.77c-.33 1.12 4.95-.33 5.45-2z"/><path fill="#381860" d="M174.05 82.48c-24.64-17.67-51.22-32.92-77-48.76Q76.71 21.24 56.38 8.86c-4.22-2.62-8.39-5.28-12.62-7.81-5.3-3.14-12.49 1.44-17.06 4.55-13 8.87-20 24.28-23.66 39.15a106.35 106.35 0 00-3 25.67 89.18 89.18 0 00.72 11.14c.37 2.81.58 8 2.49 10.14 1.7 1.94 5.31 3.24 7.52 4.51q6.85 4 13.74 7.85 19.91 11.29 39.94 22.38c15.65 8.68 31.31 17.32 47.15 25.8 9.64 5.16 19.29 10.77 29.42 14.94 1.6.66 6.08-2.59 4.95-3.05-8.16-3.36-16-7.79-23.74-11.92-12.77-6.77-25.45-13.69-38.11-20.66-23.36-12.9-46.76-25.82-69.85-39.23-2.7-1.57-5.71-2.56-6.65-5.62-2.22-7.23-2.39-15.38-2.09-22.86.65-16.6 4.8-34.38 14.67-48A40.31 40.31 0 0128 7.59c2.37-1.84 6.6-5 9.63-4.19 1.48.41 3.12 2 4.43 2.77l6.59 4.07q18.6 11.43 37.25 22.79c27.88 17.07 56.62 33.47 83.21 52.53 1.3.93 6.22-2.14 4.95-3.05z"/><path fill="#381860" d="M15.25 17.62c-1.13 10.17 3.75 16.84 10 24.21 2.46 2.92 3.37 6.59 4.45 10.21 1.63 5.43 3 10.93 4.9 16.29 3.24 9.31 7.24 16.11 16.95 19 10.16 3.07 20.9 3.67 31.17 6.32 8.6 2.22 14.29 5.68 19.54 12.72s10.17 14.58 16.5 20.87c6.56 6.44 14.54 11.42 23.81 12.54 4.93.6 9.57.73 14.36 2.28a61.86 61.86 0 0113.45 6.36c23.53 14.57 40.16 41.44 42.21 69 .09 1.26 4.17-.37 4.09-1.52-1.75-23.54-13.61-45.58-31.13-61.21-7.78-6.94-16.93-12.82-27.05-15.61-4.26-1.17-8.46-1.26-12.8-1.79a35.24 35.24 0 01-14.77-5.51c-8-5.16-14.07-12.75-19.62-20.37-3.85-5.27-7.49-11.86-13.16-15.42-8.59-5.4-19.82-6.42-29.58-8.1-9.12-1.57-19.93-2.65-25.3-11.16-3.37-5.34-5.21-11.63-7-17.65-1.6-5.44-2.62-11.7-5.26-16.75-1.69-3.23-4.84-5.67-7-8.61a24.58 24.58 0 01-4.76-17.64c.12-1.08-4 .27-4.09 1.52z"/><path fill="#381860" d="M142.35 166.39c11.7.26 22.94 7.8 31.39 15.31 9.56 8.51 18.08 19.88 19.53 32.94.08.76 4.2-.57 4-2-1.46-13.24-10.18-24.64-19.86-33.25-8.61-7.66-20-15.19-32-15.46-1.11 0-4.52 2.41-3.13 2.44z"/><path fill="#381860" d="M176.23 211.56c36.9 10.76 79.74 11.48 115.45-4.11 3.23-1.41 2.29-3.35-.95-1.94-33.58 14.66-75 13.07-109.55 3-1.68-.49-5.95 2.76-4.95 3.05z"/><path fill="#381860" d="M454.46 15.33c-.42 13-11.73 21.36-19.11 30.86-6.87 8.86-6.93 19.43-11.47 29.29-2.76 6-8.65 7.67-14.6 9.38-5.45 1.57-11 2.82-16.39 4.5-8.78 2.73-15.54 6.61-21.34 13.74-6 7.39-11.45 15.2-18.34 21.83a49.26 49.26 0 01-14.72 10.24c-6.11 2.57-12.42 2.44-18.87 3.15-20.12 2.22-39 11.33-52 27.12-12.08 14.77-18.25 33.56-20.74 52.27-.19 1.4 5.23-.35 5.45-2 2.24-16.83 7.39-33.68 17.38-47.59a63.08 63.08 0 0123.14-20 67.51 67.51 0 0117.6-5.69c6.12-1.13 12.36-.93 18.46-2 20.38-3.72 33.4-20.27 45.4-35.64 2.3-3 4.64-6.22 7.72-8.42 4.94-3.54 11.66-4.83 17.42-6.35 8.73-2.3 20.61-4.27 26.85-11.5 7.64-8.85 6-22.48 12.91-32 7.58-10.45 20.18-19.17 20.64-33.21.05-1.55-5.4.4-5.45 2z"/><path fill="#381860" d="M254.46 196.95a106.81 106.81 0 00-40.42.12c-1.71.32-5.68 3.71-1.9 3a101.11 101.11 0 0138.14.12c1.46.27 6.19-2.88 4.18-3.25zM197.29 241.17c3.49 12.42 2.39 25.07.77 37.67-1.11 8.65-8.21 17.71-14.76 23.12s-15.09 3.8-22.93 5.46c-10.18 2.15-18.19 8.76-25 16.34-1.5 1.68 2.65.43 3.36-.37 5.06-5.65 10.83-11.23 18.34-13.29 3.84-1 7.81-1.08 11.74-1.42a31.17 31.17 0 0021.07-10.22c5.58-5.95 11.21-13.28 12.29-21.53 1.66-12.6 2.61-25.33-.87-37.73-.26-.93-4.4.71-4 2zM245.89 250.59c-1.15 8.56-1.78 17.17-2.56 25.77-.62 6.87-.93 16.34-10.33 16.25-4.57 0-9.52-3.81-11.41-7.81-1.7-3.6-1.33-8.38-1.47-12.31-.3-8.14-.19-16.42-1.6-24.47-.1-.56-2.85.41-2.7 1.32 1.88 10.8.82 21.84 2.05 32.69a13.82 13.82 0 0017.76 11.38c6.31-2.06 8.92-5.78 9.83-12.24 1.47-10.48 1.74-21.11 3.15-31.6.09-.7-2.61.17-2.73 1zM264.34 240.85a192.28 192.28 0 00-3.68 32.39c-.29 10.22 5.11 17.79 12 24.88 6 6.16 13.18 10.56 22.08 10.68 5.4.07 10.52-1.37 15.94-.21 6.3 1.34 11.1 5.18 14.53 10.54.45.7 3.07-.72 2.7-1.32-5.13-8-13.31-11.87-22.76-11.38-6.64.34-12.29 1.22-18.64-1.51a31.51 31.51 0 01-10.49-7.45c-7.22-7.43-13-15-12.6-25.83a195.59 195.59 0 013.66-31.81c.13-.64-2.55.16-2.73 1zM311.13 167.33c-9.94 1-18.74 8.33-25.44 15.22-8.52 8.77-16 19.61-19.06 31.57-.3 1.19 5-.33 5.45-2 2.46-9.63 8-18.4 14.35-25.93 5.26-6.2 12.93-14.72 21.55-15.61 1.39-.14 6.11-3.54 3.14-3.23zM300.01 75.41c-13 3.59-18.44 16.08-20.62 28.41a94 94 0 003.92 46.75c.46 1.3 6-1 5.39-2.63a93.94 93.94 0 01-4.94-36.7c.58-9.68 2.85-29.67 14.36-32.85 1.63-.45 5.59-4 1.9-3z"/><path fill="#381860" d="M300.27 77.24c24.86-13.42 50.59-25.37 75.9-37.93q22.59-11.15 45.12-22.4c4.73-2.37 9.47-4.74 14.18-7.17 1.23-.63 2.46-1.27 3.68-1.93a16.52 16.52 0 011.49-.83c.08 0 .14-.11.22-.14a1.65 1.65 0 10.35-.1c1 0 .16.3.66.44 19.07 5.46 26.16 30.17 27 47.48.42 8.63-.27 17.67-3.18 25.86a34.39 34.39 0 01-2.25 5c.1-.19 1.36-.93.45-.27a25.44 25.44 0 01-3 1.61q-38 20.48-75.94 41c-24.37 13.17-48.67 26.48-73.19 39.38a12.6 12.6 0 00-1.29.68c-1.5 1 1-.19.57-.11l.2 1.79c14.32-11.36 18.88-33.7 17.25-51a61.6 61.6 0 00-9.48-27.47c-4.05-6.46-9.8-14.5-17.87-15.83-1.47-.24-6.18 2.92-4.18 3.25 7.88 1.3 13.55 10 17.35 16.34a60 60 0 018.4 23c2.28 16.38-1.16 40.37-15 51.36-.79.63-1.58 2.1.2 1.79 2.93-.51 5.53-2.23 8.12-3.62q7.06-3.76 14.11-7.56 22.2-11.93 44.38-23.9 42.27-22.8 84.53-45.64c2.22-1.2 4.51-2.32 6.68-3.6 5.8-3.44 7.19-13.3 8-19.41 2.49-18.43-.83-41.25-14.37-55a33.6 33.6 0 00-10.6-7.41c-3.79-1.63-6.54-1.15-10.12.69-1.16.6-.36.25-1.7 1-1.63.86-3.27 1.69-4.91 2.53-13.28 6.76-26.64 13.36-40 20-29.55 14.63-59.27 29.03-88.64 44.12-1.36.7-2.72 1.4-4.07 2.12-3.06 1.65-2.2 3.64.95 1.94zM175.89 210.86c0 9.34.26 18.67.28 28 0 1.6 5.45-.43 5.45-2 0-9.34-.26-18.67-.28-28 0-1.6-5.45.43-5.45 2zM288.58 208.05c0 9.85.06 19.7.07 29.55 0 1.59 5.45-.43 5.45-2 0-9.85-.06-19.7-.07-29.55 0-1.59-5.45.43-5.45 2z"/><path fill="#381860" d="M180.5 209.64c2.83-2.46 6.37-3.62 9.9-4.71 1-.32 3.12-1 3.52-2.15s-.73-1.13-1.62-.86c-5.43 1.69-11 3.58-15.34 7.37-.66.57-1.48 1.4-.32 1.8s3.12-.81 3.86-1.45zM293.65 204.97c-4.95-3.14-10.52-4.55-16.23-5.55-1.46-.26-6.19 2.9-4.18 3.25 5.47 1 10.73 2.35 15.46 5.35 1.38.88 6.21-2.25 4.95-3.05z"/></svg>