<svg id="trace" xmlns="http://www.w3.org/2000/svg" viewBox="0 0 479.2 474.4"><title>skydiving</title><path d="M224.11,66.18c-11.28,1.9-22.3,5.66-30.52,13.94-9.45,9.52-14.64,23.27-15.91,36.42a112.88,112.88,0,0,0,.49,23.52c0.81,7.16,1.62,14.75,4.58,21.39,5.51,12.34,16.38,24.16,28.91,29.5,22.23,9.47,49.42,4.33,65.29-14.34,10-11.71,15.43-28.24,17.36-43.28,1.71-13.38,1.86-28.73-2.71-41.63-9.72-27.42-42.89-29.27-67.49-25.52-1.37.21-6,3.68-3.14,3.23,20.17-3.08,47.26-3,60.42,15.47,5.67,8,7.57,18,8.13,27.58,0.85,14.54-.64,29.09-5.53,42.85-4.49,12.63-11.19,24.84-23.23,31.63-10.28,5.79-22.78,6.72-34.16,4.18-12.39-2.77-22.43-9.66-30.4-19.49-8.33-10.29-11.19-21.25-12.64-34.2-1.82-16.2-1-32.6,6.91-47.18,6.73-12.41,16.71-18.52,30.5-20.83C222.32,69.18,227,65.69,224.11,66.18Z" transform="translate(-6.04 -9.33)" style="fill:#382360"/><path d="M193.38,143c2.49,10.78,9,23.08,18.2,29.64,7.11,5.09,17,6.39,25.5,6.19,9-.21,18.45-2.46,25.92-7.74,8.29-5.86,12.94-15.43,15.74-24.94a137.81,137.81,0,0,0,5-34.88c0.07-2.71.43-6-2.08-7.56-3.1-2-8.34-2.11-11.86-2.6-17.86-2.47-36.52-3.58-54.49-1.42-7.11.85-23.91,3.21-24.75,12.51-0.41,4.54.44,9.6,0.79,14.13a139.5,139.5,0,0,0,2,16.66c0.23,1.14,5.75-.84,5.39-2.63-1.67-8.42-2.13-17.1-2.55-25.66-0.14-2.79-.81-5.62,1.41-7.71,3.6-3.4,11.94-3.84,16.61-4.29a199.8,199.8,0,0,1,47.65,1.16c4.35,0.65,15.46.2,16.27,5.56,0.57,3.8-.13,7.81-0.43,11.61-0.37,4.72-.85,9.43-1.59,14.11-1.54,9.72-4,19.89-9.61,28.15-5.74,8.47-14.41,11.69-24.35,12.22-8.7.46-18.85-.87-26-6.21-8.75-6.52-15-18.51-17.38-28.94C198.5,139.18,193,141.25,193.38,143Z" transform="translate(-6.04 -9.33)" style="fill:#382360"/><path d="M195.36,144.73c7.26,1.28,15.67,1.47,22.73-1a21.47,21.47,0,0,0,7.77-4.6c4.1-3.85,7.25-10,14.26-6.48,2.56,1.29,3.34,3.84,5.39,5.69,2.41,2.18,5.62,3.32,8.72,4.13a48.05,48.05,0,0,0,21.19.68c1.7-.34,5.67-3.75,1.9-3-7.25,1.43-16.33.73-23.05-2.43-3-1.42-4.31-3.36-6.28-5.81a10.78,10.78,0,0,0-7.57-3.56c-6.09-.59-12,3.18-15.82,7.61a29.76,29.76,0,0,1-3,3.43c-2.35,2-5.34,2.39-8.29,2.65a52.7,52.7,0,0,1-13.74-.61c-1.46-.26-6.19,2.9-4.18,3.25h0Z" transform="translate(-6.04 -9.33)" style="fill:#382360"/><path d="M200,119.33a26.33,26.33,0,0,0,1.45,13.73c0.55,1.34,6-1.12,5.39-2.63a25.12,25.12,0,0,1-1.39-13.12c0.18-1.41-5.23.35-5.45,2h0Z" transform="translate(-6.04 -9.33)" style="fill:#382360"/><path d="M266.72,119.94c1.34,5,1.57,9.71-.24,14.64-0.4,1.09,2.18.38,2.47,0.28,1.09-.39,2.56-1.13,3-2.3,1.88-5.11,1.56-10.09.18-15.25-0.33-1.22-5.85.93-5.39,2.63h0Z" transform="translate(-6.04 -9.33)" style="fill:#382360"/><path d="M185.87,156.44c-14.12-5.31-25.23,7.56-28.61,19.94-3.77,13.82-6.62,35.15,4.77,46.19,8.84,8.57,23,5.6,30.68-3.08,9.49-10.75,10.18-27.75,9.31-41.21-0.11-1.67-5.55.48-5.45,2,0.67,10.49.21,21.36-3.63,31.26-1.57,4-3.78,8.44-7.46,10.93-5.41,3.65-12.56,2.12-17.28-1.87-9.12-7.69-8.95-20.74-7.88-31.58,1.05-10.64,4.45-35.63,20.6-29.55,1.63,0.61,6-2.64,4.95-3.05h0Z" transform="translate(-6.04 -9.33)" style="fill:#382360"/><path d="M273.64,175.8c-0.92,4-.29,8.38.17,12.38A144,144,0,0,0,277,206c2.55,10.45,7.71,19.59,19.67,20.43,11.3,0.79,20.73-7.25,24.09-17.65,4-12.28.83-28.23-4.84-39.53-2.61-5.2-6.89-11.29-12.83-12.84a26.93,26.93,0,0,0-17.75,1.72c-3.16,1.52-2.25,3.48.95,1.94,6.19-3,14.24-.88,18.78,3.84s7.22,11,9,17.26a63,63,0,0,1,2.77,21c-0.43,7.08-2.9,16.5-9.81,19.89-6,2.94-14,0-18.42-4.49-3.47-3.54-4.76-8.42-5.95-13.08a143.61,143.61,0,0,1-3.24-17.12c-0.56-4.33-1.34-9.23-.33-13.56,0.29-1.24-5.06.33-5.45,2h0Z" transform="translate(-6.04 -9.33)" style="fill:#382360"/><path d="M167.44,163.39c-7.6-9.55-18.51-17-28.87-23.25-9.71-5.89-23.58-9.86-27-21.76-3.16-11.08-6.38-22.42-8.8-33.67-1.73-8-2.71-17.44-6.42-24.86S81.89,60.53,78,63.56A52.66,52.66,0,0,0,67.53,74.1c-3.2,4.39-2.27,8.6-1.4,13.73,0.91,5.36,2.22,10.65,3.37,16,1.28,5.94,2,12,3.39,17.91s3.51,12.11,7,17.28,8.45,9.39,11.73,14.84c3.94,6.54,6.43,13.84,10.5,20.31a75.27,75.27,0,0,0,12.94,15.38c11.57,10.58,25.81,18.23,40.67,23,1.66,0.54,6-2.72,4.95-3.05-23.07-7.47-45.28-21.88-56.49-44-2.64-5.21-4.78-10.75-8-15.66s-7.64-8.72-10.91-13.51c-6.62-9.7-7.66-21.44-9.88-32.62C74.49,99,73.31,94.33,72.35,89.6c-1-5.1-3.09-11.54-.13-16.16s7.53-8.54,12-11.49c1.69-1.11,4.14-2.65,6-.88,1.07,1,1.55,3.66,2,5.05C94.7,73.57,96,81.32,97.74,89c2.42,10.7,5.44,21.51,8.46,32.06,3.22,11.27,15.12,15,24.42,20.4C141.84,148,153.9,155.79,162,166c1.1,1.38,6.17-1.65,5.39-2.63h0Z" transform="translate(-6.04 -9.33)" style="fill:#382360"/><path d="M89.7,58c1.66-7.8.15-15.91-1.88-23.49C85.74,26.74,82.42,21,76.11,15.89,70.61,11.47,65.58,9,58.42,9.36c-4.87.23-9.9,1.44-13.31,5.14-9.25,10-3.27,22.34,5.91,29.82,2.24,1.83,5.52,3.35,7.25,5.69,2.24,3,1.74,7.34,2,10.9,0.4,6.11,2,10.58,6.85,14.39,1.22,1,6.22-2,4.95-3.05-4.66-3.7-6-8.17-6.37-14-0.26-4.72,0-9.48-3.94-12.74-7.35-6-18-12.85-15.85-24.16A12.37,12.37,0,0,1,50,14.09c2.62-2,6.75-1.75,9.94-1.24,5.92,1,11.58,5.75,15.53,10,4.18,4.51,5.9,9.89,7.38,15.74,1.76,7,3,14.28,1.44,21.41-0.27,1.27,5.09-.33,5.45-2h0Z" transform="translate(-6.04 -9.33)" style="fill:#382360"/><path d="M311.83,166.75c6-3.72,12.13-7.3,18.23-10.9,5.74-3.39,11.35-7.58,17.62-9.88,4.66-1.71,9.53-2.86,14-5s9-3.41,13.57-5.22c4.34-1.73,6.92-4.13,9.92-7.67q6.63-7.78,13.87-15t14.8-13.62c4.84-4.12,10.25-10,16.44-12,4.49-1.44,5.93,4.58,7.1,7.93,2.28,6.54,4.12,13.37-.2,19.44-3.29,4.63-7,9-10.27,13.64-3.87,5.45-7.49,11.26-11.81,16.37a131.56,131.56,0,0,1-18.8,17.8,42.33,42.33,0,0,1-5.8,3.73c-2.73,1.53-4.23,4-5.94,6.52-14.19,21.18-41,34.77-66,37.93-1.38.17-6.08,3.6-3.14,3.23,23.11-2.92,45.36-13.83,63-28.87a59.79,59.79,0,0,0,10.63-12.59c0.63-.94,1.23-1.89,1.88-2.81,0.26-.36,1.9-2.47,1-1.71s0.57-.18,1-0.37c0.71-.35,1.39-0.75,2.06-1.17,7.51-4.69,14.21-11.3,20.37-17.58,8.71-8.89,14.91-19.79,22.42-29.66,3.88-5.1,8-9,7.56-15.9a42.21,42.21,0,0,0-4.25-15c-1.86-3.81-3.93-5.36-8.09-4.19-5.24,1.48-10,4.48-14.21,7.8a264.27,264.27,0,0,0-31.22,28.86c-3,3.19-5.61,6.73-8.64,9.84-2.82,2.9-6.5,3.55-10.22,4.76-5.84,1.9-11.2,4.85-17.08,6.77-6.65,2.17-12.11,5.42-18.1,9-8,4.78-16.09,9.43-24,14.33-3.49,2.15.23,2.48,2.35,1.17h0Z" transform="translate(-6.04 -9.33)" style="fill:#382360"/><path d="M439.2,84.25C441.56,73,446,62.64,454.41,54.7c4.74-4.46,9.77-7,16.54-6.1a12,12,0,0,1,7.18,3.82c2,2.33,1.84,5.14,1.41,8.06-0.93,6.35-4.07,12.37-9.7,15.71-3.55,2.11-7.58,3.49-10.34,6.72s-2.44,7.26-3.25,11.35c-1.08,5.43-5.33,11.21-11.5,10.65-1.48-.14-6.11,3.07-4.18,3.25,8.55,0.78,16.74-5.05,20.11-12.53,2.45-5.45.08-11.84,6.09-15.38,4.36-2.57,8.74-4.45,12.16-8.36,6.25-7.17,10.66-21.41-.73-25.78-8.88-3.41-19.37,1.21-26,7-10.11,8.86-15.7,20-18.45,33.15-0.27,1.27,5.1-.33,5.45-2h0Z" transform="translate(-6.04 -9.33)" style="fill:#382360"/><path d="M291.18,271.52c0-10-5.41-23.61-13-30.43-10.32-9.32-26.62-12.41-40.11-12a78.43,78.43,0,0,0-39.63,12.62c-11.5,7.73-14.16,22.49-16.55,35.22-0.25,1.31,5.13-.33,5.45-2,2.14-11.4,4.25-26.29,14.9-33a66.5,66.5,0,0,1,39.39-9.4c11.1,0.88,25.28,4.1,32.95,13,6.1,7,11.06,18.7,11.11,28,0,1.6,5.46-.43,5.45-2h0Z" transform="translate(-6.04 -9.33)" style="fill:#382360"/><path d="M181.93,311.25c0.21,12.16,4.31,25,10,35.6C198,358.1,208.15,364,220.37,367.1c12.05,3,23.19,2.1,34.91-1.64,9.37-3,19-7.11,24.71-15.49,8.92-13.15,12.62-29.85,11.6-45.55-0.11-1.67-5.55.49-5.45,2,1,15.46-2.5,31.87-11.28,44.82C268.22,361,252,365.5,240.68,365.88c-14.39.48-32.43-4.9-40.76-17.37-7.38-11-12.3-26-12.53-39.27,0-1.61-5.48.44-5.45,2h0Z" transform="translate(-6.04 -9.33)" style="fill:#382360"/><path d="M196,322.88c-0.53,9.65,6.51,20.68,13.77,26.58,8.38,6.8,22,6.55,32.18,6.26,9.91-.28,19.23-4.26,25.62-12,5.72-6.9,10.45-18.18,9.78-27.26-0.12-1.68-5.56.49-5.45,2,0.55,7.4-2.75,16.53-6.68,22.7-2.82,4.44-6.61,8.34-11.69,10-4.77,1.6-10,1.34-15,1.19-9.19-.28-19.4-1.16-26.1-8.17-5.59-5.86-11.45-15-11-23.4,0.08-1.52-5.36.39-5.45,2h0Z" transform="translate(-6.04 -9.33)" style="fill:#382360"/><path d="M185.13,276.93c13.71-6.71,30.95-7.78,46-8,17.86-.32,36.67.42,53.85,5.59,1.68,0.51,6-2.75,4.95-3.05-18.12-5.46-37.92-6.27-56.75-5.75-16.3.45-34.17,2.06-49,9.32-3.14,1.54-2.25,3.5.95,1.94h0Z" transform="translate(-6.04 -9.33)" style="fill:#382360"/><path d="M181.93,277c-2.95,11.45-4.38,29.29,3,39.45,7,9.65,23.62,10,32.64,3.14,5.42-4.09,8.21-10.86,13.58-14.91,6.17-4.65,13.8.94,18.72,4.63,5.47,4.1,9.14,8.42,16.22,9.6,6,1,11.54-.53,16.89-3.39,6.92-3.69,8.79-10.15,10.39-17.48,2-9,1.93-18.4-2.18-26.81-0.67-1.38-6.08,1.23-5.39,2.63,3.29,6.74,4,14.07,3,21.46a63.42,63.42,0,0,1-2.26,10.07c-1.58,5.16-3.79,8.71-9.35,10.19-12.44,3.3-19.17-8.77-28.63-13.83-8.39-4.49-17.9-.91-23.87,5.47-5,5.4-8.64,13.05-16.84,13.55-6.3.38-13.06-1.33-17.12-6.43-4.38-5.52-5.08-13.36-5.21-20.13A72.15,72.15,0,0,1,187.38,275c0.31-1.19-5,.33-5.45,2h0Z" transform="translate(-6.04 -9.33)" style="fill:#382360"/><path d="M241.67,280.61a78.19,78.19,0,0,0,13.32-.67,6.33,6.33,0,0,0,3.81-1.86c0.58-.77.63-1.6-0.67-1.37a72,72,0,0,1-12.29.65,6.37,6.37,0,0,0-3.86,1.45c-0.41.33-1.71,1.8-.32,1.8h0Z" transform="translate(-6.04 -9.33)" style="fill:#382360"/><path d="M234.2,277.47c-5.22,0-10.37-.34-15.53.7-1.7.34-5.67,3.76-1.9,3,4.35-.88,8.84-0.48,13.25-0.45a6.16,6.16,0,0,0,3.86-1.45c0.39-.34,1.73-1.79.32-1.8h0Z" transform="translate(-6.04 -9.33)" style="fill:#382360"/><path d="M194.1,288.48c-0.06,4.93-.51,12,3.56,15.62,4.25,3.79,11,1.78,15.71.2,2.36-.79,4.42-3.87.52-2.57-4.52,1.5-10.19,2.26-12.71-2.74-1.89-3.76-1.67-8.44-1.62-12.52,0-1.58-5.43.42-5.45,2h0Z" transform="translate(-6.04 -9.33)" style="fill:#382360"/><path d="M257.78,302.16a23.06,23.06,0,0,0,15.81-.22c6.13-2.52,7.88-9.35,7.31-15.48-0.16-1.7-5.59.52-5.45,2a21,21,0,0,1-.3,6.24c-0.34,1.66-1.28,4.54-2.07,5-2.42,1.27-7.89.39-10.34-.58-1.61-.64-6.06,2.61-4.95,3.05h0Z" transform="translate(-6.04 -9.33)" style="fill:#382360"/><path d="M162.73,224c-5.55,25.06-8,51.16-9.85,76.72-0.46,6.29-2.36,15.25,3,19.89,4.77,4.16,15.93,3.68,20.64-.55,3.84-3.45,3.12-11.74,3.54-16.43,0.59-6.62,1-13.25,1.78-19.86,2.37-20.64,6.45-41.08,8.27-61.79,0.13-1.47-5.31.37-5.45,2-1.41,16-4.28,31.71-6.46,47.56-1.92,13.93-2.75,27.91-4.36,41.86-0.21,1.8,0,5.12-1.46,6.3-1,.85-5.32.26-6.79,0a8.84,8.84,0,0,1-7-5.72c-2.05-5.3-.35-13.46.08-19,0.91-12,1.84-23.95,3.6-35.83,1.83-12.36,3.26-25,6-37.18,0.28-1.25-5.08.33-5.45,2h0Z" transform="translate(-6.04 -9.33)" style="fill:#382360"/><path d="M289.46,224.44c0.82,9.94,2.66,19.77,3.4,29.72,0.72,9.62.49,19.31,1,28.95,0.49,8.6.85,17.34,1.92,25.89,0.93,7.35,4.42,11.29,12.24,10.91,5-.24,11-2.26,14-6.47,3.54-4.91,3.15-12,2.86-17.7-0.65-12.65-1.65-25.35-2.81-38-1.22-13.3-2.82-27.06-6.12-40-0.31-1.21-5.83.91-5.39,2.63,5,19.75,6.51,40.86,7.8,61.13,0.38,6,1,12.12,1.15,18.18,0.18,5.52.7,14.52-5.67,16.56-3.54,1.13-8.91.2-10.94-3.18-1.82-3-1.84-7.48-2.1-10.89-0.59-7.85-1.22-15.71-1.63-23.58-0.47-9.11-.25-18.27-1-27.36-0.78-9.65-2.53-19.19-3.33-28.84-0.14-1.69-5.58.5-5.45,2h0Z" transform="translate(-6.04 -9.33)" style="fill:#382360"/><path d="M155.93,319.72c-9,6.31-9.58,21.84-7.5,31.57,1.09,5.11,2.68,12.47,6.79,16.12,4.31,3.82,11.71,4,17.08,3.33,4.57-.53,9.33-1.86,12.35-5.55,3.79-4.63,5.07-11.44,5.83-17.19,1.33-10-1.13-27.18-12.49-30.85-1.66-.54-6,2.72-4.95,3.05,8.44,2.73,12.54,15.73,12.5,23.7A52.51,52.51,0,0,1,183,359.6c-0.69,2.1-1.6,5.35-3.39,6.81s-5.84,1.35-8.15,1.3c-4.49-.1-9.77-1-12.47-4.94s-4.12-9.42-5.12-14.11c-1.68-7.86-1.79-23.37,5.64-28.59,3.13-2.2-2.18-1.31-3.54-.35h0Z" transform="translate(-6.04 -9.33)" style="fill:#382360"/><path d="M300.49,314.66c-10.8,4.4-16.75,15.94-17.34,27.21s3.21,26.12,15.8,28.8A24.75,24.75,0,0,0,315.71,368c5.09-2.8,7.77-7.45,9.67-12.81,4.33-12.24,5.74-31.07-5.66-40-1.23-1-6.22,2.06-4.95,3.05,8.78,6.85,9.14,20.36,7.36,30.42-0.89,5-2.29,10.37-5.1,14.66-3.56,5.43-11.68,5.47-17.12,2.93-8.25-3.86-11.12-14.87-11.35-23.15S291.2,320.8,300,317.23c2.26-.92,4.34-4.13.52-2.57h0Z" transform="translate(-6.04 -9.33)" style="fill:#382360"/><path d="M229,368.69c-2.55,24.58-2,48.78,4.39,72.72,0.33,1.23,5.85-.93,5.39-2.63-6.39-23.74-6.87-47.75-4.34-72.11,0.15-1.45-5.28.36-5.45,2h0Z" transform="translate(-6.04 -9.33)" style="fill:#382360"/><path d="M154.21,366.08c-2.42,17.22.43,33.55,7.05,49.45,2.87,6.89,6.26,13.17,12.11,18a36.62,36.62,0,0,0,22.87,8.11c1.48,0,6-3.22,4.18-3.25A35.19,35.19,0,0,1,177.75,430c-5.75-5-8.87-11.56-11.66-18.47-6.18-15.3-8.75-31-6.43-47.46,0.2-1.39-5.22.34-5.45,2h0Z" transform="translate(-6.04 -9.33)" style="fill:#382360"/><path d="M177.08,368.69c0,24-.12,55.82,19.92,72.91,1.16,1,6.22-2,4.95-3.05-19.61-16.73-19.39-48.52-19.41-71.88,0-1.59-5.45.43-5.45,2h0Z" transform="translate(-6.04 -9.33)" style="fill:#382360"/><path d="M293.25,369.48c-0.06,13.45-3.67,25.29-9.73,37.14-5.54,10.83-10.56,21.82-18.63,31.1-2,2.28,3.54.6,4.48-.49,8.32-9.57,13.57-20.74,19.28-31.91,6.19-12.11,10-24.09,10-37.87,0-1.59-5.44.42-5.45,2h0Z" transform="translate(-6.04 -9.33)" style="fill:#382360"/><path d="M314.24,366.66c0.59,28.62-14.83,60.17-43.64,69.16-1.59.5-5.54,4.14-1.9,3,32-10,51.68-41.22,51-74.18,0-1.62-5.48.44-5.45,2h0Z" transform="translate(-6.04 -9.33)" style="fill:#382360"/><path d="M269.14,436.39c-4.5,1.86-10,1.83-14.82,2.1-5.41.3-10.82,0.38-16.23,0.56-13.16.44-26,1.56-39.09-.73-1.46-.26-6.19,2.9-4.18,3.25,13.79,2.41,27.3,1.1,41.16.68,10.38-.32,22.83.77,32.64-3.29,2.25-.93,4.33-4.15.52-2.57h0Z" transform="translate(-6.04 -9.33)" style="fill:#382360"/><path d="M153.49,384.76a89.73,89.73,0,0,0-11.4,35.05c-0.78,6.92-1.34,13.85-1.93,20.79s-1.62,13.66-1.51,20.47c0.09,5.66,1,11.81,5.13,16,3.62,3.66,9.2,5,14.08,6,9.68,2,20-1,28.3-6.16,12.67-7.9,25.46-20.94,29.2-35.79,0.3-1.2-5,.33-5.45,2-3.91,15.53-19.3,31.91-34.71,36.19-10.63,2.95-26.32.13-30-11.77-2.21-7.22-.88-15.09-0.21-22.45s1.22-14.56,1.93-21.83c1.37-14.1,4.44-27.42,11.65-39.83,1-1.71-4.37,0-5.13,1.29h0Z" transform="translate(-6.04 -9.33)" style="fill:#382360"/><path d="M271.75,436.85c0.84,15.15,8.73,33.6,23.57,39.68,14.56,6,29.82-.8,39.94-11.74,6.29-6.8,10.39-14.95,14.57-23.12,4.28-8.36,8.48-16.77,12.16-25.42,6.31-14.85,8.45-29.7,10-45.63,1.77-18.35,3.47-37.16,2.33-55.6-0.1-1.66-5.55.48-5.45,2,0.86,13.87-.12,27.92-1.15,41.75-1,13.61-1.8,27.71-4.82,41.06-3.67,16.22-12.19,31.42-19.73,46.09-7.36,14.33-18.56,32.78-37.47,29.17-17.74-3.39-27.59-23.67-28.5-40.29-0.09-1.66-5.54.48-5.45,2h0Z" transform="translate(-6.04 -9.33)" style="fill:#382360"/><path d="M324.84,320.32a54.24,54.24,0,0,1,18.3-18.55c4.75-3,8.06-5.06,11.67-9.47,12-14.6,24.89-31.14,42.26-39.58,1.92-.93,2-1.22,3.49-0.08a11.14,11.14,0,0,1,2,3.14,80.57,80.57,0,0,1,4.15,9c0.86,2.09,1.79,4.2,2.52,6.34,1.59,4.62-.06,6.78-3.76,9.5-7.53,5.55-11.65,13.36-18.19,19.91-6.13,6.15-14.15,10.12-19.7,16.9-3.83,4.68-6.59,10.3-10,15.29a186.72,186.72,0,0,1-12.14,15.73q-5.66,6.57-11.91,12.62c-4,3.83-9.58,11-15.27,11.83-1.37.21-6,3.68-3.14,3.23,9-1.38,15.3-8.32,21.65-14.35a194.27,194.27,0,0,0,24.37-28.1c3.76-5.28,6.76-11.22,10.68-16.37,3.72-4.89,9-8.2,13.82-11.92,8.92-6.95,13.9-17.57,23-24.1,2.48-1.79,5.6-3.92,6.62-7,0.94-2.83-.39-5.39-1.42-8-1.33-3.36-2.65-6.73-4.2-10-1.11-2.34-2.45-5.95-4.74-7.4s-5.1.19-7.33,1.2a73.41,73.41,0,0,0-13.84,8.5,154.59,154.59,0,0,0-24,22.69c-3.95,4.61-7.62,9.44-11.53,14.07-1.91,2.27-4.48,3.41-7,5-8.75,5.45-16.24,12.33-21.5,21.27-1,1.7,4.36,0,5.13-1.29h0Z" transform="translate(-6.04 -9.33)" style="fill:#382360"/><path d="M403.81,248.64c1.81-3.86,5.7-6.41,8.76-9.28,3.47-3.26,7.37-6.35,11.1-9.33,2.84-2.26,7.44-5.41,11-6.53,2.1-.65,4.64-0.42,5.55,1.51,0.74,1.56.48,4,.7,5.68,0.53,3.93,1.65,7.52,0,11.32a87.94,87.94,0,0,1-6.77,11.61,38.81,38.81,0,0,0-5.06,10.6c-1.8,6.05-9.1,10.54-15.14,11-1.41.1-6.14,3.45-3.14,3.23,10.06-.75,21.37-7.66,24-17.67,1.79-6.69,7.32-12.39,10.45-18.52,2.78-5.44,1.77-10.08,1-16-0.64-4.92-1.24-6.56-6.42-6.26-5.34.3-9.22,3.22-13.9,5.6-5.51,2.8-10.2,7.61-14.93,11.52-4.25,3.52-10,7.69-12.38,12.79-0.88,1.88,4.49.08,5.13-1.29h0Z" transform="translate(-6.04 -9.33)" style="fill:#382360"/><path d="M157.14,373.31c-17.77-1.37-33.8-13.38-45.42-26.19-5.91-6.52-10.23-14-15.68-20.86a71.07,71.07,0,0,1-5.89-7.94c-0.79-1.34-1.36-3.33-2.4-4.44-0.81-.87-2.42-1.49-3.41-2.19C72.15,303,60,289,55.2,274.71c-1.33-4-2.32-8.15-4.11-11.95-1.63-3.46-4.41-6.57-5.41-10.31-1.1-4.13,1.16-6.8,3.39-10,1.81-2.61,3.84-6,6.55-7.75l-3.26,1c3.62,0.88,8.34,6.18,10.88,8.76,1.17,1.19,2.26,2.44,3.38,3.67,2.54,2.78,5.14,5.51,7.72,8.24Q85.07,267.75,95.9,279c2.22,2.31,4.21,4.8,7,6.39,5.93,3.39,12,6.55,17.74,10.24s11.11,7.61,16.88,11.11c6.57,4,12.75,8,16.56,14.89,0.77,1.4,6.11-1.32,5.39-2.63-5.94-10.82-18.54-16-28.32-22.73q-6.6-4.53-13.54-8.51c-4.23-2.43-9.48-4.31-12.87-7.82-11.17-11.55-22.42-23.07-33.22-35a80.87,80.87,0,0,0-10.82-10c-3.62-2.76-5.59-3.08-9.23-.11S45,242,42.55,245.8c-1.09,1.68-2.52,3.52-2.78,5.51-0.34,2.63,1.09,5.46,2.3,7.68a83.9,83.9,0,0,1,4.21,7.71c1.54,3.71,2.5,7.66,3.81,11.45,2.21,6.42,5.69,11.76,9.88,17.05a127,127,0,0,0,12.47,13.68,70.67,70.67,0,0,0,6.45,5.48,22.08,22.08,0,0,1,6.23,7.16c3.45,5.6,7.94,10.66,11.65,16.11a108.65,108.65,0,0,0,15.14,17.81c11.24,10.63,25.28,19.89,41.06,21.11,1.48,0.11,6.1-3.1,4.18-3.25h0Z" transform="translate(-6.04 -9.33)" style="fill:#382360"/><path d="M56.82,231.54c-2.1-13.14-6.48-27.14-18.38-34.64-9.13-5.76-22.64-6.84-29.09,3.57C5.89,206.06,4.76,213,7.83,219a15,15,0,0,0,5.84,6.53c2.7,1.52,6.15,2.15,8.28,4.53,4,4.46,1.54,11.63,5.85,16.24,3.75,4,8.19,4.67,13.51,4.74,1.48,0,6-3.23,4.18-3.25-5-.07-9.15-0.62-12.61-4.46-3.1-3.42-2.67-7.9-3.75-12.13-1.28-5-5.14-6.07-9.41-8.17a15.55,15.55,0,0,1-8.26-14.15,18.38,18.38,0,0,1,2.67-9.07c2.52-3.8,6-4.63,10.28-3.78,5.52,1.11,11,4.62,14.85,8.67,7.54,8,10.49,18.94,12.18,29.5,0.17,1.09,5.68-.8,5.39-2.63h0Z" transform="translate(-6.04 -9.33)" style="fill:#382360"/><path d="M313.31,386.1c3.38,4,9.08.89,12-2.14a21.7,21.7,0,0,0,5.74-17.52c-0.13-1-5.62.77-5.39,2.63a20.11,20.11,0,0,1-2,11.2,13.61,13.61,0,0,1-2.58,3.92c-0.66.61,0,.59-0.87,0.48a3.25,3.25,0,0,1-1.55-1.2c-1.17-1.37-6.17,1.72-5.39,2.63h0Z" transform="translate(-6.04 -9.33)" style="fill:#382360"/><path d="M346,298.38c-1.2-10.42,2.83-20,9.12-28.16a24.11,24.11,0,0,1,11-8.22c4.29-1.68,10.19-3.67,14.27-.38,1.21,1,6.22-2,4.95-3.05-4.19-3.39-10.3-1.85-14.85-.45-5.42,1.67-11,4-15.41,7.68-9.87,8.27-16,22.49-14.5,35.21,0.12,1,5.61-.76,5.39-2.63h0Z" transform="translate(-6.04 -9.33)" style="fill:#382360"/></svg>