<svg xmlns="http://www.w3.org/2000/svg" viewBox="0 0 415.19 425.32"><defs/><g data-name="Layer 2"><g data-name="Layer 3"><path fill="#c4b6d9" d="M185.15 231.18a1.08 1.08 0 001.59 1.42c14.37-11.41 42.22-12.78 54.81-5.9 20.29 11.09 27.19 40.76 31.2 61.63 3.75 19.53 5.45 39.46 10.27 58.76 5 20.23 13.73 39.94 27.8 55.33 7.6 8.31 16.81 15.33 27.37 19.25 18.57 6.89 40.16 1.21 55.09-11.27 12.33-10.31 20.88-26.15 21.91-42.34a2.63 2.63 0 00-4.65-1.84 80.25 80.25 0 01-21.75 18.23c-8.46 4.68-18.8 6.85-27.92 3.62-9.9-3.5-16.7-12.59-21.7-21.82-12.76-23.52-17.66-50.38-22.22-76.74-2.47-14.28-4.94-28.77-11.1-41.89-6.95-14.81-18.26-25.83-33.82-30.31a2.65 2.65 0 01-.39-4.94c24.19-11.53 48.24-25.7 67.67-44.23 18.92-18 33.51-41.85 35.66-67.91 2.34-28.23-10.26-57.47-30-77.36C306-16.33 206.55-9.3 184.44 76.57a1.08 1.08 0 001.94.84 148.3 148.3 0 0110-12.77 99.27 99.27 0 0114.78-13.37 84.25 84.25 0 0131.94-14.52 80 80 0 0160.11 11c12.8 8.37 23.1 20.8 27.49 35.58 6.91 23.23-3.13 47.32-18.07 65.32-11.7 14.1-26.94 25-43.28 33.28-13.8 7-28.44 12.21-42.34 19-14.85 7.26-33.01 16.4-41.86 30.25z"/><path fill="#31273c" d="M60 139.07c-9.77-14.22-15.58-30.15-13.22-47.27C50.54 64.65 75 42.33 101.91 37.9c32.23-5.3 60.52 15.2 79.41 39.49a1.33 1.33 0 002.35-1.08C167.07-14.13 72.73-10 36.25 20.59c-42.47 35.57-47.8 94.81-15 138.22 26.33 34.9 75.35 47.9 105.32 79.72a113.12 113.12 0 0127.9 52.65c3.53 15.83 3.52 32.73-2.16 47.92a68.66 68.66 0 01-48.58 42.21c-18.55 4.1-40.34.09-57.12-8.82a117.24 117.24 0 01-25.49-18.64 151.89 151.89 0 01-10.48-11c-1.32-1.53-3.46-6.26-5.66-6.57-4.16-.59-3 5.35-2.48 7.76a106.85 106.85 0 009.79 25.68c13.94 26.08 41.25 47.73 70.62 53.75C149.23 437 207.61 374.2 207.2 310.76a117 117 0 00-30.14-77.17c-17.88-19.65-41.81-32.48-63.84-47.33-17.29-11.65-39.91-27.83-53.22-47.19z"/></g></g></svg>