<svg id="Layer_1" data-name="Layer 1" xmlns="http://www.w3.org/2000/svg" viewBox="0 0 431.92 428.5"><title>SR</title><path d="M403.42,406.76C396.05,396.25,393,382,389.79,369.2s-5.55-26.1-8.45-39.12c-5.51-24.66-13.68-50.43-35.1-65.89-4.64-3.35-13.68-10.05-19.61-10.05,20.64-7.12,59.24-27.09,74.94-39.73C460.81,166.73,439.18,81,410.42,54.19,369.25,15.76,284,24.35,253.5,89.49,221.5,24.78,152,14.75,107.7,51.89,69.09,84.23,62.43,146,90.45,188.8c33.77,51.61,117.34,51.14,136,117.27,9.35,33.12-10.28,73.4-37.58,93.52-19,14-44.12,22.26-67.15,13.8-20.52-7.53-37.8-24.48-46.61-44.35-3-6.78-5.18-14.08-9.74-19.93-1.31-1.69-3-3.33-5.13-3.55-2.5-.26-4.83,1.63-5.9,3.91-4,8.44-2.92,23.74-.72,32.62,16,64.65,86.88,92.06,145.72,68.4,67.85-27.29,84.69-105.84,56.9-170.71,5.36-10.25,24.05-17.74,34.84-18.46a30.93,30.93,0,0,1,15.18,2.48c15.2,7.13,21.33,27.31,25.19,42.24s5.64,30.38,8.36,45.62c4.4,24.64,8.76,50.3,22.72,71.08,15.12,22.52,44.16,36.2,71.1,31.17,26.59-5,46.66-30.09,49.87-56.4,0.34-2.81-.17-6.58-3-7.06-1.88-.32-3.53,1.18-4.81,2.59-5.92,6.52-11.16,13.7-17.82,19.46-9.22,8-21,11.38-33,8.69A34.49,34.49,0,0,1,403.42,406.76ZM253.85,276.65a62.56,62.56,0,0,0-5.47-8c-28.47-32.74-61.21-45.12-91.85-69.53-12.76-10.17-24.08-26.8-30.32-41.88-10.24-24.75-1.1-57.3,22.52-70.37,23.47-13,61.91-24.51,105.27,26.44,45.2-59.93,110.87-41.42,129.9-9.36,10.6,17.87,9.48,49.13.24,67.74C373.87,192.44,353,205.81,331.83,215,299.87,228.87,271,236.2,253.85,276.65Z" transform="translate(-51.67 -30.4)" style="fill:#c4b6d9"/></svg>