<?xml version="1.0" encoding="utf-8"?>
<!-- Generator: Adobe Illustrator 19.2.0, SVG Export Plug-In . SVG Version: 6.00 Build 0)  -->
<svg version="1.1" id="Layer_1" xmlns="http://www.w3.org/2000/svg" xmlns:xlink="http://www.w3.org/1999/xlink" x="0px" y="0px"
	 viewBox="0 0 581.6 67.1" style="enable-background:new 0 0 581.6 67.1;" xml:space="preserve">
<style type="text/css">
	.st0{enable-background:new    ;}
	.st1{fill:#333366;}
</style>
<g class="st0">
	<path class="st1" d="M36.4,16l0.6-2.8c-0.3-3.9-3.1-5.9-8.3-5.9c-3,0-5.7,1-7.9,3.1c-2.2,2.1-3.3,4.3-3.3,6.5s1,4.3,3,6
		c2,1.7,4.4,3.2,7.3,4.6c2.8,1.3,5.7,2.8,8.5,4.4c2.8,1.6,5.3,3.6,7.3,6c2,2.5,3,5.3,3,8.4c0,6.5-2.6,11.6-7.9,15.3
		c-5.3,3.7-11,5.6-17.1,5.6S10.2,66,6.1,63.9S0,58.5,0,54.1c0-2.3,0.8-4.4,2.5-6.3c1.7-1.9,4-2.8,7.1-2.8c1.2,0,2.3,0.3,3.3,1
		c1,0.7,1.6,1.5,1.8,2.6c0,1.1-0.7,1.6-2,1.6c-2.6,0-3.9,1.1-3.9,3.2c0.1,2.4,1.3,4.6,3.6,6.5c2.3,2,5.6,2.9,9.8,2.9
		S30,61.5,33,58.7c3-2.8,4.5-6.1,4.5-10c0-2.6-1-5-3.1-7.1c-2-2.1-4.5-3.9-7.4-5.4c-2.9-1.5-5.8-3-8.7-4.5c-2.9-1.5-5.4-3.4-7.4-5.6
		s-3.1-4.6-3.1-7.4c0-4.9,2.2-8.8,6.5-11.7c4.3-2.9,9.3-4.4,14.8-4.4c3.7,0,7.1,0.7,10.1,2.2c3,1.5,4.6,3.7,4.7,6.6
		c0,1.7-0.5,3.2-1.4,4.4c-0.9,1.2-2.1,1.7-3.7,1.7C37.3,17.6,36.5,17.1,36.4,16z"/>
	<path class="st1" d="M82.3,66.5c-3,0-5.2-0.6-6.8-1.8c-0.5-0.5-0.8-1.8-0.8-3.9c0-2.1,0.1-4.9,0.2-8.4c-2,4.8-4,8.3-5.9,10.6
		c-1.9,2.3-4.4,3.5-7.5,3.5c-3.1,0-5.7-1.4-8-4.1c-2.3-2.8-3.4-7.1-3.4-13c0-5.9,1.7-11.1,5.2-15.7c3.5-4.5,8-6.8,13.7-6.8
		c2.4,0,5.2,1.5,8.2,4.6c0.6-0.8,1.7-1.8,3.3-2.9c1.6-1.1,2.9-1.7,4-1.7c1.1,0,1.7,1.4,1.7,4.2c0,0.7-0.2,2.2-0.6,4.3
		c-0.4,2.1-0.9,3.7-1.4,4.6c-0.7,1.7-1,7.7-1,17.9c0,2,0.2,3,0.7,3c1.3-0.1,3.1-1.6,5.4-4.7c2.3-3,4.6-6.9,6.8-11.7
		c2.3-4.8,3.6-7.1,4.1-7.1c0.5,0,0.7,0.3,0.7,0.9c0,2.1-1.1,5.3-3.3,9.8C91.5,60.4,86.4,66.5,82.3,66.5z M68.4,31.4
		c-2.1,0-4.4,1.5-6.8,4.6c-2.4,3-3.6,6.6-3.6,10.7c0,4.1,0.6,7.5,1.9,10.1c1.3,2.6,2.9,4,5,4c2.5,0,6.2-6.1,11.1-18.2
		c0.1-0.6,0.2-1.6,0.3-3c0.1-1.4,0.2-2.5,0.3-3.2c-0.7-1.2-1.9-2.3-3.6-3.4C71.2,31.9,69.7,31.4,68.4,31.4z"/>
	<path class="st1" d="M102.4,60.1l0.1,3.4c0,2.1-0.6,3.1-1.8,3.1c-1.8,0-3.6-0.2-5.3-0.7c-1.7-0.5-2.5-1.1-2.5-2
		c0-0.8,0.2-3.7,0.6-8.7c0.4-5,0.6-8.7,0.6-11.2v-6.5c0-3.5,0.4-5.6,1.1-6.4c0.8-0.7,2.1-1.8,4.1-3.2c1.9-1.4,3.4-2.1,4.2-2.1
		c0.9,0,1.4,0.1,1.7,0.4c0.2,0.3,0.3,0.8,0.3,1.6c0,3.9-0.8,7.6-2.3,11c-0.4,4.2-0.6,7.1-0.6,8.7c4-7.3,6.9-12,8.5-14.3
		c2.8-4.3,5.4-6.4,7.7-6.4c1.4,0,2.8,0.5,4.1,1.6s1.9,2.5,1.9,4.1c0,1.6,0,3.1-0.1,4.6c0,1.4-0.1,2.5-0.2,3.4
		c-0.1,0.8-0.1,1.3-0.1,1.5c0.3-0.6,1.6-2.2,3.9-4.9c2.3-2.7,3.8-4.5,4.6-5.3c0.8-0.8,1.7-1.6,2.6-2.4c1.8-1.7,3.3-2.5,4.8-2.5
		c1.4,0,2.7,0.5,4,1.5c1.3,1,1.9,2.3,1.9,3.8c0,3.2-0.4,8-1.1,14.2c-0.7,6.3-1.1,10.2-1.1,11.9c0,1.7,0.2,2.5,0.7,2.5
		c1.3-0.1,3.1-1.6,5.4-4.7c2.3-3,4.6-6.9,6.8-11.7c2.3-4.8,3.6-7.1,4.1-7.1c0.5,0,0.7,0.3,0.7,0.9c0,2.1-1.1,5.3-3.3,9.8
		c-6,12.3-11.1,18.5-15.2,18.5c-2.6,0-4.7-0.6-6.2-1.8c-0.5-0.5-0.8-1.9-0.8-4c0-2.2,0.2-5.7,0.6-10.6c0.4-4.9,0.6-8.5,0.6-10.9
		s-0.4-3.6-1.3-3.6c-1,0-3.1,1.6-6.5,4.8c-3.3,3.2-5.1,5.5-5.3,6.8c-0.5,2.5-0.7,7.9-0.7,16.2c0,2.1-0.6,3.1-1.7,3.1
		c-1.8,0-3.4-0.2-5-0.7c-1.6-0.5-2.3-1.1-2.3-2c0-0.8,0.2-4.5,0.7-10.8c0.5-6.4,0.7-10.9,0.7-13.5c0-2.6-0.4-3.9-1.3-3.9
		c-0.9,0-3,2.5-6.4,7.5c-3.4,5-5.2,8.5-5.6,10.5C102.5,55.7,102.4,57.8,102.4,60.1z"/>
	<path class="st1" d="M186,66.5c-3,0-5.2-0.6-6.8-1.8c-0.5-0.5-0.8-1.8-0.8-3.9c0-2.1,0.1-4.9,0.2-8.4c-2,4.8-4,8.3-5.9,10.6
		c-1.9,2.3-4.4,3.5-7.5,3.5c-3.1,0-5.7-1.4-8-4.1c-2.3-2.8-3.4-7.1-3.4-13c0-5.9,1.7-11.1,5.2-15.7c3.5-4.5,8-6.8,13.7-6.8
		c2.4,0,5.2,1.5,8.2,4.6c0.6-0.8,1.7-1.8,3.3-2.9c1.6-1.1,2.9-1.7,4-1.7c1.1,0,1.7,1.4,1.7,4.2c0,0.7-0.2,2.2-0.6,4.3
		c-0.4,2.1-0.9,3.7-1.4,4.6c-0.7,1.7-1,7.7-1,17.9c0,2,0.2,3,0.7,3c1.3-0.1,3.1-1.6,5.4-4.7c2.3-3,4.6-6.9,6.8-11.7
		c2.3-4.8,3.6-7.1,4.1-7.1c0.5,0,0.7,0.3,0.7,0.9c0,2.1-1.1,5.3-3.3,9.8C195.2,60.4,190.1,66.5,186,66.5z M172,31.4
		c-2.1,0-4.4,1.5-6.8,4.6c-2.4,3-3.6,6.6-3.6,10.7c0,4.1,0.6,7.5,1.9,10.1c1.3,2.6,2.9,4,5,4c2.5,0,6.2-6.1,11.1-18.2
		c0.1-0.6,0.2-1.6,0.3-3c0.1-1.4,0.2-2.5,0.3-3.2c-0.7-1.2-1.9-2.3-3.6-3.4C174.8,31.9,173.3,31.4,172,31.4z"/>
	<path class="st1" d="M205.4,60.1l0.1,3.4c0,2.1-0.6,3.1-1.8,3.1c-1.8,0-3.6-0.2-5.3-0.7c-1.7-0.5-2.5-1.1-2.5-2
		c0-0.8,0.2-3.7,0.6-8.7c0.4-5,0.6-8.7,0.6-11.2v-6.5c0-3.5,0.4-5.6,1.1-6.4c0.8-0.7,2.1-1.8,4.1-3.2c1.9-1.4,3.4-2.1,4.2-2.1
		c0.9,0,1.4,0.1,1.7,0.4c0.2,0.3,0.3,0.8,0.3,1.6c0,3.9-0.8,7.6-2.3,11c-0.4,4.2-0.6,7.1-0.6,8.7c0.3-0.4,1.9-2.9,4.8-7.5
		c2.9-4.5,5.4-7.9,7.4-10c2-2.1,3.8-3.2,5.4-3.2s3,0.5,4.3,1.5c1.3,1,1.9,2.3,1.9,3.8c0,3.2-0.4,8-1.1,14.2
		c-0.7,6.3-1.1,10.2-1.1,11.9c0,1.7,0.2,2.5,0.7,2.5c1.3-0.1,3.1-1.6,5.4-4.7c2.3-3,4.6-6.9,6.8-11.7c2.3-4.8,3.6-7.1,4.1-7.1
		c0.5,0,0.7,0.3,0.7,0.9c0,2.1-1.1,5.3-3.3,9.8c-6,12.3-11.1,18.5-15.2,18.5c-3,0-5.2-0.6-6.8-1.8c-0.5-0.5-0.8-1.9-0.8-4
		c0-2.2,0.2-5.7,0.6-10.6c0.4-4.9,0.6-8.5,0.6-10.9s-0.4-3.6-1.3-3.6c-0.9,0-3.2,2.5-6.9,7.5c-3.7,5-5.7,8.2-6,9.6
		C205.6,55.4,205.4,57.8,205.4,60.1z"/>
	<path class="st1" d="M263.5,48.1c-6,12.3-11.1,18.5-15.3,18.5c-4.2,0-6.6-0.5-7.3-1.4c-0.7-1-1.1-4.1-1.1-9.5
		c0-5.4,0.5-13.1,1.6-23.2c-3.8-0.7-5.8-2.2-6.1-4.5c0-1.2,0.8-1.8,2.4-1.8c1.6,0,3,0.3,4.2,0.9c0.7-5.3,1.5-10.6,2.4-16.1
		c0.2-1.4,1-2.7,2.2-4c1.2-1.2,2.4-1.9,3.5-1.9c1,0,1.5,1.5,1.5,4.5c0,1.4-0.5,7.8-1.6,19.2c2.1-0.4,4.3-1.1,6.8-2.2
		c2.5-1.1,4-1.6,4.4-1.6c1.4,0,2.1,0.4,2.1,1.2c0.1,0.7-1.3,1.7-4.2,3c-2.9,1.3-6,2.3-9.4,2.9c-0.9,10.7-1.4,18.8-1.4,24.3
		c0,2.9,0.5,4.4,1.4,4.4c1.4-0.1,3.2-1.6,5.5-4.6c2.3-3,4.6-6.9,6.8-11.7c2.3-4.8,3.6-7.2,4.1-7.2c0.5,0,0.7,0.3,0.7,0.9
		C266.8,40.3,265.7,43.6,263.5,48.1z"/>
	<path class="st1" d="M269.2,60.1l0.1,3.4c0,2.1-0.6,3.1-1.8,3.1c-1.8,0-3.6-0.2-5.3-0.7c-1.7-0.5-2.5-1.1-2.5-2
		c0-0.8,0.2-3.7,0.6-8.7c0.4-5,0.6-8.7,0.6-11.2v-6.4c0-18.8,3.5-30.7,10.4-35.9c1.6-1.2,3.2-1.8,4.9-1.8c0.8,0,1.5,0.8,2.3,2.4
		c0.8,1.6,1.1,3.7,1.1,6.3c0,6.3-1.1,12.2-3.3,17.7c-2.2,5.5-4.5,9.7-6.8,12.6c-0.1,1.8-0.1,4.7-0.1,8.6c0.3-0.4,1.9-2.9,4.8-7.5
		c2.9-4.5,5.4-7.9,7.4-10c2-2.1,3.8-3.2,5.4-3.2c1.6,0,3,0.5,4.3,1.5c1.3,1,1.9,2.3,1.9,3.8c0,3.2-0.4,8-1.1,14.2
		c-0.7,6.3-1.1,10.2-1.1,11.9c0,1.7,0.2,2.5,0.7,2.5c1.3-0.1,3.1-1.6,5.4-4.7c2.3-3,4.6-6.9,6.8-11.7c2.3-4.8,3.6-7.1,4.1-7.1
		c0.5,0,0.7,0.3,0.7,0.9c0,2.1-1.1,5.3-3.3,9.8c-6,12.3-11.1,18.5-15.2,18.5c-3,0-5.2-0.6-6.8-1.8c-0.5-0.5-0.8-1.9-0.8-4
		c0-2.2,0.2-5.7,0.6-10.6c0.4-4.9,0.6-8.5,0.6-10.9s-0.4-3.6-1.3-3.6c-0.9,0-3.2,2.5-6.9,7.5c-3.7,5-5.7,8.2-6,9.6
		C269.4,55.4,269.2,57.8,269.2,60.1z M276.6,11.1c0-3.1-0.4-4.6-1.3-4.6c-1.4,0-2.7,4.1-4,12.2c-0.7,4.3-1.2,9.3-1.5,15.1
		C274.4,24.8,276.6,17.2,276.6,11.1z"/>
	<path class="st1" d="M333.2,66.5c-3,0-5.2-0.6-6.8-1.8c-0.5-0.5-0.8-1.8-0.8-3.9c0-2.1,0.1-4.9,0.2-8.4c-2,4.8-4,8.3-5.9,10.6
		c-1.9,2.3-4.4,3.5-7.5,3.5c-3.1,0-5.7-1.4-8-4.1c-2.3-2.8-3.4-7.1-3.4-13c0-5.9,1.7-11.1,5.2-15.7c3.5-4.5,8-6.8,13.7-6.8
		c2.4,0,5.2,1.5,8.2,4.6c0.6-0.8,1.7-1.8,3.3-2.9c1.6-1.1,2.9-1.7,4-1.7c1.1,0,1.7,1.4,1.7,4.2c0,0.7-0.2,2.2-0.6,4.3
		c-0.4,2.1-0.9,3.7-1.4,4.6c-0.7,1.7-1,7.7-1,17.9c0,2,0.2,3,0.7,3c1.3-0.1,3.1-1.6,5.4-4.7c2.3-3,4.6-6.9,6.8-11.7
		c2.2-4.8,3.6-7.1,4.1-7.1c0.5,0,0.7,0.3,0.7,0.9c0,2.1-1.1,5.3-3.3,9.8C342.4,60.4,337.3,66.5,333.2,66.5z M319.2,31.4
		c-2.1,0-4.4,1.5-6.8,4.6c-2.4,3-3.6,6.6-3.6,10.7c0,4.1,0.6,7.5,1.9,10.1c1.3,2.6,2.9,4,5,4c2.5,0,6.2-6.1,11.1-18.2
		c0.1-0.6,0.2-1.6,0.3-3c0.1-1.4,0.2-2.5,0.3-3.2c-0.7-1.2-1.9-2.3-3.6-3.4C322,31.9,320.5,31.4,319.2,31.4z"/>
	<path class="st1" d="M395.4,66l-16.9-26.3h-1.2h-18.4V66h-2.4V7.3h20.8c5.6,0,10.1,1.4,13.3,4.3c3.3,2.9,4.9,6.8,4.9,11.9
		c0,4.5-1.3,8.1-3.8,10.9c-2.5,2.8-6,4.5-10.5,5.2L398.2,66H395.4z M388.9,33.8c2.8-2.4,4.1-5.9,4.1-10.3c0-4.4-1.4-7.8-4.1-10.3
		c-2.8-2.5-6.7-3.7-11.7-3.7h-18.4v27.9h18.4C382.3,37.4,386.2,36.2,388.9,33.8z"/>
	<path class="st1" d="M430.9,47.2H399c0.2,5.5,1.7,9.9,4.5,13c2.8,3.1,6.6,4.6,11.4,4.6c3.2,0,6-0.7,8.5-2.2
		c2.5-1.5,4.3-3.5,5.5-6.1l1.8,1c-1.4,2.9-3.5,5.2-6.2,6.9c-2.7,1.7-5.9,2.5-9.5,2.5c-5.6,0-10.1-1.8-13.2-5.5
		c-3.2-3.7-4.8-8.8-4.8-15.3c0-6.5,1.6-11.6,4.7-15.3c3.1-3.7,7.4-5.5,12.9-5.5c5.2,0,9.3,1.9,12.2,5.6c2.9,3.7,4.4,8.7,4.4,15.1
		L430.9,47.2z M403.3,31.9c-2.7,3.2-4.1,7.6-4.2,13.2h30c-0.2-5.7-1.5-10.1-4-13.2c-2.5-3.2-6-4.8-10.6-4.8
		C409.7,27.1,406,28.7,403.3,31.9z"/>
	<path class="st1" d="M464.1,29c2.6,2.6,3.9,6.2,3.9,10.8V66h-2.2V40.4c0-4.3-1.1-7.5-3.4-9.8c-2.3-2.3-5.4-3.4-9.3-3.4
		c-2.8,0-5.3,0.7-7.6,2c-2.3,1.4-4.1,3.2-5.5,5.5c-1.3,2.3-2,4.9-2,7.8V66h-2.2V26h2v9.6c1.1-3.2,3-5.7,5.8-7.6
		c2.8-1.9,6.1-2.8,9.8-2.8C458,25.2,461.5,26.5,464.1,29z"/>
	<path class="st1" d="M508.9,64.2l-0.2,1.8c-0.8,0.5-1.8,0.7-3.1,0.7c-3.9,0-5.9-2.6-5.9-7.7V59c-1.1,2.5-3.1,4.4-6,5.7
		c-2.9,1.4-6,2-9.2,2c-3.8,0-6.8-0.9-9-2.6c-2.2-1.7-3.3-4.1-3.3-7.1c0-3.1,1.2-5.7,3.5-7.5c2.3-1.9,6-3.3,11-4.2l13.1-2.5v-4.5
		c0-3.6-1-6.3-3-8.3c-2-2-4.9-3-8.7-3c-3.4,0-6.2,0.7-8.4,2.2c-2.2,1.5-3.8,3.8-4.9,6.9l-1.7-1.3c2.3-6.5,7.3-9.8,15.1-9.8
		c4.5,0,7.9,1.1,10.3,3.3c2.4,2.2,3.6,5.5,3.6,9.7v21.4c0,1.7,0.3,3,1,3.9c0.7,0.9,1.7,1.3,3,1.3C507.3,64.9,508.3,64.7,508.9,64.2z
		 M491.6,63.6c2.3-0.8,4.2-2.1,5.8-3.8c1.6-1.7,2.3-3.7,2.3-6.1v-8.9l-12.1,2.3c-4.7,0.9-8,2.1-10.1,3.7c-2.1,1.6-3.1,3.7-3.1,6.3
		c0,2.5,0.9,4.3,2.8,5.7c1.8,1.3,4.4,2,7.7,2C487.1,64.8,489.3,64.4,491.6,63.6z"/>
	<path class="st1" d="M541.3,26v40h-2l-0.1-9.5c-1.1,3.1-3,5.7-5.9,7.5c-2.8,1.9-6.1,2.8-10,2.8c-4.2,0-7.6-1.2-10-3.7
		c-2.4-2.5-3.6-6-3.6-10.6V26h2.2v26.1c0,4.2,1,7.3,3.1,9.5c2,2.2,5,3.2,8.8,3.2c3.3,0,6-0.8,8.3-2.3c2.3-1.5,4-3.4,5.2-5.8
		c1.2-2.3,1.8-4.6,1.8-6.9V26H541.3z"/>
	<path class="st1" d="M581.6,7.6V66h-2l-0.1-10.7c-1,3.6-2.9,6.5-5.6,8.5c-2.7,2-6,3-9.8,3c-5.5,0-9.9-1.8-13-5.5
		c-3.2-3.7-4.7-8.8-4.7-15.3c0-6.5,1.6-11.6,4.7-15.3c3.2-3.7,7.5-5.5,13-5.5c3.8,0,7,1,9.7,3c2.7,2,4.6,4.8,5.6,8.4v-29H581.6z
		 M575.2,60c2.7-3.2,4.1-7.6,4.2-13.1v-1.8c-0.1-5.5-1.5-9.9-4.2-13.2c-2.7-3.2-6.3-4.8-10.8-4.8c-5,0-8.9,1.7-11.7,5
		c-2.8,3.3-4.2,8-4.2,13.9s1.4,10.5,4.2,13.8c2.8,3.3,6.7,5,11.7,5C568.9,64.8,572.4,63.2,575.2,60z"/>
</g>
</svg>
