<svg id="Layer_2" data-name="Layer 2" xmlns="http://www.w3.org/2000/svg" viewBox="0 0 442.96 430.57"><title>candle</title><path d="M153.53,392.8l-3.25-36.28a0.29,0.29,0,0,0,0-.08,20.77,20.77,0,0,0,3.44-13.92c-0.8-9.39-2.24-18.77-3.62-28.09a0.18,0.18,0,0,0-.15-0.14,31.38,31.38,0,0,0,2.68-7.82,37.17,37.17,0,0,0,.22-13c-0.39-2.49-1.11-8.94-3.57-10.25q-0.62-20.61-2.76-41.12a12.24,12.24,0,0,0,.89-2.44c1.1-4.48.12-9.59-.17-14.13l-1-15.66-2.09-32.29c0-.58-1.34-0.24-2.14.27-15.19-9.83-34-12.66-51.56-15.07q-2-.28-4-0.46a0.22,0.22,0,0,0,0-.09c-2-3-.84-8.58-0.44-12,0.45-3.94,1-8.42,2.51-12.11,0.82-2,7.46-10.32.09-9.23-4.53.67-6.4,6.1-7.72,9.73a51,51,0,0,0-2.61,22.75c0.05,0.5,2.79-.38,2.7-1.32A51,51,0,0,1,82,142.44c0.67-2.7,1.43-6.31,3-8.62,1-1.48,4.07-4.82,4-1.19,0,1.93-1.22,2.39-2.16,3.93-2.25,3.68-2.88,8.62-3.47,12.8-0.49,3.48-1.74,9-.47,12.71a51.46,51.46,0,0,0-19.54,2.56c-9.35,3.22-18.89,6.56-28,10.42-5.39,2.29-11,6-10.92,12.59,0,0.24,0,.47.05,0.7A301.58,301.58,0,0,0,26.62,242a11.6,11.6,0,0,0,2,5.83c-2.6,1.93-2.69,7.1-3,10-1.13,9.38-.19,18.84,1,28.17,0.7,5.71,1.39,11.38,1.88,17.07a3.47,3.47,0,0,0,0,1.71,0.21,0.21,0,0,0,.14.14c0.31,4,.52,8,0.54,12,0,6.21,1.75,11,5.9,14.59a1.34,1.34,0,0,0-.93,1L37,358.07q0.67,5.9,1.35,11.79c0.31,2.67.5,5.32,1.63,7.66a1.94,1.94,0,0,0-1.4,1.13L40,409.53c0.44,9.36.25,19,1.76,28.28,2.79,17.11,17.74,26.19,34,27.9,9.13,1,18.4,0,27.49-1,8.31-.92,16.7-2.22,24.51-5.32,14.8-5.88,24.41-17.42,26.68-33.34C156,415,154.51,403.8,153.53,392.8ZM29.86,179.66c3.39-3.25,8.42-4.54,12.71-6.13,8.09-3,16.27-6.76,24.65-8.85,8.73-2.17,17.77-.84,26.51.55,16.14,2.57,32.64,5.4,46.47,14.61-2.33,9-10.43,13.78-18.87,16.56a156,156,0,0,1-25.89,5.95c-16.12,2.38-33,2.75-49.09.12-7.25-1.19-15.09-3.92-18.12-11.26C26.71,187.47,26.75,182.64,29.86,179.66Zm-1.33,54.19q-0.81-7.7-1.21-15.44c-0.41-7.73-.51-15.48-0.33-23.22,2.79,3.94,7.54,6.55,12.28,7.84,9.68,2.64,20.45,2.85,30.43,2.77a175,175,0,0,0,29.65-2.75c13.82-2.48,35.61-6.12,42.29-20.57l1.78,27.41c0.6,9.2,2.42,19.19,1.62,28.38a11.35,11.35,0,0,1-1.13,4.1,0.76,0.76,0,0,0-.14.26c-4.54,8.56-19.75,9.66-28.21,11-9.61,1.57-19.27,2.74-28.95,3.78-9.22,1-19.35,3.09-28.57,1.4-8.25-1.51-18.55-5.64-25.25-10.87C28.62,244.75,29,238.66,28.53,233.85Zm0.06,45.31A118.41,118.41,0,0,1,27.83,263c0.11-3.35-.11-10.49,1.84-14.09a11.14,11.14,0,0,0,1.29,1,76.94,76.94,0,0,0,11,5.84c6.66,3,13.56,5.34,20.94,5.3,8.63,0,17.39-1.46,26-2.42,9-1,18-2.16,27-3.68,7.78-1.32,21.51-2.7,28.12-9.41q1.95,19.4,2.53,38.9a0.49,0.49,0,0,0-.18.48l0.08,0.09a1.28,1.28,0,0,0-.44.4c-6.56,12.26-22.5,13.58-34.79,15.89s-24.63,4.47-37.07,5.33c-11.5.8-23.43,0.22-34.14-4.43-2.89-1.25-5.74-3.27-8.87-1.91C30.42,293.27,29.33,286.23,28.59,279.15Zm3.06,27.56c-0.08-1.41-.2-2.82-0.32-4.23,1.4-1.14,8.31,2.16,8.56,2.25a55.74,55.74,0,0,0,6.7,2,74.07,74.07,0,0,0,16.15,1.84c11.27,0.14,22.52-1.51,33.61-3.3,11.27-1.82,23-3.42,33.94-6.87,7.07-2.24,13.7-6.08,17.61-12.48,1.51,2.49,2.08,7.64,2.34,9.59a35.93,35.93,0,0,1-.7,13.42C146.92,319.52,139,327,129,330.94c-9.79,3.85-20.54,4.36-30.92,5.1s-20.68,1.79-31,1.6c-9-.17-19.21-1-27.12-5.84C30.37,326,32.24,316.52,31.65,306.72Zm8.27,52L37,333a23.38,23.38,0,0,0,2.31,1.34c16,8.08,36.58,4.82,53.69,3.6,16.23-1.15,34-1.72,47.41-12.11a34,34,0,0,0,7.32-7.74c1.18,8,2.28,16,3.1,24,0.49,4.8.5,9-2,13.3-0.31.55-.65,1.08-1,1.6a0.83,0.83,0,0,0-.28.42,54.52,54.52,0,0,1-6,7C129.1,377.21,112.63,384.12,95,385.64a230,230,0,0,1-25,.42c-7.74-.18-16.27-0.7-22.89-5.18C39.9,376,40.81,366.46,39.92,358.72Zm91.34,98c-8.25,4-17.38,5.42-26.4,6.42s-18,1.93-27,1c-15.28-1.63-29.89-10-33.11-26-1.93-9.58-1.57-19.86-2-29.6L41.4,379.71c8.55,9.84,26.44,8.11,38,8.07,13.54-.05,27-1.27,39.54-6.62A76.52,76.52,0,0,0,147.57,360l0.2-.24c1.55,17,3.5,34,4.43,51C153.21,429.09,149.32,448,131.27,456.69Z" transform="translate(-24.18 -35.54)" style="fill:#381860"/><path d="M446.5,175.14c-11.38-4-23-7.27-34.59-10.71a1.47,1.47,0,0,0-.9.15,24.4,24.4,0,0,0-3.07-.66,0.64,0.64,0,0,0,.18-0.36,28.1,28.1,0,0,0-1.25-10.89,26.26,26.26,0,0,0-2.65-5.62c-1-1.62-4-4.06-4.18-5.9q-0.91-1.09.65-1.71,1-1.91,1.87,0a6.61,6.61,0,0,1,1.91,2.75,48,48,0,0,1,2.41,6.24,89.22,89.22,0,0,1,3.54,15.2c0.08,0.54,2.83-.4,2.7-1.32-0.77-5.23-4-29.58-13.36-25.69-4.22,1.75-2.79,5.71-.57,8.6,4.27,5.55,6.51,11.48,6.25,18.47-6.19-.37-12.46,1.19-18.57,2.32-8.48,1.56-17.29,2.68-25.36,5.82-4.23,1.64-10.73,4.24-11.47,9.32a1.72,1.72,0,0,0-.63.48c-4.37,6.86-5.18,14.72-5,22.7,0.12,4.21.51,8.4,0.56,12.61,0.06,5.11-.7,10.17-0.81,15.27a35.79,35.79,0,0,0,.39,6.38l-0.12.12c-2.17,2.85-2.15,6.16-2.42,9.62l-1.21,15.31c-0.77,9.74-2,19.58-2.3,29.34a13.8,13.8,0,0,0,.66,4.6,0.58,0.58,0,0,0-.06.1c-1.58,3.57-1.18,7.43-1.2,11.26,0,3.25-.44,6.93.67,10.05a10.41,10.41,0,0,0,1.64,2.91,0.66,0.66,0,0,0-.17.33,238.45,238.45,0,0,0-2,28.51,23.24,23.24,0,0,0,2.34,10.49,1.19,1.19,0,0,0-.67.75L338,392.77c-0.55,10-1.78,20.2-1.47,30.2,0.53,16.83,16,27.54,29.35,35.15,14.42,8.2,31.89,8.6,47.79,5.32,13.76-2.83,27.72-9.73,31.15-24.53,2.52-10.89,3.34-22.45,4.22-33.57,0.93-11.77,1.29-23.57,1.18-35.37a6.35,6.35,0,0,0,1.56-1.32c1.87-2.26,1.37-6.23,1.57-9l2.1-28.9c0-.21-0.19-0.28-0.48-0.27,2.4-2.88,3.38-6.7,4-10.54,0.43-2.49,2.68-14.93-2.27-14.63,3.42-7.71,3.37-16.7,4.1-25l1.52-17c0.17-1.94,1.68-6.72-.58-7.85a12.6,12.6,0,0,0,.92-1.88c1.71-4.39.43-9.22,0.18-13.74a91,91,0,0,1,.7-15.48c1.21-10.35,3.25-20.56,3.21-31,0-.33-0.46-0.35-1-0.2a6.1,6.1,0,0,0,1.33-3.6C467.62,180.38,452.83,177.38,446.5,175.14Zm-1.95,248.67c-1,7.75-1.27,16.94-5.41,23.8-5.37,8.9-15.67,12.61-25.37,14.5-16.47,3.21-33.9,1.91-48.29-7.28-13-8.29-26.31-17.77-26.22-34.65,0.09-18.55,1.85-37.23,3-55.77a37.37,37.37,0,0,0,5,5.93c5.8,5.67,15.08,7.64,22.64,9.85A80.27,80.27,0,0,0,394,383.78c8.25-.15,16.8-0.51,24.88-2.3,8.83-2,17.29-6,25.69-9.23,0.87-.34,1.88-0.65,2.89-1A400.62,400.62,0,0,1,444.56,423.81Zm6.42-68c-0.24,3.3.21,8.15-.85,11.29-1.13,3.33-8.36,5.06-11.53,6.3-8.52,3.32-16.76,6.68-25.93,7.69-7.87.87-16.16,1.53-24.06,0.84s-15.8-3-23.42-5.56c-7.43-2.49-13.52-4.63-18.46-11.08-1.78-2.32-3.91-5-5-7.71-1.47-3.56-.95-7.95-0.85-11.72,0.2-7.27.77-14.52,1.62-21.74,3.84,3.22,9.41,5.28,13.35,7.1,7.73,3.57,16.16,5.7,24.42,7.68a107.76,107.76,0,0,0,26,3.43,117.11,117.11,0,0,0,23.2-2.9c7.13-1.51,16.07-2.55,22.45-6.37,0.26-.16.51-0.33,0.76-0.5Zm4.36-30.73c-1.47,5.27-4.86,7.87-10.06,9.29-3.07.84-6.18,1.57-9.27,2.3-14.16,3.35-28.16,5.14-42.64,2.86-12.65-2-26-5.25-37.46-11-4.92-2.45-12.67-5.29-14.6-10.93-1-3-.66-6.58-0.64-9.75,0-2.25-.17-4.65.06-7,2.08,3.53,5.34,6.52,8.48,9.21a68.15,68.15,0,0,0,21.32,12.1,110.91,110.91,0,0,0,52.52,5.1c12.57-1.95,25.53-7.89,32.25-19.22,0.19-.32.36-0.65,0.54-1C458.48,309.1,455.85,323.28,455.34,325.1ZM457.61,287c-0.9,10.06-1.77,19.59-9.09,27.26-14.67,15.37-40.57,13.76-59.8,10.48a83.49,83.49,0,0,1-26.65-9c-7.18-4-16.1-10.12-19.75-17.76-2.17-4.53-.73-10.54-0.35-15.35l1.21-15.31,1.21-15.31c0.25-3.14.06-7,.92-10.3a18,18,0,0,0,5.62,8.8c6.25,5.3,15.24,8,23,10.25,16.15,4.68,34.67,8.6,51.53,6.94,8-.79,17.08-1.5,24.8-4A23.57,23.57,0,0,0,459.8,258C460.85,263.17,457.86,284.24,457.61,287Zm3.48-63.49a105.54,105.54,0,0,0-1,14.57c0.06,4.82,1.65,10.23.43,14.92-2.13,8.17-11,10-18.23,11-5.08.72-10.16,1.61-15.26,2.11-10.51,1-21-.71-31.36-2.53-10-1.77-20-4-29.52-7.8-8.28-3.28-16.46-7.38-18.58-16.79-1.16-5.15-.45-10.43-0.08-15.62a118.51,118.51,0,0,0,0-14.7c-0.44-8.39-.74-16.89,2.79-24.53,1.72,7.08,11.22,9.89,17.21,11.82a150.17,150.17,0,0,0,58.32,6.94A173,173,0,0,0,454,197.77c3-.75,7.19-1.25,10-3.1C464.06,204.4,462.3,213.91,461.09,223.53Zm-8-26.77a160.07,160.07,0,0,1-16.4,3.45,143.06,143.06,0,0,1-30,1.3,149.32,149.32,0,0,1-29.61-4.91c-7.47-2-20.6-4.44-23.84-12.68-4.43-11.25,18.5-13.84,25.57-15.15,9.68-1.79,21-5.63,30.71-2.36a1.45,1.45,0,0,0,.93-0.15c9.41,2.79,18.87,5.45,28.18,8.56q7.12,2.38,14.12,5.1c3.74,1.46,8.52,3,10.56,6.74C467.38,194,458.26,195.44,453.13,196.76Z" transform="translate(-24.18 -35.54)" style="fill:#381860"/><path d="M323.36,265.58c2.92-9.54,2-21,2.1-30.85q0.1-8.6-.08-17.21c-0.1-4.65.25-9.65-1.46-14.05a0.46,0.46,0,0,0-.5-0.19l0-.08c1.28-2.76.86-5.9,0.73-8.83-0.16-3.91-.33-7.82-0.47-11.72q-0.86-24.43-.77-48.88,0-11.73.3-23.47c0.13-5.8,1.29-12.76-2.61-17.63a0.61,0.61,0,0,0-.54-0.17,5.76,5.76,0,0,0-1.39-2.15c-4.4-4.59-12.09-6.24-17.78-8.54s-11.16-5.58-16.92-8c-10.79-4.51-23.05-6.21-34.68-8.36,0.82-.16,2.09-0.77,2-1.42-0.53-5.47-.12-11.42,3.4-15.91,7-8.93,10.82-1.81,17.93-3.7,5.2-1.38,1.2-7.32-2.43-8.24-6-1.54-13.41,2.35-17.7,6.31-5.84,5.4-8.76,13.07-11.06,20.5-0.17.55,2.47-.17,2.73-1,2.41-7.79,5.79-17.55,13.35-21.85,3.25-1.85,8.35-3.84,12-1.79,0.58,0.33,3.9,3.13,2.66,4.54-0.57.64-7.89-1-9.74-.7-11.06,1.91-14.77,13.31-13.82,23.16l-2-.38c0.19-.25.15-0.42-0.37-0.35l-0.77.12-1.35-.27a3.36,3.36,0,0,0-1.95.87c-9.74,2.12-18.8,6.78-28.3,9.72-11,3.41-23,4.92-33.69,9.3A14.29,14.29,0,0,0,173,91.11a1.4,1.4,0,0,0-.66.64c-4.41,13.23-3.49,27-2.77,40.74q1.13,21.41.6,42.85c-0.2,7.84-1.39,16.6.44,24.36a6.87,6.87,0,0,0-2.26,4.86c-0.54,4.83-.27,9.9-0.25,14.75q0.06,16,1.45,32a97.79,97.79,0,0,0,1,10.29c-0.74.11-2.14,0.58-2.15,1.29a146.53,146.53,0,0,0,1.07,19.41c0.36,2.9.45,6.33,2.16,8.82a13,13,0,0,0,1.68,1.94,1,1,0,0,0-.49.63,160.28,160.28,0,0,0,.85,25.21c0.48,4.77.44,10.75,2.32,15.58a0.43,0.43,0,0,0-.06.21c1.55,26.6,1.77,53.15,2,79.78,0.1,10.79,2.36,20.5,9.81,28.65,7.07,7.73,16.58,12.51,26.46,15.6,20.86,6.51,42.94,9.88,63.79,1.85a100.84,100.84,0,0,0,25.54-14.72c8.48-6.61,13.34-13.5,13.73-24.53,0.53-14.86-.17-29.81.19-44.69,0.37-15.05.87-30.11,1.33-45.16,0-.41-0.73-0.33-1.45,0,6.66-10.09,4-25.06,3.89-36.86a0.33,0.33,0,0,0-.39-0.29,9.67,9.67,0,0,0,1.89-2.37c1.9-3.48,1.89-8.6,2.27-12.48a52.73,52.73,0,0,0-.35-14C324.63,265.26,324,265.34,323.36,265.58ZM176,89c2.85-5.16,15.45-6.59,20.75-8,5.49-1.41,11-2.85,16.39-4.52,10.17-3.14,19.93-8.43,30.48-10.11,9.49,1.95,19,3.73,28.47,6,9.18,2.17,16.92,7.09,25.55,10.66,3.91,1.62,8,2.88,11.8,4.69a27.88,27.88,0,0,1,5.79,3.37c0.63,0.51,2.24,1.77,2.24,2.7,0,2-4.88,4.46-6.54,5A154.09,154.09,0,0,1,281.24,106c-19.31,2.75-38.91,2.47-58.33,1.07-10.39-.75-19.78-1.84-29.55-5.64C188,99.33,170.88,98.34,176,89Zm-2.55,7.65a7.91,7.91,0,0,0,2.78,2.14c3.73,1.86,8.37,1.93,12.29,3.28,5.63,1.94,10.75,4.36,16.7,5.21a272.74,272.74,0,0,0,70.86.81A165.84,165.84,0,0,0,308.18,101c2.39-.79,8.51-2.39,11-5.08,2.07,4.06,1.5,8.92,1.39,13.46q-0.23,9.78-.31,19.55-0.15,18.58.24,37.15,0.21,9.78.57,19.55c0.22,6.07,2.52,15.67-1.91,20.67-3.72,4.19-9.66,7.69-14.33,10.67a63.08,63.08,0,0,1-19.72,8.72c-12.88,2.92-27.11,1.32-40.21.71-12.31-.57-24.65-1.63-36.72-4.23-10.51-2.27-22.77-5.44-30.1-13.95a22.25,22.25,0,0,1-4.65-9.17c0.09-.14.06-0.22-0.07-0.26-2-8.09-.6-17.39-0.41-25.41q0.5-20.94-.63-41.88C171.72,119.8,171,108,173.5,96.62ZM311.34,436c-5.56,9.55-18.33,16.72-28.06,21.26-21.89,10.22-46,6.93-68.3-.51-9.62-3.21-18.83-8.14-25.49-15.94s-8.7-17.07-8.8-27.23c-0.24-24.79-.46-49.5-1.74-74.25,4.53,4.61,12.18,5.64,18.2,6.92a211.45,211.45,0,0,0,25.73,3.8,214.81,214.81,0,0,0,49.4-1.47C285,346.65,300,344.7,311.13,337.6a21,21,0,0,0,4.94-4.37c-0.72,23.45-1.68,46.92-1.65,70.38C314.44,413.82,316.72,426.71,311.34,436Zm10.77-180.14c-0.48,8.73-2.09,15.53-9.42,21.08-4.23,3.2-8.9,6.33-13.93,8.1-4.85,1.71-10,2.27-15.1,2.88-0.69.08-3,1.79-1.57,1.62,8.93-1.07,17.22-2.65,25-7.4,5.79-3.54,12.05-7.5,15.14-13.64a51.4,51.4,0,0,1,.17,11.13c-0.27,3.12-.14,8.06-1.46,10.89-3.44,7.36-16.83,11.18-24,13.23-14.64,4.16-30.59,4.57-45.67,6.17-0.7.07-3.05,1.77-1.57,1.62,18.94-2,38.8-2.46,56.57-9.95,3.4-1.44,8.51-3,12.33-5.4,0.12,8.74,1,17.88-.09,26.56-1.37,11.21-9.75,16.16-19.88,19a204.1,204.1,0,0,1-56,7.42c-17.59,0-37-1.41-53.78-7.16-9.2-3.16-10.9-9.76-11.86-18.56A194.39,194.39,0,0,1,175.45,295l1.62,1.29a61.44,61.44,0,0,0,32.5,13c0.74,0.07,3.06-1.53,2.09-1.63a60.86,60.86,0,0,1-30.85-11.89c-5-3.8-7.54-6.61-8.41-12.87A141.66,141.66,0,0,1,171.14,264c0,0.1.06,0.21,0.09,0.31,1.2,3.47,4.2,5.78,7.07,7.87A58,58,0,0,0,201.68,282c0.73,0.14,3.1-1.43,2.09-1.63a57.21,57.21,0,0,1-22.33-9.31c-2.78-2-5.85-4.15-7.26-7.36-1.84-4.19-1.57-9.87-2-14.36q-1.06-12.6-1.3-25.25-0.13-6.81,0-13.61c0-2.25-.43-5.86.38-8.52a22.23,22.23,0,0,0,5.05,8.57c7.38,7.74,18.73,10.75,28.82,13,13.61,3,27.55,4,41.45,4.59,12.59,0.49,26,1.85,38.36-1.19,10.43-2.56,19.78-8.2,28.35-14.5,2.53-1.86,6-3.94,8.27-6.54,1.12,3.72.94,7.78,1,11.64q0.15,6.69.13,13.38C322.75,239.25,322.57,247.54,322.11,255.81Z" transform="translate(-24.18 -35.54)" style="fill:#381860"/><path d="M256.52,240.65c-0.28-.67-3,0.57-2.7,1.32,2.25,5.33-.57,10.06-3.53,14.54-2.22-.79-4.45-1.89-5.4-4.17-1.07-2.56-.17-5.41.59-8.07a6.57,6.57,0,0,0,1,.63c0.52,0.27,1.79-.41,2.32-1a8.14,8.14,0,0,0,1,.34,3.68,3.68,0,0,0,1.18,0,4.25,4.25,0,0,0,2.34-1.23c1.55-1.8-1.73-3-3-3.29a5.7,5.7,0,0,0-5.43,1.17,1.88,1.88,0,0,0-.65,1.43,1.58,1.58,0,0,0-.91.83c-0.43,2.1-1.31,4.36-1.56,6.59a9.72,9.72,0,0,1-4.91-4.67,4.35,4.35,0,0,1,0-3.66c1.09-2.22,3.52-1.83,5.52-1.63,0.74,0.08,3.06-1.53,2.09-1.63-3.64-.37-8.17,0-10.1,3.68-2.22,4.19,2.23,8.8,6.11,9.84a2,2,0,0,0,1.27-.34,6.89,6.89,0,0,0,.51,2.31c1.06,2.53,3.65,3.71,6.12,4.56a15.74,15.74,0,0,1-7.48.07c-2.06-.47-5.2-1.31-5.59-3.72-0.06-.37-1.37,0-2.14.49,0-.16,0-0.31,0-0.48-0.42-5.87-6.33-8.77-11.54-7.17a3.34,3.34,0,0,0-.93.56,5.36,5.36,0,0,0-1.6-2c-2.22-1.68-6.32-1.41-8.85-.65-6.84,2.07-7.74,10.47-4.24,15.81-3.89,2-5.78,6.52-5.73,11.05,0.07,7,9.9,8.15,15.2,7.81a3.6,3.6,0,0,0,1.37-.68c2.38,1.11,5.73,1.28,7.28-.89a5.65,5.65,0,0,0,1.42,1.22c0.71,0.42,3.1-1.16,2.47-1.53-5.19-3.09-3.13-14.14,2.1-16.08,1.07-.4,2-1.77.64-1.4a7.06,7.06,0,0,0,2.24-3.72c1.23,2.2,5,2.93,7.21,3.25a19.78,19.78,0,0,0,9.33-1.1,2.58,2.58,0,0,0,1.24-1c0.73-.43,1.36-1,1.05-1.13l-0.22-.07a2.54,2.54,0,0,0,1.06-.66,42.81,42.81,0,0,0,4.16-7.75A9.19,9.19,0,0,0,256.52,240.65Zm-9.68.48a6.19,6.19,0,0,1,.69.09,7.62,7.62,0,0,1,1.79.54,5.16,5.16,0,0,1,1,.56,4.3,4.3,0,0,0-1.68.27,4.75,4.75,0,0,0-.64.28,2.62,2.62,0,0,1-.65-0.56c-0.14-.18-0.38-1.09-0.44-1.14Q245.94,241.09,246.84,241.12Zm-37.3,6.18c2.49-1.33,6.31-1.23,8,1.39a7.68,7.68,0,0,1,.62,6.46,0.32,0.32,0,0,0,0-.1c-1.33-3.2-4.63-4.06-7.63-2.68a7.46,7.46,0,0,0-3,2.36,4.62,4.62,0,0,0-.6,1.23C206.07,252.62,206.43,249,209.54,247.3Zm-5.78,26.84c-1.67-2.61-.66-9.5,2.32-11.71a0.36,0.36,0,0,0,0,.06c1.68,5.52,4.46,12.34,9.27,16C211.31,278.44,205.93,277.54,203.76,274.14Zm21.36-9.78a5.9,5.9,0,0,0,0-1c0.45-.12.89-0.25,1.33-0.4A10.83,10.83,0,0,0,225.12,264.36Zm0.43-2.33a2.12,2.12,0,0,0-.55.24,7.07,7.07,0,0,0-5.66-4.92c-3-.57-7.8.34-9.45,3.25-2,3.57,3.73,6.49,6.35,7.2a7.66,7.66,0,0,0,6-.88,3.54,3.54,0,0,0,1.5-.35,11.73,11.73,0,0,0-.53,1.31c-1,2.85-1.34,6.88.25,9.65a2.63,2.63,0,0,0-1.59,1c-0.32.82-4.16-1.74-4.48-2a21,21,0,0,1-3.9-4.9,43.19,43.19,0,0,1-4.68-10.45,0.2,0.2,0,0,0,0-.07,1.08,1.08,0,0,0,.36-0.5v0a0.25,0.25,0,0,0,0-.26c0.15-1.42-.31-3.82.35-4.92s3-2,4.07-1.48a4.25,4.25,0,0,1,1.93,2.46c0.23,0.56,2.15-.2,2.62-0.9a10,10,0,0,1-.51,1.25c-0.46.91,2.23,0,2.57-.65a10.28,10.28,0,0,0,.85-7.26C229.26,246.7,234.8,259.9,225.54,262Zm-3.14,3a1.73,1.73,0,0,0-.64.49c-2.61,4.15-14.94-5.55-6.63-6.68C219,258.31,222.53,261.39,222.4,265Z" transform="translate(-24.18 -35.54)" style="fill:#381860"/><path d="M259.74,260.59a12.05,12.05,0,0,0,7.32-4.32c2.05-2.89,2.18-6.54,1.27-9.86-0.41-1.49-1-4-2.2-5.06-1.41-1.24-4.24-.68-6-0.67-0.74,0-3,1.63-2.09,1.63,2.93,0,5.23-.43,6.56,2.65a15.83,15.83,0,0,1,1.52,7.25c-0.18,2.55-1.45,5.61-4.06,6.5a10.12,10.12,0,0,1-7.84-.71c-0.68-.45-3.11,1.11-2.47,1.53a9.71,9.71,0,0,0,5.64,1.36c-0.85.19-2.81,1.89-.94,1.5,6-1.26,12.21,5.18,7.9,10.7-0.44.56,0.57,0.46,0.81,0.43a3,3,0,0,0,1.76-1.07,7.18,7.18,0,0,0-.51-9.41A8.8,8.8,0,0,0,259.74,260.59Z" transform="translate(-24.18 -35.54)" style="fill:#381860"/><path d="M250.12,271.47c-0.81-.31-3,1.32-2.47,1.53a4.26,4.26,0,0,1,2.87,3.19c0.28,1.75-.72,3.69-2.68,2.51-3.2-1.93-.73-6.83.83-8.94,0.41-.56-0.55-0.48-0.81-0.43a3.05,3.05,0,0,0-1.76,1.07c-1.5,2-3,5-2.35,7.58,0.57,2.22,2.76,3.1,4.87,2.64a6,6,0,0,0,4.42-3.56A4.44,4.44,0,0,0,250.12,271.47Z" transform="translate(-24.18 -35.54)" style="fill:#381860"/><path d="M252.47,266.23c-3.53-2-7.46,0-10.27,2.33-1.49,1.22,1.11.72,1.77,0.17,3.42-2.79,7.15-1.3,9,2.2a16.62,16.62,0,0,1,1.46,7.58,4.91,4.91,0,0,0-1.17.66,3.44,3.44,0,0,0-1.62.86c-2.22,3.38-7.93,2-10.23-.35a5.33,5.33,0,0,1-1.48-2.7c-0.22-1-.22-4.89,2.09-4,0.81,0.32,3-1.31,2.47-1.53-5.46-2.15-9.63,5.6-5.77,9.62s11.58,3.18,15-1.06L255,280c0.52,0,2.16-.62,2.15-1.31C257.13,274.19,256.87,268.7,252.47,266.23Z" transform="translate(-24.18 -35.54)" style="fill:#381860"/><path d="M246,262.8a11.2,11.2,0,0,0-14.78,2.15,15.77,15.77,0,0,0-3.22,9.28c-0.15,3.72,4.57,5.87,7.14,8,0.6,0.49,3.11-1,2.47-1.53-1.6-1.31-3.36-2.53-4.84-4-2-1.9-2.23-3.13-1.74-5.81a13.66,13.66,0,0,1,1.74-5.18c1.07-1.55,5.73-3.3,7.55-2.91a8.57,8.57,0,0,1,3.2,1.52C244.15,264.78,246.59,263.23,246,262.8Z" transform="translate(-24.18 -35.54)" style="fill:#381860"/><path d="M261.82,275.5c-0.74-.11-3.08,1.48-2.09,1.63,6.65,1,1.38,7.38-1.64,9.32a23,23,0,0,1-9.62,3.42c-4.65.57-13.56,0.49-10.33-6.53,0.44-.95-2.25,0-2.57.65-4.78,10.38,12.32,7.91,17.7,6C257.53,288.43,274.13,277.32,261.82,275.5Z" transform="translate(-24.18 -35.54)" style="fill:#381860"/><path d="M280.15,258.8a33.91,33.91,0,0,1-.69,5.41,8.21,8.21,0,0,1-.66,2.51,1,1,0,0,0-.1.5,4.46,4.46,0,0,1-1.39-.54c-2.86-1.65-4.08-8.36.82-8.07a2.9,2.9,0,0,0,1.93-.73c0.2-.19.86-0.86,0.16-0.9-5.26-.31-11.33,5.79-6.4,10.45a4.77,4.77,0,0,0,6.34.4,6,6,0,0,0,1.76-3.48,33.17,33.17,0,0,0,1-6.55C282.91,257,280.19,258,280.15,258.8Z" transform="translate(-24.18 -35.54)" style="fill:#381860"/><path d="M286.55,260.49c-0.41-.7-3.06.69-2.7,1.32,1.85,3.17,3.89,6.9,3.06,10.71-0.55,2.51-2.55,4.56-5.32,3.91a4.55,4.55,0,0,1-2.55-1.73c-1.07-1.7.73-3.29,2.58-3.15,0.74,0.06,3-1.55,2.09-1.63-2.65-.2-6.62.16-7.85,3.06-1.5,3.55,3.61,5.65,6.3,5.37a8.69,8.69,0,0,0,6.91-5.08C291,268.85,288.79,264.33,286.55,260.49Z" transform="translate(-24.18 -35.54)" style="fill:#381860"/><path d="M280.89,280.47a8.31,8.31,0,0,0-3.63-2.86c-1.34-.59-5.34-0.91-4.91-2.69,0.15-.61-2.53.16-2.73,1-0.4,1.68,1.08,2.08,2.42,2.38,2.21,0.5,4.49,1.29,5.91,3.18s2.1,5.79-1.2,6.51a4.71,4.71,0,0,1-5.59-3.48h1.25c0.74,0,3-1.63,2.09-1.63l-3.7,0c-0.67,0-2.29.48-2.41,1.32-0.87,6.46,8.65,6.59,12,3.14A5.61,5.61,0,0,0,280.89,280.47Z" transform="translate(-24.18 -35.54)" style="fill:#381860"/><path d="M227.45,293.65c-1-1.43-3-1.7-4.59-1.88-0.66-.08-2.29.54-2.41,1.32a4.32,4.32,0,0,1-.41,1.61c-0.18.49,2.32-.15,2.7-1a3.32,3.32,0,0,1,2.16,1.48c1.51,2.71-2.68,6-4.88,3.52a6.17,6.17,0,0,1-1-5.06c0.41-2.74,2.09-5,5.2-3.93,0.82,0.28,3-1.34,2.47-1.53a8.35,8.35,0,0,0-8.49,2.23c-2.45,2.55-3.24,8.58.32,10.57,2.72,1.53,6.6-.86,8.29-3C227.75,296.82,228.45,295.09,227.45,293.65Z" transform="translate(-24.18 -35.54)" style="fill:#381860"/><path d="M229.39,299.84c-0.74-.12-3.09,1.47-2.09,1.63,1.41,0.22,2.76.47,3.46,1.86,2,4-6,4.2-7.59,4.14-3.17-.12-7-1.56-6.25-5.44,0.13-.65-2.56.16-2.73,1-1.41,7.18,9.66,6.66,13.86,5.13,2-.71,4.69-2.07,5.35-4.25C234.25,301.14,231.62,300.19,229.39,299.84Z" transform="translate(-24.18 -35.54)" style="fill:#381860"/><path d="M230,286.55c-4.24-4.88-11-4.5-16.07-1.06-4.22,2.87-7.53,10.28-1.09,12.83,0.8,0.32,3-1.3,2.47-1.53-3.42-1.36-4.27-5.23-2.44-8.3,3.33-5.57,10.67-5,14.43-.63C227.9,288.55,230.39,287,230,286.55Z" transform="translate(-24.18 -35.54)" style="fill:#381860"/><path d="M239.56,299.27c-2.84-3-4.86-5.66-5.57-9.86-0.09-.55-2.85.41-2.7,1.32a15.88,15.88,0,0,0,4.27,8.56c1.09,1.17,2.46,2.21,3.19,3.68a5,5,0,0,1,.66,3.34q-2.46,3.6-6.15,2.35c0.05-.75-2.67.19-2.73,1l0,0.32a0.22,0.22,0,0,0,.13.26c3.2,1.66,9.47-.59,11.08-3.83C243.05,303.76,241.38,301.2,239.56,299.27Z" transform="translate(-24.18 -35.54)" style="fill:#381860"/><path d="M245.64,292.52c-0.63-.67-3.08.91-2.7,1.32a18.68,18.68,0,0,1,3.18,4.07,5,5,0,0,1,.37.87,10.12,10.12,0,0,0,.28,1.24q0.67,0.32-.69,0l-0.46-.19a8.94,8.94,0,0,1-1.31-.75c-0.69-.44-3.1,1.13-2.47,1.53,2.2,1.38,5.17,1.73,7-.6S247.2,294.16,245.64,292.52Z" transform="translate(-24.18 -35.54)" style="fill:#381860"/><path d="M262.49,296.7c3.6-2.54,3.2-6.17,3.52-10.27l0.07-.09c0.22-.41.37-0.77-0.33-0.69-3.65.44-8.1,1.77-10.6,4.65-2.1,2.42-1.5,6.85,2.38,6,0.84-.19,2.83-1.92,1-1.5-2.66.59-1.85-3.94-.9-5,1.37-1.48,3.7-2.13,5.72-2.45-0.35,4.45.21,6.83-3.9,9.82-2.11,1.54-4.6,2.45-6.49,4.34-2.39,2.39-2.93,6.21,1.29,6.71,3.27,0.38,6.46-2.28,8.67-4.33,1.59-1.47,2.18-4-.8-2.88-1.16.43-2.19,2-.26,1.29-0.41.15-1.74,2.41-2.53,2.92-1.93,1.26-5.69,2.12-5.67-1.47C253.61,300.42,260.19,298.33,262.49,296.7Z" transform="translate(-24.18 -35.54)" style="fill:#381860"/><path d="M273.66,251.24a4.63,4.63,0,0,0-3,.91c-0.91.75-1.14,2.14-1.52,3.19-0.2.54,1.09,0.19,1.23,0.14a2.41,2.41,0,0,0,1.49-1.15c0.16-.44.3-0.95,0.47-1.44l0.38,0a15.24,15.24,0,0,1,1.55.12c1,0.14,2.21.48,2.2,1.71,0,0.79,2.72-.21,2.73-1C279.23,251.07,275.49,251.22,273.66,251.24Z" transform="translate(-24.18 -35.54)" style="fill:#381860"/><path d="M258.84,237.34c-1.47-5.41-8.32-2.67-11.46-.72-1.74,1.08.11,1.25,1.17,0.59,2.6-1.62,6.57-2.3,7.59,1.45C256.31,239.27,259.07,238.19,258.84,237.34Z" transform="translate(-24.18 -35.54)" style="fill:#381860"/><path d="M281.71,296c-0.74-1.59-2.22-3.61-4-4.21-2-.68-6.05,1.07-5,3.62,0.28,0.67,3-.57,2.7-1.32-0.64-1.52,1.87.75,2.11,1a9.06,9.06,0,0,1,1.28,1.86c0.91,1.91.23,2.88-1.61,4a5.34,5.34,0,0,1-4.57.62,4.06,4.06,0,0,1-2.72-4.94,14.16,14.16,0,0,0,.18-5.48c-0.08-.54-2.84.4-2.7,1.32a11.19,11.19,0,0,1,0,4.37,6.91,6.91,0,0,0-.32,2.71,4.6,4.6,0,0,0,3.35,3.67c3.48,1.06,7.59-1,10.16-3.24C281.93,298.89,282.46,297.61,281.71,296Z" transform="translate(-24.18 -35.54)" style="fill:#381860"/><path d="M288.31,256.65c-0.8-2.42-2.4-4.6-5.21-4.38a3.12,3.12,0,0,0-1.91.93c-0.37.42-.26,0.73,0.33,0.69,2.26-.18,3.49,2.29,4.08,4.08C285.82,258.61,288.57,257.46,288.31,256.65Z" transform="translate(-24.18 -35.54)" style="fill:#381860"/><path d="M152.48,299.6a5.5,5.5,0,0,0-1.58-2.18,22,22,0,0,0,0-2.65l0.77-1.33c2.78-4.77-4.41-4.87-6.94-3.13-8.9,6.16-18.72,9.73-28.92,12.07q-1.89.38-3.77,0.81c-6.65,1.33-13.42,2.23-20.18,3-9,1.08-18.07,2.53-27.15,2.58a80.94,80.94,0,0,1-22.08-3.24c-1.06-.65-2.11-1.32-3.14-2a4.23,4.23,0,0,0-3.76-.13c-3.44-1-8.53,1.69-7.36,5.73a46.4,46.4,0,0,0,3.29,8.89,3.26,3.26,0,0,0,.23,3.66c2.73,3.58,2.94,7.56,7.7,9.26,0.64,0.23,1.3.43,2,.61,5.34,4.42,13.53,4.11,20.51,4a152.14,152.14,0,0,0,16,1.16c15.94,0.55,31.84-1.2,46.68-6.39a44.33,44.33,0,0,0,7.91-3.15,94.9,94.9,0,0,0,11-5.82c1.52-.94,2.59-3.15,1.73-4.76a42.12,42.12,0,0,0,6.37-11.41,2.14,2.14,0,0,0-.13-2A3.43,3.43,0,0,0,152.48,299.6ZM133,305.54h-0.79l1.67-.69Zm-54.48,15.1c1.2-.14,2.4-0.27,3.59-0.44l-1.66.61Q79.53,320.74,78.56,320.64Z" transform="translate(-24.18 -35.54)" style="fill:#381860;opacity:0.34"/><path d="M212.3,300.58c-1.41-3.93-2.77-7.88-4.23-11.79-0.85-2.26-1.55-3.13-3.14-4a3.37,3.37,0,0,0-3.78-1.86c-4.25-2.42-7.94-5.94-13.08-6.22a5.89,5.89,0,0,0-1.61.21q-0.82-1.49-1.67-3c-1-1.64-2.85-2-4.68-1.49l0-.38c0.33-4.83-9.18-1.9-9.48,2.55-0.56,8.16.25,16.77,8.1,21a3.56,3.56,0,0,0,2.24,1.51c1.42,0.41,2.82.85,4.22,1.3,1.4,2.39,3.42,4,7,3.13,0.36-.09.7-0.18,1-0.29q5.84,2.26,11.5,5C207.93,307.79,213.68,304.42,212.3,300.58Z" transform="translate(-24.18 -35.54)" style="fill:#381860;opacity:0.34"/><path d="M323.69,273.86c-3.06-2.05-8.6.12-8.66,4.11a4.79,4.79,0,0,0-1,.82c-0.56.65-1.13,1.26-1.72,1.86-6.53,4.83-15.93,7.25-23.2,7.86-2.75.23-6.71,2.78-5.44,6a5.94,5.94,0,0,1,.42,3.43l-0.54.06c-2.22.22-5.16,1.69-5.6,4.13s1.52,3.73,3.71,3.52a87.2,87.2,0,0,0,30.91-8.59c8-4,11.23-10,11.81-18.12C325.62,277.06,325.75,275.24,323.69,273.86Z" transform="translate(-24.18 -35.54)" style="fill:#381860;opacity:0.34"/><path d="M449.34,315c-3.05,1.28-4.84,3.78-7.21,6.27a104.58,104.58,0,0,1-19.64,4.93A110.1,110.1,0,0,1,395,326c-16.74-2-35.75-6-46.19-20.55-2.7-3.78-10.64-.18-9,4.38,1.52,4.21-.14,8.62,2.91,12.37,2.75,3.38,7.69,5.4,11.36,7.61,4.57,2.74,9.08,5.58,14.16,7.27,5.3,1.76,10.93,2.64,16.42,3.6a106.91,106.91,0,0,0,45.45-1.86,4.75,4.75,0,0,0,3-.17c6.4-2.07,13.13-1.32,18.69-5.76,4.32-3.45,5.24-8.26,4.94-13.3,0.44-1.29.85-2.59,1.22-3.91C459.23,311,451.87,311.81,449.34,315Z" transform="translate(-24.18 -35.54)" style="fill:#381860;opacity:0.34"/><path d="M85.44,127.62c-11.29,4.45-9.89,22.09-7.86,31.61,1.07,5,10.4,1.78,9.48-2.55a50.66,50.66,0,0,1-1.22-11.18c0-2.06-.1-10.5,2.67-11.59C94.31,131.63,91.13,125.38,85.44,127.62Z" transform="translate(-24.18 -35.54)" style="fill:#381860;opacity:0.34"/><path d="M275,38.79c-5.67-5.82-16.43-2.75-22.61.75-8.66,4.9-10.58,14-11.25,23.23-0.35,4.82,9.16,1.89,9.48-2.55,0.34-4.74.69-10.9,4.69-14.14,2.74-2.22,9.09-4.2,11.84-1.38C270.27,47.88,278.57,42.45,275,38.79Z" transform="translate(-24.18 -35.54)" style="fill:#381860;opacity:0.34"/><path d="M412.35,147.23c-1.48-3-4.8-4.86-6-8-1.62-4.32-10.65-.07-9,4.38,1.08,2.89,3.67,4.36,5.32,6.82,2.2,3.29,2.05,7.49,1.91,11.28-0.19,4.89,9.31,1.92,9.48-2.55C414.26,155.16,414.15,151,412.35,147.23Z" transform="translate(-24.18 -35.54)" style="fill:#381860;opacity:0.34"/><path d="M289.19,271.22c-0.28-3.34-.53-6.76-1-10.08-0.34-2.3-.84-4.33-3-5.59-1.29-.75-2.53-0.69-3.94-0.89a30.76,30.76,0,0,1-3.37-1,8.26,8.26,0,0,0-6.26,1.06,7.31,7.31,0,0,0-1-.68,12.55,12.55,0,0,0-2.7-2.44c1-2.75-.48-5.6-2.35-7.9-3.06-3.78-7.94-4.45-11-7.8-2.05-2.22-7.21-.27-8.43,2.55-1.78-1.62-4.81-.49-6.48.6-5.57,3.63-4.45,8.89-2.33,13.9a11.55,11.55,0,0,0-1.36,1.25,21.44,21.44,0,0,0-2.24,0,11.36,11.36,0,0,0-2.73.45,6.6,6.6,0,0,0-.45-3.65c-1.69-3.93-6.4-4.62-9.92-2.9-4.71-3.78-13.16-2.1-15.07,4.37a13.2,13.2,0,0,0,1.37,10.22,6.76,6.76,0,0,0-3.34,3.15,7.22,7.22,0,0,0,0,5.89,6.77,6.77,0,0,0,3.73,4.75,10,10,0,0,0,7.16.47l0.36,0a11.93,11.93,0,0,0,1.57,4.29,11.23,11.23,0,0,0,3.16,3.12,11.28,11.28,0,0,0-5,3.51c-1.4,1.62-3.25,3.65-3.29,5.9,0,2.68,2.35,4.16,3.48,6.3,1,2-.05,4,1.72,5.82,1.52,1.57,4.07,1.86,6.14,1.89a17,17,0,0,0,4.64-.58,9.76,9.76,0,0,0,1.25-.38c1,1.35,4.48,2.38,5.23,2.42,2.64,0.16,6.08-1.16,6.75-4.08a6.79,6.79,0,0,0-.08-3.33,23.43,23.43,0,0,0,12,1.11c1.76,2.63,5.92,3.21,9.08,1.73a9.75,9.75,0,0,0,3.74-3.24l0.27,0.2c3.83,2.55,9.8,3.29,13.71.4s2.7-7-.24-10.18a8.37,8.37,0,0,0-1.7-1.41c2.94-1.82,5.06-4.8,3.2-8.29a12.36,12.36,0,0,0-1.62-2.34l0.26,0C284.63,280.26,289.68,277.19,289.19,271.22Zm-24.41,9.48a6.18,6.18,0,0,1-.8.43,4.46,4.46,0,0,0,0-.48,4,4,0,0,0-.25-1.15,13.66,13.66,0,0,0,1.29-1.38c0,0.09,0,.19,0,0.28a3.81,3.81,0,0,0,.07,1.37A4.37,4.37,0,0,0,264.77,280.71Z" transform="translate(-24.18 -35.54)" style="fill:#381860;opacity:0.54"/></svg>