<svg id="trace" xmlns="http://www.w3.org/2000/svg" viewBox="0 0 264.81 485.16"><title>cosplay</title><path d="M219.6,80.22c1.41,5.87-.48,10.13-5.84,13-4.4,2.35-8.66,4.72-13.49,6.13-0.78.23-2.69,2-.92,1.45A67.43,67.43,0,0,0,217,92.58c4.91-3.23,6.54-8,5.18-13.63-0.14-.58-2.81.43-2.61,1.27h0Z" transform="translate(-122.96 -12.82)" style="fill:#382360"/><path d="M183.43,144.93C175.78,154.72,162,155,151.75,161c-0.16.09-1.13,0.79-.63,1,8.46,3.93,12.46,13.73,17.33,21.08a134.66,134.66,0,0,0,13.36,16.59c0.5,0.54,1.73-.24,2.16-0.55,4-2.85,8.09-4.33,12.1-1.33a17.53,17.53,0,0,1,2.21,2,16.43,16.43,0,0,1,3.5,7.7c0.94,4.11,1.54,8.78.1,12.85-1.92,5.42-7,7.39-12,4.59-3.76-2.12-6.55-5.73-8.8-9.33s-5.23-5.81-8.57-8.65c-6.69-5.7-14.08-9.86-21.24-14.88a85.67,85.67,0,0,1-23.64-25.61c-7-11.4,4.86-22.34,11.89-30.13,9.63-10.66,19.18-21.87,32.68-27.45,1.09-.45,2.09-2,0.25-1.24-6.55,2.71-12.33,5.83-17.43,10.75q-8.29,8-16.09,16.46c-5,5.48-10.44,11.19-14.14,17.69-3.5,6.14-1.62,12.72,2.31,18.06,3.56,4.83,6.74,9.79,11,14.06,7.57,7.54,16.9,12.14,25.39,18.41a115.88,115.88,0,0,1,12,9.84c4,3.89,5.84,9.29,10.54,12.62a11.51,11.51,0,0,0,14.92-.84c6.5-5.79,5.53-19.32.29-25.67-2-2.41-4.54-4.69-7.77-4.74-4.12-.05-8.07,2.32-11.29,4.63l2.16-.55a134.92,134.92,0,0,1-14.2-17.87c-4.6-7.1-8.59-16.22-16.71-20l-0.63,1c11.18-6.5,24.59-6.46,33-17.27,0.54-.69-2,0-2.48.62h0Z" transform="translate(-122.96 -12.82)" style="fill:#382360"/><path d="M245.12,207.11c-4.59,0-9.15,0-13.74,0-0.73,0-3,.64-3,1.65,0,6.59-.2,13.42.61,20a0.44,0.44,0,0,0,.38.19c3.28,0.42,6.8-.12,10.1-0.23s6.78-.17,10.16-0.36c0.69,0,2.66-.76,2.69-1.65a180.24,180.24,0,0,0-.55-19.12,0.36,0.36,0,0,0-.4-0.39q-3.12,0-6.23-.07c-0.93,0-3.78,2-2.62,2,1.37,0,4.26-.54,5.48.07,1,0.47.55,4,.55,5.43,0,4.43.55,8.88,0.36,13.31l2.69-1.65c-2.69.16-5.38,0.21-8.07,0.3l-5,.16c-1.26,0-4.67.77-5.62,0.2-1.52-.9-0.93-6.77-1-8.61q-0.16-5.43-.16-10.87l-3,1.65c4.59,0,9.15,0,13.74,0C243.42,209.15,246.26,207.11,245.12,207.11Z" transform="translate(-122.96 -12.82)" style="fill:#382360"/><path d="M234.93,114.63c-3,.78-6.22,2.61-6,6.22,0.3,4.75,6.77,7.3,10.78,5.9,3.1-1.08,6.66-4.65,5.34-8.16-1.58-4.21-6.21-4.87-10.13-4-0.77.18-2.61,1.79-.88,1.39,2.37-.55,5.47-0.32,7.22,1.59s2.15,4.38.44,6.39c-2.45,2.86-6.75,1.26-8.88-1.17-1.88-2.14-2-6,1.22-6.81C234.81,115.82,236.64,114.18,234.93,114.63Z" transform="translate(-122.96 -12.82)" style="fill:#382360"/><path d="M229.5,122.54c-6.2,2.78-8.57,9.3-8.65,15.77a29.51,29.51,0,0,0,1.81,10.64c0.58,1.6,1.38,5.13,3,6,3.11,1.7,6.07-4.38,7.14-6.19A37.81,37.81,0,0,0,237.88,126c-0.07-.78-2.58.24-2.52,0.93a37.63,37.63,0,0,1-1.24,14.05c-0.59,2-4.93,12.95-6.78,11.82s-3.2-7.82-3.55-9.84c-1.1-6.26-.72-16.41,6.15-19.49,1.48-.67,1.05-1.57-0.44-0.9h0Z" transform="translate(-122.96 -12.82)" style="fill:#382360"/><path d="M242.37,123.84c9.4,6.78,6.95,22,4.12,31.59l2.51-1.07a33.12,33.12,0,0,1-9.54-28.51c0.09-.65-2.41.16-2.52,0.93a33.34,33.34,0,0,0,9.56,28.79c0.58,0.57,2.31-.42,2.51-1.07,2.89-9.8,5.26-25.13-4.35-32.07-0.6-.43-2.87,1-2.29,1.41h0Z" transform="translate(-122.96 -12.82)" style="fill:#382360"/><path d="M232.74,116.06c-10.06-2.74-22.61-5.1-30.16-12.91-3.36-3.48-5.2-4.29-10.18-3.5s-9.66,3-14.59,4.18c-2.35.59-5.67,1.37-6.85,3.78-1.73,3.55,2.26,6.34,4.73,8.13,6.93,5,13.88,6.34,22.2,7.85,10.43,1.9,20.78,2.46,31.24.13,0.8-.18,2.68-1.82.9-1.43-10.32,2.31-20.46,1.54-30.72-.34-8.85-1.62-16.77-3.21-23.63-9.5-3-2.78-3.16-5.52,1.22-7.19,1.82-.7,3.86-0.94,5.71-1.63,3.59-1.32,7.4-2.81,11.3-2.75,3.73,0.07,4.64,2.25,7.14,4.51,7.84,7.11,19.43,9.42,29.32,12.11,0.8,0.22,2.81-1.32,2.35-1.45h0Z" transform="translate(-122.96 -12.82)" style="fill:#382360"/><path d="M243.45,116.85c10.09-3,20.67-5,29.14-11.63,3-2.3,5.14-4.7,9.31-4.4a35,35,0,0,1,8.57,2.06c3.53,1.22,10.44,2.87,11,7.23,0.73,5.53-8,8.54-12.07,10.16-4.43,1.74-9.07,2.23-13.78,2.66-10.42.95-20.35,1.24-30.51-1.84-0.82-.25-2.91,1.34-2.41,1.49,11.66,3.53,23.32,2.93,35.26,1.53a45.72,45.72,0,0,0,13.21-3.42c3.93-1.7,9.27-4,11.91-7.58C309.75,104,287.52,98.89,282,99c-4.47.11-7.8,3.48-11.13,6-7.67,5.88-17.39,7.67-26.49,10.33-0.79.23-2.72,2-.93,1.46h0Z" transform="translate(-122.96 -12.82)" style="fill:#382360"/><path d="M250.43,79.71c0.1,5.31,2.71,12.78,7.25,16,5,3.52,12.6,4.7,18.44,6.09,0.7,0.17,3-1.34,2-1.57-5.52-1.32-12.55-2.58-17.52-5.68-4.64-2.9-7.46-10.55-7.56-15.76,0-.78-2.65.21-2.64,1h0Z" transform="translate(-122.96 -12.82)" style="fill:#382360"/><path d="M210.29,57.37c1,4.18,2.87,7.8,4.28,11.8a46.15,46.15,0,0,0,4,9.39c4.28,7,10.84,10.92,19.35,10s14-6.44,17.36-13.94c2.8-6.24,5.3-12.23,6.8-19,0.13-.61-2.46.16-2.64,1a72.34,72.34,0,0,1-5,14.48c-1.55,3.45-2.7,7-5,10-4.56,6.25-12.78,7.24-19.57,4.37-5.65-2.39-9.39-8.06-11.52-13.69a142.12,142.12,0,0,1-5.42-15.77c-0.14-.58-2.82.44-2.61,1.27h0Z" transform="translate(-122.96 -12.82)" style="fill:#382360"/><path d="M211.27,32.86c0.4-7.48,5-14.84,12.46-17A41.88,41.88,0,0,1,242.36,15c10.49,1.89,15.57,9.63,17.07,19.82,0.08,0.52,2.74-.38,2.61-1.27-0.9-6.1-3.37-13.25-8.72-16.94-5-3.48-12.32-3.88-18.19-3.74-12.79.31-25.73,6.63-26.49,21,0,0.74,2.59-.19,2.64-1h0Z" transform="translate(-122.96 -12.82)" style="fill:#382360"/><path d="M301.89,109.88c14.62,3.69,27.35,16.36,37.72,26.59,6.12,6,12.55,12.3,17.78,19.13s-0.6,13.38-5.58,18.29c-3.76,3.71-8.37,6.47-12.74,9.41-5.08,3.42-10.11,6.93-15.21,10.33a133.72,133.72,0,0,0-14.49,10.73c-1.86,1.64-4,3.4-5.36,5.54-2.24,3.6-3.2,7.74-6.42,10.8s-9.23,2.16-12.85.38c-3.08-1.51-3.34-5.06-3.48-8.18a31,31,0,0,1,.84-9.21c1.53-5.66,8.81-11.45,13.64-5.61,0.51,0.61,2-.37,2.39-0.75,4.1-4,6.68-9.82,10-14.49,5.8-8.16,14.32-19.52,24.26-22.5,0.27-.08,2.37-1,1.66-1.46-12.4-7.45-27.94-6.67-39.83-15-0.64-.45-3,1-2.39,1.48,11.91,8.33,27.43,7.53,39.83,15l1.66-1.46c-10.09,3-17.89,12.16-24.24,20.1-4.63,5.79-7.86,13.44-13.1,18.58l2.39-.75c-4.17-5-10.56-2.73-15,1.12-4.6,4-5.11,11.37-4.68,17,0.17,2.29.44,5.2,2.28,6.83,2.72,2.41,8.09,2.56,11.48,2.18,5.56-.62,8.43-4.17,11.25-8.81,1.46-2.41,2.32-5.25,4.11-7.46a38.3,38.3,0,0,1,5.34-4.93A138.74,138.74,0,0,1,325,194.19c6.78-4.52,13.5-9.12,20.22-13.72,4.86-3.33,9.32-6.77,13-11.4,2-2.5,4-5.55,4-8.88,0-4.59-4-7.89-6.81-11.05a247.49,247.49,0,0,0-26.91-26.38c-7.27-6-15.35-12.1-24.63-14.44-0.69-.17-3,1.32-2,1.57h0Z" transform="translate(-122.96 -12.82)" style="fill:#382360"/><path d="M234.14,50.69c2.4,1,4,3.32,5.9,5a17.36,17.36,0,0,0,7.51,3.65,15.73,15.73,0,0,0,13-2.32c7.72-5.46,7.3-23.09-2.67-26-5-1.45-10.28,1.15-14.87,2.81-4.3,1.56-7.75,2.17-12.24.83-3.27-1-6.3-2.62-9.64-3.39a13.94,13.94,0,0,0-12.62,3c-4.07,3.76-4,10.28-3.36,15.38,1,7.33,7.48,10.76,14.46,10a22.27,22.27,0,0,0,8-2.41c2.9-1.61,4.64-5.41,7.59-6.65,1.08-.46,2.09-2,0.25-1.24-4.76,2-6.78,6.86-12.09,8.19-9.4,2.35-15.66-3.06-15.74-12.18,0-2.85-.36-7,1.52-9.44,2.12-2.74,6.1-3.76,9.29-3.17a30.65,30.65,0,0,1,5.22,1.69c4.33,1.65,8.48,3.35,13.19,2.51,5-.89,9.43-3.85,14.47-4.54,8-1.09,11.25,5.53,11.46,12.35a22.78,22.78,0,0,1-.61,7.64c-2,5.89-9.91,6.52-15,4.63-4.45-1.67-6.52-6-10.68-7.8C235.77,48.88,233.59,50.44,234.14,50.69Z" transform="translate(-122.96 -12.82)" style="fill:#382360"/><path d="M242.07,45.28c2,1.36,5,2.95,7.52,2.35,2.09-.5,4.05-2.13,5.64-3.51,0.18-.15.52-0.43,0.27-0.65a7.38,7.38,0,0,0-3.58-2.2,9,9,0,0,0-4.16-.09A10.79,10.79,0,0,0,242,44.94c-0.42.55,1.61,0,2-.49a5.43,5.43,0,0,1,5-2.17c2.14,0.25,3.09,1,4.65,2.35l0.27-.65c-1.19,1-2.73,2.57-4.38,2.49-1.84-.09-4-1.34-5.54-2.36C243.45,43.76,241.59,44.95,242.07,45.28Z" transform="translate(-122.96 -12.82)" style="fill:#382360"/><path d="M227.52,44.47c-1.83,1.25-4.41,2.64-6.56,1.57a17.89,17.89,0,0,1-3.59-2.58l-0.27.65c1.88-1.66,4-2.46,6.44-1.47a8.22,8.22,0,0,1,3.4,2.55c0.41,0.53,2.36-.62,2.06-1A8,8,0,0,0,222.91,41c-3,0-5,1.11-7.17,3-0.17.15-.52,0.43-0.27,0.65C217,46,219,47.77,221.1,47.76c2.47,0,5.32-1.48,7.31-2.84C229.7,44,228.31,43.93,227.52,44.47Z" transform="translate(-122.96 -12.82)" style="fill:#382360"/><path d="M251.33,291.34c-0.71,4.29-.31,8.64.11,12.94,0.69,6.95,1.3,13.91,2,20.85a85.67,85.67,0,0,0,4.33,18.52c1.3,3.87,3.69,7.85,4.61,11.8,0.81,3.52-1.32,8.69-1.9,12.37a66.16,66.16,0,0,0-.92,16.54c1.16,12.5,4.62,24.93,9.17,36.59,2.72,7,5.74,14.28,5.61,21.9-0.08,4.82-2.29,8-3.75,12.32-1.08,3.16-2,8.27.17,11.22,2.58,3.55,9.64,4,13.56,5.22,6,1.92,9.19,6.06,12.63,11.09,2.86,4.18,6.16,9.85,11.61,10.75,8.46,1.4,14.62-7.05,15.53-14.59,0.66-5.41-2.8-8.15-6.87-11.1A109.54,109.54,0,0,1,302.11,455c-3-3.12-7.09-6.73-7-11.3,0.09-3.89.72-7.84,1.17-11.7,2.37-20.12,6.41-40.09,3.72-60.42a84.72,84.72,0,0,0-1.93-10c-0.85-3.29-2.59-6.86-3-10.21-0.26-2.34.74-4.77,1.3-7.13a221.67,221.67,0,0,0,5.44-30.31c1-11-.48-22.1-1.8-33a215.81,215.81,0,0,0-3.35-22.21,172.37,172.37,0,0,0-10.11-31c-1.46-3.32-3.92-6.4-5.22-9.64-1.13-2.8-.95-7.28-0.2-10.24,4.28-17.13,10.4-33.49,12.1-51.25a63.05,63.05,0,0,0,.1-12.62c-0.05-.5-2.79.38-2.7,1.32,1.93,18.36-4.44,38.2-9.71,55.6-1.83,6-3.43,10-2.63,16.43,0.37,3,2.24,4.93,3.62,7.57a110.69,110.69,0,0,1,5.75,13.8c6.18,17.31,8.86,34.7,10.71,52.89A123.73,123.73,0,0,1,298,324c-1.33,8.48-3.14,16.9-5.24,25.23-0.77,3,0,4.53,1,7.77a103.69,103.69,0,0,1,4.2,21.82,144.85,144.85,0,0,1-1.32,30.94c-1.2,8.49-2.33,17-3.29,25.51a76.15,76.15,0,0,0-.95,10.09c0.09,4,3.43,7,6,9.9a98,98,0,0,0,12.52,11.21c4.43,3.44,11,6.38,10.54,12.85-0.49,6.91-6.43,16.36-14.23,11.15-5.54-3.69-8-10.9-12.49-15.62-3.11-3.27-6.92-4.45-11.16-5.68-5.48-1.59-11.31-2.12-11.27-9,0-3.84,1.47-6.66,3-10,2.15-4.62,2-10,1.14-14.88-1.34-7.29-4.61-14-7-20.94a148.73,148.73,0,0,1-5.6-20.87,69.51,69.51,0,0,1-1.52-19.39c0.29-3.36.8-6.71,1.4-10,0.44-2.48,1.67-5.52,1.64-8,0-2.73-1.85-5.53-2.86-8.16A109,109,0,0,1,257.09,330c-1.49-7.48-1.69-15.28-2.51-22.87-0.6-5.53-1.44-11.24-.52-16.78,0.11-.67-2.59.17-2.73,1h0Z" transform="translate(-122.96 -12.82)" style="fill:#382360"/><path d="M183.31,145.12c1.65,20.31,8.45,40.29,16.59,58.86a14,14,0,0,1,1.48,4.46c0.39,3.64.68,8.83,0,12.47-0.57,3-2.27,6.16-3.2,9.14q-2.39,7.6-4.21,15.37c-3,12.56-4,24.75-4.75,37.56-0.49,8.28-1.09,16.3-.45,24.63a205.54,205.54,0,0,0,4.17,27.28c1,4.77,2.91,9.16,4.29,13.81,2.09,7,.31,14-1.3,21-3.09,13.35-4.12,26.55-1.63,40.1,2.27,12.32,8.3,26.28,5.78,39-1.2,6-6.64,9.75-10.81,13.75-3.93,3.78-8.52,6-12.62,9.47-6.12,5.12-3.72,14-.25,20.15,4.2,7.43,11.7,7.34,17.89,2.2,3.32-2.75,5.21-6.37,7.4-10,4.06-6.72,8.71-10.95,16.08-13.8,7.82-3,7.92-10.94,4.48-17.67-2.36-4.61-2.07-8.23-.93-13.19,1-4.53,1.63-9.13,2.78-13.64,2.87-11.22,6.72-22.18,9.47-33.44,2-8.07,1.91-14.9,1-23.13-0.73-6.62-3-12.8-1.52-19.48,1.63-7.49,4.09-14.65,5.29-22.26A152.42,152.42,0,0,0,240,305.31c0-4.94.25-10.18-.81-15-0.13-.58-2.89.43-2.7,1.32,2.22,10.24,1,22.49-.27,32.77a130.19,130.19,0,0,1-3.59,18.44c-1.55,5.65-3.79,11.27-2.75,17.24,1.33,7.64,3.1,15.33,2.83,23.17-0.29,8.43-3.63,17.2-6,25.21-2.59,8.74-5.56,17.51-7.07,26.52-0.75,4.45-2.81,9.59-2.16,14.16,0.5,3.55,3.16,6.32,4,9.79,0.92,3.78.5,8.5-3.47,10.38-1.33.63-2.9,0.88-4.27,1.48a29.6,29.6,0,0,0-11,9c-2.71,3.43-4.45,7.43-7,10.92-6.6,9-14,6.24-17.67-2-1.5-3.42-3-8-2.37-11.81,0.91-5.54,7.7-7.39,11.58-10.49a124.61,124.61,0,0,0,9.84-9.24c3.7-3.7,5.77-7.24,6-12.55,0.49-11.79-3.48-23-5.73-34.4a93.83,93.83,0,0,1,.95-39.85c1.24-5.38,2.89-11,2.79-16.55s-3-10.86-4.5-16.24A181.22,181.22,0,0,1,191.92,311c-1.11-9.45-.78-18.72-0.1-28.16,0.71-9.93,1.07-19.6,2.94-29.44A199.1,199.1,0,0,1,203,222.94c1.84-5.08,2.34-12.85.64-18-2.46-7.51-6.18-14.69-8.75-22.21-4.27-12.48-7.73-25.39-8.81-38.58-0.07-.84-2.79.25-2.73,1h0Z" transform="translate(-122.96 -12.82)" style="fill:#382360"/><path d="M249.62,213.23c9.27-.12,19.87-0.52,28.85-2.92,0.79-.21,2.71-1.93.92-1.45-8.6,2.3-18.87,2.69-27.75,2.8-0.71,0-2.89,1.58-2,1.57h0Z" transform="translate(-122.96 -12.82)" style="fill:#382360"/><path d="M249.57,222.81c9.78-.08,20.68-0.56,30.14-3.19,0.79-.22,2.7-1.95.92-1.45-9.1,2.53-19.63,3-29,3.07-0.71,0-2.9,1.58-2,1.57h0Z" transform="translate(-122.96 -12.82)" style="fill:#382360"/><path d="M230.82,211.63a138.19,138.19,0,0,1-26.11-2.21c-0.71-.12-3,1.4-2,1.57a140.61,140.61,0,0,0,26.62,2.2c0.69,0,3-1.59,1.52-1.56h0Z" transform="translate(-122.96 -12.82)" style="fill:#382360"/><path d="M231.3,221.74a209.43,209.43,0,0,1-27.55-2.12c-0.71-.1-3,1.44-2,1.57a209.44,209.44,0,0,0,27.55,2.12c0.72,0,2.91-1.57,2-1.57h0Z" transform="translate(-122.96 -12.82)" style="fill:#382360"/><path d="M195.44,379.13c11.48-4.34,28.06-2.26,36.42,7.45,0.59,0.68,3.08-.86,2.7-1.32-9-10.51-26.51-12.09-38.86-7.42-1.15.44-2.19,2-.26,1.29h0Z" transform="translate(-122.96 -12.82)" style="fill:#382360"/><path d="M263.27,385.55c6.65-10.28,26-9.5,35.05-3.32,0.67,0.45,3.11-1.1,2.47-1.53-7.31-5-14.91-4.88-23.31-3.77-6.9.91-12.87,3.22-16.79,9.26-0.52.81,2.15,0,2.57-.65h0Z" transform="translate(-122.96 -12.82)" style="fill:#382360"/><path d="M295.21,262.84c-17.48.54-32.2,16.2-44.13,27.32-0.62.58,1.92,2,2.47,1.53,11.72-10.93,26.53-26.69,43.74-27.22,0.92,0-1.33-1.65-2.09-1.63h0Z" transform="translate(-122.96 -12.82)" style="fill:#382360"/><path d="M301.28,297c14.64-2,23-15.47,33-24.85s21-18,34.59-20.55a119.64,119.64,0,0,1,12.47-1.24c1.62-.13,4.61,0,5.81-1.47,2.47-2.93-2.59-10.07-4.26-12.39-6.29-8.73-16.26-13.61-25.72-18.11-12.14-5.78-24.62-12-25.1-27.12,0-.77-2.66-1.74-2.64-1,0.74,23.48,28.69,26.79,43.75,38.32,5,3.83,9.62,9.17,11.43,15.33,0.83,2.82.25,4-2.67,4.58-3.88.74-8,.49-11.89,1-13.63,1.79-23.1,8.79-33.45,17.13-11.89,9.59-21,26.48-37.32,28.76-0.95.13,1.29,1.67,2,1.57h0Z" transform="translate(-122.96 -12.82)" style="fill:#382360"/><path d="M191,262.73c18.07,2.29,32.88,17.15,45.6,29,0.55,0.51,3.1-.94,2.47-1.53-12.87-11.94-27.72-26.74-46-29.06-0.74-.09-3.07,1.5-2.09,1.63h0Z" transform="translate(-122.96 -12.82)" style="fill:#382360"/><path d="M237.26,291.74a37.86,37.86,0,0,0,13.77-.24c0.68-.12,3-1.86,1.57-1.62a36.36,36.36,0,0,1-13.26.23c-0.73-.14-3.1,1.43-2.09,1.63h0Z" transform="translate(-122.96 -12.82)" style="fill:#382360"/></svg>