<svg id="brush" xmlns="http://www.w3.org/2000/svg" viewBox="0 0 389.78 452.32"><title>garland</title><path d="M180.34,108.35c-0.68,8.57-6.49,13.91-14.48,16.22-5.81,1.68-11.3,1.8-16.44,5.44s-8.16,8.82-11.5,13.88c-2.06,3.13-3.83,5.19-7.49,6.46-3.42,1.19-7,1.86-10.33,3.33-5.2,2.29-7.83,7.52-5.18,13.05,2,4.22,5.27,6.31,5.62,11.34,0.28,3.92-1.32,7.45-1.47,11.28-0.14,3.43,1.36,7.46,2.3,10.73,1.12,3.93,2.25,10.4,5.44,13s8.28,4,12.08,5.32c3.15,1.09,6.34,2.14,9.54,3.06,13,3.74,33.12,8.66,42.32-5.12,2.22-3.33,2.68-7.21,2.9-11.12A63.89,63.89,0,0,1,196,191.28c2.55-9.28,5.07-18.94,4-28.64-0.55-4.88-2.22-9.1-4.21-13.55-2.14-4.81-2.1-9.7-2-14.87,0.14-9.17-1.74-18.11-6.6-26-4.42-7.17-9.39-14.2-17.27-17.73s-15.57-7.22-24.07-8.07c-16-1.6-34.06,1.12-47.49,10.74-13,9.31-20.91,30.92-14.22,45.84l5.17-2.84c-6.09-4-14.15-4.22-19.72.87-3.1,2.83-5.06,7.52-3.44,11.63C67.62,152.51,72,154,73.62,158l0.93-1.49c-6.48,5.27-16.37,10-10.15,19.85,2,3.19,5.36,4.3,8.92,4.86,0.11,0,2.37.15,2.46,0.4s-2.19,2.83-2.33,3a17.8,17.8,0,0,0-3,6.09c-1,4.49,1.1,10.64,5.75,12.22a14.06,14.06,0,0,0,5.4.26c4.63-.27,5.9.6,8.27,4.5,2.11,3.48,5.51,7.07,9.66,7.83,5.47,1,11.23-1.52,16-3.92,3.12-1.57,2.23-3.54-.95-1.94-7.22,3.63-13.14,3.67-18.14-2.89-1.18-1.55-1.88-4.74-3.19-5.92s-4-1.11-5.58-1.1c-5.38.05-9.81,0.45-11.6-6-1.6-5.78,2.23-10.2,5.57-14.42a0.58,0.58,0,0,0-.48-1c-5.67-.58-10.49-1.33-12.58-7.31-2.69-7.67,4.56-10.23,9.48-14.23,0.36-.29,1.17-0.91.93-1.49-2.08-5.05-8.62-7-7.94-13.12,0.89-8,8.37-6.23,13.25-3,1.05,0.69,5.82-1.4,5.17-2.84-6-13.47.25-33.07,11.5-42.23,4.54-3.69,11.23-5.41,16.75-7.09,8.83-2.68,18.33-2.52,27.4-1,7.09,1.19,14.84,5,21.28,8.16,7.25,3.57,12.27,11.19,16.19,18,4.51,7.85,5.8,16.56,5.67,25.47a43.89,43.89,0,0,0,.48,9c0.88,4.56,3.57,8.47,4.78,12.94,2.39,8.86,1,18.07-1.16,26.82-1,4-2.3,8-3.26,12.07-0.92,3.87-.68,7.79-1.14,11.71-0.72,6.22-3.74,10.87-10.38,11.8-4.61.64-9.09-.21-13.61-1.1a151.29,151.29,0,0,1-20.16-5.59,56,56,0,0,1-9.65-4c-4.66-2.68-5.75-8.17-7.19-13.08-1-3.47-2.64-7.72-2.4-11.38,0.22-3.24,1.46-6.31,1.48-9.62a14.68,14.68,0,0,0-2.21-8.21c-2.21-3.39-4.83-5.49-4.29-9.9,0.49-4,3.11-4,6.55-5a47.15,47.15,0,0,0,8.48-3.14c4.92-2.56,7.49-6.92,10.43-11.43a35.39,35.39,0,0,1,6.41-8c2.89-2.45,6.23-2.55,9.73-3.3,11.29-2.39,23.61-9.24,24.61-21.92,0.12-1.48-5.32.37-5.45,2h0Z" transform="translate(-62.42 -25.26)" style="fill:#382360"/><path d="M197.4,431.34c4.06-3.31,3-6.67,2.18-11.31-1-6,5.05-10.76,2.47-16.75-1-2.38-3.53-4-4.25-6.55-0.79-2.74.22-6-.21-8.92-0.38-2.6-1.28-7-3.55-8.69-0.43-.32-1-0.45-1.42-0.74-1.76-1.26-2-.77-2.1-3.24s0.86-4.85-.72-7.28c-1.15-1.78-3.69-2.32-4.7-4.12-1.44-2.53-.25-6.78-0.46-9.65a16.92,16.92,0,0,0-1.14-5.75c-2.22-4.82-7.26-11-12-5l5.29-1.66c1.91-5.75-2.47-10.12-7.24-12.54-3-1.5-7.36-2.15-7.93-5.8-0.46-2.91-.36-5.56-1.45-8.4a16.91,16.91,0,0,0-3.9-6.09,13.1,13.1,0,0,0-3.15-2.32c-1.84-.94-2.87-0.51-3.55-2.46s0.14-4.44-.6-6.64a8.6,8.6,0,0,0-4.57-5.24c-2-.85-3.78-0.39-5.81-0.25-4,.28-4.68-1.67-4.3-5.12,0.47-4.27,1.59-8.19-2.74-10.91-1-.64-5.46-1.31-5.74-2.47-0.16-.66,2-3,2.35-3.57a10.23,10.23,0,0,0,1-3.32c0.75-4.72-2.56-8.18-6.94-9.47-2.11-.62-5.19-0.37-5.94-2.8-1-3.09,1.53-7,2.91-9.5,1.94-3.55,1.43-7.46,1.45-11.4a0.44,0.44,0,0,0-.25-0.52c-7.74-4.13-19.32-5.63-26.64.39a14.05,14.05,0,0,0-4.1,5.41,9.74,9.74,0,0,0-.7,4.15c0,1,.76,4,0.4,4.38-0.68.8-4.42,1-5.6,1.58a6.9,6.9,0,0,0-3.49,2.89c-0.71,1.55-.26,3.53,0,5.14,0.4,2.08,2.22,4.82,2.3,6.77,0,1,.4.13-0.74,1.06a22.68,22.68,0,0,1-2.36,1.28c-1.31.81-3.06,1.93-3.67,3.45-1.51,3.75,3.32,7,2.82,10.39-0.2,1.4-2.36,2.51-3.16,3.6a5,5,0,0,0-.86,4.84c0.78,2.32,2.5,2.94,4.29,4.29,3.9,2.94,1.33,6.34,1.26,10.3a10.92,10.92,0,0,0,2.61,7.39c2,2.37,5.71,2.89,6.41,6,1.27,5.56.91,10.78,6.45,14.26,1.07,0.67,2.63.91,3.57,1.74,1.7,1.49,1.11,3.37,1.21,5.32a10.17,10.17,0,0,0,2.76,6.89c2.47,2.54,5.58,2.45,8.64,3.7,4.4,1.79,4.5,5.62,4.31,9.77-0.09,2.13.11,4,1.87,5.44,2.17,1.74,5.64,1.19,6.66,4.06,0.68,1.91-.49,4.11,0,5.92,0.28,1,1.45,2.19,1.88,3.27,0.52,1.32.5,3,1.09,4.27a11.23,11.23,0,0,0,3.28,3.5c2.37,2,2.52,3,2.1,6.1-0.28,2.06-1.14,4.14-.32,6.16,1.07,2.64,4.18,4.22,6.53,5.48,1.66,0.89,1.57.56,1.74,1.89s-0.94,3.21-1.16,4.48c-0.32,1.83-.84,4.1.2,5.74s3.49,3,5,3.81c2.31,1.28,5.81.9,7.83,2.35,1.43,1,2,3.21,3.67,4.51a17.54,17.54,0,0,0,5.31,2.78c1.67,0.52,6-2.73,4.95-3.05-2.85-.89-7.8-3.21-7.61-6.7a0.44,0.44,0,0,0-.25-0.52c-4.41-1.22-8.2-1.53-11.9-4.46-1.92-1.52-2.23-2.31-2-4.72a20.28,20.28,0,0,1,1.8-7.07c0.14-.28.3-0.7-0.09-0.88-2.62-1.22-5.89-2.53-7.75-4.85-1.53-1.91-1-3.71-.65-5.91,0.25-1.49.85-3.79,0.35-5.28s-2.43-2.5-3.66-3.62c-2-1.84-1.87-2.88-2.64-5.37s-1.94-4-2.08-6.57c-0.08-1.47.3-3.75-.6-5-1.4-2-4.42-1.62-6.27-3-3.11-2.24-1.27-5.72-1.61-8.77a8.28,8.28,0,0,0-3.26-5.87c-2.43-1.78-5.57-1.42-8.12-2.85-4.38-2.47-4-6-4.44-10.25-0.23-2.46-.94-3.15-3-4.35-2.76-1.6-4.92-2.74-6.49-5.75s-1.14-5.66-1.77-8.79-1.61-2.86-4.07-4.35a10.32,10.32,0,0,1-5-9.68c0.19-2.5,1.78-4.82.9-7.36-1.57-4.54-10.09-5.45-5.09-11.26,2.13-2.48,3.16-3.2,1.78-6.45-0.63-1.49-2.3-4.06-2.17-5.71,0.2-2.6,3.1-3,5-4.31,2.88-2,2.22-2.87,1-5.75a30.3,30.3,0,0,1-1.74-7.25c-0.13-.86.63-1.8-0.13-1.16,0.74-.62,3-0.62,3.93-1,3.41-1.19,5.33-2.66,5.51-6.37s-1-7.95,3.3-10.1c3.23-1.63,8.62-.66,11.87.27,1.56,0.45,4.8,1.42,5.33,2.55s0,4.24,0,5.63c-0.22,5.07-5.54,9.29-4.45,14.73,0.81,4,6.58,3.11,9.43,4.87a7.17,7.17,0,0,1,3.37,8.48c-0.74,2.62-3.2,3.92-3.07,6.76a0.44,0.44,0,0,0,.25.52c3.55,1,8,1.66,8.78,6,0.54,3-1.51,6.25-.77,9.22,0.84,3.35,4,3.18,6.78,2.88,5.77-.62,8.95,3.41,8.5,9.08-0.13,1.62-.74,2.7.58,3.92s3.75,1.33,5.24,2.41c3.95,2.87,5.88,7.92,6.26,12.63,0.15,1.87-.13,3.67,1.16,5.17s3.63,2.08,5.31,2.83c5,2.26,11,6.11,8.85,12.49-0.53,1.6,4.81-1,5.29-1.66l0.24-.3-3.52,2.15c-1.21.33,0.65,1.21,1.58,2.35a27.37,27.37,0,0,1,2.53,3.64c2.09,3.65,1.83,7.91,1.72,12-0.1,3.88.76,4.73,3.61,7s2.58,4.68,2.28,8.21c-0.12,1.4-.8,2.75.43,3.78s3.19,0.76,4.45,2.57c1.58,2.25,2.16,5.77,2.35,8.42,0.16,2.27-.5,4.66,0,6.87,0.39,1.79,1.64,3.07,2.69,4.51,1.69,2.3,2.73,4.42,2.1,7.43-0.54,2.56-2.42,4.68-3,7.25-0.83,3.73,3.13,10.29-.22,13-3,2.43,2.21,1.43,3.54.35h0Z" transform="translate(-62.42 -25.26)" style="fill:#382360"/><path d="M120.27,181.79c-0.55,6.41-8.28,5.37-12.11,2.65-1.23-.87-5.35,1.31-5.17,2.84,0.92,8,8.53,14.21,10.61,22,2.24,8.38,1.59,17.2,1.5,25.77,0,1.58,5.44-.42,5.45-2,0.08-8.33.54-16.52-1.17-24.74-1-4.89-3.41-8.75-6-12.93-2-3.17-4.58-6.93-5-10.72l-5.17,2.84c6.76,4.78,21.66,2.12,22.52-7.73,0.13-1.47-5.31.37-5.45,2h0Z" transform="translate(-62.42 -25.26)" style="fill:#382360"/><path d="M237.63,426.39a21.57,21.57,0,0,0-13.7,1.47c-2.21,1-4.28,2.22-6.48,3.21-3.89,1.74-7.61.79-11.62,0-8.22-1.69-16.65-2.51-25-3.87-10.67-1.75-21.35-3.77-32.1-5-6.27-.7-12.56-1.14-18.85-1.62-1.78-.13-5.23.26-6.48-1.2-1.75-2-.32-6.55.15-8.85,3-14.85,8.86-31.41,5.57-46.64-0.25-1.17-5.77.86-5.39,2.63,3.12,14.46-2.34,30.44-5.32,44.54-0.65,3.09-2.93,10.32.91,12.24,1.69,0.84,5.18.45,7,.59,3.15,0.24,6.3.46,9.45,0.73,19.31,1.62,38.26,5.91,57.48,8.13,6.52,0.75,13.65,4.15,20.14,2.18,7.15-2.17,12.06-6.94,20-5.28,1.45,0.31,6.21-2.82,4.18-3.25h0Z" transform="translate(-62.42 -25.26)" style="fill:#382360"/><path d="M278.84,421c-3.7,3.7-7.08,5.36-12.14,3.6-1.87-.65-3.56-1.82-5.46-2.32a22.68,22.68,0,0,0-6.83-.26c-6.66.36-13.85,1.67-19.69,5-5,2.9-7.92,7.36-4,12.57,2.81,3.69,6.13,5,10.68,5.24,2.29,0.11,4.45,0,6.09,1.85,0.44,0.48,1.18,3.08,1.5,3.24s2.86-2.14,3-2a6.09,6.09,0,0,0-.82-0.07c-2.29-1.31-6.82-1.47-9.42-2.14-3.7-1-7.41-1.93-11.17-2.65-6-1.14-13.31-2.11-18.44,2-6.78,5.46-.86,18.47,3.73,23.4,7.5,8.06,22.74,9.44,33.06,9,12.13-.49,24-5.6,33.66-12.79a32.31,32.31,0,0,0,10.17-11.46c0.81-1.65,1.34-3.4,2.1-5.06,1.5-3.27,4.06-4,7.42-5,1.6-.48,5.56-4.11,1.9-3-3.87,1.17-8,2.4-11.2,5-2.38,1.94-3.26,4.38-4.39,7.13-4.42,10.78-15.93,17.5-26.77,20.58-11.42,3.25-26.8,1.54-37.08-4.38-4.43-2.55-7.19-7.28-8.76-12a19,19,0,0,1-1.1-8.57c0.35-2.28.28-2.2,1.87-2.53,6.72-1.41,15.72,2.24,22.14,3.89,4.2,1.08,9.6,3.25,13.66.65,2.22-1.43,2.41-2.86.92-5.22-2.16-3.44-5.91-2.87-9.41-3.19-6.22-.57-14.62-9.87-6.15-13.7,5-2.26,13.39-3.75,18.84-2.4,4.83,1.19,8.06,4,13.36,3.11s9.54-4.37,13.21-8c2.1-2.1-3.49-.51-4.48.49h0Z" transform="translate(-62.42 -25.26)" style="fill:#382360"/><path d="M75.5,287.81c-6.78,6.11-9,13.48-9.74,22.34a81.1,81.1,0,0,0-.17,14.72c0.56,5.53,2.74,9.71,4.59,14.8,1.8,4.94,1,10,.73,15.15a107.22,107.22,0,0,0,.61,16.39,246.75,246.75,0,0,0,6.2,33.69q1.81,7.49,3.72,15c1.6,6.27,1.39,12,1.44,18.39,0.06,7.51,2.32,16.71,9.85,20s17,1.43,25,1.21c12.07-.33,24.09-1.25,36.11-2.33a334.49,334.49,0,0,1,36-.89c4,0.07,7.47,2.15,11.2,3.41a101.43,101.43,0,0,1,12.11,5c1.53,0.75,6.14-2.47,4.95-3.05-6.1-3-12.54-4.77-18.7-7.53-3.63-1.62-7.37-1-11.31-1-4.95,0-9.9,0-14.85,0-21.07.38-42.13,2.89-63.21,3.66-9.86.36-17.37-2.1-20.5-12.09-1.69-5.39-1-10.77-1-16.29,0-5-1.36-9.63-2.57-14.41-5.34-21.08-10.87-42.68-9.39-64.59,0.32-4.77.34-9.22-1.57-13.67-2.47-5.75-4.06-10.64-4.24-17-0.33-11.23.35-23.42,9.2-31.38,1-.92.2-1.24-0.67-1.37-1.21-.19-3,1.11-3.81,1.86h0Z" transform="translate(-62.42 -25.26)" style="fill:#382360"/><path d="M216.63,84.86c-1.85,8.7-2.13,18.34.87,26.83a106,106,0,0,0,5.4,11.76c2.31,4.66,2,8.68,2.72,13.66a53.84,53.84,0,0,0,7.44,20.42c3.92,5.94,9.76,9.72,15,14.33,5,4.36,3.82,9.59,6.65,15,3,5.66,10.2,5.32,15.66,4.17,7.78-1.63,15.35-5.76,22.39-9.32a77.48,77.48,0,0,0,18.94-13.5c2.14-2.08,5.16-4.88,6.15-7.8,1.38-4.05.32-10.19,0.52-14.56,0.37-7.83,2.06-17.36-1.13-24.83-0.58-1.35-6,1.14-5.39,2.63,2.5,5.87,1.63,13,1.33,19.19-0.19,4-.43,8-0.51,11.94-0.08,4.16.44,7.09-2.22,10.43-4.62,5.8-11.17,10.55-17.66,14-7.13,3.83-16.56,9.46-24.81,9.17-7.21-.26-8.42-4.92-9.78-10.93-1.06-4.66-3.27-7.12-6.91-10.08-5.52-4.48-11-8.78-14.42-15.19a59,59,0,0,1-5.75-17.41c-0.65-4.19,0-8-1.85-12s-3.88-7.55-5.5-11.49c-3.71-9-3.71-19-1.69-28.5,0.27-1.27-5.09.33-5.45,2h0Z" transform="translate(-62.42 -25.26)" style="fill:#382360"/><path d="M246.24,61.68c-4.82,1.25-8.82,3.71-10,8.69-0.79,3.42-1.12,7.8-2.8,10.9-2.88,5.32-8.94,3.45-12.7,0-2.44-2.23-1.36-4.91-3.24-7.25-2-2.54-6-2.1-8.53-3.69-3.48-2.16-2.5-6.18-1.43-9.38,0.8-2.38.55-4.58,0.28-7-0.82-7.35,3.49-13.1,11.89-11.4,3.27,0.66,5.85,1.24,9,.09,6.35-2.29,9.17-9.06,15-11.93,4.06-2,8.48.8,12.63,1.17s8.16-.29,12.19-0.82c4.26-.56,8.53-1.1,12.81-1.56s9.14-1.45,13.55-.81c7.75,1.12,11.59,7.33,16.16,12.92s10.75,8.52,14.12,15c1.76,3.4,3.52,7.26,4.06,11.06,0.61,4.29-.64,8.45-1.17,12.68a23,23,0,0,0,.77,10.11c1.4,4.5,3.16,7.66,2.79,12.47-0.17,2.17.16,3.88-.94,6-0.61,1.17-1.62,2.1-2.22,3.28-1.41,2.77-.78,4.86.35,7.6,0.68,1.63,1.75,4.56.22,6.13-1.16,1.18-3.26.52-4.73,0.16-3.76-.91-5.65-3-7.83-6.1s-3.27-5.52-3-9.37c0.24-3.18,1-6.31.18-9.49-1.68-6.49-7.85-11.49-14.61-10.83a16.54,16.54,0,0,0-7.89,3.08c-2.63,1.89-3.67,6.38-7.31,5.76-2.1-.36-4.59-2.78-5.64-4.47-1.68-2.7-1-4.8.21-7.49,1.39-3.19,2.13-5.83.9-9.26-1.12-3.11-3.09-6.2-6.27-7.4-4.34-1.63-7.87,0-11-4.28-1.9-2.58-2.68-4.1-6.08-5.09-3.12-.9-6.67-0.08-9.76.53-1.7.34-5.67,3.75-1.9,3,5.18-1,8.95-.77,12,3.64,2.06,3,3.63,4.19,7.27,4.65,5.25,0.67,8.53,2.27,10.37,7.57s-2.14,7.89-2.36,12.74c-0.3,6.56,8.83,11,14.4,9.42A10.29,10.29,0,0,0,292,98.39c0.41-.66.58-1.49,1-2.12,1.49-2.3,3.79-2.89,6.46-2.29,3,0.68,5.42,3.08,7,5.62,2.72,4.26,2.07,8.31,1.64,13a13.21,13.21,0,0,0,2.7,9.49c3.47,5,7.88,8.41,14.39,7.63,4.32-.52,9.86-3.6,10.12-8.43,0.23-4.19-3.57-6.65-1.31-11,0.74-1.41,1.92-2.51,2.51-4,0.76-1.94.56-4.14,0.7-6.19,0.28-4-1-6.88-2.37-10.65-1.85-5.21-1.52-9.82-.63-15.17A31.33,31.33,0,0,0,328.13,50c-2.19-3-5-4.57-7.75-6.88-3.19-2.65-5.46-6.24-8.07-9.41-4.76-5.79-10.19-8.69-17.82-8.38-9.45.37-18.78,2.4-28.19,3.21-8.44.73-15.7-3.88-23.68,0.35a32.72,32.72,0,0,0-7.29,5.6,52.83,52.83,0,0,1-4,3.91c-3.45,2.68-5.54,1.1-9.09.58-6.72-1-13.57,2.26-17.71,7.54-2.5,3.19-2.6,6.19-2.12,10.09a14.21,14.21,0,0,1-.67,7.18,10.64,10.64,0,0,0-.67,4.77c0.5,4.18,3,4.88,6.54,6.08,2,0.68,4.23,1.11,5.18,3.24,0.68,1.53.33,3.2,1.23,4.69,3.76,6.25,12.33,6.36,18.13,3.63A13,13,0,0,0,238.6,80c1.66-3.33,1.72-14.26,5.74-15.3C246,64.25,249.95,60.72,246.24,61.68Z" transform="translate(-62.42 -25.26)" style="fill:#382360"/><path d="M312,228.11c-3.11,6-12.86,6.56-18.83,7-1.68.12-3.36,0.18-5,.16-2.44,0-3.17-1.08-3.74-3.62-0.93-4.11-.3-9.14-0.15-13.33,0.24-6.5-7.52-8.66-8.33-15.28-0.35-2.84.41-5,.64-7.71,0.21-2.56-1.22-4.79-2.41-6.95-0.77-1.4-6.11,1.33-5.39,2.63,1.82,3.3,2.44,5,1.8,8.54-0.68,3.78-.39,8.48,2,11.63,2.75,3.63,6.28,4.73,6.21,9.79,0,2.84-.16,5.66-0.06,8.5,0.07,1.95-.37,6.06.73,7.71,1.44,2.14,5.65,1.38,7.93,1.3a69.8,69.8,0,0,0,12-1.43c6.4-1.35,14.57-4,17.79-10.22,0.93-1.81-4.44-.06-5.13,1.29h0Z" transform="translate(-62.42 -25.26)" style="fill:#382360"/><path d="M322.41,129.21c-0.09,7.72,0,15.43-.07,23.14-0.06,6-.74,12.11-0.32,18.15,0.12,1.67,5.56-.49,5.45-2-0.42-6,.26-12.11.32-18.15,0.07-7.71,0-15.42.07-23.14,0-1.58-5.43.42-5.45,2h0Z" transform="translate(-62.42 -25.26)" style="fill:#382360"/><path d="M251.42,216.55c-11.14,3.24-24.56,7.48-33.6,15.23a46.62,46.62,0,0,0-16.38,30.92c-0.14,1.45,5.29-.36,5.45-2a43.58,43.58,0,0,1,12.68-26.81c7.45-7.63,20.05-11.44,29.93-14.31,1.61-.47,5.57-4.07,1.9-3h0Z" transform="translate(-62.42 -25.26)" style="fill:#382360"/><path d="M159.26,276.17c2.46,2.42,7,6.19,8,9.46s-0.51,7.13,1.74,10.22,5.69,2.93,4,7.33c-1.28,3.35-2,5.48-.51,8.86,1.12,2.6,4.5,5,4.64,7.58,0.16,3-2.57,5.16-1.26,8.25,1.17,2.73,4.41,4.67,5.35,7.49,1.12,3.36-3.79,9.05-4.39,12.76-0.22,1.35,5.18-.34,5.45-2a23.74,23.74,0,0,1,2.58-6.65c0.49-1,2.55-4,2.43-5.36-0.22-2.43-3.79-5.63-5.17-7.6-2.38-3.39.24-5.1,0.68-8.67,0.33-2.64-3.1-4.81-4.38-7.24-2.08-3.93-1.08-6.62.45-10.51,1.29-3.26-.88-3.53-3.21-5.58-3.43-3-2-6.81-2.88-10.77-0.92-4.16-5.2-7.25-8.18-10.17-1.33-1.31-6.14,1.89-5.39,2.63h0Z" transform="translate(-62.42 -25.26)" style="fill:#382360"/><path d="M279.71,237.46c2.25,4.15,6,6.8,5.77,12-0.13,2.64-1.94,6.16-1.39,8.72,0.66,3.1,4,5,4.74,8.25,0.88,3.68,1.13,7.23-.37,10.74-0.92,2.16-2.16,4.18-3.1,6.32-0.18.41-.25,0.57,0.09,0.88,3.86,3.44,2.84,9.71.25,13.55-1.71,2.53-2.12,2.42-.4,4.84,4.69,6.62-1,10.52-3.05,16.78l0,0.31c5.87,5.88,9.85,14.73,7.36,23.24-0.33,1.13,5-.33,5.45-2,1.05-3.59.46-8.34-.25-12a17.45,17.45,0,0,0-3.51-7.82c-1.73-2.19-3.93-3.42-2.4-6.26,2.27-4.2,5.46-8.2,2.94-12.86-1.57-2.91-2.9-2.76-1-5.5a13.52,13.52,0,0,0,2.58-8,13,13,0,0,0-.79-4.23c-0.3-.75-1.25-1.74-1.41-2.37-0.5-1.92,1.79-4.6,2.6-6.49a17.34,17.34,0,0,0-1.68-16.15c-1.05-1.45-2.46-2.57-2.56-4.42s1-4.44,1.24-6.39c0.71-6.06-3-8.78-5.71-13.71-0.75-1.39-6.11,1.31-5.39,2.63h0Z" transform="translate(-62.42 -25.26)" style="fill:#382360"/><path d="M382.6,331.51c1.48,0,6-3.25,4.18-3.25-1.48,0-6,3.25-4.18,3.25h0Z" transform="translate(-62.42 -25.26)" style="fill:#382360"/><path d="M161.93,225a29.54,29.54,0,0,0-.82,8.53c0.21,2.13.82,4.12,0.82,6.28,0,6.53-2.44,12.89-2.59,19.49-0.11,4.66,2.33,17.46-3,20.4-1.26.69-4.69,0.21-6,.23a39.77,39.77,0,0,1-6.68-.12c-3.82-.57-7.53-2.05-11.28-3-1.44-.35-6.23,2.75-4.18,3.25,9,2.21,17.68,4.62,27.11,2.56,6.19-1.35,9.59-7.9,9.67-13.83,0.06-5-.35-9.89,0-14.85,0.29-4.12,1.31-8,2-12a24.8,24.8,0,0,0,0-8.51,28.16,28.16,0,0,1,.44-10.45c0.25-1.3-5.12.33-5.45,2h0Z" transform="translate(-62.42 -25.26)" style="fill:#382360"/><path d="M164.35,240.31c6.3-.87,12.41.48,15.56,6.42a0.7,0.7,0,0,0,.61.31c4.42,0.08,8.54.95,11.3,4.73,0.84,1.15,1.25,2.71,2.21,3.74s2.22,1.29,3.35,2c3.88,2.56,3.64,5.38,3.89,9.44,0.21,3.44,2,2.9,4.68,4.36,4.2,2.27,5.4,6.92,4.54,11.33-0.61,3.15-2.48,6.47-.45,9.3,2.54,3.55,6.52,5.51,5.89,10.62-0.49,4-3.44,6.59-4.87,10.11-1,2.49-.72,4,1.15,5.86,3.1,3.15,6,6,3.21,10.71-1.59,2.68-2.78,3.5-1.1,6.54,2.33,4.23,2.84,6.33,1.56,11.09-0.89,3.32,1.18,5.14,2.53,8a11.26,11.26,0,0,1,1.26,6.61c-0.36,1.92-1.85,2.88-2.53,4.55-1.2,3,1.46,4.75,2.52,7.37,1.91,4.74-.5,7.24-1,11.67-0.21,1.82.54,2.83,1.21,4.45a10.87,10.87,0,0,1,.59,7c-0.93,4.08-3,7.92-2.62,12.22,0.14,1.43.49,2.88,0.75,4.29,0.56,3,.09,4.51-1.11,7.28-0.78,1.78-1.42,2.84-1.09,5,0.31,2,1.85,3.48,2,5.54,0.13,1.68,5.57-.5,5.45-2a11.64,11.64,0,0,0-1.27-3.81c-1.23-3.06-.57-4.74.76-7.62,1.49-3.2,1-5.17.42-8.56-1-5.48,1-9.19,2.16-14.37a12.24,12.24,0,0,0,.3-5.05c-0.43-2.16-2-3.73-2-5.94-0.09-3.8,2.33-6.63,1.47-10.69a17.66,17.66,0,0,0-2.4-5.19c-1.85-3.32.07-3.62,1.31-6.49s0.52-6.18-.78-9c-0.73-1.57-2.5-3.33-2.79-5-0.44-2.53,1.59-5.18,1.35-7.87a10.72,10.72,0,0,0-1.35-4.28c-1.5-2.79-2.2-3.64-.82-6.63s2.52-5.25,1.14-8.5-6.07-4.5-5.26-8.19c0.89-4.08,4.71-6.86,5.3-11.24s-2.07-7.15-4.79-10.07c-1.92-2.06-2.17-2.85-1.67-5.71,0.44-2.52,1.43-4.83,1.36-7.43a10.58,10.58,0,0,0-4.2-8.28c-1.65-1.25-3.79-1.27-4.8-3s-0.21-3.28-.45-5.06c-0.67-4.86-4.17-5.23-7.2-8-1.43-1.33-2-3.49-3.32-5a11.69,11.69,0,0,0-5.2-3.38c-1.83-.6-4.08-0.36-5.7-1.3s-2.51-2.77-4-3.88c-4.05-2.95-9.13-3-13.9-2.37-1.38.19-6.07,3.64-3.14,3.23h0Z" transform="translate(-62.42 -25.26)" style="fill:#382360"/><path d="M351.41,361.14a18.26,18.26,0,0,0,.45-7.71L351.58,352q-0.05-2.37-2.72-2c0-.06,3.22-1.18,3.23-1.18,3.71-1.59,6.94-3.62,7.7-7.79a14.54,14.54,0,0,0-.16-6.87c-0.78-2.2-1.78-1.91.63-3.08,1.21-.59,2.5-1,3.69-1.6,4-2,5.6-4.77,5.55-9.31,0-2.21-1-3.78-2.11-5.65-0.44-.72-1.8-2-1.53-2.78,0,0,2.83-2,2.91-2.06,3.7-3.14,4-8.08,3.45-12.71-0.23-1.89-.69-2.25.14-4,1-2,3.31-3.42,4.46-5.38a9.46,9.46,0,0,0,1.17-5.81,17.26,17.26,0,0,0-1.36-4.42c-0.53-1.27-2.56-3.47-2.17-4.83l-1.55,1.6c0.75-.51,4.2-1,5.7-1.75a11,11,0,0,0,3.85-3c3.36-4.13,2.31-9.39-.14-13.61-1.79-3.08-1.51-2.88,1.27-4.84a14.09,14.09,0,0,0,4.55-4.72c2.23-4.21.6-11-2-14.78-0.9-1.31-2.52-2.07-3.36-3.37-1.09-1.69-.89-1.83.29-3.55,1.81-2.63,4.27-5.12,4.3-8.52a11.54,11.54,0,0,0-2.06-6.3,20.53,20.53,0,0,0-2.39-2.54c-1.5-1.55-1.43-1-.53-3.26,1.74-4.29,1.67-10.76-3.38-13.11-1.36-.63-4.8.49-5.7-0.14a3.43,3.43,0,0,0,.83-1.44c0.53-1.38.17-3.76-.1-5.2-0.81-4.24-4.48-8.51-8.74-9.44a19,19,0,0,0-6.13-.06c-2,.23-4.82,1.56-6.11.25s-1.13-3.9-2.41-5.31-3.51-2.48-5.18-3.34c-3.72-1.92-7.26-2.08-11.37-1.34-3.6.65-10.21,2.22-12.05,5.8-2.18,4.24-.48,11.09.25,15.55,0.76,4.66-3,5.52-5.92,7.9a21.45,21.45,0,0,0-5.58,7,13.72,13.72,0,0,0-1.49,7.68,33.53,33.53,0,0,0,.89,4.06c0.46,2.32-.7,3.95-1.35,6.09-1.08,3.53-.51,6,1.93,8.81,1.9,2.19,6.33,3.53,6.78,6.3,0.53,3.22-.54,4.41,1.65,7.33,0.86,1.14,2.08,2,3,3.06,0.24,0.27,1.22.44,1.34,0.66,0.52,1-.47,2.47-0.79,3.34-1.11,3.06-2.28,5.79-2,9.14a12.27,12.27,0,0,0,.79,3.66c0.71,1.77,2.66,3.11,2.32,5.07-0.41,2.33-1.81,3.45-1,6.16,0.65,2.31,3.18,5.59,2.17,8.15l3.68-2.51c-3.49,1-8.47,2.13-10.56,5.44-2.33,3.7-1.91,10.24-.7,14.27l4.27-2.93c-4,.62-7.23,1.19-9.75,4.74s-5,9-3.7,13.08l3.65-2.82c-3.85,1.07-8,3-10.45,6.2-1.79,2.36-2.37,5.13-2.82,8-0.61,3.85.3,8.11-.5,11.81l1.55-1.6a32.77,32.77,0,0,0-3.5,1.6,18.82,18.82,0,0,0-4.31,3.93c-3.76,4.59-3.54,7.83-1.58,13,1.46,3.85-.33,4.68-3.55,6.2a14.19,14.19,0,0,0-5.2,3.68,8.2,8.2,0,0,0-1.63,4.43c-0.26,2.85,1.44,5.31,1.43,8l1.55-1.6c0.72-.49-3.56-0.11-4.26,0a22.72,22.72,0,0,0-3.55.65,21.89,21.89,0,0,0-6.75,3.2,6.9,6.9,0,0,0-3,4.63c-0.67,3.23,2,6.52,1.11,9.41l1.55-1.6c-2.49,1.5-6.49,2.25-9.26,4.73-2.58,2.31-4.85,5.83-4.83,9.42,0,3.88,4.64,6.12,4.29,9.73s-2.79,6.84-3.09,10.48c-0.12,1.48,5.32-.37,5.45-2,0.33-4,4.55-9.7,2.67-13.33-1.41-2.71-4-4.22-3.81-7.56,0.22-5.16,3.93-7.23,8.08-8.93,1.36-.56,3.47-1.17,4.24-2.58,1.52-2.79-1.74-6.14-1.09-9.16,1.58-7.39,12.05-1.14,15.62-6.7,1.29-2-.53-4.07-0.84-6.21-0.83-5.72,3.39-6.42,7.22-8.78,1.83-1.13,3.53-2.9,3.76-5.12,0.39-3.7-3.12-6.29-2.28-10.2s3.8-5.87,7-7.61c1.62-.88,2.32-1.4,2.57-3.18,0.86-6.15-2-17.59,6.28-19.9,0.88-.24,4.1-1.42,3.65-2.82-1-3.18,1.24-11.4,4.92-12,1-.16,4.74-1.35,4.27-2.93-1.06-3.54-.73-7.11-0.15-10.73,0.33-2,.39-2.16,2.57-2.89a14.06,14.06,0,0,0,3.66-1.38c1.55-1.07,1.67-1.77,1.59-3.55a11.32,11.32,0,0,0-.93-3.6c-1.31-3.34-1.89-4.51-.45-8.07,1.16-2.85-.53-3-1.87-5.75-2.19-4.56-.62-9.06,1.31-13.34,1.2-2.67,1.23-2.49-1-4.17a15.19,15.19,0,0,1-4.14-4.58c-1.1-2.33-.11-4.18-0.4-6.59-0.39-3.26-2.67-2-5.11-3.69-5.41-3.79-4.08-8-2.43-13.16,1.14-3.59-1.42-6.92-.72-10.8,1.07-5.89,5.77-8.28,10-11.51,5.63-4.25,1.72-11.52,1.92-17.49,0.1-3-.19-4.41,3.41-5.63a14.68,14.68,0,0,1,5.7-.59c2.78,0.27,5.34,1.8,7.64,3.3,2.93,1.91,2.33,4.59,4.32,7s5.73,0.14,8.19-.17c4.28-.54,7.08.34,9.84,3.66A11.18,11.18,0,0,1,368,193.15a0.44,0.44,0,0,0,.25.52,4.38,4.38,0,0,0,2.11.24c3.13,0.13,4.48,0,6.41,2.77a8.13,8.13,0,0,1,.93,7.32c-0.46,1.37-2,3-1.61,4.58,0.18,0.72,1.81,1.58,2.28,2a10.89,10.89,0,0,1,3.19,5.19c0.74,2.78,0,4.84-1.47,7.21-0.87,1.42-3.8,3.37-3.9,5-0.16,2.75,4.43,5.72,5.6,8.13,2,4.14,3.31,10.2-.55,13.64-1.52,1.36-5.45,2.36-5.95,4.72s3.08,5.81,3.6,8c0.47,2,.57,5.65-0.88,7.36-1,1.21-3.07,1.17-4.65,1.72s-4.46,1.66-4.55,3.69c-0.05,1.22,1.69,3,2.17,4.06,0.93,2.11,1.85,4.62,1.53,6.93-0.59,4.24-5.07,5.23-6.29,8.81-0.66,1.93.49,4.42,0.44,6.69,0,1.53.47,4-.09,5.45-1,2.55-4.27,3.05-5.57,5.16-1.54,2.5.9,4.18,2.05,6.59a8.62,8.62,0,0,1,.86,5.15c-0.25,2.37-.93,3-2.82,4.12s-6.8,2.26-7.62,4.83c-0.47,1.47.76,3.4,1,4.85,0.25,1.77.48,4.5-.29,6.21-1.58,3.5-7.95,2.66-9,6.35-0.46,1.61,1.14,4,1.37,5.6a17.33,17.33,0,0,1-.51,7.1c-0.32,1.16,5-.33,5.45-2h0Z" transform="translate(-62.42 -25.26)" style="fill:#382360"/><path d="M273.52,201a29.83,29.83,0,0,0-19.06,5.5c-2.82,2-7.47,5.88-7.2,9.66,0.08,1.09.73,2.22,0.92,3.31,0.55,3.25.94,2.58-1.39,3.49a10.38,10.38,0,0,0-4.2,2.77c-1.51,1.71-3.43,4.75-3.39,7.13,0,3,2.94,5.28,4.55,7.52l2.22-2.29c-6.63,3.57-12,7.32-10.57,16,0.31,1.88,2.6,5,2.59,6.63,0,1.35-1.79,3-2.36,4.18a18.07,18.07,0,0,0-1.18,11.82c0.56,2.42,2.39,4.11,1.43,6.69-0.5,1.34-1.65,2.48-2.16,3.9a23.44,23.44,0,0,0-1.09,11.86c0.76,3.67,3.88,7.71,3.23,11.25-0.67,3.7-4.4,5.53-4,9.62,0.4,4.63,7.33,6.92,4.51,11.69-1.77,3-5.1,4.25-4.81,8.38s7.58,5.62,7,9.4c-0.16,1.1-2.49,2.81-3.21,3.71a7.51,7.51,0,0,0-1.93,5.15c0.16,3.55,2.69,6.09,5.45,8,2.12,1.43,3.82,1.52,1.83,3.76-0.95,1.06-2.25,1.7-3.1,2.88a9.62,9.62,0,0,0-.84,8.37c0.9,2.42,2.71,2.3,4,4.44,1.56,2.67-1.16,4.08-2.6,5.85-2.1,2.56-3.57,5.62-2.8,9.05,0.65,2.88,3,3.5,5.06,5.22,6.22,5.21-5.44,15.27,3.87,19.49,1.56,0.71,6.12-2.52,4.95-3.05-7.95-3.61,1.07-11.57-1.75-17.13-1-1.93-2.86-2.66-4.48-3.9-2.91-2.23-3-6.32-.95-9.28,1.49-2.18,4.8-3.75,4.73-6.76,0-1.47-.85-2.33-1.78-3.34-2-2.12-3-2.55-3.17-5.64-0.3-4.36,2.54-5,4.66-7.83s-0.36-3.73-2.65-5.18c-5.06-3.22-6.29-8-2.05-12.38,2-2.12,3.17-4.15.92-6.69s-6.47-3.5-5.64-7.79c0.75-3.84,5.77-5.23,5.66-9.32-0.09-3.58-4.46-5-5.3-8.42-1-4.1,2.78-6,4.07-9.34,1.23-3.16-1.46-6.53-2.5-9.52a21.49,21.49,0,0,1-.57-11.62c0.63-3.41,4.3-6.56,3.16-10-1.58-4.68-3.05-8.61-1.22-13.65,0.55-1.51,3.21-3.93,3.29-5.58,0.06-1.28-1.28-2.58-1.77-3.73a14.53,14.53,0,0,1-1-8.84c0.81-3.44,3.1-4.84,6-6.4,0.41-.22,2.8-1.49,2.22-2.29-2.65-3.66-6.57-7.06-2.65-11.6,1.71-2,5.08-2,6.63-4.48,1.85-3-.72-5.8-0.36-8.74,0.21-1.76,2.32-3.6,3.59-4.76,3.54-3.23,8.34-4.15,13-3.93,1.48,0.07,6.06-3.16,4.18-3.25h0Z" transform="translate(-62.42 -25.26)" style="fill:#382360"/><path d="M383,198.17c5,0.46,10.19.62,15.09,1.93,6.46,1.72,11.49,7.05,14.71,12.77a38.89,38.89,0,0,1,3.56,10.41,105.66,105.66,0,0,0,4.95,14.58c4,10,6.76,20.38,9.8,30.73,2.31,7.84,3.48,15.71,5.17,23.67,2.33,11,9.34,21.21,10.28,32.41,0.47,5.54-4.47,12.27-7.15,16.76-4.56,7.64-9.72,15.64-16.48,21.52a178,178,0,0,1-18,13.27c-12.86,8.61-26.75,15.56-39.61,24.1-9.15,6.07-17.28,13.49-25.88,20.28a247.48,247.48,0,0,1-29.14,19.25c-0.58.34-5.38,2-2.3,2.83a7.39,7.39,0,0,1-1.17-1.11c-1.25-1.22-2.54-2.42-3.81-3.62q-4.9-4.67-9.75-9.4c-2.86-2.79-7.25-5.89-9.32-9.31s1.74-5.08,4.06-7c1.16-1,2.26-2,3.36-3,5.24-4.77,11.41-8.38,16.62-13.2,3.84-3.55,8.15-5.86,12.48-8.73,4.95-3.28,9.39-7.33,14.15-10.86,9.36-7,18.11-13.71,26-22.32,4.67-5.07,9-11.66,14.85-15.36,3.46-2.17,12.85-5.35,10.55-10.57-1.69-3.86-4.85-7.5-7-11.17-2.62-4.55-5.3-9.27-6.66-14.38-0.44-1.66-5.77-3.22-5.45-2,2.28,8.55,7.58,16.52,12.35,23.87,1.23,1.9,2.77,3.12.77,5.38a14.06,14.06,0,0,1-3,1.86c-2.53,1.55-5.22,3-7.64,4.67-5.49,3.88-9.64,10.19-14.16,15.09-8.23,8.93-17.4,15.67-27,23-4.67,3.54-9.08,7.5-14,10.63A85.23,85.23,0,0,0,302,394c-5.66,5.11-12.15,9.37-17.94,14.36-2.27,2-7.49,4.44-6.38,8.08,1,3.37,6.61,7.25,9.05,9.66,5.8,5.7,11.61,12.76,18.31,17.41,3.07,2.13,5.33,2,8.5.38,5.75-3,11.25-6.68,16.7-10.17,10.47-6.7,19.75-14.82,29.45-22.55,14.18-11.29,30.76-19.19,45.92-29.08a232.35,232.35,0,0,0,20.51-14.58c6.7-5.49,11.77-12.52,16.44-19.78,3.35-5.21,8-11.8,9.42-18,1.12-4.94-2-11.46-3.65-15.94-2.21-5.88-4.71-11.69-6.2-17.81-2.3-9.43-3.64-18.86-6.41-28.22-1.94-6.55-3.54-13.25-5.81-19.7-2.37-6.72-5.52-13.19-7.43-20.07-1.06-3.82-1.65-7.68-3.29-11.32a39,39,0,0,0-9.59-12.6c-8.24-7.47-19.2-8.15-29.73-9.11-3-.27,1.73,3.1,3.14,3.23h0Z" transform="translate(-62.42 -25.26)" style="fill:#382360"/></svg>