<svg id="brush" xmlns="http://www.w3.org/2000/svg" viewBox="0 0 386.97 450.9"><title>garland</title><path d="M181.7,107.85c-0.74,9.37-7.7,15-16.31,17.47-5.28,1.51-10.41,1.52-15.08,4.78-4.89,3.41-7.89,8.59-11.1,13.47-2.37,3.6-4.68,6-8.9,7.43-3.4,1.19-7,1.81-10.33,3.33-4.5,2.08-5.88,7.22-3.7,11.75,2,4.26,5.27,6.34,5.63,11.41,0.28,4-1.29,7.5-1.47,11.36-0.15,3.37,1.37,7.37,2.28,10.57,1.11,3.88,2.22,10.3,5.33,12.9s8.31,4,12.08,5.32c3.15,1.09,6.34,2.14,9.54,3.06,11.87,3.41,31.32,8.75,39.8-4,2.18-3.28,2.6-7.09,2.82-10.94a63.89,63.89,0,0,1,2.39-13.94c2.54-9.22,5.07-18.85,4-28.49-0.55-4.88-2.22-9.1-4.21-13.55-2.16-4.85-2.12-9.81-2-15,0.14-9.12-1.75-18-6.59-25.84-4.4-7.14-9.32-14.11-17.16-17.63-7.67-3.45-15.44-7.17-23.88-8-15.29-1.53-32.62.86-45.56,10-5.73,4.05-10.12,11.41-12.88,17.66-3.6,8.17-4.62,19.1-.89,27.44L88,136.93c-5.7-3.74-13.94-4.51-18.62,1.3-3,3.71-3.52,9,0,12.53,1.48,1.47,3.54,2.52,4.53,4.45,1.57,3.06-2.31,4.08-4.51,5.7-3.77,2.77-6.51,6-5.27,10.88s4.24,7.49,9.08,8.44c0.81,0.16,3.37.15,3.65,0.78s-1.77,2.73-2.17,3.32a15.62,15.62,0,0,0-3.12,7.18c-0.52,5.3,2.8,10.82,8.34,11,5,0.19,8-1.42,10.92,3.89a19.91,19.91,0,0,0,5.85,6.65c5.74,3.9,13,.87,18.57-1.93,1.56-.79,1.12-1.77-0.47-1-7.71,3.88-14.33,4.35-19.72-2.72C94,206,93.24,202.71,92,201.6s-3.87-1-5.33-1c-5.48.09-10.1,0.34-11.9-6.14C73.1,188.55,77,184,80.39,179.71a0.29,0.29,0,0,0-.24-0.49c-5.76-.58-10.76-1.38-12.89-7.46-2.8-8,4.82-10.8,9.94-15a0.84,0.84,0,0,0,.46-0.74c-2.12-5.14-8.66-7-8-13.28,1-9,10.2-8,15.85-4.3,0.53,0.34,2.91-.7,2.59-1.42-6.18-13.81.46-33.66,12-43,5-4,12.09-5.93,18.12-7.75,9-2.73,18.71-2.61,28-1.06,7.16,1.2,15,5,21.47,8.21,7.29,3.59,12.35,11.25,16.3,18.13,4.53,7.89,5.82,16.66,5.68,25.62a43.13,43.13,0,0,0,.47,8.81c0.88,4.56,3.57,8.47,4.78,12.94,2.41,8.91,1,18.17-1.15,27-1,4-2.3,8-3.26,12.07-0.92,3.87-.68,7.79-1.14,11.71-2.56,22.14-33.34,11-46.74,6.38a56,56,0,0,1-9.65-4c-4.73-2.72-5.84-8.21-7.3-13.19-1-3.5-2.69-7.84-2.41-11.53,0.24-3.25,1.47-6.31,1.48-9.62a14.43,14.43,0,0,0-2.2-8.06c-2.25-3.46-4.86-5.55-4.31-10.06,0.8-6.5,11.21-6.52,16.16-9.14,4.42-2.34,6.74-6.56,9.38-10.63a37.16,37.16,0,0,1,6.69-8.28c3.35-2.86,7.15-3.21,11.21-4.06,10.75-2.26,21.82-8.68,22.77-20.66,0.06-.74-2.66.19-2.73,1h0Z" transform="translate(-63.87 -26.07)" style="fill:#382360"/><path d="M196.51,431.25c3.68-3,2.43-6.42,1.71-10.57-1-6,5-10.84,2.47-16.75-1-2.38-3.51-4-4.25-6.55-0.81-2.75.22-6-.21-8.92-0.37-2.54-1.27-7.05-3.55-8.69-0.34-.24-0.81-0.35-1.12-0.58l-0.92-.19q-2.63-1.06-1.49-3.36c-0.07-2.56.86-4.74-.71-7.13-1.16-1.77-3.7-2.3-4.7-4.12-1.45-2.6-.26-6.86-0.48-9.8a16.54,16.54,0,0,0-1.12-5.6c-1.35-2.93-5.82-10.45-9.36-6l2.65-.83c1.88-5.65-2.43-9.91-7.11-12.29-3-1.55-7.46-2.2-8.05-6-0.45-2.88-.36-5.51-1.45-8.32a16.78,16.78,0,0,0-3.85-6,12.9,12.9,0,0,0-3.1-2.27c-1.91-1-2.91-.48-3.61-2.58s0.1-4.4-.65-6.62a8.3,8.3,0,0,0-4.46-5.13c-1.85-.77-3.46-0.34-5.36-0.2-4.3.3-5.29-1.63-4.88-5.43,0.46-4.17,1.6-8-2.61-10.65-1.15-.73-5.55-1.34-5.87-2.73-0.17-.77,2.06-3,2.43-3.75a11,11,0,0,0,.89-3.14c0.72-4.48-2.41-7.92-6.62-9.16-2.22-.65-5.53-0.41-6.25-3-0.89-3.27,1.52-7.08,3-9.76,1.88-3.46,1.35-7.38,1.37-11.21a0.22,0.22,0,0,0-.13-0.26c-6.83-3.65-17.73-5.75-24.4-.39A12.79,12.79,0,0,0,91,238.17c-1.19,2.85.66,8.4-2.13,9.78-2.27,1.13-5.83.54-7.25,3.22-0.76,1.43-.26,3.48,0,5,0.39,2,2.27,4.88,2.3,6.77,0,2.67-5.66,3.31-6.8,6-1.51,3.61,3.33,6.91,2.86,10.3s-5.53,3.77-4,8.29c0.76,2.28,2.42,2.87,4.17,4.18,4,3,1.45,6.46,1.39,10.56a10.73,10.73,0,0,0,2.6,7.24c2.1,2.43,5.69,2.84,6.42,6.05,1.25,5.46.89,10.66,6.33,14.07,1.08,0.68,2.61.92,3.57,1.74,1.83,1.56,1.22,3.51,1.34,5.58a10,10,0,0,0,2.64,6.63c2.44,2.56,5.59,2.45,8.64,3.7,4.51,1.84,4.63,5.76,4.44,10-0.09,2,.09,3.82,1.75,5.19,2.21,1.81,5.7,1.2,6.77,4.17,0.69,1.91-.47,4.11,0,5.92,0.27,1,1.46,2.2,1.88,3.27,0.52,1.32.5,3,1.09,4.27a10.79,10.79,0,0,0,3.17,3.39c2.45,2,2.66,3.2,2.23,6.36-0.27,2-1.12,4-.33,6,1.06,2.67,4.13,4,6.42,5.37,3.18,1.88,1.29,3.25.7,6.63-0.31,1.78-.85,4,0.19,5.58s3.41,2.88,4.91,3.71c2.34,1.3,5.74.95,7.8,2.45,1.52,1.11,2,3.1,3.71,4.41a17.47,17.47,0,0,0,5.31,2.78c0.84,0.26,3-1.37,2.47-1.53-3-.94-7.93-3.32-7.73-7a0.22,0.22,0,0,0-.13-0.26c-4.41-1.22-8.21-1.54-11.9-4.46-2-1.57-2.37-2.48-2.17-5a20.78,20.78,0,0,1,1.88-7.25c0.07-.14.15-0.35,0-0.44-2.67-1.24-6-2.58-7.86-5-1.55-2-1-3.82-.67-6.06,0.83-5,.3-5.49-3.18-8.64-2.12-1.91-2-2.9-2.75-5.48s-2-4.14-2.09-6.72c-0.07-1.45.28-3.61-.59-4.9-1.3-1.93-4.38-1.59-6.16-2.85-3.25-2.29-1.4-5.74-1.72-8.88a8.12,8.12,0,0,0-3.15-5.76c-2.42-1.79-5.58-1.41-8.12-2.85-4.53-2.56-4.12-6.09-4.57-10.51-0.24-2.36-.9-2.94-2.89-4.09-2.79-1.61-5-2.81-6.6-5.86s-1.11-5.77-1.79-8.94c-0.63-2.92-1.57-2.66-3.95-4.09a10.54,10.54,0,0,1-5.15-9.94c0.19-2.45,1.76-4.73.92-7.21-0.71-2.11-2.22-2.5-3.78-3.73-3.1-2.43-3.92-5.12-1.08-8.07,2.13-2.21,2.8-3,1.55-5.92-0.67-1.58-2.2-4-2.17-5.71,0.05-3.36,3.62-3.58,5.78-5.26s1.24-2.44.27-4.8c-0.78-1.9-2.13-5.34-1.76-7.4,0.54-2.94,2.74-2.38,5.29-3.27,2.79-1,3.85-2,4-5.07,0.11-1.85-.61-3.63-0.12-5.49a8.74,8.74,0,0,1,5.24-6c3.83-1.46,8.82-.85,12.64.25,1.65,0.48,4.75,1.26,5.46,2.81,0.57,1.24,0,4.22,0,5.63-0.22,5-5.64,9.37-4.45,14.73,0.83,3.75,6.63,3,9.31,4.61a7.4,7.4,0,0,1,3.49,8.74c-0.74,2.63-3.2,3.95-3.07,6.76a0.22,0.22,0,0,0,.13.26c3.68,1,8.16,1.77,8.91,6.28,0.48,2.92-1.49,6.15-.78,9.06,0.77,3.15,3.61,3,6.22,2.73,6-.67,9.64,3.35,9.08,9.38-0.14,1.5-.72,2.51.45,3.66s3.79,1.36,5.24,2.41c4,2.92,6,8,6.38,12.82,0.15,1.82-.14,3.64,1.16,5.09s3.57,2,5.2,2.73c5.11,2.3,11.13,6.26,9,12.74-0.27.8,2.4-.52,2.65-0.83-2.29,2.89-1.51-.39-0.65,1.48a12,12,0,0,0,1.58,1.73,27.32,27.32,0,0,1,2.53,3.64c2.11,3.69,1.85,8,1.74,12.17-0.1,3.74.73,4.55,3.49,6.79,3,2.45,2.71,4.78,2.4,8.47-0.12,1.47-.65,2.36.3,3.52a3.69,3.69,0,0,0,.93.31c1.32,0.79,2.62,1,3.63,2.36,1.62,2.2,2.17,5.89,2.35,8.5,0.16,2.22-.54,4.64,0,6.8,0.42,1.79,1.63,3.06,2.69,4.51,1.72,2.34,2.75,4.51,2.11,7.58-0.54,2.57-2.41,4.69-3,7.25-1,4.29,3.36,10.31-.7,13.61-1.49,1.22,1.11.72,1.77,0.17h0Z" transform="translate(-63.87 -26.07)" style="fill:#382360"/><path d="M121.64,181.29c-0.34,3.95-5.41,6.62-8.95,6.13a13,13,0,0,1-5.77-2.21c-0.62-.44-2.67.66-2.59,1.42,0.92,8,8.53,14.21,10.61,22,2.25,8.43,1.61,17.31,1.52,25.92,0,0.79,2.72-.21,2.73-1,0.08-8.29.54-16.41-1.16-24.58-1-4.89-3.41-8.75-6-12.93-2-3.17-4.58-6.93-5-10.72l-2.59,1.42c6.07,4.3,19.13,2.68,19.92-6.46,0.06-.74-2.65.18-2.73,1h0Z" transform="translate(-63.87 -26.07)" style="fill:#382360"/><path d="M236.58,427.2a19.73,19.73,0,0,0-12.6,1.23c-2.21,1-4.27,2.23-6.48,3.21-4.31,1.92-8.28,1.13-12.71.22-8.22-1.69-16.65-2.51-25-3.87-10.67-1.75-21.35-3.77-32.1-5-6.27-.7-12.56-1.14-18.85-1.62-1.89-.14-5.47.26-6.79-1.36-1.75-2.14-.36-6.61.13-9,3-14.79,8.86-31.32,5.59-46.49-0.13-.58-2.89.43-2.7,1.32,3.14,14.53-2.31,30.53-5.31,44.69-0.61,2.9-2.87,9.91.59,11.93,1.51,0.88,5.31.46,7,.59,3.15,0.24,6.3.46,9.45,0.73,19.31,1.62,38.26,5.91,57.48,8.13,6.08,0.7,13.18,4.13,19.22,2.35,7.46-2.19,12.56-7.2,20.88-5.45,0.73,0.15,3.11-1.41,2.09-1.63h0Z" transform="translate(-63.87 -26.07)" style="fill:#382360"/><path d="M279.67,420.9c-4.06,4.07-8.31,6.2-13.88,4.25-1.82-.64-3.47-1.78-5.32-2.28a21.52,21.52,0,0,0-6.64-.26c-6.29.34-13.14,1.5-18.67,4.66-4.82,2.76-7.09,7-3.39,11.87,2.76,3.63,6,4.92,10.45,5.13,2.36,0.11,4.58.06,6.27,1.93,0.29,0.32,1.5,3.38,1.55,3.39,0.55,0.16,1.21-1.18,1.28-1.05a8.89,8.89,0,0,0-.92-0.07c-2.8-1.16-6.6-1.41-9.56-2.17-3.66-.95-7.31-1.9-11-2.61-5.27-1-12.42-2.25-17,1.48-6.44,5.24-.21,18.26,4.07,22.85,7.4,7.93,22.47,9.32,32.65,8.91,11.69-.47,23.09-5.32,32.42-12.25a31.3,31.3,0,0,0,9.87-11.16c0.78-1.6,1.31-3.3,2-4.93,1.69-3.76,5-4.77,8.78-5.91,1-.3,3.5-2.59,1.2-1.89-7.16,2.16-11.4,4.27-14.23,11.2-4.62,11.28-16.8,18.33-28.14,21.51-11.62,3.26-27.17,1.66-37.64-4.37-4.46-2.57-7.26-7.33-8.84-12.11-1.25-3.79-3.17-11.46,2.35-12.19,7.27-1,15.55,2.15,22.48,3.93,3.4,0.87,9,3.26,12.3,1,1.83-1.24,1.6-2.55.36-4.51-2.12-3.35-5.76-2.77-9.19-3.08-7.79-.71-14.59-10.78-5.28-14.78,5.13-2.21,13.93-4.06,19.51-2.53,4.67,1.28,8,4.05,13.17,3.11,4.73-.87,8.51-4.06,11.8-7.36,1.32-1.32-2.19-.32-2.82.31h0Z" transform="translate(-63.87 -26.07)" style="fill:#382360"/><path d="M76.62,287.69c-6.67,6-8.8,13.24-9.5,22a81,81,0,0,0-.18,14.57c0.55,5.53,2.74,9.71,4.59,14.8s1,10.15.75,15.3a106.5,106.5,0,0,0,.6,16.24,246.06,246.06,0,0,0,6.2,33.69q1.81,7.49,3.72,15c1.61,6.32,1.4,12.11,1.46,18.55,0.06,7.4,2.31,16.5,9.73,19.78s16.72,1.38,24.55,1.16c12.07-.33,24.09-1.25,36.11-2.33a330.47,330.47,0,0,1,36.27-.89c4,0.08,7.61,2.19,11.39,3.46a101.43,101.43,0,0,1,12.11,5c0.76,0.37,3.07-1.24,2.47-1.53-6.1-3-12.54-4.77-18.7-7.53-3.56-1.59-7.25-1-11.12-1-4.95,0-9.9,0-14.85,0-10.57.19-21,1.41-31.57,2.16s-20.93,1.11-31.39,1.49c-10,.37-17.87-2-21.06-12.24-1.7-5.44-1-10.87-1-16.44,0-4.92-1.35-9.53-2.55-14.26-5.35-21.13-10.89-42.78-9.41-64.74,0.32-4.73.34-9.1-1.56-13.52-2.49-5.8-4.07-10.73-4.26-17.16-0.34-11.43.44-23.67,9.44-31.76,1.08-1-1.73-.22-2.24.24h0Z" transform="translate(-63.87 -26.07)" style="fill:#382360"/><path d="M218,84.36c-1.84,8.65-2.13,18.23.85,26.68a106,106,0,0,0,5.4,11.76c2.32,4.67,2,8.73,2.73,13.74a53.83,53.83,0,0,0,7.43,20.35c3.89,5.9,9.68,9.65,14.89,14.22,5,4.43,3.89,9.62,6.76,15.09s9.56,5.17,14.79,4.08c7.53-1.57,14.86-5.62,21.68-9.06a73.67,73.67,0,0,0,18.06-12.89c2-2,5.1-4.77,6-7.6,0.55-1.76.16-3.87,0.17-5.73,0-2.88.14-5.77,0.28-8.65,0.37-7.79,2.05-17.25-1.12-24.68-0.29-.68-3,0.57-2.7,1.32,2.52,5.91,1.65,13.08,1.34,19.34-0.19,4-.43,8-0.51,11.94-0.08,4.28.36,7.29-2.39,10.71C306.8,171,300,176,293.21,179.63c-7.56,4.07-17.52,10-26.27,9.59-7.37-.3-8.69-4.9-10.08-11.08-1-4.61-3.2-7-6.8-10-5.55-4.51-11.12-8.84-14.53-15.29a58.93,58.93,0,0,1-5.76-17.49c-0.64-4.18,0-7.93-1.84-11.9s-3.88-7.55-5.5-11.49c-3.72-9.07-3.73-19.16-1.71-28.65,0.14-.63-2.55.16-2.73,1h0Z" transform="translate(-63.87 -26.07)" style="fill:#382360"/><path d="M245.76,62.43c-4.21,1.09-7.15,3.17-8.14,7.44-0.8,3.45-1.12,8-2.88,11.08-3.48,6.15-10.66,5.27-15.28,1-2.48-2.27-1.37-5-3.3-7.3s-5.9-2-8.42-3.59c-3.73-2.29-2.55-6.45-1.47-9.82a15.46,15.46,0,0,0,.21-6.69c-0.39-3.51-.45-5.6,1.6-8.54,3-4.37,8.06-5.27,12.69-4.33,2.9,0.59,5.29,1.25,8.13.26,6-2.1,8.69-8.93,14.25-11.58,5.15-2.46,9.16.19,14.26,0.65,4,0.36,8-.3,11.93-0.82,8.33-1.09,18.23-3.58,26.61-2.38,7.9,1.13,11.8,7.37,16.46,13.08,4.51,5.5,10.75,8.52,14.12,15a36.46,36.46,0,0,1,4.07,11.14c0.61,4.33-.63,8.49-1.17,12.76-1,8.16,4.17,14.68,3.56,22.58-0.17,2.27.15,4-1,6.15-0.62,1.16-1.63,2.1-2.22,3.28-1.33,2.66-.67,4.65.42,7.27,2.38,5.74-1.15,9.16-7,7.74-3.84-.93-5.81-3.08-8-6.23s-3.28-5.61-3-9.52c0.24-3.13,1-6.21.2-9.33-1.6-6.21-7.5-11.32-14.05-10.68A13.08,13.08,0,0,0,292,93.56a8.5,8.5,0,0,0-2,2c-1.64,2.31-4.08,5.06-7.31,4.37-2.16-.46-4.65-2.8-5.75-4.58-1.74-2.82-1-5,.27-7.83,1.34-3.07,2-5.63.84-8.92-1.08-3-3-6.09-6.07-7.27-4.42-1.68-8,0-11.23-4.41-1.84-2.51-2.54-4-5.87-5-2.9-.84-6.22-0.08-9.1.49-0.85.17-2.84,1.87-1,1.5,5.49-1.08,9.61-1,12.9,3.73,2,2.86,3.45,4,7,4.49,5.36,0.68,8.79,2.33,10.67,7.73s-2.17,8-2.35,12.9c-0.22,5.86,8.11,10.75,13.34,9.23a7.45,7.45,0,0,0,4.34-3.3c0.43-.68.53-1.31,0.95-2a7.9,7.9,0,0,1,8.92-3.49,12.63,12.63,0,0,1,7.25,5.75c2.74,4.29,2.09,8.42,1.66,13.19a13,13,0,0,0,2.69,9.34c3.31,4.79,7.56,8.26,13.83,7.48,3.69-.46,7.78-3.08,8-7.12,0.2-4.31-3.63-6.64-1.23-11.15,0.74-1.4,1.94-2.51,2.51-4,0.71-1.86.49-4.05,0.63-6,0.27-4-1-6.77-2.36-10.5-1.87-5.25-1.54-9.93-.65-15.32a31.1,31.1,0,0,0-6.05-24.22c-2.16-2.94-4.89-4.5-7.64-6.78-3.24-2.68-5.54-6.3-8.18-9.52-4.62-5.62-9.85-8.47-17.25-8.23-9.45.3-18.79,2.4-28.19,3.21a30.38,30.38,0,0,1-10.13-.65,28.45,28.45,0,0,0-5.19-1.2,13.61,13.61,0,0,0-7,1.68,29.38,29.38,0,0,0-6.75,5.19c-1.32,1.28-2.55,2.74-4,3.91-4.7,3.91-6.73,2.17-11.26,1.52a16.67,16.67,0,0,0-15.55,6.61c-2.31,3.05-2.31,5.88-1.89,9.55a14.85,14.85,0,0,1-.69,7.42,10.41,10.41,0,0,0-.63,4.68c0.52,4.07,2.94,4.66,6.41,5.82,2.07,0.7,4.33,1.15,5.29,3.35,0.68,1.54.33,3.2,1.23,4.69,3.37,5.6,11.18,6.33,16.55,3.8a10.89,10.89,0,0,0,5.37-5.36c2.27-4.6,1.31-14.77,7.5-16.37C245.63,63.72,247.62,61.95,245.76,62.43Z" transform="translate(-63.87 -26.07)" style="fill:#382360"/><path d="M313.28,227.79c-3.48,6.75-14.16,7.64-20.9,8.11-1.76.12-3.53,0.19-5.3,0.16-2.54,0-3.44-1.32-4.06-3.93-1-4.07-.3-9.17-0.15-13.33,0.11-2.87-.76-4.18-2.84-6.24-2.87-2.84-5-4.73-5.48-9-0.35-2.87.42-5.05,0.63-7.79,0.2-2.5-1.23-4.68-2.4-6.8-0.39-.7-3.06.66-2.7,1.32,1.84,3.32,2.46,5.1,1.82,8.69-0.68,3.75-.38,8.35,2,11.48,2.81,3.7,6.29,4.76,6.22,9.95,0,2.84-.16,5.66-0.06,8.5,0.06,1.87-.38,6,0.72,7.55,1.36,1.94,5.23,1.22,7.37,1.15a67.64,67.64,0,0,0,11.67-1.37c5.82-1.23,13.1-3.45,16-9.14,0.47-.9-2.22,0-2.57.65h0Z" transform="translate(-63.87 -26.07)" style="fill:#382360"/><path d="M323.77,128.7c-0.09,7.72,0,15.43-.07,23.14-0.06,6-.74,12.11-0.32,18.15,0.06,0.84,2.78-.25,2.73-1-0.42-6,.26-12.11.32-18.15,0.07-7.71,0-15.42.07-23.14,0-.79-2.72.21-2.73,1h0Z" transform="translate(-63.87 -26.07)" style="fill:#382360"/><path d="M250.95,217.3c-10.65,3.1-23.61,7.12-32.23,14.56a45.78,45.78,0,0,0-15.9,30.33c-0.07.73,2.64-.18,2.73-1A44.29,44.29,0,0,1,218.46,234c7.87-8.07,21.08-12.14,31.53-15.19,0.81-.23,2.79-2,1-1.5h0Z" transform="translate(-63.87 -26.07)" style="fill:#382360"/><path d="M160.61,275.52c2.46,2.41,7,6.21,8,9.46s-0.52,7.15,1.74,10.22,5.73,3,4,7.48c-1.27,3.31-2,5.37-.53,8.71,1.14,2.65,4.51,5,4.65,7.66,0.16,3-2.54,5.15-1.26,8.17,1.14,2.7,4.53,4.67,5.35,7.49,1.07,3.68-3.74,9-4.37,12.91-0.11.68,2.59-.17,2.73-1a24.45,24.45,0,0,1,2.66-6.83c0.48-1,2.46-3.84,2.35-5.18-0.18-2.28-3.85-5.59-5.15-7.45-2.44-3.49.34-5.2,0.67-8.82,0.23-2.55-3.1-4.7-4.37-7.08-2.11-4-1.11-6.74.44-10.66,1.24-3.13-.79-3.32-3.09-5.32-3.53-3.08-2.1-6.83-3-10.88s-5.19-7.24-8.18-10.17c-0.66-.65-3.07.95-2.7,1.32h0Z" transform="translate(-63.87 -26.07)" style="fill:#382360"/><path d="M281.06,236.81c2.28,4.23,6,6.86,5.79,12.11-0.13,2.59-1.9,6.06-1.4,8.57,0.61,3.07,4,5,4.74,8.25,0.9,3.76,1.16,7.41-.39,11-0.95,2.18-2.19,4.24-3.14,6.41-0.09.2-.13,0.29,0,0.44,4,3.56,3,10,.29,14-1.73,2.52-2,2.14-.34,4.51,4.74,6.7-.93,10.63-3,16.93v0.15c5.9,5.91,9.88,14.85,7.38,23.4-0.17.56,2.48-.16,2.73-1,1-3.55.47-8.22-.23-11.84a17.45,17.45,0,0,0-3.51-7.82c-1.79-2.26-3.93-3.63-2.33-6.59,2.22-4.11,5.34-8,2.88-12.53-1.64-3-2.66-2.9-1-5.84,1.43-2.5,2.62-4.82,2.5-7.81-0.11-2.5-1.61-4.24-2.08-6.34-0.52-2.34,1.55-4.59,2.51-6.84A17.1,17.1,0,0,0,290.78,260c-1.1-1.51-2.51-2.62-2.57-4.57s1-4.4,1.24-6.39c0.7-6-3.05-8.68-5.69-13.56-0.38-.7-3.05.65-2.7,1.32h0Z" transform="translate(-63.87 -26.07)" style="fill:#382360"/><path d="M383.64,330.69c0.74,0,3-1.63,2.09-1.63-0.74,0-3,1.63-2.09,1.63h0Z" transform="translate(-63.87 -26.07)" style="fill:#382360"/><path d="M163.3,224.45a29.54,29.54,0,0,0-.84,8.38c0.2,2.18.83,4.22,0.84,6.44,0,6.53-2.44,12.88-2.59,19.49-0.14,5.77,2.61,19.39-5.19,21.72-3.41,1-9.49.63-12.95,0.12-3.82-.56-7.53-2.05-11.28-3-0.72-.18-3.11,1.38-2.09,1.63,8.72,2.13,17.58,4.85,26.7,2.6,5.24-1.3,7.61-7.7,7.67-12.55s-0.35-9.89,0-14.85c0.29-4.12,1.31-8,2-12a24.4,24.4,0,0,0,0-8.36,28.59,28.59,0,0,1,.43-10.6c0.13-.65-2.56.16-2.73,1h0Z" transform="translate(-63.87 -26.07)" style="fill:#382360"/><path d="M165.13,239.5c6.48-.89,12.87.44,16.12,6.57a0.35,0.35,0,0,0,.3.16c4.54,0.08,8.78,1,11.6,4.89,0.83,1.14,1.24,2.71,2.21,3.74s2.17,1.22,3.24,1.93c4,2.65,3.73,5.52,4,9.7,0.23,3.31,2,2.63,4.56,4.1,4.26,2.44,5.56,7,4.67,11.59-0.6,3.11-2.46,6.36-.47,9.15,2.58,3.61,6.56,5.56,5.9,10.77-0.5,4-3.41,6.59-4.87,10.11-1,2.38-.75,3.77,1,5.61,3.21,3.32,6.22,6.22,3.25,11.15-1.57,2.62-2.66,3.27-1,6.21,2.34,4.25,2.87,6.45,1.57,11.24-0.88,3.24,1.19,5,2.52,7.89a11.59,11.59,0,0,1,1.28,6.76c-0.36,1.94-1.81,2.89-2.53,4.55-1.23,2.85,1.49,4.7,2.5,7.22,1.94,4.81-.5,7.34-1,11.83-0.19,1.76.55,2.72,1.19,4.3a11.2,11.2,0,0,1,.6,7.2c-0.92,4-3,7.82-2.64,12.06a42.11,42.11,0,0,0,.75,4.29c0.58,3.11.07,4.73-1.18,7.61-0.74,1.7-1.36,2.74-1,4.84s1.84,3.44,2,5.54c0.06,0.84,2.78-.25,2.73-1a11.43,11.43,0,0,0-1.26-3.66c-1.32-3.34-.42-4.81.83-8s0.94-4.86.35-8.22c-1-5.57.93-9.26,2.14-14.52a12,12,0,0,0,.32-4.9c-0.42-2.2-2-3.76-2-6-0.1-3.77,2.33-6.61,1.47-10.61-0.44-2.08-1.41-3.39-2.4-5.19-1.93-3.5.13-3.83,1.38-6.82,1.18-2.82.4-6-.84-8.62-0.74-1.59-2.47-3.31-2.79-5-0.49-2.59,1.6-5.28,1.34-8a10.57,10.57,0,0,0-1.33-4.13c-1.54-2.87-2.18-3.87-.76-7,1.28-2.8,2.41-5,1.07-8.17s-6.09-4.49-5.27-8.35c0.86-4.09,4.75-6.86,5.3-11.24,0.53-4.23-2.08-7-4.77-9.92-1.94-2.09-2.18-3-1.68-5.86,0.43-2.52,1.44-4.83,1.36-7.43a10.37,10.37,0,0,0-4.08-8c-1.76-1.34-3.78-1.25-4.86-3.11s-0.25-3.2-.5-5c-0.67-4.85-4.12-5.19-7.14-8-1.46-1.35-2-3.52-3.38-5a11.4,11.4,0,0,0-5.09-3.27c-1.87-.61-4-0.36-5.66-1.33s-2.53-2.73-4.07-3.85c-3.94-2.87-8.81-3-13.45-2.32-0.69.09-3,1.82-1.57,1.62h0Z" transform="translate(-63.87 -26.07)" style="fill:#382360"/><path d="M350,361.65a19.65,19.65,0,0,0-.25-10.43c-0.72-2.9,0-2,2.41-3.08a17.09,17.09,0,0,0,3.31-1.81c2.12-1.58,2.82-3.46,3.06-6.07a22.35,22.35,0,0,0-.19-4.83c-0.43-3.54-.42-4,3.06-5.56,4.86-2.15,8.56-5.87,6.2-11.84-0.57-1.43-1.76-2.63-2.33-4-0.91-2.26-.46-1.92,1.41-3.56,3.41-3,3.82-4.37,3.92-9,0-1.79-.6-5.95-0.13-7.26,1-2.81,4.32-4.49,5.48-7.34,1.33-3.26.36-6.43-1-9.5-0.23-.51-1.87-2.72-1.83-3,0.21-1.4-.37-0.21,1.4-1.2,1.24-.69,2.88-0.72,4.16-1.43,5.19-2.9,5.5-9.63,2.79-14.4-0.81-1.43-2.3-2.79-1.62-4.31s2.78-2,4-3a9.57,9.57,0,0,0,3.84-6.83,18.82,18.82,0,0,0-2.53-10.51c-1-1.63-2.77-2.43-3.74-4-1.35-2.16-1.6-.83.27-3.78,0.81-1.27,1.88-2.36,2.66-3.67a9,9,0,0,0,.78-8.7,11.46,11.46,0,0,0-2.87-4.16c-2.24-2.05-2.19-1.6-.84-4.77a9.49,9.49,0,0,0-1-9.49,6.55,6.55,0,0,0-2.75-2.63c-0.95-.4-3.77.26-4.51-0.21-1.27-.82.5,2-0.57-0.81,0.07,0.19.55-5.14,0.27-1.4a17.5,17.5,0,0,0-.28-5c-0.68-3-3.45-6.7-6.25-8-2.34-1.09-4.82-1-7.33-.8-1.67.15-3.46,0.82-5.11,0.87-2.59.09-2.39-1.49-3.26-3.5-1.82-4.18-7.15-7.07-11.63-7.46-4.2-.36-12.38.8-15.17,4.39-1.91,2.46-1.27,7.27-1.05,10.19,0.11,1.49.35,3,.57,4.43,0.42,2.73.9,3.21-.88,5.59-1.42,1.9-1.51,1.61-3.05,2.79-3.31,2.53-6,5-7.73,8.93a13,13,0,0,0-1,6.7c0.19,2.43,1.32,4.53.75,6.94-1.34,5.72-3.19,8.23,1.68,12.89,1.15,1.1,2.44,1.45,3.6,2.31,3.09,2.29,1.43,4.08,2.1,7.09,0.43,1.94,1.75,3.28,3.09,4.63,1.68,1.7,3.45,2,2.8,4.72-0.93,3.94-3.17,6.67-2.5,11.06a11.41,11.41,0,0,0,1,3.28c0.43,0.9,1.81,2,2,2.9,0.44,1.81-1.22,3.31-1.39,5.05-0.35,3.62,3.92,7.41,2.53,11l1.84-1.26c-2.88.83-7,1.66-8.8,4.37-2.29,3.53-1.79,10.07-.63,13.93l2.13-1.47c-3.34.51-5.58,0.71-7.68,3.61-2.39,3.31-4.9,8.79-3.64,12.74l1.82-1.41a17.44,17.44,0,0,0-8,4.36,12.68,12.68,0,0,0-3,6.22,46.31,46.31,0,0,0-.84,5.54c-0.18,1.95.66,5.43,0,7s-1.09,1.31-2.65,2.3a17.36,17.36,0,0,0-5.59,6,8.94,8.94,0,0,0-1.13,6.87c0.44,1.59,1.57,2.95,2,4.55,0.84,3.41-2.48,4.62-5,6-4.08,2.16-6.34,4.51-5.81,9.5,0.06,0.6,1.5,4.61,1.1,5.13s-4.81.29-5.35,0.37a18.62,18.62,0,0,0-5.95,1.93c-3.64,1.86-5.36,4.75-4.41,9,0.29,1.29,1.82,3.75.9,5a15.89,15.89,0,0,1-2.82,1,18,18,0,0,0-5.28,3.36c-3.81,3.59-5.52,8.59-2.51,13.08,0.69,1,2.45,2.58,2.74,3.76s-0.66,2.9-1,4a34.85,34.85,0,0,0-2.23,8.1c-0.06.74,2.66-.18,2.73-1,0.33-3.94,4.52-9.64,2.68-13.18-1.44-2.78-4-4.27-3.83-7.71,0.3-6.1,5.2-8,9.92-10.19,5.36-2.46.33-5.72,1.31-10.49,1.39-6.77,8.45-4.22,13.07-5.54,0.92-.26,2.29-0.68,2.8-1.54,1-1.63-.82-4-1.06-5.68-0.72-4.77,1.85-6.83,6.15-8.88a16.75,16.75,0,0,0,1.83-.86c6.38-4.06-.42-9.14.71-14.52,0.93-4.42,4.43-6.09,7.76-8.41,1.36-.95,1.44-0.67,1.81-2.23,0.51-2.11-.29-5.38-0.07-7.69,0.15-1.58.38-3.19,0.68-4.75,0.87-4.47,3-7.63,7.49-8.86,0.44-.12,2-0.71,1.82-1.41-1.47-4.6,2.16-12.68,7.05-13.42,0.52-.08,2.37-0.68,2.13-1.47a20.7,20.7,0,0,1-.16-10.88c1.15-4.21,4.37-2.85,7-5.06,1-.81.89-1.35,0.83-2.6a11.28,11.28,0,0,0-.93-3.6c-0.25-.64-0.6-1.25-0.83-1.9a5.55,5.55,0,0,1-.66-2.49A4.14,4.14,0,0,1,328,265c0.43-2.53-.88-2.67-2.1-5.21-2.27-4.73-.54-9.23,1.37-13.67,1.09-2.53,1.16-2.14-.91-3.73a16,16,0,0,1-4.25-4.68c-1.2-2.42,0-4.28-.42-6.75-0.52-3-2.55-1.74-5-3.43-5.52-3.83-4.23-8.14-2.55-13.42,1.14-3.57-1.41-6.93-.72-10.8,1.13-6.35,6.4-8.67,10.82-12.31,4.7-3.86,1-11.51,1.14-16.69,0.13-3.91,0-5.22,5.25-6.88a16.59,16.59,0,0,1,6.27-.65c2.85,0.28,5.47,1.8,7.83,3.35a7.35,7.35,0,0,1,2.55,2.39c0.79,1.26.92,3.65,1.87,4.72,1.85,2.08,5.3,0,7.62-.32,4.5-.56,7.49.32,10.4,3.81a11.36,11.36,0,0,1,2.13,11.89,0.22,0.22,0,0,0,.13.26,13.46,13.46,0,0,0,1.35.25c1.42,0.56,3.13-.43,4.82.52A6,6,0,0,1,378.1,196a8.38,8.38,0,0,1,.91,7.57c-0.43,1.26-2,3-1.58,4.41,0.15,0.58,1.88,1.59,2.22,1.9a10.89,10.89,0,0,1,3.24,5.24c0.78,2.9,0,5.08-1.54,7.54-0.86,1.4-3.84,3.37-3.86,4.91,0,2.58,4.52,5.63,5.62,7.89,2.19,4.51,3.27,10.77-1,14.39-1.35,1.14-4.94,2.12-5.47,4.13s3.12,5.93,3.58,7.86c0.55,2.28.5,5.69-.94,7.69-1.6,2.22-4.14,1.87-6.41,2.79-1.06.43-2.66,1.06-2.71,2.44,0,1.1,1.72,2.92,2.15,3.9,1,2.16,1.87,4.72,1.54,7.08-0.3,2.14-1.23,3.23-2.52,4.74-1.11,1.3-3.45,2.6-3.85,4.25-0.45,1.88.57,4.29,0.52,6.51,0,1.58.43,4-.09,5.45-0.88,2.5-4.25,3.38-5.65,5.35-1.55,2.17,1.11,4.15,2.12,6.25,2.07,4.32,1,8-3.07,10.41-1.49.87-5.87,1.86-6.54,3.94-0.43,1.36.81,3.36,1,4.69a13.65,13.65,0,0,1-.28,6.28c-1.73,4.41-7.75,2.79-9,6.35-0.51,1.44,1.15,4.08,1.36,5.44a17.55,17.55,0,0,1-.49,7.25c-0.16.58,2.49-.16,2.73-1h0Z" transform="translate(-63.87 -26.07)" style="fill:#382360"/><path d="M272.48,201.77a26.88,26.88,0,0,0-17.13,4.77c-2.61,1.88-6.92,5.44-6.74,8.92,0.2,3.77,2.68,6.19-1.95,8.1a7.47,7.47,0,0,0-2.79,1.81c-1.48,1.57-3.38,4.69-3.31,7,0.08,2.89,3,5.19,4.54,7.37l1.11-1.14c-6.18,3.32-10.79,6.76-9.46,14.84,0.3,1.82,2.63,5.12,2.59,6.63s-1.81,3.22-2.43,4.51A17.72,17.72,0,0,0,235.81,276c0.61,2.64,2.47,4.17,1.36,7-0.5,1.3-1.58,2.35-2.08,3.72a23.08,23.08,0,0,0-1.11,11.7c0.78,3.79,3.87,7.74,3.2,11.42s-4.31,5.53-4,9.45c0.39,5.07,7.67,6.79,4.29,12.22-1.72,2.76-4.81,4-4.58,7.85,0.26,4.55,7.48,5.32,7.06,9.56-0.13,1.36-2.46,2.76-3.29,3.9-1.13,1.55-1.95,2.89-1.86,4.89,0.15,3.47,2.64,5.95,5.33,7.77,2.48,1.68,4,2,1.47,4.61-0.86.91-2,1.52-2.78,2.57-1.48,2.11-1.58,5.54-.69,7.93s2.69,2.24,4,4.44c1.59,2.74-1.3,4.57-2.83,6.38-2,2.37-3.25,5.34-2.57,8.52,0.61,2.84,2.93,3.44,4.95,5.11,6.32,5.24-5.26,15.35,3.87,19.49,0.78,0.35,3.06-1.26,2.47-1.53-8.19-3.72,1-11.6-1.86-17.24-1-1.88-2.78-2.58-4.37-3.8-3.08-2.35-3.1-6.59-1-9.72,1.29-1.92,4.67-3.68,4.67-6.42,0-1.41-.79-2.26-1.67-3.24-2-2.23-3.07-2.61-3.29-5.82-0.31-4.46,2.74-5.22,4.82-8.19,1.82-2.6-.64-3.34-2.68-4.64a11,11,0,0,1-4.4-4.75c-1.68-3.89.23-5.74,2.7-8.49,1.78-2,2.47-3.7.46-5.94-2.33-2.6-6.5-3.53-5.65-7.94,0.73-3.81,5.68-5.23,5.68-9.17,0-3.54-4.45-5.07-5.3-8.42-1.07-4.21,2.67-6.12,4.06-9.49,1.26-3.06-1.47-6.47-2.48-9.37a21.83,21.83,0,0,1-.58-11.77c0.62-3.35,4.25-6.51,3.17-9.8-1.56-4.74-3.07-8.7-1.23-13.8,0.53-1.47,3.2-4,3.29-5.58,0.07-1.16-1.3-2.5-1.75-3.58a14.85,14.85,0,0,1-1-9c0.88-3.79,3.89-5.65,7.11-7.39,0.2-.11,1.4-0.74,1.11-1.14-2.9-4-6.34-7-2.58-11.93,1.69-2.24,5.11-2.11,6.63-4.48,1.77-2.77-.74-5.77-0.39-8.57,0.25-2,2.38-3.82,3.78-5.13,4.08-3.8,9.72-5.12,15.15-4.86,0.74,0,3-1.58,2.09-1.63h0Z" transform="translate(-63.87 -26.07)" style="fill:#382360"/><path d="M382.21,197.36c5.14,0.47,10.39.65,15.4,2,7.17,1.9,12.88,7.47,16.47,13.85a39.52,39.52,0,0,1,3.64,10.59,105.66,105.66,0,0,0,4.95,14.58c4,10,6.76,20.38,9.8,30.73,2.31,7.84,3.48,15.71,5.17,23.67C440,303.71,447,314,447.92,325.17c0.47,5.63-4.43,12.34-7.16,16.91-4.59,7.69-9.79,15.7-16.59,21.63a177.77,177.77,0,0,1-18,13.27c-12.86,8.61-26.75,15.56-39.61,24.1-9.15,6.07-17.28,13.49-25.88,20.28a247.48,247.48,0,0,1-29.14,19.25c-2.63,1.53-3.5,2.49-5.83.84a38.65,38.65,0,0,1-3.81-3.62q-4.9-4.67-9.75-9.4c-2.92-2.85-7.11-5.88-9.32-9.31-2.54-3.94,1.31-5.47,3.94-7.64,1.12-.92,2.2-1.88,3.25-2.87,5.17-4.85,11.41-8.39,16.62-13.2,3.89-3.59,8.21-5.93,12.59-8.83,4.95-3.28,9.39-7.33,14.15-10.86,9.31-6.93,18-13.65,25.94-22.22,4.7-5.1,9-11.74,15-15.46,3.22-2,12.57-5.23,10.51-10.13-1.62-3.85-4.87-7.53-7-11.17-2.65-4.6-5.36-9.4-6.74-14.56-0.22-.83-2.89-1.61-2.73-1,2.26,8.49,7.54,16.39,12.27,23.69,1.33,2,2.94,3.38.72,5.82a14.54,14.54,0,0,1-3,1.86c-2.53,1.55-5.22,3-7.64,4.67-5.44,3.85-9.57,10.12-14.05,15-8.27,9-17.47,15.74-27.12,23.06-4.67,3.54-9.08,7.5-14,10.63a84.2,84.2,0,0,0-12.2,8.86c-5.64,5.12-12.15,9.37-17.94,14.36-2.08,1.79-7.33,4.34-6.29,7.73,1,3.23,6.51,7.06,8.85,9.36q5,4.87,10,9.67c2.48,2.38,5,5.37,7.8,7.33,2.51,1.74,4.07,1.24,6.67-.09,5.75-3,11.25-6.68,16.7-10.17,10.47-6.7,19.75-14.82,29.45-22.55,14.18-11.29,30.76-19.19,45.92-29.08a232.35,232.35,0,0,0,20.51-14.58c6.66-5.46,11.69-12.46,16.33-19.67,3.33-5.18,8.06-11.82,9.42-18,1.08-4.88-2-11.36-3.67-15.78-2.21-5.88-4.71-11.69-6.2-17.81-2.3-9.43-3.64-18.86-6.41-28.22-1.94-6.55-3.54-13.25-5.81-19.7-2.37-6.72-5.52-13.19-7.43-20.07-2.6-9.35-5-16.82-12.64-23.54s-18-7.29-27.83-8.19c-1.49-.14.86,1.55,1.57,1.62h0Z" transform="translate(-63.87 -26.07)" style="fill:#382360"/></svg>