<svg id="Layer_2" data-name="Layer 2" xmlns="http://www.w3.org/2000/svg" viewBox="0 0 497.07 400.26"><title>handfasting</title><path d="M212.46,165.67c-0.74,0-3,1.63-2.09,1.63C211.11,167.3,213.37,165.67,212.46,165.67Z" transform="translate(-1.28 -98.68)" style="fill:#fff;opacity:0.34"/><path d="M491,149.37c-11.74,6.51-23.61,13.06-36.41,17.28-13.42,4.43-27,5.08-41,3.06-12.34-1.78-24.42-5-36.77-6.77s-23.37-.56-35.57,1.35c-12.63,2-25.06-1.47-37.72-.61s-25.22,4.1-38.06,4.43c-14.16.36-28.26-1.5-42.29-3.13,15.92-10.87,34.66-18.44,54.22-17.63,18.88,0.78,36.45,9.43,53.58,16.62,0.79,0.33,3-1.29,2.47-1.53-18.92-7.94-38.3-17.4-59.31-16.75-18.83.59-36.76,8.2-52.14,18.7a3.16,3.16,0,0,0-.47.37c-9.64-1.24-21.09-3.73-30.32-.08-10.36,4.09-11.21,16.85-20.91,21.48-7.63,3.65-17.06,4.34-21.92,12.13-0.51.82,2.16,0,2.57-.65,4.94-7.91,16.28-7.61,23.52-12.62a23.86,23.86,0,0,0,6.69-7.57c1.23-2,2.29-4.13,3.63-6.08,3.7-5.37,9.57-6.85,15.81-6.74,12.6,0.24,25.23,2.64,37.75,3.88,12.33,1.22,24.76,1.81,37.11.37,13.15-1.54,25.82-4.58,39.16-3.4,5.84,0.51,11.66,1.35,17.54,1.17,6.21-.18,12.2-1.84,18.33-2.65,24.26-3.22,47.58,7,71.58,8.4,25.65,1.45,48.3-10.4,70.08-22.48C493.92,149,492,148.77,491,149.37Z" transform="translate(-1.28 -98.68)" style="fill:#381860"/><path d="M497.39,274.22c-21.52.15-43.45-2-63.52-10.24-16.68-6.88-32.31-22.5-51.52-20.1h0c0-.2-0.29-0.24-0.7-0.17-1.2-11.93-11.56-19.21-22.48-22.17-6.43-1.74-13.07-2.3-19.65-3.15a97.48,97.48,0,0,1-24.18-6.57c-27.23-10.89-57.11-14.72-86.23-14.14a2.94,2.94,0,0,0-1.17.5c-3.74-1-8.34-1.84-11.57-.64a6.73,6.73,0,0,0-1.1.54c1-1.78,2.85-3.4,3.58-5.15a11.46,11.46,0,0,0,.41-7.44c-0.16-.61-2.92.46-2.7,1.32a10.88,10.88,0,0,1-2.38,10c-1.25,1.57-2.39,2.88-2.29,4.86a26.9,26.9,0,0,0-2.26,5.27c-8.5-3.81-17.09-7.43-26.41-8.58a103.53,103.53,0,0,0-30.12.74,22.71,22.71,0,0,0-7.21,2.7c-4.13,2.34-8.18,4.46-12.51,6.43a34.56,34.56,0,0,0-8.45,5c-3.4,2.94-5.27,7.32-8.77,10.13l-0.94-1.77a2.07,2.07,0,0,0,1.25-.94c3.72-13.22,7.55-26.86,15.92-38,4.16-5.53,12-14.32,19.58-14,4,0.15,8.88,2.44,12.75,3.59L176,175.65c0.84,0.25,3-1.38,2.47-1.53l-15.05-4.5c-3.58-1.07-7.74-3-11.58-2.55a17.25,17.25,0,0,0-5.27,1.64l-0.12,0c-7.51-.36-13.65-4.29-19.77-8.28a153.43,153.43,0,0,0-19.39-10.89A177.33,177.33,0,0,0,87.25,142c-7.29-2.36-12-6.15-17.52-11.33-9.61-9-21.4-10.9-33-16.1C26.09,109.83,17.84,96.15,5,99.09c-0.84.19-2.82,1.93-1,1.5,8.56-2,14.77,4.89,20.75,9.7,5,4,10.64,6.48,16.66,8.56,5.56,1.92,11.27,3.54,16.48,6.32,5.67,3,9.72,7.75,14.54,11.86,5.12,4.37,11.08,6,17.34,8.08a142.22,142.22,0,0,1,19.92,8.31c10.91,5.56,21.43,16,34.08,16.86a51.47,51.47,0,0,0-7.19,5.59c-12.64,11.52-17.84,28.19-22.35,44.17a3.11,3.11,0,0,0-2.41,1.09L73.23,235.7c-0.31.12-2,.9-1.37,1.41L72,237.25a79.12,79.12,0,0,0-28.56,9.36C30.9,253.33,18.09,257,4.2,259.83c-0.85.18-2.83,1.89-1,1.5,11-2.29,22.18-4.66,32.46-9.47,5.53-2.59,10.7-5.87,16.32-8.27a66,66,0,0,1,21.46-5c9.88,9.47,15.07,24.43,20.61,36.54,6.38,13.94,11.79,28.23,15.15,43.21,6.7,29.88,6.47,60.72,5.38,91.16-38.44,1.25-78.51,3.19-112.5,23.18-1.77,1,.11,1.21,1.17.59,33.1-19.47,72.61-20.94,110-22.16a3.48,3.48,0,0,0,1.41-.67,0.74,0.74,0,0,0,.49.09,11.3,11.3,0,0,1,3.05.28l0.06-.07c1.54,0.64,2.86,1.82,4.55,2.23a23.85,23.85,0,0,0,7.19.14c6.72-.52,13.2-2.11,20-2.15,4.59,0,15,1.13,17.41-4.28a6.58,6.58,0,0,1,.27-1v0l-0.11.26a4.77,4.77,0,0,0,.15-0.65,5.13,5.13,0,0,1,.13-1c-3.08-24.7-6.89-49.31-12.37-73.6a427.2,427.2,0,0,0-38.78-106.12,21.22,21.22,0,0,0,4.71-4.44c3.42-4.32,5.82-7.6,11-10.17,3.23-1.6,6.62-2.81,9.78-4.56,4.1-2.27,7.83-4.54,12.69-5,9-.82,18.18-1.45,27.14-0.2,9.23,1.29,17.74,5.06,26.16,8.85a1.24,1.24,0,0,0,.86-0.08c-0.75,3.15-1,6.42-1.92,9.53a28.76,28.76,0,0,1-5.22,9.51c-6.82-3.62-13.4-4.85-21-6-4.43-.69-7.29-3.06-11.34-4.46-3.08-1.06-6.51-1.22-9.73-1.47-13.25-1-26.59.15-38.27,7-1.77,1,.1,1.21,1.17.59,12-7,28-7.63,41.45-5.23,3.2,0.57,5.43,2,8.25,3.41a23.53,23.53,0,0,0,8,2,52.83,52.83,0,0,1,19.34,6,0.67,0.67,0,0,0,.36.06,0.46,0.46,0,0,0,0,.1v0.1l-0.34.38c-0.43.46-.18,0.58,0.27,0.53-0.31,5.22.55,10.13,6.24,12,4,1.28,8.67,1.34,12.34-.78a33.48,33.48,0,0,0,11.92-11.62s0,0.05,0,.08l0.39-.77c0.71-1.35,1.4-2.68,2.1-4a59.39,59.39,0,0,0,4.2-14.36c0.42-2.46,1.91-6.47.44-8.76-1.09-1.69-4-2.71-6.12-3.37,27.49-.14,55.54,3.84,81.18,14.09A93.18,93.18,0,0,0,331,219c6.63,1.19,13.37,1.59,20,2.77,12.76,2.27,27.18,9.12,28.05,23.82a0.33,0.33,0,0,0,.36.29,13.15,13.15,0,0,1-4.64,7.33c-3.17,2.52-6.24,2-9.45,3.55-0.77.38-2.14,0.8-2.48,1.72-0.81,2.16,2.24,6.17,2.77,8.36a24.12,24.12,0,0,1-.34,13.1c-2,5.72-7.22,5.49-11.76,7.35a4.05,4.05,0,0,0-2.89,3c-0.3,1.32.34,3.25,0.4,4.57a44.33,44.33,0,0,1-.27,7.27c-0.41,3.42-1.56,14-6.07,14.58-0.69.08-3,1.79-1.57,1.62,7.83-.93,9.6-10.75,10.37-17.2a46.77,46.77,0,0,0,.15-9.09c-0.26-3.36-.84-1.9.81-3.37,0.93-.83,1.79-0.64,2.93-1,3-1,6.06-1.92,8.26-4.38,2.92-3.28,3.56-8.39,3.41-12.59a26.12,26.12,0,0,0-1.17-6.82c-0.56-1.8-2.9-4.72-1.11-6.1,1.06-.82,3.76-1,5.05-1.59a21.67,21.67,0,0,0,4.13-2.36,16,16,0,0,0,6.08-8.49c9.92-.82,18.89,3.52,27.33,8.37,8.79,5.05,17.33,10.15,26.91,13.6,18.89,6.8,39.13,8.62,59.08,8.49C496,275.84,498.3,274.21,497.39,274.22Zm-344.58,57.7c5.5,24.36,9.31,49,12.4,73.8-0.54,5.17-11.72,3.55-14.89,3.61a74.19,74.19,0,0,0-10,.95c-4,.6-8,1.47-12,1.32a13.79,13.79,0,0,1-5.93-1.44c-1.46-.73-2-1.32-3.63-1.47a1.33,1.33,0,0,0-.54.11c-2.11-1.74-.62-8.95-0.55-11.62,0.21-8,.3-16.08.17-24.12-0.52-32.27-5.42-63.47-18.38-93.2-3.75-8.59-7.83-17-12-25.46-3.31-6.71-6.9-13.15-12.51-18.19l37-14,0,0C130.85,256.73,144.16,293.62,152.81,331.92Zm82.66-125.16c0.19,4.63-1.57,10.27-2.77,14.71a31.84,31.84,0,0,1-2.11,5.67,0.77,0.77,0,0,0-.39.73v0a30.58,30.58,0,0,1-5.93,7.88c-4.13,4-8.21,7.15-14.28,5.8-6.6-1.47-7.5-6.56-7.05-12.39a33.51,33.51,0,0,0,5.79-8.67c1.85-4.19,2-8.64,3.17-13a25.28,25.28,0,0,1,2-5.75,1.09,1.09,0,0,0,.68-0.9s0-.07,0-0.1a5.54,5.54,0,0,1,.51-0.58c2.06-2,5.08-1.19,7.58-.84C227.21,200,235.24,201.16,235.47,206.76Z" transform="translate(-1.28 -98.68)" style="fill:#381860"/><path d="M216.67,354.07c0.06-.27.1-0.54,0.17-0.8a1.8,1.8,0,0,0-.87.21c-4.71,2-9.84,3.41-15,2.86-3.32-.35-9-1.63-10.68-5s-0.06-10.44.11-14.17q0.31-7.16.74-14.31c5.11-.19,12.14-0.21,16,2.51,4.69,3.29,5.77,12.29,5.94,17.35,0,0.95,2.52-.41,2.73-1q1.41-5.15,7.25-6.65a2.46,2.46,0,0,0,.75-0.34c0.08-.39.16-0.77,0.23-1.16h0a14.43,14.43,0,0,0-8.41,4.75c-0.49-5.27-1.91-11.64-6-14.47-4.83-3.35-13.46-2.74-19-2.51-0.55,0-2.11.61-2.15,1.31q-0.39,6.59-.69,13.18c-1.27.36-2.09,0.58-3-.95s-0.48-2.34-.33-3.84a13.9,13.9,0,0,0-.22-5.69c-1.19-3.71-4.88-6.19-8.47-7.19-4.17-1.16-9-.72-13.21,0-2,.36-3.75.85-5,2.51-2.37,3.25-.64,8.6.2,12.09,1.23,5.11,2,10.64,3.87,15.58,1.18,3.19,3.16,4.31,6.44,4.3,5.56,0,11.18-.54,16.74-0.81,0.71,0,3.08-1.69,1.57-1.62l-10.74.53c-3.35.17-8.2,1.31-10.45-1.8-1.77-2.47-2.08-6.5-2.77-9.38-0.8-3.3-1.64-6.58-2.39-9.89-0.39-1.72-1.21-4.24-.85-6,0.6-3,2.58-3.68,5.43-4.34a17.91,17.91,0,0,1,12,1.69c7.15,4.08,4,10.39,5.12,16.92,0,0.29.74,0.12,0.87,0.09l5.11-1c-0.09,2-.19,4-0.26,6-0.19,4.87-1.55,9.42,3.07,12.28,7.6,4.7,17.47,2.71,25.18-.56A2.93,2.93,0,0,0,216.67,354.07Z" transform="translate(-1.28 -98.68)" style="fill:#381860"/><path d="M496.49,298.18c-18.93-6.39-37.92-12.81-56.06-21.25a216.76,216.76,0,0,1-25.8-14.07c-8.35-5.37-16.12-11.59-24.91-16.25-0.74-.39-3.08,1.2-2.47,1.53,8.53,4.52,16.09,10.52,24.16,15.77A215.52,215.52,0,0,0,438,278.45c18.14,8.45,37.12,14.86,56.06,21.25C494.84,300,497,298.36,496.49,298.18Z" transform="translate(-1.28 -98.68)" style="fill:#381860"/><path d="M498.25,409.24c-11-10.13-23.72-17.95-36-26.35-12.69-8.67-23.33-19.59-35.64-28.66-12.06-8.89-26-14.75-39.68-20.67-13.91-6-28.08-11.62-43.31-12.92a3.3,3.3,0,0,0-1.57.68,49.92,49.92,0,0,0-4.24-10.12A143.77,143.77,0,0,0,317,281.87c-7.81-8.54-16.78-15.84-25.44-23.47a169.5,169.5,0,0,1-27.07-30.77c-6.9-9.86-13.94-19.65-23.92-26.62-0.66-.46-3.11,1.08-2.47,1.53,17.06,11.91,25.44,31.93,39.6,46.66,14.78,15.37,32.4,27.36,45.37,44.55,6.27,8.32,13,17.88,16,27.93,1.82,5.91,1.74,12.81-3.55,17-4.18,3.29-17,7-20.83,2-3.27-4.29-5.56-9.76-8.22-14.45-3.08-5.45-6.16-10.9-9.37-16.28a256.53,256.53,0,0,0-19.43-28.29c-7.92-10-16.33-19.57-23.44-30.16-5.59-8.33-10.77-17.81-20.77-21.33-0.82-.29-3,1.34-2.47,1.53,11,3.89,16.29,15.14,22.61,24.12,7.34,10.42,15.81,20,23.63,30a285.88,285.88,0,0,1,21.91,33.54c3.13,5.45,6.2,10.93,9.29,16.4,2.29,4.05,3.82,9,9.19,9,6.92-.08,15.71-2,20.87-7,4.57-4.37,5-9.94,3.72-15.44,15.42,1.47,29.72,7.33,43.81,13.47,13.66,5.95,27.55,11.91,39.46,21S448,376.43,460.46,384.9c12.09,8.21,24.53,15.93,35.31,25.86C496.33,411.27,498.88,409.82,498.25,409.24Z" transform="translate(-1.28 -98.68)" style="fill:#381860"/><path d="M38.29,247.65c-13.1,2.11-21.74-12.49-35-10.58-0.69.1-3,1.83-1.57,1.62,13.08-1.88,21.71,12.72,35,10.58C37.4,249.16,39.74,247.42,38.29,247.65Z" transform="translate(-1.28 -98.68)" style="fill:#381860"/><path d="M301.45,341.44c-2.64-5.43-5.55-10.75-8.37-16.09-5.44-10.28-11.08-20.46-17.33-30.28-7.08-11.12-15.26-21.3-21.45-33-5.53-10.42-11.15-21-21.33-27.54-0.69-.44-3.1,1.12-2.47,1.53,8.45,5.45,13.81,13.75,18.51,22.43A244.94,244.94,0,0,0,265.35,285c12.31,17.19,22.16,36,31.83,54.72,2.05,4,4.9,8.64,4,13.33-1.27,6.94-15.2,7.25-20.92,7.55-2.58.13-6,.63-8.57-0.08-3.65-1-3.73-4.4-3.87-7.57-0.22-4.72.07-9.28-1-13.93a36.75,36.75,0,0,0-5.1-11.92c-2.57-3.89-6.3-7-8.09-11.37-1.65-4-2.32-8.43-3.86-12.52a95.17,95.17,0,0,0-6.73-13.91c-2.89-5-6.11-9.79-9.39-14.52-2.33-3.35-4.61-6.74-8-9.16-4.3-3.11-5.83-5.44-7.16-10.53-0.93-3.54-1.79-6.83-4.77-9.18-0.61-.48-3.11,1-2.47,1.53,3.42,2.7,3.86,6.82,5,10.74,1.36,4.63,3.19,6.25,6.92,9,4.13,3,6.87,7.63,9.7,11.79a169.35,169.35,0,0,1,9.12,14.68,84.82,84.82,0,0,1,6.18,14.14c1.68,5.19,2.48,10.08,5.95,14.48,0.91,1.15,1.81,2.28,2.67,3.41-0.82.08-2.34,0.82-2.2,1.48,3.12,14.33,4.36,28.91,5.51,43.5,1,13.26.83,26.37,2.87,39.52,1.11,7.19.11,14.24-.06,21.45-0.15,6.33,1.09,12.21,2.61,18.33,3.52,14.22,4.55,28.75,5.41,43.33,0,0.83,2.77-.24,2.73-1-0.81-13.71-1.65-27.49-4.77-40.91-1.69-7.27-3.48-14.1-3.22-21.65,0.22-6.37,1.07-12.7.27-19.06-0.93-7.36-2.09-14.37-2.13-21.83,0-7-.56-14.06-1.12-21.08-1.1-13.82-2.35-27.63-5.25-41.22a37.13,37.13,0,0,1,5.25,9.16c2.28,6.05,2.08,12,2.39,18.3,0.15,3,.15,6.63,3.31,7.91,4.27,1.73,11.49.39,16-.16,5.93-.73,16.56-1.56,19.16-8.25C305.12,349.46,303.18,345,301.45,341.44Z" transform="translate(-1.28 -98.68)" style="fill:#381860"/><path d="M228.65,340.7c0.89-7.37-2.41-14.5-2.5-21.89-0.2-17.63-.87-34.16-5.63-51.28-0.17-.62-2.93.47-2.7,1.32,4.42,15.87,5.88,31.8,5.63,48.23a56.94,56.94,0,0,0,.43,9.25c0.63,4.28,2.27,8.4,2.24,12.77-0.06,7.45-3.89,14.23-6.1,21.16-4.65,14.57-3.54,30-2.23,45,0.66,7.52,1.4,15,1.58,22.59s-0.87,15-1.4,22.61c-0.63,8.94,3.06,17.25,2.88,26.1-0.14,6.73-5.81,13.42-2.71,20,0.32,0.69,3-.6,2.7-1.32-3-6.37,2.55-13.18,2.74-19.71,0.23-7.91-3.12-15.43-3-23.35,0.12-7.58,1.6-15,1.57-22.65s-0.71-15.07-1.38-22.58c-1.33-15-2.81-30.47,1.22-45.19C223.92,354.72,227.76,348.07,228.65,340.7Z" transform="translate(-1.28 -98.68)" style="fill:#381860"/><path d="M396.45,208.22c-0.75-6-1.78-12-2.92-17.94-1.18-6.13-4.63-15.07-1.87-21,0.44-.94-2.25,0-2.57.65-2,4.4-.77,8.81.12,13.38,1.22,6.24,2.49,12.48,3.49,18.76s1.64,12.36,2.24,18.57c0.74,7.59,1.15,14-2.71,20.93-0.49.87,2.19,0,2.57-.65C400.4,230.91,397.8,219.08,396.45,208.22Z" transform="translate(-1.28 -98.68)" style="fill:#381860"/><path d="M421.83,213.23c-0.06-13.5-2.12-26.57-4.08-39.91-0.08-.54-2.83.4-2.7,1.32,1,6.84,2.09,13.68,3,20.55s0.85,13.76,1.09,20.74c0.21,5.93,2.06,11.39,1.71,17.42a95.72,95.72,0,0,1-3.4,19.91c-0.16.58,2.49-.16,2.73-1a95.89,95.89,0,0,0,3.4-19.91C424,225.72,421.86,219.77,421.83,213.23Z" transform="translate(-1.28 -98.68)" style="fill:#381860"/><path d="M319.25,347.12a14.91,14.91,0,0,1-12.59,5.81c-0.74,0-3,1.59-2.09,1.63a21,21,0,0,0,17.25-8.08C322.37,345.77,319.72,346.52,319.25,347.12Z" transform="translate(-1.28 -98.68)" style="fill:#381860"/><path d="M335.88,317.23c-0.15-1.94-.32-3.89-0.45-5.83,1-.71,1.6-1.5,1.24-2.1-6.63-11.08-13.6-22.16-24.51-29.51a3,3,0,0,0-2.15,0,45.86,45.86,0,0,0-6.37-5.26c-4.87-3.6-8.54-8.22-12.72-12.55a96.46,96.46,0,0,0-8.16-7.47,121.72,121.72,0,0,0-11.4-11.72c-3.63-5.48-7.37-10.84-11.29-16.06-0.28-.81-0.55-1.63-0.78-2.47-0.12-.42-0.67-0.54-1.42-0.46-3.9-5.06-8-10-12.39-14.77-0.54-1.93-1.08-3.83-1.64-5.69-0.5-1.68-7.86,1.29-7.19,3.51,0.19,0.62.37,1.26,0.55,1.89-1,.75-1.6,1.55-1.24,2.08l1.75,2.63-1.17,3.73c-0.3.16-.58,0.32-0.85,0.5a11.44,11.44,0,0,0-.7-6.7c0.94-3.43,1-6.84-2.09-8.41a5.42,5.42,0,0,0-1.83-2.83c-4.18-3.69-11.28-1.07-15.18,1.65-6.53,4.56-5,12.28-7.53,19-1.93,5.19-9.88,14.53-3.47,19.81,1.92,1.58,4.55,1.72,7.2,1.14a1.64,1.64,0,0,0,1.19.15c7.41-.91,12.05-7.61,16.55-12.94a30.26,30.26,0,0,0,4.8-7.45c0.13,0.26.27,0.51,0.4,0.76a43.08,43.08,0,0,0-1.54,4.3c-0.83.68-1.35,1.33-1.22,1.66-1,.62-2.14,1.54-1.78,2.4s2.48,0.29,3.6-.18c1.92,2.78,6.67,5.4,8.72,7.18q3.57,3.11,6.89,6.45A48.25,48.25,0,0,0,263.56,262c1.71,2.95,3.52,5.84,5.49,8.63,5,7.07,11,13.36,16.49,20.05q6,9.3,12.8,18a0.7,0.7,0,0,0,0,.14c0.73,1.21,1.51,2.39,2.32,3.54,1.29,2.86,2.68,5.69,4.11,8.5,2.16,4.23,4.23,8.56,6.56,12.7a19.65,19.65,0,0,0,1.5,2.34,1.07,1.07,0,0,0-.13.93c3.94,10.66,18.35,5.63,23.59-1.09C341.75,328.84,339.81,322.78,335.88,317.23Z" transform="translate(-1.28 -98.68)" style="fill:#381860;opacity:0.34"/><path d="M205.83,207c-0.53-.66-1.84-0.56-3.2-0.1a73.39,73.39,0,0,0-11.33-3.41,25.76,25.76,0,0,0-7.32-2.67,4.94,4.94,0,0,0-2.18.53l-1.5-.37a53.91,53.91,0,0,0-21.1-1.07,63.65,63.65,0,0,0-25.68,9.73c-0.84.34-3.36,1.53-3.79,2.7a58.91,58.91,0,0,0-8.23,7.69c-2.27,2.58,2.46,1.6,3.62,1,8.75-4.73,18.79-4.89,28.51-4.7a103.82,103.82,0,0,1,14,.8c4.92,0.76,9.57,2.56,14.32,4s10.14,3.45,15.24,3.29a15.64,15.64,0,0,0,1.45,1.43c1.3,1.15,7.7-2,6.89-3.79l-0.23-.51C210,217.72,209.82,212,205.83,207Z" transform="translate(-1.28 -98.68)" style="fill:#381860;opacity:0.34"/><path d="M301.42,345.74c0.84-.68,1.32-1.41,1-2a68.45,68.45,0,0,0-13.06-17.68c-0.63-1.21-1.26-2.41-1.9-3.61,0,0,0,0,0,0-6.82-21.86-23.38-38.44-33.9-58.4-0.88-1.92-1.79-3.82-2.78-5.69-0.39-.73-1.76-0.61-3.21-0.08-3.81-7.43-8.11-14.54-14.27-20.42l0,0h0l-0.29-.29a1.5,1.5,0,0,0-1.17-.23,1.14,1.14,0,0,0-.16-0.42,1.07,1.07,0,0,0-.44-0.36c1.13-1.2.43-1.73-.91-1.81-1.63-.1-4,1.34-5.08,2.48-2.55,2.66-10.4,3.69-10.62,8.34a6.65,6.65,0,0,0,1,3.06c-0.2,2.74-.15,5.57,1.13,8,1.46,2.79,4.36,4.8,6.49,7,0.52,0.54,1,1.1,1.48,1.65-2,.64-4.48,2.36-4.61,3.41-0.32,2.58.9,5.18,2.08,7.68v0.26a0.69,0.69,0,0,0,.41.62l0.19,0.4c0.44,2.39.8,4.78,1.28,6.91a0.59,0.59,0,0,0,.5.41c0.34,3.93.81,7.85,1.39,11.75-0.2,7.83-.62,15.84.32,23.53,0.79,6.44,2.69,12.88,4.63,19.23-2.43,8.87-6.91,17.26-8,26.31a37,37,0,0,0-1.57,4.69c-1.27,5-.49,10,0.36,15a78.4,78.4,0,0,0,1.31,21.68,1.58,1.58,0,0,0-.36.92c0.09,7.76,2,15.37,1.55,23.14-0.46,8.38-2.75,16.6-2.14,25,0.56,7.67,4,15.17,2.46,22.93-1.25,6.46-5.19,13-.87,19.12,1.21,1.72,5.72-.84,6.94-2.56,0.18,0.14.35,0.27,0.55,0.4,1.07,0.69,3.22,0,4.85-1.14,0.44,1.35,5-.67,6.64-2.26,0,0.37-.07.72-0.09,1-0.09,1.76,4.35.19,6.34-1.48,0,1-.07,2-0.09,3,0,1.66,4.16.38,6.19-1.23,0,0,0,0,0,0,0,2.18,7-.69,7.27-2.69h0c0.28,1.85.56,3.71,0.86,5.56,0.25,1.56,7.32-1.2,7.23-3.1a81.78,81.78,0,0,0-2.18-15.38c0.71-14.5-2.32-28.65-6.21-42.55a2.33,2.33,0,0,0,1-1.31,99,99,0,0,0,.39-13,0.82,0.82,0,0,0-.25-0.59,30.94,30.94,0,0,0-.35-6.85c-0.15-1.18-.32-2.35-0.48-3.52,0.37-10,1.19-20,1-30-0.28-12.65-3.39-24.85-5.52-37.21a63.53,63.53,0,0,0-1.4-9.79c-0.13-1.2-.25-2.4-0.33-3.61a0.83,0.83,0,0,0-.75-0.77c-1.06-3.82-2.38-7.62-3.81-11.49a251.77,251.77,0,0,0-15-32.86,1.58,1.58,0,0,0-1.68-.47c-0.25-.86-0.54-1.72-0.81-2.57a24,24,0,0,0-2.42-6.81l-0.23-.56c1.28,2.17,2.5,4.38,3.78,6.63,3.6,6.34,9,11,12.09,17.79,1.95,4.19,3.56,8.51,5.48,12.69a1.42,1.42,0,0,0-.36,1.28,18.81,18.81,0,0,0,5.2,8.51,15.73,15.73,0,0,0,3.08,2.1,44,44,0,0,1,3.51,7.79,159.9,159.9,0,0,1,5.62,19.44c0.05,1.9.08,3.8,0.07,5.7a0.62,0.62,0,0,0,.19.46,1.2,1.2,0,0,0-.11.88c0.57,1.89,2.45,2.41,4.57,2.38a20.11,20.11,0,0,0,4,1,2.19,2.19,0,0,0,1.19.11,24.29,24.29,0,0,0,15-4,13.62,13.62,0,0,0,4.59-1.61C303.51,353.15,303.35,349.41,301.42,345.74Z" transform="translate(-1.28 -98.68)" style="fill:#381860;opacity:0.34"/><path d="M326.34,159.31a46,46,0,0,0-24.69-8.5,6.5,6.5,0,0,0-2.26.34,22.52,22.52,0,0,0-5.27-2.3,35.78,35.78,0,0,0-9.6-1,68.27,68.27,0,0,0-9.37-1c-11.11-.33-21.58,3.66-31.59,8.13-4.81,1.45-9.86,3.19-13.6,6.41-2,1.09-4.6,3-2.4,3.39a93,93,0,0,0,14.52,1.54c9.74,1.39,19.57,2.7,29.29,2.64a61.92,61.92,0,0,0,17.78-2.7c2.77-.84,5.5-1.79,8.24-2.65,7.84,0.4,15.7.14,23.56-.16C321.94,163.46,328.32,160.72,326.34,159.31Z" transform="translate(-1.28 -98.68)" style="fill:#381860;opacity:0.34"/></svg>