<svg id="Layer_2" data-name="Layer 2" xmlns="http://www.w3.org/2000/svg" viewBox="0 0 286.49 445.01"><title>nudist</title><path d="M136.61,203.42c0,3.1,1.26,6,1.89,9a64.13,64.13,0,0,1,1.4,13.14c0,7.72-1.88,14.38-4.17,21.66-4.53,14.36-8.08,28.84-4.45,43.69a145.68,145.68,0,0,0,14.67,36.72c6.21,10.91,12.76,22.14,20.23,32.1,0.52,0.7,3.08-.8,2.7-1.32-7.31-9.75-13.75-20.72-19.8-31.42a160.45,160.45,0,0,1-14.67-35.76c-4.26-15.27-.62-30.22,4-45,2.29-7.26,4.16-14,4.17-21.66a62.55,62.55,0,0,0-.73-10.34c-0.65-3.92-2.51-7.84-2.55-11.81,0-.8-2.73.22-2.73,1h0Z" transform="translate(-100.42 -25.55)" style="fill:#381860"/><path d="M161.93,363.34c0,6.23-3.43,11.54-3.75,17.8-0.33,6.45-1,12.8-1,19.3,0.1,7.22.54,14.65-1.5,21.65s-6,13.63-9.67,19.86c-0.5.85,2.18,0,2.57-.65,3.41-5.81,7.06-11.86,9.23-18.24,2.43-7.19,2.14-14.51,2.11-22,0-6.66.49-13.08,1-19.68,0.24-3.23.35-6.21,1.47-9.3,1.19-3.29,2.22-6.16,2.24-9.73,0-.79-2.72.21-2.73,1h0Z" transform="translate(-100.42 -25.55)" style="fill:#381860"/><path d="M177.88,306.12c-0.23,4.91,2.34,8.55,4,13.08,1.81,5,3.21,10.15,4.84,15.25,3.77,11.79,5.71,25.22,2.38,37.35-1.58,5.76-4.56,11-7,16.38-2.59,5.87-5.1,11.77-7.62,17.67-2.38,5.58-5.18,11-7.38,16.68-2,5.1-3,11.77-3.29,17.23,0,0.76,2.68-.19,2.73-1,0.33-5.47,1.28-12.14,3.29-17.23,2.11-5.33,4.78-10.55,7-15.84,2.8-6.59,5.55-13.27,8.54-19.78,2.29-5,4.94-9.81,6.4-15.12,2.93-10.67,2-23.55-1.23-34.07-1.64-5.26-3.06-10.58-5-15.75s-5.24-10.45-5-15.87c0-.77-2.69.2-2.73,1h0Z" transform="translate(-100.42 -25.55)" style="fill:#381860"/><path d="M145.52,445.41c-1.15,3.24-4.39,6.71-4.18,10.32,0.22,3.77,4,3.88,7,4.91,7.45,2.58,17,4.54,24.91,3.94,3.75-.29,9.67-2.82,9.3-7.52-0.33-4.16-6.35-4.68-9.21-5.68-4.92-1.72-9.81-4.41-9.57-10.25,0-.77-2.69.2-2.73,1-0.23,5.49,3.53,8.28,8.39,10.24,2.53,1,6.22,1.27,8.38,2.92a4.32,4.32,0,0,1-.25,7.07c-1.57,1.11-6.08.54-8.13,0.39a82,82,0,0,1-20-4.13c-3.94-1.34-6.55-2.32-4.5-7,1.07-2.44,2.44-4.61,3.36-7.18,0.18-.51-2.43.17-2.73,1h0Z" transform="translate(-100.42 -25.55)" style="fill:#381860"/><path d="M191,377.87c0.18,6.36-1,12.47.09,18.86,1.22,7.37,3.18,14.71,4.5,22.09a87.9,87.9,0,0,1,1,15c0,4.35.29,8.67-.89,12.91-1,3.65-2.57,7-3.18,10.74-0.33,2-1.35,4.52-.15,6.32,0.47,0.7,3.08-.74,2.7-1.32-1.22-1.84.14-6.77,0.66-8.83,1-3.86,2.91-7.36,3.44-11.36a82.89,82.89,0,0,0-.58-23c-1.21-7.48-2.73-15.08-4.35-22.47-1.49-6.8-.36-13.23-0.56-20,0-.81-2.75.23-2.73,1h0Z" transform="translate(-100.42 -25.55)" style="fill:#381860"/><path d="M184.44,199.66c-0.15,8.72.4,16.62,4.25,24.65,1.81,3.77,4.35,7.07,6,10.92a97.08,97.08,0,0,0,6.18,12.16c4,6.6,6.77,13.93,9.69,21.08,1.4,3.42,1.49,7.83,2.08,11.52s0.76,7.21,1.47,10.81c1.64,8.28.87,17.59,0.84,26,0,8.12-1.87,16.46-3,24.49s-2.38,15.37-1.68,23.46a45.59,45.59,0,0,0,2.54,11.16A37.41,37.41,0,0,1,215,389.61a115.66,115.66,0,0,1-3.8,30.34c-1.43,5.28-3.9,10.11-4.66,15.57-0.74,5.29-.54,10.66-0.52,16,0,0.8,2.73-.21,2.73-1,0-4.49-.17-9,0.24-13.49,0.45-5,2-9.16,3.65-13.81a87.05,87.05,0,0,0,5-27.7,120.46,120.46,0,0,0-.09-13.44c-0.34-3.31-1.71-6-2.64-9.1a58.76,58.76,0,0,1-1.15-27.36,189,189,0,0,0,3.78-48.6,167.54,167.54,0,0,0-2.66-20.43c-0.82-4.39-.65-7.25-2.59-11.29-1.8-3.75-3-7.73-4.8-11.47-1.94-4-4-7.65-6.22-11.54-2.39-4.2-3.74-8.9-6.26-13-2.65-4.33-5.12-8.65-6.4-13.61-1.48-5.72-1.58-11.11-1.47-17,0-.79-2.71.21-2.73,1h0Z" transform="translate(-100.42 -25.55)" style="fill:#381860"/><path d="M195.12,465.1a60.26,60.26,0,0,0,8.69-.26,67.4,67.4,0,0,1,12-1.18c5.59,0.18,12.67,3.4,17.74-.76,4.61-3.78-1.85-10.13-5.53-11.71-5.15-2.21-13.35-3.24-18.64-.9-1.61.71-1.14,1.68,0.47,1,4-1.77,12.75-.17,16.46,1.77a12.33,12.33,0,0,1,5.66,6.14c2.33,6.43-7.16,3.68-10.25,3.16-8.12-1.37-16.41,1.13-24.57,1.13-0.74,0-3,1.63-2.09,1.63h0Z" transform="translate(-100.42 -25.55)" style="fill:#381860"/><path d="M300,303c-0.34,6.76-3.45,14.62-6.17,20.71-2.44,5.47-3.23,11-4.42,16.8-1.37,6.67-.41,14.07-0.41,20.87,0,7.57.06,15.14,0.11,22.7,0.1,13.61-4.19,26.79-5.78,40.21a51.51,51.51,0,0,0,1.3,19.39c1.89,7.43,4,14.54,3.87,22.31,0,0.78,2.71-.21,2.73-1a60.11,60.11,0,0,0-2.78-18.49,54.92,54.92,0,0,1-2.48-22.33c1.5-13.73,6-27.18,5.88-41.08q-0.11-11.35-.11-22.7c0-6.55-.88-13.64.25-20.09a87.88,87.88,0,0,1,5.53-19.68c2.33-5.56,4.93-12.56,5.23-18.61,0-.76-2.69.19-2.73,1h0Z" transform="translate(-100.42 -25.55)" style="fill:#381860"/><path d="M269.79,451.12c-0.91.9-5.1,1.05-6.34,1.22-1.5.21-3,.39-4.5,0.63a47.28,47.28,0,0,0-11.26,2.86c-3.8,1.63-12.3,7.13-7.78,12.26,2,2.3,7.76,2.37,10.46,2.44a75,75,0,0,0,14.71-1.08c3.25-.56,6.16-1.88,9.3-2.83,4.27-1.28,8,.55,12.39.66,0.74,0,3-1.6,2.09-1.63-3-.07-5.59-1.26-8.46-1.48-2.58-.2-5,0.82-7.41,1.63-8.18,2.79-17.49,4.31-26.08,2.45-2-.43-4.21-0.56-5.1-2.78-1.14-2.85.77-4.93,2.76-6.49,4.41-3.46,10.24-4.08,15.64-4.81,3.73-.51,9-0.51,11.81-3.31,1.05-1-1.74-.25-2.24.24h0Z" transform="translate(-100.42 -25.55)" style="fill:#381860"/><path d="M303.43,305.84c0.9,12.82,7.55,24.59,8.36,37.36,0.37,5.8.71,12.46-.69,18.1a36.6,36.6,0,0,0-.53,16.36c1.2,6.65,3.25,12.83,5.13,19.29,1.74,6,3.14,11.93,4.37,18a54.42,54.42,0,0,1,.32,17.87c-0.79,5.75-2.89,11-3.86,16.66-0.12.67,2.58-.17,2.73-1,1-5.68,3.11-10.89,3.86-16.66,0.68-5.19,1.06-11.16.14-16.37-2.19-12.39-7.16-24-9.53-36.3-1.29-6.67-1.54-12.37.11-18.89,1.38-5.48.9-11.68,0.71-17.31-0.44-13-7.46-25.1-8.37-38.15-0.06-.84-2.78.25-2.73,1h0Z" transform="translate(-100.42 -25.55)" style="fill:#381860"/><path d="M315.78,451.57c0.22,5.07-4.26,8.78-.9,13.7,2.79,4.09,7.14,3.41,11.4,2.66,3.41-.6,6.61-1.54,10.12-1.69,3.17-.13,5.74.54,8.78,1.12a58.34,58.34,0,0,0,15.61.49c4.43-.42,10.51.09,14.35-2.61,3.45-2.42-.4-5-2.54-7.31-7.94-8.43-22.17-5.76-32.5-6.77-0.74-.07-3.06,1.53-2.09,1.63,9,0.88,20.32-1.06,28.44,3.8,2.31,1.38,3.47,3.05,5.16,5,0.33,0.38,2.3,1.69,2.31,2.16,0.05,1.54-2.85,1.63-3.74,1.78a62.88,62.88,0,0,1-15.13.7c-2.15-.17-4.36-0.06-6.52-0.28-2-.21-3.83-1.07-5.81-1.3a31.33,31.33,0,0,0-11.06.61c-5,1.33-12,3.63-14.77-2.49-1.84-4.08,1.82-7.94,1.63-12.2,0-.82-2.76.23-2.73,1h0Z" transform="translate(-100.42 -25.55)" style="fill:#381860"/><path d="M134.21,118.31c0,3,1,5.85,1.11,8.92,0.2,5.15-.42,9.38-5.52,11.82-4.62,2.21-10.14,3.23-14.42,6.12a11.9,11.9,0,0,0-3.1,3.45c-1.55,2.25-3.53,4.26-5,6.54-2.48,3.8-2.64,9.8-3.07,14.22-0.55,5.69-1.15,11.34-1.54,17-0.39,5.86,0,11.76-.89,17.58-0.89,5.62-1.79,11.29-1.14,17,0.79,7,4.3,14,7.53,20.08,3.62,6.83,7.06,13.46,11.17,20a95.21,95.21,0,0,1,7.72,14.23c0.26,0.67,3-.55,2.7-1.32-4-10.16-11.75-18.6-16.2-28.53-3-6.79-6.73-13.27-9-20.43-2.06-6.57-1.41-13-.33-19.63,1.8-11.11.61-22.56,2.27-33.69,0.84-5.63.58-12.69,3.66-17.61,1.24-2,3-3.77,4.34-5.67,2.28-3.13,5.12-4.11,8.61-5.54,4-1.63,8.43-3,11.77-5.87,6.05-5.17,2-13.31,2-19.78,0-.79-2.72.21-2.73,1h0Z" transform="translate(-100.42 -25.55)" style="fill:#381860"/><path d="M124.18,179.59c-0.05,5.68,2.49,13.32,6.37,17.54,4.29,4.66,10.14,5.16,16.08,5.44,4.14,0.2,7.35-1.29,10.73-3.46,3.88-2.49,5.27-4.35,5.74-9.07,0.07-.73-2.64.18-2.73,1-0.4,4-1.8,5.86-5.19,8-4,2.54-11.62,2.31-16.21.6-7.58-2.82-12.14-13.43-12.07-21.07,0-.79-2.72.21-2.73,1h0Z" transform="translate(-100.42 -25.55)" style="fill:#381860"/><path d="M160.74,185.12c0.57,5.22,7.38,10.59,12.39,11.43,5.38,0.89,11.26.46,15.8-2.8,4.31-3.1,6.1-7.5,6.6-12.57,0.43-4.47-1.17-12.41-6.58-13.3-0.73-.12-3.09,1.46-2.09,1.63,4.26,0.7,6.4,8.53,6.15,11.79-0.38,4.94-1.53,8.29-5.67,11.45-4.39,3.35-11.77,3.34-16.55.32-3-1.87-6.94-5.65-7.33-9.26-0.06-.51-2.8.38-2.7,1.32h0Z" transform="translate(-100.42 -25.55)" style="fill:#381860"/><path d="M126.33,197.51a37.08,37.08,0,0,1-1.85,8.5c-0.78,2.59-2.73,5.37-3.22,7.88-0.67,3.41,1.79,8,2.76,11.33,2.8,9.52,5.28,20.35,5.18,30.35,0,0.79,2.72-.21,2.73-1,0.1-9.17-2.16-18.7-4.4-27.55-1.18-4.65-4.31-10.62-2.84-15.32,1.58-5.07,4-9.73,4.38-15.19,0-.75-2.67.19-2.73,1h0Z" transform="translate(-100.42 -25.55)" style="fill:#381860"/><path d="M160,120.26c1.92,8.06,8.23,11,15.81,12.5,4.32,0.86,7.81.85,11.82,2.86,2,1,4,2,5.92,2.94,2.29,1.15,3.05,3,4.32,5.11A135.76,135.76,0,0,1,209,168c3.23,9.08,9.35,17.42,9.78,27.37,0,0.82,2.76-.23,2.73-1-0.39-9.06-5.47-16.72-8.76-24.87-3.55-8.78-6.46-17.65-11.36-25.85-2-3.3-3-5.44-6.52-6.95s-6.69-4.17-10.57-4.82c-4.77-.8-9.22-1.31-13.84-3-4-1.49-6.77-5.81-7.75-9.91-0.14-.6-2.9.44-2.7,1.32h0Z" transform="translate(-100.42 -25.55)" style="fill:#381860"/><path d="M193.36,187.27c0.7,3.61,4.32,7.89,6.78,10.45,3.48,3.62,5.85,8.19,9.39,11.63,4.24,4.12,11.25,6.65,15.94,1.64,2-2.17,2.49-6,3.58-8.75,1.62-4.09,3.07-8.3,4.53-12.44,1.39-4,2.92-7.82,4.21-11.88,1.44-4.52,3.74-8.33,5.6-12.6,0.19-.44-2.37.19-2.73,1-1.41,3.24-3.34,5.79-4.54,9.23-1.35,3.86-2,8-3.83,11.73-2.46,5.08-3.89,10.67-6,16-1.57,4-2.88,10.68-9,8.4-4.31-1.6-6.55-5.56-9-9-2.15-3-5.13-5.31-7.36-8.22-1.72-2.25-4.3-5.65-4.84-8.44-0.11-.57-2.87.42-2.7,1.32h0Z" transform="translate(-100.42 -25.55)" style="fill:#381860"/><path d="M226.66,166.24c-0.12,3.36-1.94,6.58-3.32,9.58a53,53,0,0,1-4.55,7.84c-0.53.78,2.14,0,2.57-.65a59.87,59.87,0,0,0,5.05-8.9c1.28-2.79,2.86-5.78,3-8.88,0-.77-2.7.2-2.73,1h0Z" transform="translate(-100.42 -25.55)" style="fill:#381860"/><path d="M170.47,254.71c0,0.91-.06,1.83,0,2.74s0.42,1.63.47,2.47,2.77-.24,2.73-1-0.38-1.57-.46-2.38a28.16,28.16,0,0,1,0-2.83c0-.79-2.72.21-2.73,1h0Z" transform="translate(-100.42 -25.55)" style="fill:#381860"/><path d="M167.72,287.54c3,3.68,7.61,7.12,12.45,7.94,2.46,0.42,7.35.4,9.15-1.73,0.75-.89-1.37-0.23-1.72.19-0.49.58-4.37,0.29-5.09,0.22a13.9,13.9,0,0,1-5.27-1.84,21,21,0,0,1-7.43-5.79c-0.43-.53-2.37.64-2.07,1h0Z" transform="translate(-100.42 -25.55)" style="fill:#381860"/><path d="M123.66,101.33c-0.09,3.58.51,7.82,3.26,10.47,2.32,2.23,6.43,3.31,9.46,4.28a76.2,76.2,0,0,0,22.4,3.56c5.7,0,8.55-3.35,9.89-8.64,1-3.75.68-7.71,2-11.35,1.46-3.94,3-7.84,3.27-12.1,0.05-.75-2.67.19-2.73,1-0.41,5.63-3.4,10.51-4.2,16a71.86,71.86,0,0,1-1.1,7.47,9.08,9.08,0,0,1-6.59,6c-1.26.19-3.34-.32-4.6-0.42a70.94,70.94,0,0,1-16.86-3.33,30.2,30.2,0,0,1-7.27-3.08c-3.4-2.32-4.33-7-4.24-10.85,0-.78-2.71.2-2.73,1h0Z" transform="translate(-100.42 -25.55)" style="fill:#381860"/><path d="M288.42,68.25c0.26,4.94,2.57,9.68,3.69,14.48s-0.24,10.26.87,15c1.61,6.93,14,5.74,18.91,4.29,8.26-2.45,16-5.6,21.55-12.52,3-3.78,4-8.79,4.84-13.45a101.36,101.36,0,0,0,2.1-19.61c0-.8-2.73.21-2.73,1A92.9,92.9,0,0,1,334,83.26c-3,10.66-12.91,15.47-23.08,17.87a17.18,17.18,0,0,1-12.76-1.79c-3.83-2.45-2.35-7.35-2.47-11.44-0.21-7.15-4.18-13.62-4.55-20.66,0-.83-2.77.24-2.73,1h0Z" transform="translate(-100.42 -25.55)" style="fill:#381860"/><path d="M260.21,165.42c-0.18,6.76.89,17.27,7.53,20.9,3.1,1.69,6.54,1.94,10,1.95,5.72,0,11.44-.09,17.16-0.09,0.74,0,3-1.63,2.09-1.63-4.14,0-8.28,0-12.42,0-4.41,0-9,.58-13.15-1.17-7.32-3.08-8.69-14.08-8.5-21,0-.78-2.7.2-2.73,1h0Z" transform="translate(-100.42 -25.55)" style="fill:#381860"/><path d="M326.43,188.65c5.82,0,14.1.11,19.1-3.38,6.82-4.76,6.23-14.05,6.23-21.34,0-.8-2.73.21-2.73,1,0,5.76.65,12.2-2.61,17.33S333.86,187,328.52,187c-0.74,0-3,1.63-2.09,1.63h0Z" transform="translate(-100.42 -25.55)" style="fill:#381860"/><path d="M345.51,188c-0.36,4.19-2.44,7.85-3.07,11.95a89.28,89.28,0,0,0-.76,13.46,89.08,89.08,0,0,0,1.6,19.23c1.38,6.22,2.7,12.27,5.11,18.24a70.79,70.79,0,0,1,3.45,11.4c1.14,5.25.58,10.27,0.85,15.57,0.48,9.37,1.71,19.84.18,29.14-1.57,9.53-4.72,18.61-6.48,28.06A76,76,0,0,0,345,348.79c0,4.49.6,8.88,0.6,13.33s0.32,8.91-.78,13.11c-1.28,4.84-3.47,9.3-4.33,14.28-0.8,4.63-1.08,9.26-1.43,13.93-0.37,5-2.45,9.43-3.24,14.28-1.81,11-1.13,22.27-1.13,33.4,0,0.8,2.73-.21,2.73-1,0-9.78-.23-19.44.73-29.17,0.44-4.44,1.72-8.24,2.7-12.55,1.06-4.68.87-9.41,1.51-14.14a71.14,71.14,0,0,1,2.5-12.29c1.46-4.55,3.28-8.57,3.42-13.42,0.26-8.88-1.26-17.72-.37-26.57,1-9.83,4.64-19,6.37-28.66s1.79-18.67,1.61-28.35c-0.16-8.71.26-17.77-1.86-26.26-2-8.16-6.06-15.82-7.37-24.13-0.94-5.92-2.07-11.68-2.23-17.7a139.2,139.2,0,0,1,.58-15.47c0.43-5,2.82-9.38,3.25-14.35,0.06-.74-2.65.18-2.73,1h0Z" transform="translate(-100.42 -25.55)" style="fill:#381860"/><path d="M264.45,188c0.13,8.67,1.09,17.1.76,25.81-0.3,7.83-.64,15.69-2.52,23.32a40.26,40.26,0,0,1-2.45,7.77,53.35,53.35,0,0,0-4.37,10.88c-2.18,9.19-4.17,18.78-4.4,28.25a112,112,0,0,0,0,12.25c0.37,4.33,1.51,8.55,2.08,12.85,1.1,8.28,3.13,16.62,3.47,25,0.35,8.62-.54,17.27-0.57,25.91s2.27,17.53,4,25.94c2.09,10.09,5,19.94,6,30.23,1,10.85,2.51,21.81,2.53,32.71,0,0.8,2.73-.21,2.73-1,0-9.2-1.49-18.13-2-27.28a140.54,140.54,0,0,0-4.13-25.36c-2.24-9.21-4-18.51-5.7-27.82-1.72-9.15-.28-18.54-0.16-27.72a120.2,120.2,0,0,0-2.26-23.63c-0.78-4.25-1.06-8.53-1.77-12.77-0.76-4.51-1.69-8.73-1.66-13.4a128.84,128.84,0,0,1,3.2-29c1-4.22,1.77-8.32,3.49-12.33,1.37-3.2,3-5.64,3.74-9,1.6-7.79,3.25-15.25,3.48-23.3,0.13-4.65.27-9.28,0.28-13.93,0-5.17-.94-10.25-1-15.43,0-.81-2.74.22-2.73,1h0Z" transform="translate(-100.42 -25.55)" style="fill:#381860"/><path d="M296.92,103.92a22.67,22.67,0,0,1-1.62,7c-2.81,6.5-9,6.82-14.73,8-3.82.75-7.76,1.56-11.5,2.62-6.06,1.73-12.92,2.66-15.1,9.56-0.17.54,2.46-.17,2.73-1,1.69-5.35,9.19-6.58,14-7.69,5.61-1.3,11.34-2.09,16.94-3.43,7.94-1.91,11.37-8.05,12-16,0.06-.74-2.66.18-2.73,1h0Z" transform="translate(-100.42 -25.55)" style="fill:#381860"/><path d="M329.1,187c-1.76,0-3.51.19-5.27,0.19a45.76,45.76,0,0,0-5,.51c-0.7.07-3.05,1.77-1.57,1.62,1.76-.19,3.41-0.48,5.19-0.5,1.53,0,3-.18,4.57-0.19a3,3,0,0,0,1.93-.73c0.18-.17.87-0.9,0.16-0.9h0Z" transform="translate(-100.42 -25.55)" style="fill:#381860"/><path d="M237.34,181c-0.56,7-1.5,13.53-.37,20.52,0.53,3.3,1.14,6.91,2.85,9.84s2.12,6.45,2.79,10c2.33,12.33,7.64,23.78,10.72,35.89,0.15,0.61,2.92-.45,2.7-1.32-2.94-11.54-8.07-22.48-10.41-34.2-0.61-3.08-.67-7.14-1.87-10-1.26-3.06-3-5.43-3.68-8.86-1.64-7.77-.62-15.12,0-22.86,0.06-.74-2.66.18-2.73,1h0Z" transform="translate(-100.42 -25.55)" style="fill:#381860"/><path d="M300.61,255.6v3.68c0,0.8,2.73-.21,2.73-1v-3.68c0-.8-2.73.21-2.73,1h0Z" transform="translate(-100.42 -25.55)" style="fill:#381860"/><path d="M158.1,276.53c2.43,3.7,10,4.63,13.87,5.42,3.48,0.7,7,.82,10.36,2.17a24.5,24.5,0,0,1,8.67,6.1c0.51,0.5,2.36-.72,2.07-1a25.55,25.55,0,0,0-13.89-7.66c-4.86-1-15.82-1.16-19-6-0.36-.54-2.37.57-2.07,1h0Z" transform="translate(-100.42 -25.55)" style="fill:#381860"/><path d="M315.35,278.12a29.77,29.77,0,0,1-9.47,10,16.36,16.36,0,0,1-8.27,3.08c-1.12.14-4.56,0.76-5.39-.23-0.63-.75-3.36.93-2.93,1.43,1.22,1.45,4.69.67,6.29,0.59a17.91,17.91,0,0,0,8.32-2.12,35,35,0,0,0,14.25-13.42c0.54-.93-2.38,0-2.79.7h0Z" transform="translate(-100.42 -25.55)" style="fill:#381860"/><path d="M326.25,260.83c-1.54,4.12-9.48,6.36-13,7.77-4.38,1.73-9,2.89-13.31,4.84a57.34,57.34,0,0,0-9.62,5.7,21.24,21.24,0,0,0-3.05,2.36c-1.58,1.58-2.19,3.71-3.61,5.34-1.08,1.23,1.93.32,2.44-.26,1.45-1.66,2-3.78,3.61-5.34a37.9,37.9,0,0,1,6.71-4.78c4.57-2.51,9.57-3.54,14.37-5.44a109.06,109.06,0,0,0,12.79-5.88c2.3-1.27,4.73-2.83,5.69-5.39,0.2-.54-2.63.19-3,1.1h0Z" transform="translate(-100.42 -25.55)" style="fill:#381860"/><path d="M243.43,162.54c1.56-3,5.14-5.37,7.06-8.35s3.6-5.8,4.18-9.52c0.75-4.8,1.3-20.74-7.2-18.87a9.39,9.39,0,0,0-5.73,4.69c-2.28,3.88-3.33,11.33-7.17,14-1.84,1.27-4.46.84-6.14,2.59a6.3,6.3,0,0,0-1.54,4.64c0.21,3.27,1.63,6.39,1.73,9.83,0,0.81,2.75-.23,2.73-1a35.33,35.33,0,0,0-.46-5.24c-0.36-2-1.8-4.64-1.07-6.7,1.06-3,4.39-2.11,6.58-3.64,1.73-1.21,2.33-3.37,3.33-5.13,1.79-3.16,2.44-8.28,5-10.78,5.07-4.91,6.93,4.1,7.42,7.48a28.71,28.71,0,0,1-.7,11.83,26.12,26.12,0,0,1-4.19,7.36c-1.87,2.6-5,4.67-6.42,7.49-0.47.9,2.22,0,2.57-.65h0Z" transform="translate(-100.42 -25.55)" style="fill:#381860"/><path d="M329.08,93.15c-0.59,5.59-4.92,11.78-2.14,17.5,2.47,5.09,9.36,7.33,14.54,8a123.74,123.74,0,0,1,17.23,3.29c3.55,1,7.78,1,10.9,3.12a25.9,25.9,0,0,1,7.31,8.75c2.9,5.84,4.39,13.52,5.24,19.94a178.71,178.71,0,0,1,2,20.88c0.1,7.75.64,16.08-1.19,23.67-0.75,3.09-2.07,5.92-2.8,9-1,4.41-1.79,8.55-3.79,12.67a94,94,0,0,1-5.65,10.41c-2.52,3.87-5.78,7.14-8.52,10.83-3.27,4.41-4.94,10.16-9.16,13.94-1.09,1,1.72.22,2.24-.24a33.27,33.27,0,0,0,6.47-9.06c3.72-7.17,9.77-12.66,13.71-19.74a102.19,102.19,0,0,0,4.65-9.13c1.46-3.39,1.86-7.13,2.78-10.68,1.89-7.27,4-13.65,4-21.33,0.06-13.47-.23-27.2-3.5-40.31-1.86-7.45-4-14.09-9.52-19.61-3.91-3.88-12.45-4.9-17.59-6.21-6.84-1.74-14.44-1-20.88-4.25-4.55-2.33-6.71-5.88-6.36-10.95,0.28-4,2.35-7.64,2.75-11.52,0.08-.72-2.64.18-2.73,1h0Z" transform="translate(-100.42 -25.55)" style="fill:#381860"/><path d="M342.73,52.1c0-3.45.45-7.2,0.09-10.63-0.39-3.69-2.73-6.77-4.49-9.94-2.21-4-7.2-7.16-12-5.54-3.92,1.33-6.83,4-11.25,4.18-4.58.24-9-1.78-13.49-2.3-5-.57-11.66-0.58-16.21,1.82-4,2.11-5.8,7.13-7.43,11.09-2.61,6.34-1.24,13.87,1.9,19.81,1.85,3.5,4.64,6,8.47,4.23,1.82-.83,3.16-2.29,4.82-3.24,5.27-3,6.44-.68,11.07-1.41a27.23,27.23,0,0,0,14.34-8,30.45,30.45,0,0,0,1.86-2.58l1.48-2.07,5.53-1.05c0.94,0.47,2.59,4.29,3.29,5.16a9.47,9.47,0,0,0,7.71,3.58c0.62,0,2.53-1.36,1.76-1.37-5.09,0-7.51-3.56-10-7.47-1.29-2-1.68-2.7-4.2-2.19a11.11,11.11,0,0,0-4.92,2.53,14.39,14.39,0,0,0-1.94,2.09c-2.4,3.08-4.49,5.82-8.12,7.7-3.26,1.69-6.26,2.6-9.94,1.93a10.5,10.5,0,0,0-3-.37,8.43,8.43,0,0,0-4.39,1.32c-3.23,2.11-4.61,6.41-9.09,3-3-2.23-3.86-6.41-5-9.77-2.41-7.41,1.28-21.49,9.93-23a35.53,35.53,0,0,1,11.84-.12c3.62,0.57,7.1,2,10.79,2.1a23.36,23.36,0,0,0,10.08-2c3.28-1.52,5.87-3.23,9.6-1.31,3.46,1.79,5.68,6.54,7.3,10,2.11,4.48,1.24,9.88,1.24,14.74,0,0.67,2.3-.18,2.3-0.85h0Z" transform="translate(-100.42 -25.55)" style="fill:#381860"/><path d="M141.46,44.57c-4.37-.4-8.6-2.11-13.05-1.33-3.89.68-8,2.9-11.22,5-9.34,6.13-13.14,14.29-14.7,25.2-0.91,6.38-.5,12.9-0.55,19.33a95.79,95.79,0,0,0,1.44,17.55c2,11.14,4.28,22.29,8.55,32.78,0.27,0.67,3-.56,2.7-1.32-7.25-17.82-9.94-37.31-9.93-56.45,0-9.85.06-21,6-29.34,3-4.22,7.57-7.31,12.16-9.58,5.88-2.9,10.54-.8,16.5-0.25,0.74,0.07,3.06-1.54,2.09-1.63h0Z" transform="translate(-100.42 -25.55)" style="fill:#381860"/><path d="M145.21,54.89c6.61,5.44,12.36,11.55,18.58,17.38,6.45,6,9.58,11.84,9.93,20.86,0,0.82,2.73-.23,2.73-1V91.91c0-.8-2.73.21-2.73,1v0.21l2.73-1c-0.32-8.18-2.91-14.67-8.93-20.21-6.7-6.16-12.78-12.73-19.84-18.55-0.6-.49-3.11,1-2.47,1.53h0Z" transform="translate(-100.42 -25.55)" style="fill:#381860"/><path d="M144.81,46c8-2.57,18.8,1,24.69,6.74,6.08,5.87,7.95,16.1,9.06,24.12,1.36,9.83,2.91,19.82,3.21,29.74,0.26,8.5,1.63,16.63,2.52,25,0.05,0.51,2.8-.38,2.7-1.32-0.55-5.16-1.77-10.14-2-15.35s-0.31-10.31-.73-15.42a269.82,269.82,0,0,0-4.13-30.74c-1.7-8.45-5-16.52-12.79-20.89-6.57-3.7-14.84-5.58-22.25-3.21-1.19.38-2.22,1.91-.26,1.29h0Z" transform="translate(-100.42 -25.55)" style="fill:#381860"/><path d="M352.39,169.05c0,5.95-.34,12,0,17.94,0.28,5.1,1.78,10.25,2.86,15.22,0.66,3,1.53,6.86.39,9.87-0.86,2.27-2.66,4.38-3.83,6.55-2,3.69-3.68,7.54-5.61,11.26-0.47.9,2.22,0,2.57-.65,2-3.91,3.84-8.07,6-12,2.65-4.79,4.65-7,4-12.8-0.63-5.4-2.5-10.68-3.32-16.07-1-6.57-.27-13.72-0.27-20.35,0-.8-2.73.21-2.73,1h0Z" transform="translate(-100.42 -25.55)" style="fill:#381860"/><path d="M140.26,59.63c0,4.91.34,10-.26,14.86-0.69,5.59-4.21,10.55-8.64,13.92-5.39,4.11-11.9,8.75-14,15.56-0.17.55,2.46-.17,2.73-1,2.87-9.18,13.24-12.89,18.76-20.09,5.38-7,4.18-15.9,4.18-24.25,0-.8-2.73.21-2.73,1h0Z" transform="translate(-100.42 -25.55)" style="fill:#381860"/><path d="M157.71,278c0.53,3.2,2.08,6.23,2.7,9.48,0.76,4,1.27,7.35,3.88,10.57,3.95,4.86,7.6,7.43,14,7.36,4.42,0,8.92-2.65,12.31-5.32,3-2.4,7-8,3.41-11.07-0.53-.46-3.15.8-2.81,1.55,1.59,3.51,6,3.66,9.37,3.66,0.8,0,3.26-1.77,2.27-1.77-3.17,0-7.22,0-8.71-3.32l-2.81,1.55c2.17,1.88.32,5.1-.85,6.91a11.48,11.48,0,0,1-4.86,4.26,15,15,0,0,1-10.29,1c-2.85-.58-4.17-1.95-6.19-4.11a20,20,0,0,1-5.63-11.53c-0.62-3.66-2.29-7.06-2.89-10.63-0.1-.6-3.1.44-2.93,1.43h0Z" transform="translate(-100.42 -25.55)" style="fill:#381860"/><path d="M325.84,261.05c-0.59,2.73-2.59,4.75-3.08,7.71a56.29,56.29,0,0,0-.24,11.08c0.24,6.53-.36,12.69-6.18,16.92-4.92,3.58-12.51,3.21-18.17,1.82a26.13,26.13,0,0,1-7.61-3.14c-1-.67-7.1-6.23-5-8l-2.43.62c2.7,3.36-7.22,3.23-9.19,1.52-0.62-.54-3.38,1.06-2.69,1.66,3.09,2.68,19.05.67,14.81-4.61-0.49-.61-2,0.26-2.43.62-1.54,1.35-.6,4.43.28,6,1.77,3.11,5.11,4.65,8.25,5.92a30.85,30.85,0,0,0,21.09.63,18.57,18.57,0,0,0,11.73-12.42c1.21-4.35.45-9.06,0.47-13.54,0-2.88,0-5.8.85-8.58,0.61-1.88,2.13-3.37,2.54-5.26,0.15-.69-2.77.18-3,1.1h0Z" transform="translate(-100.42 -25.55)" style="fill:#381860"/><path d="M123,110c-0.22-.76-0.44-1.52-0.65-2.28-0.75-2.7-2.41-6.43-1.82-9.28,0.66-3.18,4.87-4.36,7.29-6.21C140,83,141.59,67.09,142.28,52.94c0.19-4-3.69-5.55-6.74-4.47a4.94,4.94,0,0,0-4.17-2.34c-17.22-.05-23.71,21-25.45,34.94-1.13,9.12,1,18,2.62,27L114,137.29c0.91,4.87,6.83,4.39,9,1,3.18,1.91,8.25.71,7.67-3.88l-0.2-1.59a4.83,4.83,0,0,0,2.79-4.25,22.65,22.65,0,0,0-6.53-17.24A4.73,4.73,0,0,0,123,110Zm-7.47-21.69q0-1.25,0-2.48a5.76,5.76,0,0,0,4-.05C118.21,86.65,116.83,87.41,115.57,88.35Zm11.9-10.8a21.25,21.25,0,0,1-6.17,7.14,5.17,5.17,0,0,0,.6-0.71l7.58-11A29.44,29.44,0,0,1,127.47,77.55Z" transform="translate(-100.42 -25.55)" style="fill:#381860;opacity:0.34"/><path d="M178,76.1c-4-13-11.94-26.13-25.94-29.83-6.23-1.64-8.89,8-2.66,9.64,12.32,3.25,17.67,16.79,20.36,28a108.7,108.7,0,0,1,2.64,18.77,4.68,4.68,0,0,0-3.68,2.41,24.23,24.23,0,0,0-2.69,19.3c0.92,3.4,4.23,4.14,6.76,3.1l0.07,0.18c2,5,9.75,4.7,9.82-1.33C182.93,109.56,183.05,92.3,178,76.1Z" transform="translate(-100.42 -25.55)" style="fill:#381860;opacity:0.34"/><path d="M192.7,291.84a16.73,16.73,0,0,0-2.62-2.11,5.22,5.22,0,0,0-4.76-6c-4.43-.33-9.27-0.73-13.21-2.56a5,5,0,0,0-1.21-.63,12.43,12.43,0,0,1-5.4-6.05c-2.52-5.9-11.13-.81-8.63,5a19.57,19.57,0,0,0,1.34,2.55,5.13,5.13,0,0,0-.07,2.42c3.17,15.42,19.94,22.49,33.55,15.2A5,5,0,0,0,192.7,291.84Z" transform="translate(-100.42 -25.55)" style="fill:#381860;opacity:0.34"/><path d="M328.53,260.45c-1.35-2.22-4.55-3.3-6.84-1.79l-14,9.23a62.86,62.86,0,0,0-6.62,4.51,5.53,5.53,0,0,0-5-3.08c-10.94-.54-10.36,19.61-7.89,26.09,3.86,10.15,17.6,10.88,26.54,7.61,9.56-3.5,9.79-12.91,8.83-21.84,1.54-3.47,3.08-6.93,4.6-10.41S330.67,264,328.53,260.45Z" transform="translate(-100.42 -25.55)" style="fill:#381860;opacity:0.34"/><path d="M334.52,27.92c-6.57-3.85-11.59,3.18-17.73,4.26-7,1.22-13.49-3.16-20.46-3.28-6.19-.11-11.8,2.76-14.7,8.32-5.15,9.83,1.1,30.59,14.11,20.48,1.92-1.49,1.93-1.29,4.33-.61a13.15,13.15,0,0,0,4.66.56,15.36,15.36,0,0,0,7.6-3.19c1.21-.87,6.57-6.91,11-10a28.78,28.78,0,0,1,7.44,2.33c0.08,6.11,9.74,6,10-.32C341,40.61,340.29,31.3,334.52,27.92Z" transform="translate(-100.42 -25.55)" style="fill:#381860;opacity:0.34"/></svg>