<svg id="trace" xmlns="http://www.w3.org/2000/svg" viewBox="0 0 477.39 473.31"><title>skydiving</title><path d="M223.58,66.72c-10.81,1.82-21.37,5.38-29.25,13.32-9.38,9.45-14.49,23.12-15.75,36.16a112.4,112.4,0,0,0,.48,23.42c0.81,7.16,1.62,14.75,4.58,21.39,5.5,12.32,16.32,24.1,28.84,29.43,21.71,9.24,48.19,4.55,63.72-13.75,9.88-11.63,15.29-28.09,17.2-43,1.71-13.35,1.86-28.66-2.7-41.53C281,64.84,248.08,63,223.58,66.72c-0.91.14-4,2.45-2.1,2.16,20.3-3.1,47.56-3,60.79,15.57,5.69,8,7.58,18.06,8.14,27.68,0.85,14.54-.64,29.09-5.53,42.85-4.6,12.93-11.46,25.19-23.75,32.16-10.6,6-23.46,7.16-35.24,4.53-12.48-2.79-22.58-9.69-30.6-19.6-8.33-10.29-11.19-21.25-12.64-34.2-1.84-16.3-1-32.74,7-47.4,7-12.86,17.62-19.19,31.88-21.59C222.39,68.72,225.51,66.39,223.58,66.72Z" transform="translate(-6.95 -9.87)" style="fill:#382360"/><path d="M195.18,142.12c2.47,10.7,8.93,23,18.05,29.5,7,5,16.58,6.3,24.9,6.13s16.86-2,23.69-6.78c8-5.59,12.42-15,15.1-24.15a137.81,137.81,0,0,0,5-34.88c0.07-2.57.42-5.67-1.91-7.21-3-2-8.21-2.06-11.61-2.53-17.75-2.46-36.28-3.57-54.14-1.42-6.26.75-21.14,2.5-21.89,10.76-0.41,4.54.44,9.6,0.79,14.13a137.79,137.79,0,0,0,2,16.45c0.08,0.38,1.92-.28,1.8-0.88-1.69-8.49-2.15-17.23-2.57-25.86-0.17-3.47-.79-6.39,2.45-8.78,4.87-3.58,12.59-4.42,18.44-5a201.3,201.3,0,0,1,48,1.16c4.58,0.68,15.85.22,16.68,5.87,0.57,3.84-.12,7.87-0.42,11.71-0.37,4.72-.85,9.43-1.59,14.11-1.56,9.8-4.08,20.07-9.72,28.39-6.3,9.28-16.2,13.13-27.11,13.72-8.89.48-19.28-.82-26.62-6.28-8.81-6.55-15.1-18.57-17.53-29.08C196.89,140.85,195,141.54,195.18,142.12Z" transform="translate(-6.95 -9.87)" style="fill:#382360"/><path d="M196.75,143.64c6.82,1.2,14.85,1.52,21.51-.73a16.83,16.83,0,0,0,6.1-3.58c1.33-1.23,2.36-2.72,3.57-4.07,3.11-3.47,9.52-5.81,13.84-3.6,2.61,1.34,3.38,3.88,5.46,5.77,2.33,2.11,5.52,3.25,8.51,4a46.32,46.32,0,0,0,20.3.73c0.57-.11,1.89-1.25.63-1-7.59,1.5-17,.9-24.07-2.41-5.72-2.68-6.68-8.62-13.59-9.3-5.14-.51-9.72,2.65-12.93,6.36a37.37,37.37,0,0,1-3.18,3.57c-3,2.67-6.85,3.42-10.68,3.75a54,54,0,0,1-14.08-.61c-0.49-.09-2.06,1-1.39,1.08h0Z" transform="translate(-6.95 -9.87)" style="fill:#382360"/><path d="M200.89,119a26.08,26.08,0,0,0,1.44,13.63c0.36,0.89,4-.74,3.6-1.75a25.36,25.36,0,0,1-1.4-13.23c0.12-.94-3.49.23-3.63,1.35h0Z" transform="translate(-6.95 -9.87)" style="fill:#382360"/><path d="M267.62,119.5c1.34,5,1.59,9.78-.23,14.74-0.24.67,3.23-.23,3.63-1.35,1.87-5.08,1.56-10,.19-15.15-0.22-.82-3.9.62-3.6,1.75h0Z" transform="translate(-6.95 -9.87)" style="fill:#382360"/><path d="M185,157c-13.56-5.1-23.65,7.29-26.87,19.1-3.76,13.78-6.63,35.09,4.76,46.09,8.39,8.1,21.7,5.77,29-2.56,9.39-10.67,10-27.63,9.15-41-0.07-1.11-3.7.32-3.63,1.35,0.67,10.49.21,21.36-3.63,31.26-1.66,4.28-4,8.74-7.88,11.39-5.81,4-13.41,2.88-18.6-1.49-9.19-7.73-9-20.83-8-31.75a79.28,79.28,0,0,1,3.1-17c2.76-8.38,9.42-17.08,19.24-13.38,1.08,0.41,4-1.76,3.3-2h0Z" transform="translate(-6.95 -9.87)" style="fill:#382360"/><path d="M274.55,175.46c-0.92,3.94-.29,8.31.16,12.28a143.68,143.68,0,0,0,3.18,17.78c2.53,10.35,7.59,19.51,19.47,20.32,10.74,0.74,19.31-6.93,22.49-16.77,4-12.26.83-28.15-4.83-39.42-2.57-5.11-6.78-11.18-12.63-12.74a25.62,25.62,0,0,0-16.9,1.5c-2.11,1-1.5,2.32.63,1.29A17.75,17.75,0,0,1,306,163.43c4.54,4.73,7.22,11,9,17.26,3.55,12.3,6.51,34.64-7.81,41.62-6.41,3.13-14.6.64-19.45-4.33-3.46-3.55-4.76-8.41-5.95-13.08a143.61,143.61,0,0,1-3.24-17.12c-0.56-4.36-1.35-9.3-.34-13.66,0.19-.82-3.37.22-3.63,1.35h0Z" transform="translate(-6.95 -9.87)" style="fill:#382360"/><path d="M165.64,164.27c-7.56-9.5-18.42-16.86-28.72-23.11-9.76-5.92-23.71-9.94-27.13-21.9-3.16-11.08-6.38-22.42-8.8-33.67-1.73-8-2.71-17.44-6.42-24.86-3.22-6.44-11.91.25-15.41,2.95a49.59,49.59,0,0,0-9.91,10C66.16,77.92,67.09,82,67.93,87c0.91,5.36,2.22,10.65,3.37,16,1.28,5.94,2,12,3.39,17.91s3.51,12.11,7,17.28S90.17,147.5,93.44,153c3.94,6.54,6.43,13.84,10.5,20.31a74.75,74.75,0,0,0,12.79,15.24c11.56,10.59,25.81,18.23,40.67,23,0.55,0.18,2-.91,1.65-1-23.12-7.49-45.4-22-56.64-44.12-2.64-5.21-4.78-10.75-8-15.66S86.79,142,83.52,137.24c-6.62-9.7-7.66-21.44-9.88-32.62-0.94-4.73-2.12-9.41-3.08-14.14-1.08-5.31-3.11-11.78,0-16.61s8.11-9.15,13-12.31c2.28-1.49,6.13-3.78,8.63-1.37,1.07,1,1.54,3.63,2,5.05,2.41,7.46,3.73,15.21,5.45,22.84C102,98.77,105,109.59,108,120.14c3.21,11.21,15,14.85,24.27,20.26,11.28,6.58,23.39,14.46,31.58,24.75,0.37,0.46,2.06-.55,1.8-0.88h0Z" transform="translate(-6.95 -9.87)" style="fill:#382360"/><path d="M88.8,58.33c1.66-7.77.15-15.83-1.87-23.39-2.07-7.72-5.36-13.48-11.64-18.54C69.87,12,64.95,9.58,57.9,9.9c-4.4.2-9,1.16-12,4.52-9.09,9.87-3,22.07,6,29.4,2.26,1.85,5.59,3.39,7.32,5.76,2.25,3.08,1.75,7.41,2,11,0.39,6,2,10.46,6.76,14.22,0.82,0.65,4.15-1.36,3.3-2-4.74-3.76-6.13-8.24-6.46-14.21-0.25-4.62,0-9.36-3.86-12.56C53.49,39.91,42.79,33.06,45,21.66A12.59,12.59,0,0,1,49.7,14c3-2.28,7.21-2.23,10.9-1.64,6,1,11.72,5.79,15.73,10.12,4.18,4.51,5.9,9.89,7.38,15.74,1.77,7,3,14.35,1.45,21.51-0.18.85,3.39-.22,3.63-1.35h0Z" transform="translate(-6.95 -9.87)" style="fill:#382360"/><path d="M311.44,166.55c6-3.72,12.13-7.3,18.23-10.9,5.9-3.48,11.65-7.75,18.1-10.12,4.57-1.68,9.38-2.78,13.78-4.9s9.19-3.45,13.81-5.32c4-1.64,6.28-3.85,9.09-7.16q6.63-7.78,13.87-15t15-13.76c5.06-4.3,10.65-10.28,17.12-12.33,5.17-1.65,6.53,4,7.91,7.92,2.31,6.63,4.13,13.51-.24,19.67-3.28,4.63-7,9-10.27,13.64-3.9,5.5-7.54,11.37-11.92,16.5a135.19,135.19,0,0,1-19,17.94,58.82,58.82,0,0,1-6.23,4c-2.38,1.44-3.72,3.7-5.24,6-14.47,21.6-41.89,35.47-67.39,38.69-0.92.12-4.05,2.4-2.1,2.16,22.71-2.87,44.56-13.6,61.88-28.39a58.58,58.58,0,0,0,10.36-12.31c1-1.5,2.07-3.79,3.42-4.91a32.8,32.8,0,0,1,3-1.57c7.38-4.6,14-11.13,20-17.31,8.67-8.85,14.83-19.71,22.31-29.53,3.86-5.07,8-9,7.5-15.78a42.13,42.13,0,0,0-4.24-14.91c-1.75-3.58-3.59-5.2-7.51-4.13-4.91,1.35-9.34,4.26-13.31,7.36a263,263,0,0,0-31.06,28.72c-2.95,3.19-5.59,6.75-8.64,9.84s-7,3.94-11.06,5.27c-5.84,1.9-11.2,4.85-17.08,6.77-6.49,2.12-11.77,5.27-17.62,8.77-8,4.78-16.09,9.43-24,14.33-2.32,1.44.15,1.66,1.56,0.78h0Z" transform="translate(-6.95 -9.87)" style="fill:#382360"/><path d="M438.3,84.59c2.37-11.33,6.87-21.8,15.36-29.8,5.08-4.78,10.74-7.65,18-6.72A12.24,12.24,0,0,1,479,52c2.06,2.36,1.85,5.22,1.42,8.16-1,6.65-4.36,12.76-10.22,16.25-3.39,2-7.36,3.32-10,6.44-2.77,3.29-2.3,7.13-3.09,11.09-1.21,6-6.38,12.14-13.1,11.53-1-.09-4.08,2-2.79,2.17,8.06,0.74,15.43-4.75,18.55-11.78,2.63-5.91.07-12,6.67-15.85,4.2-2.46,8.41-4.25,11.68-8,6.16-7.09,10.37-21-.8-25.36-8.39-3.24-18.23,1-24.5,6.49-10,8.76-15.49,19.85-18.21,32.83-0.18.85,3.4-.22,3.63-1.35h0Z" transform="translate(-6.95 -9.87)" style="fill:#382360"/><path d="M290.43,271.8c0-9.93-5.4-23.5-12.9-30.29-10.24-9.27-26.46-12.38-39.86-11.93a76.64,76.64,0,0,0-38.87,12.33c-11.24,7.58-13.78,22.35-16.12,34.78-0.18.95,3.72-.24,3.95-1.46,2.2-11.71,4.41-26.57,15.33-33.42a68,68,0,0,1,40.29-9.69c11.19,0.88,25.38,4.14,33.12,13,6.14,7.06,11.07,18.77,11.12,28.1,0,1.16,4-.31,3.95-1.46h0Z" transform="translate(-6.95 -9.87)" style="fill:#382360"/><path d="M182.68,311c0.21,12.13,4.31,24.9,10,35.52,6,11.18,16.06,17.12,28.23,20.16,11.92,3,22.91,2.13,34.5-1.58,9-2.89,18.34-6.84,23.83-14.93,8.9-13.12,12.57-29.78,11.55-45.45-0.08-1.21-4,.35-3.95,1.46,1,15.5-2.52,31.94-11.32,44.92-6.87,10.13-23.53,14.83-35.32,15.24-14.5.51-32.68-4.89-41.07-17.46-7.4-11.07-12.31-26-12.54-39.35,0-1.17-4,.32-3.95,1.46h0Z" transform="translate(-6.95 -9.87)" style="fill:#382360"/><path d="M196.73,322.6c-0.53,9.57,6.49,20.58,13.7,26.44,8.34,6.77,21.86,6.52,32,6.23,9.52-.27,18.36-4,24.49-11.46,5.66-6.86,10.31-18.06,9.65-27.05-0.09-1.21-4,.36-3.95,1.46,0.55,7.43-2.78,16.61-6.72,22.8-3,4.76-7.13,8.79-12.57,10.6-4.92,1.64-10.28,1.41-15.39,1.25-9.27-.29-19.52-1.19-26.27-8.25-5.62-5.89-11.46-15-11-23.49,0.06-1.1-3.88.28-3.95,1.46h0Z" transform="translate(-6.95 -9.87)" style="fill:#382360"/><path d="M185,276.67c13.92-6.81,31.34-8,46.64-8.23,17.93-.32,36.78.42,54,5.62,1.22,0.37,4.32-2,3.58-2.21-18-5.43-37.76-6.24-56.5-5.72-16.08.44-33.8,2-48.44,9.14-2.28,1.11-1.63,2.54.69,1.41h0Z" transform="translate(-6.95 -9.87)" style="fill:#382360"/><path d="M182.7,276.69c-2.94,11.43-4.38,29.22,2.95,39.37,6.66,9.22,22.62,10,31.38,3.46,5.43-4,8.24-10.68,13.51-14.85,6.67-5.27,14.55.11,20,4.19s9.09,8.4,16.11,9.58c5.81,1,11-.44,16.17-3.2,6.56-3.53,8.24-10,9.76-16.92,2-9,1.93-18.33-2.17-26.72-0.48-1-4.36.89-3.87,1.89,3.3,6.76,4,14.14,3,21.54a63.42,63.42,0,0,1-2.26,10.07,30.08,30.08,0,0,1-1.71,4.8c-1.67,3.3-5.17,5.16-8.67,6.09-12.77,3.38-19.36-8.61-29.07-13.8-8-4.28-16.85-1.12-22.54,5-5.37,5.74-9.13,13.53-17.91,14.07-6.41.4-13.3-1.31-17.43-6.51-4.4-5.54-5.09-13.43-5.22-20.22a72.15,72.15,0,0,1,1.93-19.24c0.22-.86-3.6.23-3.92,1.45h0Z" transform="translate(-6.95 -9.87)" style="fill:#382360"/><path d="M242.25,280.17a77.34,77.34,0,0,0,13.18-.67c0.85-.15,2.29-0.55,2.76-1.35,0.33-.56.53-1.17-0.48-1a72.86,72.86,0,0,1-12.43.66,4.48,4.48,0,0,0-2.79,1.05c-0.28.24-1.25,1.3-.23,1.3h0Z" transform="translate(-6.95 -9.87)" style="fill:#382360"/><path d="M233.62,277.92c-5.11,0-10.17-.35-15.21.67-1.23.25-4.11,2.73-1.38,2.18,4.47-.9,9-0.51,13.56-0.49a4.33,4.33,0,0,0,2.79-1.05c0.26-.25,1.26-1.3.23-1.3h0Z" transform="translate(-6.95 -9.87)" style="fill:#382360"/><path d="M194.85,288.2c-0.06,4.88-.52,12,3.55,15.54s10.48,1.72,15,.21c1.71-.57,3.2-2.8.38-1.86-4.68,1.56-10.74,2.5-13.39-2.74-1.9-3.78-1.68-8.5-1.63-12.61,0-1.14-3.93.3-3.95,1.46h0Z" transform="translate(-6.95 -9.87)" style="fill:#382360"/><path d="M258.46,301.74a22.17,22.17,0,0,0,15.19-.15c5.67-2.37,7-9.29,6.49-14.85-0.11-1.23-4,.37-3.95,1.46,0.3,3.27.22,10.54-3.47,11.91-2.89,1.07-7.84.53-10.68-.59-1.17-.46-4.39,1.89-3.58,2.21h0Z" transform="translate(-6.95 -9.87)" style="fill:#382360"/><path d="M163.64,223.63c-5.55,25.06-8,51.16-9.85,76.72-0.45,6.22-2.36,15.16,2.92,19.75,4.23,3.69,14.7,3.83,19,0,3.72-3.28,3-11.69,3.38-16.17,0.59-6.62,1-13.25,1.78-19.86,2.37-20.64,6.45-41.08,8.27-61.79,0.09-1-3.54.24-3.63,1.35-1.41,16-4.28,31.71-6.46,47.56-1.92,13.93-2.75,27.91-4.36,41.86-0.3,2.63,0,6.13-2.89,7.18-5.15,1.84-12.22-.73-14.19-5.8-2.07-5.33-.36-13.53.07-19.14,0.91-12,1.84-23.95,3.6-35.83,1.83-12.36,3.26-25,6-37.18,0.19-.84-3.38.22-3.63,1.35h0Z" transform="translate(-6.95 -9.87)" style="fill:#382360"/><path d="M290.37,224.1c0.82,9.94,2.66,19.77,3.4,29.72,0.72,9.62.49,19.31,1,28.95,0.49,8.57.84,17.27,1.91,25.79,0.9,7.17,4.18,11.16,11.87,10.81,4.51-.2,9.85-1.93,12.62-5.71,3.53-4.82,3.1-11.94,2.8-17.58-0.65-12.65-1.65-25.35-2.81-38-1.22-13.27-2.82-27-6.11-39.93-0.21-.81-3.89.61-3.6,1.75,5,19.78,6.52,40.93,7.81,61.24,0.38,6,1,12.12,1.15,18.18,0.21,6.46.49,15.08-6.88,17.38-3.73,1.16-9.37.39-11.53-3.23-1.84-3.07-1.85-7.56-2.11-11-0.59-7.85-1.22-15.71-1.63-23.58-0.47-9.11-.25-18.27-1-27.36-0.78-9.65-2.53-19.19-3.33-28.84-0.09-1.12-3.72.34-3.63,1.35h0Z" transform="translate(-6.95 -9.87)" style="fill:#382360"/><path d="M156.13,319.74c-8.9,6.26-9.46,21.77-7.4,31.41,1.09,5.1,2.67,12.45,6.77,16.1,4.28,3.8,11.64,3.95,17,3.32,4.42-.52,9-1.77,11.93-5.35,3.76-4.6,5-11.4,5.78-17.11,1.33-10-1.12-27.13-12.46-30.79-1.48-.48-5.34,2.42-4.41,2.72,8.47,2.74,12.57,15.76,12.53,23.76a52.51,52.51,0,0,1-2.6,15.69c-0.69,2.11-1.62,5.43-3.44,6.9-2.09,1.68-6,1.56-8.62,1.5-4.52-.1-9.82-1-12.54-5s-4.12-9.42-5.12-14.11c-1.7-8-1.77-23.47,5.74-28.75,2.79-2-1.94-1.17-3.15-.31h0Z" transform="translate(-6.95 -9.87)" style="fill:#382360"/><path d="M286.72,319.92c0.22,6.88-6,12-6.84,18.68-0.65,5.34-.56,12.35.94,17.56,3.24,11.21,14.91,16.72,26.12,14.46,10.46-2.11,17.36-11.06,18.77-21.28,1.86-13.52-6.08-24.19-14-34.28-0.95-1.21-5.38,1.43-4.7,2.29,5.8,7.42,12.38,15.42,13.89,25,2,12.82-4.57,28.18-19.8,25.51-4.56-.8-10.76-3.78-13-8a29.43,29.43,0,0,1-3.41-14c-0.11-5.5-.49-10,2.06-15.1,2-3.92,4.88-8.09,4.73-12.62,0-1.42-4.8.4-4.75,1.76h0Z" transform="translate(-6.95 -9.87)" style="fill:#382360"/><path d="M229.9,368.35c-2.55,24.55-2,48.71,4.38,72.62,0.22,0.82,3.9-.62,3.6-1.75-6.4-23.77-6.88-47.82-4.35-72.21,0.1-1-3.52.24-3.63,1.35h0Z" transform="translate(-6.95 -9.87)" style="fill:#382360"/><path d="M155.12,365.74c-2.42,17.19.43,33.47,7,49.35,2.85,6.85,6.22,13.13,12,17.92a36.37,36.37,0,0,0,22.74,8.07c1,0,4-2.15,2.79-2.17a35.43,35.43,0,0,1-22.8-8.41c-5.79-5-8.92-11.59-11.73-18.54-6.2-15.32-8.76-31-6.44-47.56,0.13-.93-3.48.23-3.63,1.35h0Z" transform="translate(-6.95 -9.87)" style="fill:#382360"/><path d="M178,368.35c0,23.88-.13,55.71,19.83,72.74,0.78,0.66,4.15-1.31,3.3-2-19.69-16.79-19.47-48.59-19.5-72,0-1.06-3.64.28-3.63,1.35h0Z" transform="translate(-6.95 -9.87)" style="fill:#382360"/><path d="M294.16,369.15c-0.06,13.5-3.7,25.36-9.78,37.26-5.57,10.89-10.63,21.9-18.74,31.24-1.32,1.52,2.36.4,3-.32,8.27-9.52,13.49-20.66,19.17-31.77,6.17-12.07,9.93-24,10-37.75,0-1.06-3.63.28-3.63,1.35h0Z" transform="translate(-6.95 -9.87)" style="fill:#382360"/><path d="M315.15,366.32c0.3,14.58-3.24,27.55-10.1,40.37-7.46,13.93-21,23.32-35.73,28.31-1.57.53-2.94,2.59-.35,1.71C283,432,296.91,423.39,305.42,411a78.59,78.59,0,0,0,13.36-46c0-1.08-3.66.3-3.63,1.35h0Z" transform="translate(-6.95 -9.87)" style="fill:#382360"/><path d="M267.84,436.08c-4.11,3.32-11,3.3-16,3.53-5.32.24-10.64,0-16,.11-12.67.16-25,1.35-37.56-.86-1-.17-4.13,1.93-2.79,2.17,14.58,2.55,29,.8,43.63.87,9.86,0.05,22.86,1,31-5.59,2-1.61-1.47-.95-2.36-0.23h0Z" transform="translate(-6.95 -9.87)" style="fill:#382360"/><path d="M154.35,384.54A89.39,89.39,0,0,0,143,419.47c-0.78,6.92-1.34,13.85-1.93,20.79s-1.62,13.66-1.51,20.47c0.09,5.6,1,11.72,5.08,15.87,3.57,3.62,9.1,4.93,13.92,5.94,9.33,2,19.19-.81,27.22-5.81,12.47-7.78,25-20.65,28.68-35.26,0.2-.8-3.35.22-3.63,1.35-4.05,16.09-20,32.62-35.94,37-10.77,3-26.83.3-30.53-11.83-2.22-7.26-.89-15.15-0.22-22.55s1.22-14.56,1.93-21.83c1.38-14.15,4.47-27.5,11.7-40,0.66-1.14-2.91,0-3.42.86h0Z" transform="translate(-6.95 -9.87)" style="fill:#382360"/><path d="M258,441.25a86.11,86.11,0,0,0,15.15,21.2c5.06,5.25,10.74,10.71,17.53,13.61,11.34,4.85,24.39,2.67,35.21-2.49a55.08,55.08,0,0,0,26.82-27.11c7.17-15.77,9.76-34.28,11.86-51.34a229.7,229.7,0,0,0,1.68-33.75c-0.19-7.71.61-18-5.72-23.62-0.76-.67-4.14,1.29-3.3,2,5.69,5,5.11,14.07,5.33,21A229.58,229.58,0,0,1,362,385.9a272.34,272.34,0,0,1-7.59,46.39c-3.55,13.84-9.55,26.85-21.4,35.4-10.83,7.82-25.64,11.74-38.44,6.57-7.17-2.89-13.19-8.66-18.42-14.19a85.8,85.8,0,0,1-14.56-20.58c-0.46-.92-4.06.83-3.6,1.75h0Z" transform="translate(-6.95 -9.87)" style="fill:#382360"/><path d="M321.92,322.55c5.16-4.4,10.57-8.51,15.84-12.78,5.56-4.5,9.87-9.41,14.65-14.76,7.41-8.29,15.18-16.25,23.21-23.93,3.44-3.29,6.77-6.69,10.23-10,2.44-2.31,11-11.19,14.7-9.8,1.83,0.68,3.35,4.69,4.12,6.25,1.51,3.07,2.8,6.25,4.06,9.42,0.76,1.93,1.94,4.11,2.19,6.16,0.56,4.59-3.9,6.78-7.06,9.14-7.57,5.64-11.56,14.83-18.79,20.93-6.51,5.49-14.05,9.74-18.78,17.05C359.34,331,352.48,341.4,343.94,351q-5.78,6.47-12.13,12.4c-2.77,2.58-12.45,13.21-16.85,9.92-0.84-.63-4.15,1.4-3.3,2,5.57,4.17,13.81-4,17.67-7.36a194.41,194.41,0,0,0,24.55-25.54,192,192,0,0,0,11.59-16.14c3.76-5.86,6.93-11.11,12.43-15.52,3.83-3.07,7.93-5.78,11.55-9.1,5-4.55,8.43-10.25,12.75-15.35,4-4.67,14.25-8.26,12.17-15.9a71,71,0,0,0-7.95-18c-0.92-1.46-2-3.26-3.82-3.58-3.1-.54-8.3,3.43-10.56,5-8.89,6.09-16.41,14.6-24.07,22.12q-8.26,8.11-16.07,16.67c-3.84,4.22-7.27,9-11.52,12.82-6.66,6-14,11.11-20.81,16.91-2,1.67,1.49,1,2.36.23h0Z" transform="translate(-6.95 -9.87)" style="fill:#382360"/><path d="M403,248.85c1.84-3.92,5.76-6.5,8.87-9.41,3.5-3.28,7.41-6.42,11.18-9.4a45.56,45.56,0,0,1,11.76-6.91c2.32-.81,5.33-0.78,6.39,1.49,0.74,1.59.47,4.07,0.7,5.73,0.55,4,1.64,7.58-.09,11.44A89.16,89.16,0,0,1,435,253.41a38.13,38.13,0,0,0-5,10.48c-1.94,6.54-10.1,11.38-16.57,11.86-0.94.07-4.09,2.3-2.1,2.16,9.6-.71,20.07-7.29,22.61-16.8,1.8-6.74,7.35-12.46,10.5-18.65,2.74-5.38,1.71-10,1-15.84-0.61-4.72-1.08-6.33-6-6.06s-8.74,3.11-13.22,5.38c-5.34,2.71-9.91,7.46-14.5,11.25-4.16,3.44-9.78,7.52-12.12,12.52-0.59,1.25,3,.05,3.42-0.86h0Z" transform="translate(-6.95 -9.87)" style="fill:#382360"/><path d="M156.44,373.86c-13.77-1.06-25.81-8.47-36.16-17.16a102.37,102.37,0,0,1-14-14.43c-4-5-7.18-10.57-11.16-15.57-1.5-1.89-3.1-3.71-4.47-5.7s-2.19-5.08-3.75-6.6c-1.33-1.3-3.45-2.18-4.95-3.34a83.11,83.11,0,0,1-8.4-7.63C65.3,294.94,57.78,285.7,54,274.33a84,84,0,0,0-6.74-16.25c-1.62-2.82-3.71-6.24-2.68-9.66,0.7-2.34,3-4.86,4.36-6.82a29.3,29.3,0,0,1,4.37-5.42c1.13-.95-0.75-1.85,1.77.21,1.4,1.14,2.88,2.17,4.27,3.33a96.06,96.06,0,0,1,8.94,8.87c10.27,11.12,20.79,22,31.3,32.91,2.94,3,6.34,4.59,10.07,6.67,4.85,2.7,9.63,5.51,14.26,8.58,11.45,7.59,24,15.72,30.7,28.11,0.5,0.93,4.07-.87,3.6-1.75C152,311.57,140.86,304,130.32,296.79q-6.6-4.53-13.54-8.51c-4.26-2.45-9.52-4.35-12.95-7.89-11.17-11.55-22.42-23.07-33.22-35a80.28,80.28,0,0,0-10.75-10c-3.21-2.45-4.61-3.17-7.81-.56-3.48,2.83-6.23,7-8.65,10.71-1.06,1.64-2.48,3.44-2.73,5.39-0.33,2.59,1.1,5.39,2.29,7.58a83.9,83.9,0,0,1,4.21,7.71c1.54,3.71,2.5,7.66,3.81,11.45,2.21,6.42,5.69,11.76,9.88,17.05A126.58,126.58,0,0,0,73.3,308.42a70.31,70.31,0,0,0,6.42,5.45,22.4,22.4,0,0,1,6.3,7.23c3.45,5.6,7.94,10.66,11.65,16.11a108.41,108.41,0,0,0,15.07,17.74c11.19,10.59,25.2,19.87,40.93,21.08,1,0.08,4.07-2.07,2.79-2.17h0Z" transform="translate(-6.95 -9.87)" style="fill:#382360"/><path d="M55.93,232c-2.09-13.09-6.44-27.09-18.31-34.57-8.54-5.38-21.29-7-27.41,2.85-3.43,5.53-4.51,12.38-1.48,18.28A14.81,14.81,0,0,0,14.49,225c2.72,1.54,6.16,2.17,8.32,4.56,4,4.48,1.56,11.66,5.89,16.27,3.69,3.94,8.07,4.56,13.31,4.64,1,0,4-2.15,2.79-2.17-5.08-.07-9.3-0.66-12.82-4.56-3.09-3.43-2.67-7.9-3.75-12.13-1.27-5-5.08-6-9.34-8.1a15.7,15.7,0,0,1-8.35-14.32A18.58,18.58,0,0,1,13.27,200c2.8-4.2,7.09-5.48,11.84-4.54,5.61,1.11,11.17,4.65,15,8.77,7.54,8,10.49,18.93,12.18,29.5,0.12,0.73,3.79-.54,3.6-1.75h0Z" transform="translate(-6.95 -9.87)" style="fill:#382360"/><path d="M307,394.86c6.53,0,13.66-1.17,19.19-4.86a18.06,18.06,0,0,0,5.83-6.79c2.58-4.69,2.39-9,2.29-14.21,0-1.08-3.65.29-3.63,1.35,0.12,6.27.11,11.41-3.88,16.68-3.68,4.86-11.31,5.69-17,5.66-1,0-4,2.16-2.79,2.17h0Z" transform="translate(-6.95 -9.87)" style="fill:#382360"/><path d="M336.12,311c0-8.07-.93-16.25,1.41-24a37.64,37.64,0,0,1,12.55-19.17,39.31,39.31,0,0,1,16.78-7.67c2.57-.53,12.67-3.24,12.93,1.35,0.06,1.11,3.69-.32,3.63-1.35-0.28-4.94-8.56-3.21-11.61-2.71-6.22,1-11.82,2.37-17.21,5.76-7.25,4.55-14.12,9.74-18,17.7a44.33,44.33,0,0,0-4.25,13.4c-0.68,5.83.08,12.2,0.08,18.08,0,1.06,3.63-.28,3.63-1.35h0Z" transform="translate(-6.95 -9.87)" style="fill:#382360"/></svg>