<svg id="Layer_3" data-name="Layer 3" xmlns="http://www.w3.org/2000/svg" viewBox="0 0 455.63 181.44"><title>skydiving</title><path d="M174.41,218.38c-3.56-4.7-7.27-8.28-13-10.07-2.33-.72-5-1.19-7.43-1.73a27.83,27.83,0,0,0-3.46-.57,33.69,33.69,0,0,0-9.08.14,22.33,22.33,0,0,0-11.55,5.24,24.6,24.6,0,0,0-8.8,17.44c-0.17,1.78-1.5,6.56,0,8,1,0.94,5.48-.4,6.58-0.63,6.27-1.35,13.49-2.86,19.5-5.22,2-.78,3.86-1.81,5.82-2.65,3.45-1.48,7-1.93,10.54-3.09,3.33-1.1,9.2-3.09,11-6.51,0.31-.6-1.48,0-1.71.43-1.25,2.41-6.21,4.18-8.54,5-2.76,1-5.69,1.28-8.48,2.16a73.46,73.46,0,0,0-7.53,3.36c-4.64,2.06-10,2.65-14.92,4-2.61.74-6,2.56-8.73,2-3.44-.67-1.94-5.13-1.72-7.61C124,215.33,133.73,206,147,206.82a34,34,0,0,1,7.16,1.46c2.49,0.7,5.06.83,7.47,1.85,4.71,2,7.94,5.06,11,9.13,0.35,0.46,2.06-.53,1.8-0.88h0Z" transform="translate(-24.23 -133.55)" style="fill:#381860"/><path d="M133.34,236.63c-4.65,7-5.74,16.72-1,23.82,0.31,0.47,2.05-.5,1.8-0.88-4.65-6.92-3.67-16.54.89-23.37,0.35-.53-1.43,0-1.71.43h0Z" transform="translate(-24.23 -133.55)" style="fill:#381860"/><path d="M158.48,229c-0.87,4-1.24,6.87-.35,11.07,1.13,5.36,2.3,10.82,5.16,15.55,0.28,0.47,2-.47,1.8-0.88-2.57-4.25-3.83-9.16-4.88-14a26.23,26.23,0,0,1,.09-12.43c0.09-.42-1.7.11-1.82,0.67h0Z" transform="translate(-24.23 -133.55)" style="fill:#381860"/><path d="M166.33,227.49c6.78-.2,14.11,2,18.47,7.49,3.19,4,3.83,8.74,4.2,13.64,0,0.56,1.86-.17,1.82-0.67-0.43-5.66-1.33-11.38-5.75-15.55-4.9-4.62-11.16-6.18-17.7-6-0.47,0-2.06,1.11-1,1.08h0Z" transform="translate(-24.23 -133.55)" style="fill:#381860"/><path d="M174.68,217a34.8,34.8,0,0,1,7.42.48,10.11,10.11,0,0,1,3.56,1.35,5.39,5.39,0,0,0,1.81,1.1c0.48,0.11,2.07-.93,1.39-1.08-0.92-.21-1.88-1.25-2.76-1.66a14.36,14.36,0,0,0-3.36-1,37.7,37.7,0,0,0-6.68-.25c-0.49,0-2,1.08-1.39,1.08h0Z" transform="translate(-24.23 -133.55)" style="fill:#381860"/><path d="M221.07,233.94c1.86-5.29,2.06-10.44-1.71-15.13a16,16,0,0,0-11.1-5.61,22.31,22.31,0,0,0-12.05,2.46c-2.8,1.53-8.2,4-9.17,7.3-1.51,5.18,2.19,11.69,6.29,14.56,3.06,2.14,5.9,1.1,9-.55a28.5,28.5,0,0,0,4.12-2.78,18.51,18.51,0,0,1,1.8-1.5c4.21-2.35,4.83-.31,7.42,1.43,1.74,1.17,4.45,2.1,5.76-.19,0.33-.58-1.46,0-1.71.43,0.11-.2-6.74-3.94-8.19-3.81-2.34.21-3.92,1.7-5.67,3.08s-3.56,2.88-5.55,3.52c-6.09,2-10.77-5.82-11.36-10.93-0.56-4.84,2.38-6.49,6-8.84a19.61,19.61,0,0,1,15.75-2.27,14.71,14.71,0,0,1,8.27,6.72c2.4,4.25,1.82,8.45.29,12.79-0.12.34,1.62-.11,1.82-0.67h0Z" transform="translate(-24.23 -133.55)" style="fill:#381860"/><path d="M218.32,237.55c-0.17,1.72-.75,4.42-1.89,5.78a17.79,17.79,0,0,1-2.65,2.22,18.48,18.48,0,0,1-3.18,2.11c-1.28.62-2.63,0.42-3.94,0.85-0.79.26-1.47,1.29-.17,0.86,1.52-.5,3-0.27,4.5-1.05a30.22,30.22,0,0,0,4.44-2.94,17.15,17.15,0,0,0,2.75-2.44c1.19-1.43,1.79-4.28,2-6.06,0-.48-1.76.12-1.82,0.67h0Z" transform="translate(-24.23 -133.55)" style="fill:#381860"/><path d="M198.46,239.68c0,3.41-.51,6.35,1,9.64a9.08,9.08,0,0,0,6.25,4.56c0.49,0.08,2.06-1,1.39-1.08a8.51,8.51,0,0,1-6.1-5.06c-1.11-3-.72-5.67-0.76-8.73,0-.54-1.82.15-1.82,0.67h0Z" transform="translate(-24.23 -133.55)" style="fill:#381860"/><path d="M197.54,248.8a7.71,7.71,0,0,0-4.72,1.18c-0.82.55-1.57,1.23-2.37,1.8a10.52,10.52,0,0,0-2.08,1.78c-0.65.77,1.18,0.2,1.49-.16a15,15,0,0,1,2.51-2c0.41-.32.8-0.7,1.23-1a4,4,0,0,1,2.55-.54c0.49,0,2-1.06,1.39-1.08h0Z" transform="translate(-24.23 -133.55)" style="fill:#381860"/><path d="M184.47,251a88.88,88.88,0,0,1-2.14,12.28,43.45,43.45,0,0,1-1.85,6.26c-0.64,1.68-2.63,4.53-2.6,6.14,0.06,3.06,4.92,5.88,7.11,7.48,3,2.23,5.76,5.51,9,7.33,0.49,0.27,2.06-.79,1.65-1-2.89-1.61-5.1-4.54-7.81-6.49a52,52,0,0,1-6.33-5c-1.73-1.71-1.71-2.38-1.06-4.52,2.34-7.73,5.23-15,5.82-23.19,0-.5-1.78.12-1.82,0.67h0Z" transform="translate(-24.23 -133.55)" style="fill:#381860"/><path d="M196.54,293.07c3.15,0,3.82,1.1,4.57,4a6.11,6.11,0,0,0,2.24,3.68c2.6,2.27,6.75,3.62,8.15,6.89,3.63,8.46-7.53,6.34-11.35,3.5A16.12,16.12,0,0,1,194,298.05c0-.53-1.82.14-1.82,0.67,0,6.11,2.9,11.94,8.49,14.81,3.13,1.61,9.72,2.46,12.46-.63,1.13-1.27.81-3.23,0.49-4.79-0.65-3.11-2.65-4.19-5.16-5.84a34.37,34.37,0,0,1-2.95-2.07c-2.44-2-1.92-2.42-2.71-5.1s-2.27-3.13-4.88-3.13c-0.49,0-2,1.08-1.39,1.08h0Z" transform="translate(-24.23 -133.55)" style="fill:#381860"/><path d="M112.84,258c1.56,0.25,3,1.52,4.48,2.11a25.67,25.67,0,0,0,5.45,1.53c4.5,0.79,9.61,1.2,14.09.14,8.34-2,21.07-12.1,28.56-3.49,0.4,0.45,2.06-.58,1.8-0.88-4.54-5.21-13.87-3.61-19.51-1-2.76,1.27-5.16,2.87-8.09,3.76a33,33,0,0,1-13.81.66,28.24,28.24,0,0,1-7.67-2.1c-1.32-.61-2.46-1.57-3.89-1.8-0.49-.08-2.06,1-1.39,1.08h0Z" transform="translate(-24.23 -133.55)" style="fill:#381860"/><path d="M113.91,259.68c-4.94,2.23-11,2.47-16.35,3.28-7.41,1.13-17,2.64-24.15,0C62,258.72,55.95,247.44,47.92,239c-0.42-.44-2.05.61-1.8,0.88,8.36,8.77,15.64,22.73,28.73,25.16,7.31,1.35,15.84-.15,23.11-1.1,5.36-.7,11.3-1.41,16.25-3.65,1.07-.48.76-1.13-0.32-0.65h0Z" transform="translate(-24.23 -133.55)" style="fill:#381860"/><path d="M104.23,241.73c-11.13-.15-20.56,5-28.88,11.95-1,.82.74,0.48,1.18,0.12,2.6-2.19,6-4.32,8.84-6.23,4.91-3.33,11.51-4.83,17.47-4.75,0.49,0,2-1.08,1.39-1.08h0Z" transform="translate(-24.23 -133.55)" style="fill:#381860"/><path d="M78.24,249.33c-6-.54-12-3.6-17.34-6.43A60.61,60.61,0,0,1,47,232.11c-0.43-.44-2.05.62-1.8,0.88a60.45,60.45,0,0,0,14.06,10.93c5.42,2.9,11.4,5.95,17.59,6.5,0.49,0,2-1,1.39-1.08h0Z" transform="translate(-24.23 -133.55)" style="fill:#381860"/><path d="M44.06,231.84c-2.51-3.41-5.66-10.08-10.76-6.89-6.24,3.9-6.16,15.12-7.9,21.27-0.86,3.06-2.52,7.79.94,9.89,1.65,1,4.2.85,6,.27s4.58-2.08,5.43-3.85c0.69-1.45.61-3.82,0.76-5.43,0.13-1.38-.79-10.86,3.73-7.12,0.4,0.33,2.07-.67,1.65-1-1.75-1.45-5.36-1.37-6.72.88-1.09,1.81-.24,5.07-0.38,7.13-0.26,3.92-2.64,12.18-8.77,8.12-3.46-2.29-1.36-7.24-.51-10.31,0.81-2.89,1-5.9,1.77-8.84s2.87-12.34,7.54-10.19c2.27,1,4.08,5.06,5.48,7,0.34,0.47,2.06-.53,1.8-0.88h0Z" transform="translate(-24.23 -133.55)" style="fill:#381860"/><path d="M117.72,224.88c-3.79-.57-7.23-3.36-10.82-4.65a83.5,83.5,0,0,0-11.33-3.13C90.9,216.16,83,216,78.61,218.43c-1,.55-0.73,1.22.32,0.65,5.71-3.12,14.41-1.12,20.27.39A52.43,52.43,0,0,1,109.58,223c2.3,1.16,4.14,2.55,6.75,2.94,0.49,0.07,2.06-1,1.39-1.08h0Z" transform="translate(-24.23 -133.55)" style="fill:#381860"/><path d="M104.53,239.7c-6.89.2-14.29-3-20.63-5.43s-13.2-4.75-14.47-12c-1-6,.56-12.52.32-18.62-0.18-4.59,1.19-9.86-1-14.12-0.24-.46-2,0.42-1.8.88,1.39,2.72,1.16,5.82,1.09,8.81-0.09,3.67.2,7.36,0,11-0.3,5.56-1.75,11.24.74,16.47,2.72,5.71,10.65,7.7,16.24,9.73s12.27,4.54,18.44,4.37c0.48,0,2.06-1.11,1-1.08h0Z" transform="translate(-24.23 -133.55)" style="fill:#381860"/><path d="M83.1,211.74A39.75,39.75,0,0,0,80,197.85c-1.68-4-2.81-8.13-5.25-11.76-0.31-.47-2.05.5-1.8,0.88,2.21,3.3,3.24,6.94,4.7,10.59,1.88,4.71,3.46,9.76,3.59,14.86,0,0.54,1.83-.15,1.82-0.67h0Z" transform="translate(-24.23 -133.55)" style="fill:#381860"/><path d="M74.47,182.28c0-2.78.95-7.31-2.07-9-1.81-1-4.6-.19-6.32.6-3,1.39-5.47,3.65-8.12,5.57-3.38,2.45-7.95,3.22-11,6-3.45,3.09-2.63,11.05,2.77,11.19,6.75,0.17,10.63-10.82,17.34-8.5,0.55,0.19,2-.9,1.65-1a8.28,8.28,0,0,0-6.75.84c-3.15,1.7-12.08,11.95-14.82,4.61s6.48-9,10.85-12c2-1.4,3.71-3.18,5.85-4.43,2.51-1.46,6.64-3.58,8.55.11,0.86,1.65.3,4.93,0.28,6.7,0,0.53,1.81-.14,1.82-0.67h0Z" transform="translate(-24.23 -133.55)" style="fill:#381860"/><path d="M180.31,212.69c-0.28-8.85,5.17-20.33,12-25.67,5-3.86,11.58-5.22,17.63-6.53,5.15-1.12,9.92-3.37,15.32-3.36,0.49,0,2-1.08,1.39-1.08-6.16,0-11.62,2.51-17.54,3.71-5.11,1-10.43,2.4-15,5a24.28,24.28,0,0,0-10.47,11.14c-2.42,5.6-5.41,11.08-5.22,17.44,0,0.54,1.83-.15,1.82-0.67h0Z" transform="translate(-24.23 -133.55)" style="fill:#381860"/><path d="M193.93,213.07a47.13,47.13,0,0,1,1.49-10.6c0.59-2.58.85-5.78,1.77-8.15,3.33-8.59,20.23-8.69,27.72-9.72,0.46-.06,2-1.21,1-1.08-9.15,1.26-18.87,1.55-26.66,7.19-3.48,2.52-3.67,4-4.4,8-0.95,5.15-2.78,9.68-2.78,15.06,0,0.53,1.82-.14,1.82-0.67h0Z" transform="translate(-24.23 -133.55)" style="fill:#381860"/><path d="M228.64,174.91c0.13-3.35,2.44-6.4,4.4-8.94a13,13,0,0,1,3.35-3.58c4.93-3.42,12.74-.85,8.15,5.5-2.08,2.88-5.77,3.77-7.68,6.81-2.06,3.27.2-.43-1,3q1.69,2.73-2,5.37a8.38,8.38,0,0,1-3.84.6c-0.49,0-2,1.08-1.39,1.08,3.79,0,8.77-1.27,9.64-5.56,0.57-2.79-.64-4.59,2.2-7,1.47-1.23,3.19-2,4.59-3.35,1.77-1.72,3.33-3.59,2.81-6.2-1.32-6.68-10.08-2.56-13.37,0s-7.44,8.38-7.62,12.82c0,0.51,1.8-.13,1.82-0.67h0Z" transform="translate(-24.23 -133.55)" style="fill:#381860"/><path d="M238.25,211.17c-5.32.51-10.33,5-12.25,9.84-1.75,4.38-2.65,13.27,3.74,14.17a6.23,6.23,0,0,0,5.11-1.63c2.3-2.11,1.26-5.18,2.56-7.8,1.22-2.46,2.45-.74,4.12-2,2-1.54,1.45-5.79,1.39-7.91,0-.54-1.83.15-1.82,0.67a27.92,27.92,0,0,1,0,4c-0.23,1.94-.15,1.6-1.51,2.2-0.35.16-1,0-1.38,0.2-2.41,1-2.74,3.92-3.23,6.17-0.37,1.71-1.93,4.65-3.87,5-1.47.29-3-1.64-3.63-2.7-1.19-2.05-1-4.9-.71-7.18,0.72-4.95,4.85-11.44,10.41-12,0.47,0,2-1.17,1-1.08h0Z" transform="translate(-24.23 -133.55)" style="fill:#381860"/><path d="M305.07,219.32a84.9,84.9,0,0,0-14.15-17.87c-5.78-5.31-10.91-8.18-18.59-9.47-6.15-1-11.43-.8-16.34,3a45.08,45.08,0,0,0-6.6,5.64c-3,3.39-6.64,5.64-9.67,8.92-0.68.73,1.17,0.19,1.49-.16,1.86-2,4.16-3.21,6.21-5,2.5-2.14,4.1-5.13,6.74-7.14,6.16-4.71,13-5,20.31-3.45,12.85,2.76,22.23,15.79,28.8,26.36,0.29,0.47,2-.47,1.8-0.88h0Z" transform="translate(-24.23 -133.55)" style="fill:#381860"/><path d="M289.66,218.47c-2.53-4.46-6.91-6.86-11.34-9.11a81.2,81.2,0,0,1-11.86-7.88c-0.43-.32-1.44.39-1.68,0.72-2.45,3.36-7.59,5.41-11.09,7.64a23.79,23.79,0,0,1-8.94,3.72c-0.45.07-2,1.24-1,1.08,4.51-.74,7.57-2.41,11.42-4.73,3.62-2.18,8.8-4.64,11.37-8.15l-1.68.72c3.44,2.56,6.65,5.38,10.54,7.26,4.78,2.32,9.78,4.77,12.51,9.58,0.26,0.47,2-.45,1.8-0.88h0Z" transform="translate(-24.23 -133.55)" style="fill:#381860"/><path d="M286.75,231.76a22.26,22.26,0,0,0-6.78-16c-4-3.65-11.54-3.7-16.59-2.34-9.52,2.55-17.23,15-13.15,24.59,1.25,2.94,4.48,6.36,7.86,4.56,2.56-1.36,3.85-5.12,5.46-7.39,1-1.34,4.48-7.44,5.81-7.47-1.13,0,3.52,4.31,4.3,4.86,2.49,1.76,5.12,2,8.14,2.12,3.36,0.12,3.75-.65,4.77-3.83,0.12-.36-1.64.11-1.82,0.67-0.67,2.08-.1,2.21-2.67,2a13.92,13.92,0,0,1-6.29-1.7c-2-1.18-3.88-4.71-6-5.13a2,2,0,0,0-1.44.62c-1.46,1.7-2.79,3.27-4.15,5.1-1.65,2.23-3.06,5.17-5,7.11q-0.75,2.45-3.49,1.91a7.79,7.79,0,0,1-3-2.82,12,12,0,0,1-1.41-3.28c-0.83-3.45,0-7.15,1.39-10.29,1.16-2.66,2.31-5.81,4.51-7.78,4.18-3.76,11.94-4.33,17.16-2.62,6.7,2.19,10.53,11.18,10.54,17.71,0,0.53,1.82-.14,1.82-0.67h0Z" transform="translate(-24.23 -133.55)" style="fill:#381860"/><path d="M259.25,243a7.55,7.55,0,0,0,2.24,6c1.54,1.6,3.81,2.54,5.13,4.37,0.34,0.47,2.06-.52,1.8-0.88-1.08-1.5-2.77-2.45-4.2-3.57a7.59,7.59,0,0,1-3.16-6.61c0-.52-1.8.13-1.82,0.67h0Z" transform="translate(-24.23 -133.55)" style="fill:#381860"/><path d="M277.74,236.54c-0.12,3.72.81,7.41-1,10.89s-5,4.47-7.89,6.53c-1,.73.73,0.44,1.18,0.12,1.27-.9,2.9-1.22,4.16-2.19a20.82,20.82,0,0,0,3.35-3.39c2.94-3.78,1.91-8.23,2.05-12.62,0-.52-1.8.13-1.82,0.67h0Z" transform="translate(-24.23 -133.55)" style="fill:#381860"/><path d="M285.28,249.73c-0.72,2.92-3,5.44-4.29,8.12a67.39,67.39,0,0,0-3.46,8.53,65.34,65.34,0,0,0-2.17,8.28c-0.45,2.31.37,1.74-2.15,2.35-6.37,1.55-12,4.72-18.49,5.89-2.86.51-5.62,1.26-8.46,1.79-0.57.11-1.89,1.24-.63,1,4.1-.77,8.25-1.62,12.33-2.53a43.69,43.69,0,0,0,7.52-2.52c1.91-.79,3.86-1.63,5.84-2.24a27,27,0,0,0,4.07-.83c3-1.39,2.16-5.83,3-8.8a65.42,65.42,0,0,1,4.7-12.2c1.35-2.53,3.3-4.69,4-7.52,0.1-.4-1.68.11-1.82,0.67h0Z" transform="translate(-24.23 -133.55)" style="fill:#381860"/><path d="M300.52,257.09c-0.06,6.3-3.17,13.61-6.45,18.9-3,4.91-7.86,8.61-13.6,9.4-4.88.67-9.73,1.18-14.56,2.31a101.8,101.8,0,0,1-10.53,1.52c-4,.51-7.72,1.5-11.82,1.24-0.49,0-2,1-1.39,1.08a33,33,0,0,0,8.94-.69c4.49-.86,9-1,13.51-2,6.62-1.5,13.37-1.89,19.89-3.68,4-1.09,7.22-4.15,9.79-7.37,4.2-5.27,8-14.59,8-21.37,0-.53-1.81.14-1.82,0.67h0Z" transform="translate(-24.23 -133.55)" style="fill:#381860"/><path d="M241.85,282.2c-1.33-4.56-4.17-5.16-7.61-3-4.13,2.58-8.41,2-13.1,2.6-1.46.2-3.81,0.49-4.89,1.67-4,4.45,3.4,10.2,7.2,11.11,6.19,1.49,11.37.48,16.32-3.48,1-.8-0.74-0.47-1.18-0.12-4.49,3.6-12.19,4.35-17.22,1.07-1.56-1-4.48-4-4.13-6.32,0.55-3.6,5.69-3.12,8-3.2a21,21,0,0,0,7.28-1.12c0.63-.26,1.16-0.64,1.75-0.93,3-1.46,4.76-.76,5.75,2.61,0.12,0.42,2-.32,1.8-0.88h0Z" transform="translate(-24.23 -133.55)" style="fill:#381860"/><path d="M314.51,228c0-5.59.51-10.56,4-15.2,4.49-6,12.26-8,19.27-9.23,9.69-1.66,22.63,1.56,27.7,11,2.16,4,6.61,11,1.22,14.23-4.25,2.51-12.2,1.47-17.14,1.08a150.36,150.36,0,0,0-15.64-.58,61.13,61.13,0,0,0-7.53.76c-3.19.48-6.92,1.91-10,1-0.56-.17-2,0.92-1.65,1,2.59,0.76,5.11.08,7.71-.41a76.35,76.35,0,0,1,14.56-1.25c7.87,0,15.65.82,23.54,0.68,3.87-.07,7.66.06,9.65-3.74,2.59-4.95-1-11.4-3.89-15.42-7.78-10.94-22.31-11.11-33.89-8.14a31.23,31.23,0,0,0-13.52,7.13c-5.19,4.78-6.11,11.05-6.11,17.76,0,0.53,1.82-.14,1.82-0.67h0Z" transform="translate(-24.23 -133.55)" style="fill:#381860"/><path d="M310.26,226.16c-5.67-5.67-18.77-9-24.92-2.2-0.67.74,1.17,0.19,1.49-.16,2.72-3,7.75-2.28,11.38-1.79a16.45,16.45,0,0,1,10.25,5c0.44,0.44,2-.63,1.8-0.88h0Z" transform="translate(-24.23 -133.55)" style="fill:#381860"/><path d="M312.94,233.19c-7.69-.52-13.7-1.1-20.85,2.42-4.77,2.34-9.21,7.11-10.32,12.39-0.09.42,1.7-.11,1.82-0.67,1.12-5.36,6-9.85,10.79-11.85,5.68-2.35,11.26-1.6,17.17-1.2,0.49,0,2-1,1.39-1.08h0Z" transform="translate(-24.23 -133.55)" style="fill:#381860"/><path d="M318.47,235.09c-0.91,4.14-1.79,7.62-.44,11.84a31.82,31.82,0,0,0,6.39,10.51c0.4,0.45,2.06-.58,1.8-0.88a34,34,0,0,1-6-9.41c-1.79-4.56-.94-8.26.05-12.75,0.09-.42-1.69.11-1.82,0.67h0Z" transform="translate(-24.23 -133.55)" style="fill:#381860"/><path d="M360.27,233c3.84,5.17,5.54,13.68,3.39,19.77-0.12.34,1.62-.11,1.82-0.67,2.17-6.14.44-14.8-3.41-20-0.35-.46-2.06.53-1.8,0.88h0Z" transform="translate(-24.23 -133.55)" style="fill:#381860"/><path d="M302.89,258.06c11.16,2,22.54,3.24,33.94,2.45a66,66,0,0,0,16.86-3.41,62.5,62.5,0,0,1,10.53-2.94c3.75-.57,6.9.4,10.53,0.84,0.49,0.06,2-1,1.39-1.08-3.49-.42-5.93-1.29-9.52-1a34.55,34.55,0,0,0-6.45,1.27c-7.12,1.95-13.59,4.44-21,5.1-11.69,1-23.41-.2-34.86-2.29-0.49-.09-2.06,1-1.39,1.08h0Z" transform="translate(-24.23 -133.55)" style="fill:#381860"/><path d="M373.63,221.34c-0.1-6,4.28-11.82,8.21-16.09,4.91-5.35,10.86-8.74,17.21-12.1a1.06,1.06,0,0,0,.74-0.76c-0.21-1.54-2.94-3.35-3.93-4.33a64.4,64.4,0,0,1-6.1-6.81c-2.1-2.78-3.74-5.86-5.63-8.78-1.66-2.55-3.36-4.52-3.71-7.64,0-.34-1.87.25-1.8,0.88,0.4,3.58,2.79,6.16,4.64,9.12a82.12,82.12,0,0,0,6.64,9.71c1.88,2.23,4,4.28,6,6.35,0.4,0.4,2.3,2.33,2.38,1.84,0,0.27-3.89,2.07-4.15,2.23-9.2,5.27-22.54,15.13-22.34,27.06,0,0.54,1.83-.15,1.82-0.67h0Z" transform="translate(-24.23 -133.55)" style="fill:#381860"/><path d="M391.49,230.39c5-4.41,9.91-8.41,13.77-13.86a51.45,51.45,0,0,0,8.42-19.71c0.78-4,1.14-6.55-1.33-9.77-2.26-3-4.66-5.5-7.1-8.28-4.79-5.45-10.62-8.8-16.08-13.33-0.4-.33-2.07.67-1.65,1,2.36,2,5.21,3.31,7.6,5.26a80.2,80.2,0,0,1,8.32,7.93c1.87,2,3.75,3.94,5.43,6.15,2.72,3.59,4,5.25,3.37,10-1,6.9-3.83,13.25-7.43,19.16-3.77,6.2-9.12,10.6-14.51,15.36-1,.85.75,0.5,1.18,0.12h0Z" transform="translate(-24.23 -133.55)" style="fill:#381860"/><path d="M393.43,231.9c6.95-.05,14.18,1.11,20.35,4.6,5.42,3.07,7.93,8.57,10.88,13.64,0.27,0.47,2-.46,1.8-0.88-3-5.11-5.59-10.71-11-13.78-6.32-3.57-13.48-4.72-20.6-4.66-0.49,0-2,1.09-1.39,1.08h0Z" transform="translate(-24.23 -133.55)" style="fill:#381860"/><path d="M426.12,245.29c1.34-6.92,10.84-12.7,16-17,2.93-2.45,5.66-5.09,8.42-7.73a42.55,42.55,0,0,1,5.18-4.11,5.85,5.85,0,0,0,.92-1c0.49,0,2-1.08,1.39-1.08-1.67,0-2.88,1.44-4.14,2.38-4.14,3.1-7.61,6.86-11.53,10.24s-8.46,6.61-12.26,10.28c-2.42,2.33-5.13,5.34-5.79,8.72-0.08.43,1.71-.11,1.82-0.67h0Z" transform="translate(-24.23 -133.55)" style="fill:#381860"/><path d="M375.12,253.95c4.08,1.46,7.78,4.5,11.8,6.27,4.47,2,9.62,2.81,14.4,3.71,8.26,1.56,15.72,4.26,24,1.88,6.92-2,11.87-8.43,15.13-14.52,2.59-4.84,4.22-9.93,7.15-14.63,2.74-4.38,7.28-7.68,11.27-11,1-.82-0.74-0.48-1.18-0.12-2.68,2.24-5.67,4.23-8.17,6.62-2.78,2.65-4.79,6.45-6.54,9.79-4.63,8.86-7.52,20.92-18.93,23.31-7.31,1.53-15-1.14-22.15-2.55-4.84-.95-10.27-2-14.74-4.17-3.46-1.7-6.86-4.33-10.44-5.61-0.55-.2-2,0.89-1.65,1h0Z" transform="translate(-24.23 -133.55)" style="fill:#381860"/><path d="M459.44,211.37c13.5-9.44,17.93,14.52,18.58,23.1,0.19,2.57,1,3.36-2,3.85-3.28.54-3.93-1-5.13-3.68-1.07-2.36-1.7-5.07-3.09-7.26-1.65-2.59-3.9-5.38-7.2-4.28-0.79.26-1.47,1.29-.17,0.86,4-1.34,6.83,7.15,7.87,9.69,1.18,2.87,2.53,6.42,6.09,6.95,6,0.89,5.72-5.7,5.17-9.64-0.87-6.17-2.12-15.2-6.75-19.8-4.46-4.42-9.71-3.32-14.58.08-1,.73.72,0.43,1.18,0.12h0Z" transform="translate(-24.23 -133.55)" style="fill:#381860"/><path d="M379.19,160.66c-9.28-.48,2.84-13,5-15.27,4.75-4.92,16.39-17,21.87-7.36,1.89,3.31,2.15,8.28-1,10.82s-7.11,3.28-10.66,4.74c-2.7,1.11-6.81,3-7.21,6.26-0.06.47,1.75-.12,1.82-0.67,0.42-3.47,6.64-5.21,9.45-6.2a27.48,27.48,0,0,0,4.72-2.14c2.33-1.33,5.19-2.59,5.89-5.42,0.75-3-.29-7.77-2.44-10s-5.92-2-8.85-1.39c-7.27,1.52-11.9,8.2-16.76,13.27-2.34,2.44-5.88,5.56-7.15,8.65a4.23,4.23,0,0,0,3.85,5.81c0.49,0,2-1.05,1.39-1.08h0Z" transform="translate(-24.23 -133.55)" style="fill:#381860"/><path d="M168.51,248.33c-1.6,10.25-2.91,21.37.46,31.5,1.59,4.77,6.75,7.4,10.63,10.25,1.77,1.3,3.22,3.06,5,4.31,2,1.45,4.35,2.41,6.39,3.94,0.42,0.32,2.07-.7,1.65-1-3.32-2.5-6.77-4.72-10.08-7.23-4-3.07-10.16-6.12-11.77-11.13-3.25-10.14-2-21.05-.44-31.3,0.07-.45-1.73.11-1.82,0.67h0Z" transform="translate(-24.23 -133.55)" style="fill:#381860"/><path d="M194.13,245.71c-0.6-3.65-.7-7.9-2.29-11.28-1.19-2.54-3.24-4.2-5.5-5.81-5.62-4-11.79-6-18.69-5l-0.38.08a13.72,13.72,0,0,0,2.12-1.58,5,5,0,0,0,1.29-4.86c-0.77-3.33-3.77-4.79-7.28-5.69a4.87,4.87,0,0,0-2.48-1.43c-0.9-.23-1.83-0.4-2.79-0.56L150.28,208a5.46,5.46,0,0,0-1.24-.09c-11-4-25.74,6-25.54,17.82-0.16.32-.33,0.64-0.49,0.95-1.6,3,.32,8.06,4.32,7.52a54.71,54.71,0,0,0,12.05-2.55A69.94,69.94,0,0,1,150,228.25c1.92-.39,4-0.69,6.17-1.05a4.64,4.64,0,0,0-1.36,3.42c0,4-.46,8.22.19,12.14s2.57,7.69,3.92,11.35c2.22,6,11.88,3.4,9.64-2.66-1.19-3.22-3-6.69-3.68-10.07s-0.09-7.33-.09-10.77c0,0,0,0,0,0a5.27,5.27,0,0,0,5.48,2.69c3.91-.59,8,1.7,11,4s2.62,7.63,3.19,11.12C185.53,254.7,195.17,252,194.13,245.71ZM164,227.87a4.66,4.66,0,0,0-2.45-1.8,25.63,25.63,0,0,0,3.56-1.24A4.05,4.05,0,0,0,164,227.87Z" transform="translate(-24.23 -133.55)" style="fill:#381860;opacity:0.34"/><path d="M220.17,224.69a9.81,9.81,0,0,0-.71-1c-2.38-3.47-4.43-6.16-8.76-7.57-5.38-1.76-10.28-.21-15.58,1.06a4.39,4.39,0,0,0-3.27,2.75,5.75,5.75,0,0,0-1.59,1.16c1.3-1.87,1.44-5-.48-6.48a17.92,17.92,0,0,0-15.07-3.72c-2.65.52-4.17,3.69-3.49,6.15a5.1,5.1,0,0,0,6.15,3.49,7.07,7.07,0,0,1,5.34,1.15c2.12,1.65,5,2.07,7,0a5,5,0,0,0-.83,3.89c0.84,4.6,3.8,12.17,9.47,12.09,2.56,0,4.3-1.66,6.18-3.18,0.48-.39,6.6-5.37,7-4.74C215.13,235,223.47,230.32,220.17,224.69Z" transform="translate(-24.23 -133.55)" style="fill:#381860;opacity:0.34"/><path d="M138.32,254.35A18,18,0,0,1,137,240.21c1.84-6.18-7.81-8.82-9.64-2.66a28.38,28.38,0,0,0,2.36,21.85C132.75,265.06,141.39,260,138.32,254.35Z" transform="translate(-24.23 -133.55)" style="fill:#381860;opacity:0.34"/><path d="M285.59,229.7c-0.78-7.13-5.64-15.81-13.21-17.32-8.09-1.62-14.64,2.32-18.76,9-2.75,4.47-6.42,15.64,1.14,17.85,3.65,1.07,6.32-1.95,8.4-4.43,0.8-1,6.64-9,6.85-8.78a4,4,0,0,0,5,1.31,9.24,9.24,0,0,1,.59,2.36C276.28,236,286.29,236.1,285.59,229.7Z" transform="translate(-24.23 -133.55)" style="fill:#381860;opacity:0.34"/><path d="M366.14,230.75a4.68,4.68,0,0,0-1.82-2,7,7,0,0,0,2.23-2,6.63,6.63,0,0,0-1.76-9.25A23.35,23.35,0,0,0,350.24,206c-6.36-3.16-16.17-1.45-22,.74-4.83,1.82-10.32,4.94-12.72,9.75a9.12,9.12,0,0,0-.91,5.53c-0.2.41-.37,0.84-0.54,1.26a4.27,4.27,0,0,0-3.54-3.74A68.15,68.15,0,0,0,289.63,218c-6.36.56-6.42,10.56,0,10a59.23,59.23,0,0,1,18.27,1.12,4.84,4.84,0,0,0,5.32-2.17c0.21,4.57,6.84,6.39,9.2,2.51,5,1.08,11.2-.4,16.05-0.8l3.34-.27a4.82,4.82,0,0,0,3.34.3,9.7,9.7,0,0,1,4,0l0.4,0.16a26.16,26.16,0,0,0,8.52,1.36,4.83,4.83,0,0,0-.59,5.54c2.19,4.22,1.82,9.17,1.62,13.78-0.28,6.43,9.72,6.42,10,0S369.21,236.67,366.14,230.75Z" transform="translate(-24.23 -133.55)" style="fill:#381860;opacity:0.34"/><path d="M332,254.13c-1.5-2.79-4.32-4.58-5.75-7.34-1.62-3.14-1.13-7.05-.94-10.45,0.37-6.43-9.63-6.41-10,0-0.26,4.43-.34,8.94,1.25,13.15,1.51,4,4.87,6.12,6.8,9.69C326.41,264.84,335,259.8,332,254.13Z" transform="translate(-24.23 -133.55)" style="fill:#381860;opacity:0.34"/><path d="M310.63,229.71c-6.08,0-13.76-1.25-19.4,1.39a23.68,23.68,0,0,0-11.14,12c-2.54,5.84,6.07,10.94,8.63,5,1.41-3.23,3.83-7.44,7.57-8.36,4.27-1.06,9.93-.12,14.33-0.13C317.06,239.7,317.07,229.7,310.63,229.71Z" transform="translate(-24.23 -133.55)" style="fill:#381860;opacity:0.34"/><path d="M234,213.36a15.52,15.52,0,0,1-3.23,2,11.68,11.68,0,0,0-4,3.92c-1.78,3.09-1.91,6.7-1.65,10.16a5.12,5.12,0,0,0,5,5c2.55,0,5.2-2.29,5-5-0.11-1.42-.62-4,0.35-5.19a7.36,7.36,0,0,1,2.15-1.26,14.4,14.4,0,0,0,3.45-2.6C245.54,215.77,238.48,208.69,234,213.36Z" transform="translate(-24.23 -133.55)" style="fill:#381860;opacity:0.34"/><path d="M244.91,162.49c-1.29-2.2-4.61-3.33-6.84-1.79-5.86,4-10.94,8.69-11,16.32-0.09,6.44,9.91,6.44,10,0,0-3.68,3.34-5.8,6.09-7.69A5.13,5.13,0,0,0,244.91,162.49Z" transform="translate(-24.23 -133.55)" style="fill:#381860;opacity:0.34"/><path d="M232.35,280.6c-1.16.57-2.86,2-3.84,2.33a11,11,0,0,1-2.18,0h-4c-6.44,0-6.44,10,0,10,2.8,0,6.11.47,8.84-.3,2.24-.63,4.15-2.32,6.23-3.34C243.17,286.39,238.11,277.77,232.35,280.6Z" transform="translate(-24.23 -133.55)" style="fill:#381860;opacity:0.34"/><path d="M208.41,303.86c-1.35.07-3.27,0.16-4.16-.75-1.27-1.3-2.15-3.46-3.11-5-3.38-5.46-12-.45-8.63,5,1.79,2.89,3.39,6.35,6.24,8.34a15.66,15.66,0,0,0,9.67,2.37,5.11,5.11,0,0,0,5-5A5,5,0,0,0,208.41,303.86Z" transform="translate(-24.23 -133.55)" style="fill:#381860;opacity:0.34"/><path d="M407.56,142.9c0-.09-0.06-0.17-0.1-0.26,0.22-2-.68-4.22-2.44-5-0.28-.12-0.56-0.23-0.84-0.34a7.11,7.11,0,0,0-.6-0.4,8.09,8.09,0,0,0-8.49.34,10.59,10.59,0,0,0-5,4,23.1,23.1,0,0,0-2.65,1.82,55.44,55.44,0,0,0-8.81,8.86c-4,5,3,12.08,7.07,7.07l1-1.23a6.76,6.76,0,0,0,3-.56c4.31-1.84,7.51-6.09,12.22-6.89a4.21,4.21,0,0,0,1.94-.85,5,5,0,0,0,2.16-1.63A4.87,4.87,0,0,0,407.56,142.9Z" transform="translate(-24.23 -133.55)" style="fill:#381860;opacity:0.34"/><path d="M475.79,219.49a15,15,0,0,0-10.26-8.84c-6.24-1.6-8.9,8-2.66,9.64,2.37,0.61,3.26,1.89,4.17,4.08,0.72,1.75,3,5,2.72,6.95-0.41,2.69.68,5.34,3.49,6.15,2.36,0.68,5.74-.83,6.15-3.49C480.22,228.55,477.86,224.36,475.79,219.49Z" transform="translate(-24.23 -133.55)" style="fill:#381860;opacity:0.34"/><path d="M42.15,232.83a9.25,9.25,0,0,0-2.44-4.35,5,5,0,0,0-4.86-1.29c-4,1.2-5.33,5.49-6.5,9.16-1.27,4-1.28,8.17-2.38,12.18-1.7,6.22,7.94,8.87,9.64,2.66,1.07-3.9,1.07-8.3,2.26-12.25C40.64,238.61,43.17,236.27,42.15,232.83Z" transform="translate(-24.23 -133.55)" style="fill:#381860;opacity:0.34"/><path d="M73,178.63c-2.33-4.48-7.89-4-11.42-1.36S55,182.69,50.7,184.34c-2.51,1-4.27,3.36-3.49,6.15,0.67,2.4,3.61,4.48,6.15,3.49a43.3,43.3,0,0,0,8.49-4.24c1.26-.84,2.48-1.77,3.65-2.73,0.43-.35.88-0.71,1.29-1.09C70.42,187.28,75.39,183.17,73,178.63Z" transform="translate(-24.23 -133.55)" style="fill:#381860;opacity:0.34"/></svg>