<svg id="sketch" xmlns="http://www.w3.org/2000/svg" viewBox="0 0 222.1 485.64"><title>drag</title><g id="face"><path d="M216.67,54.8c0.49,6.84,1.42,13.58,5.23,19.41,3,4.62,8.21,8.46,12.41,12,8,6.66,20,7.54,26.55-1.61,1.88-2.63,3.16-5.67,4.95-8.38,1.59-2.41,3.31-4.68,4.18-7.47,2.08-6.71,1.46-15.09.71-22-0.67-6.22-2.15-13.28-7.36-17.34-5.8-4.52-14.11.27-17.39-7.76-0.45-1.11-3.44.45-3.87,0.73-2.71,1.76-1.7,3-2.25,5.94-0.9,4.93-4.9,8-8.41,11.16-3.79,3.43-7.72,6.61-11.7,9.81-2.07,1.66-3.2,2.74-3.06,5.51,0.08,1.65,5.53-.47,5.45-2-0.17-3.38,4-5.3,6.34-7.26,3.25-2.71,6.39-5.56,9.51-8.41,4.77-4.36,7.5-8.18,7.44-14.79l-1.55,1.6,0.57-.37-3.87.73c1.74,4.26,4.49,5.78,9,5.9,5.83,0.14,10.05,1.86,12.77,7.38,2.82,5.74,3.21,12.58,3.31,18.85,0.09,5.9.37,12.38-2.67,17.65-1.24,2.14-2.82,4.05-4.06,6.2-2.13,3.68-3.25,8.26-9.13,8-5.14-.2-9.91-4.67-13.38-7.93s-7.46-5.81-10-10.19c-3.06-5.24-3.85-11.39-4.28-17.37C222,51.1,216.57,53.27,216.67,54.8Z" transform="translate(-134.36 -4.7)" style="fill:#382360"/></g><g id="hair"><path d="M196.73,102.9c-2.44-1.21-4.95-2.41-5.13-5.54-0.12-2.1.86-4.34,1.56-6.28,1.44-3.94,4.49-8,3.42-12.33-0.82-3.35-4.1-7-3.64-10.59,0.41-3.17,4.36-7.93,6-10.42,5.41-8-4-18,1-26.07,2.28-3.65,6.9-5,10.26-7.31,2.81-2,4.67-4.62,6.5-7.47,2.47-3.85,4.61-6.66,9.49-6.92,4.17-.22,6.77,2.37,9.78,4.78,4.47,3.58,9.71-.39,13.06-3.63,9.59-9.25,16.33,5.59,25,8,4.46,1.25,9.68,1.16,11.88,6,2,4.53,1.25,10.12,3,14.87,2,5.66,5.36,8,9.15,12.26,3.94,4.38,2.82,10.23,1.41,15.43-1.58,5.8-2.77,10.86-.87,16.71,2,6.05,5.47,11.3,2.59,17.65-0.86,1.9,4.51.09,5.13-1.29,2.12-4.67,1.74-7.9,0-12.67-0.94-2.63-2.19-5.2-2.87-7.92-1-4.18-.39-7.8.68-11.87,1.16-4.43,2.84-9.09,1.83-13.73-1.23-5.7-7.3-8.28-9.93-13.22-2.83-5.32-2.83-10.59-4-16.27-1-4.72-4-6.93-8.5-8.06-6-1.5-9.29-2.78-13.85-7.08-3.52-3.32-7-5.6-12-5.23a18.33,18.33,0,0,0-9.52,3.53c-1.29,1-2.3,2.45-3.62,3.33-2.69,1.81-3.67-.35-5.78-1.85-6-4.27-13.54-3.7-19.74.17a22.67,22.67,0,0,0-6.85,7.26c-1.37,2.1-2.55,4.34-4.5,6s-4.59,2.71-6.81,4.16c-2.76,1.8-5.42,4-6.8,7-2.13,4.73-.16,9.85.56,14.67,0.68,4.56,1.17,7.34-1.66,11.1a52,52,0,0,0-3.12,5.49c-2.7,4.61-2.55,6.36-.42,11.36,1.07,2.52,2.38,5,1.75,7.78s-2.48,5.6-3.48,8.34c-2.31,6.33-2.12,9.79,4.07,12.85,1.52,0.75,6.14-2.46,4.95-3.05h0Z" transform="translate(-134.36 -4.7)" style="fill:#382360"/></g><g id="dress"><path d="M221.43,106.49c-2.3,11.11,9,21.81,19.39,23.32,14.21,2.07,34.8-7,45.11,7.13,1,1.4,6.17-1.57,5.39-2.63-8-11-24.26-8.89-36-8-7.93.64-14.56,0.31-20.87-4.93-5-4.14-8.9-10.27-7.52-17,0.26-1.28-5.1.33-5.45,2h0Z" transform="translate(-134.36 -4.7)" style="fill:#382360"/></g><g id="shoe"><path d="M227.92,468.57c3.23,6.22,12.44,7.76,18.88,7.16,5.48-.51,16.46-4.51,14-11.81-0.44-1.29-5.94,1-5.39,2.63,2.35,6.92-8.22,5.86-11.92,5.33-4.27-.61-8.06-1.91-10.16-5.94-0.72-1.39-6.1,1.28-5.39,2.63h0Z" transform="translate(-134.36 -4.7)" style="fill:#382360"/><path d="M219.91,431.15c-7,4.52-10.95,11.86-9.83,20.29,0.39,3,1.65,5.61,2.53,8.44a47.52,47.52,0,0,1,1.67,9.64c0.61,6.45.86,12.93,1,19.4,0,1.62,5.48-.44,5.45-2-0.1-6-.13-11.93,0-17.9,0-2.08-.31-4.4,0-6.45,0.64-3.6,2.39-2.69,4.78-.62,1.15,1,6.22-2,4.95-3.05-4-3.49-11.24-2.75-14.2,2.12-1.81,3-1,7.42-1.05,10.74-0.12,5.73,0,11.45.05,17.18l5.45-2c-0.2-9.38.07-19.75-2.5-28.85-1.27-4.48-3.19-8.41-2.79-13.2,0.42-5,2.48-9.73,6.82-12.53,3.44-2.22-.24-2.53-2.35-1.17h0Z" transform="translate(-134.36 -4.7)" style="fill:#382360"/></g><path d="M207,229.62c1.8,8.32,6.28,15.64,14.4,18.73,3.88,1.48,7.5,1.2,11.51,1.8a66,66,0,0,1,14.33,4c10.21,4,15.34,17.57,19.19,27,5,12.23,9.22,25.55,9.38,38.85a65.71,65.71,0,0,0,2.62,16.48c1.74,6.7-.4,11.73-3,17.89a103.08,103.08,0,0,1-8.36,15.81,139.34,139.34,0,0,0-8.56,15.73c-4.94,10.32-11.57,19.9-16.13,30.41-1.27,2.93-2.82,6.06-3.78,9.07s-0.23,6,.36,9a39.25,39.25,0,0,0,6.62,15.4c3.37,5,5.68,10.66,9.1,15.63,1.48,2.15,3.26,4.06,4.45,6.4,2.51,4.93,2.82,10.76,3,16.17l3-2.3a31.31,31.31,0,0,1-18.8.06c-6.24-2-7.58-6.71-10.1-12.18-2.64-5.73-4.3-11.79-6.8-17.56-3-6.91-8.07-11.84-7.34-19.91,0.4-4.4,3.49-7.54,5-11.53,1.08-2.92,2-5.86,2.83-8.87,2.49-9.47,6.26-19.12,5.28-29-0.65-6.59-1.53-12.72-.62-19.39,0.62-4.55,1.42-9.23,3.63-13.31,2.84-5.25,7.37-7,12.53-9.28,0.33-.14,2.87-1.62,2.22-2.29-9.34-9.53-15.51-22.15-21.6-33.86-6.7-12.89-14.34-25.63-18.19-39.74-4.52-16.59-5.14-34.85,3-50.28,3.18-6,7-12.08,8.36-18.81,1.21-5.85,0-12.87-2-18.42-2.45-6.81-8-12-10.58-18.75A31.41,31.41,0,0,1,213.43,138l-5.13,1.29c-4.56,10.38-3.9,21.54-7.79,32.06a85.48,85.48,0,0,1-7.65,15c-2.73,4.45-4.62,7.09-3.52,12.44,3.42,16.57-4,31.93-2.84,48.38a29.21,29.21,0,0,0,4.7,14.24,22.84,22.84,0,0,1,3.45,8.57c0.5,2.42,2.74,10.63.69,12.34l4.24-1.35c-1.54-1.44-1.83-3.82-4.07-4.79a7.7,7.7,0,0,0-7.49,1.56c-2.42,2.38-2.44,6.5-1.48,9.52a14.83,14.83,0,0,0,3.6,5.79c1.24,1.29,5.84,4.69,3.07,6.68l3.34-1.44c-9.35.64-14-9.56-16.18-17a52.66,52.66,0,0,1-2.22-12.61c-0.2-4.33.85-8.08,1.49-12.3,1.56-10.25-2.19-20.14-3.74-30.14-1.51-9.74-2.7-19.64-3.6-29.46-0.41-4.45-1.15-9.35-.37-13.77,0.85-4.83,2.77-9.53,4.09-14.24,2.16-7.72.91-15.35,2.67-23.13a38.47,38.47,0,0,1,4-10.67,32.66,32.66,0,0,0,4.09-13.41c0.48-4.56.59-9.24,4-12.74,4.23-4.39,10.35-5.93,16.28-5.51,4.48,0.32,8.5,2.78,13,2.8,4.17,0,9.2-1.67,13-3.2,3.42-1.37,5-3.17,4.91-6.82-0.07-4.42-.25-8.88-0.54-13.3-0.11-1.67-5.55.48-5.45,2,0.28,4.38.65,8.91,0.54,13.3-0.09,3.25-1.74,3.14-4.81,4-3.81,1.06-6.52.19-10.23-.92a31.94,31.94,0,0,0-25.7,3.76c-3.51,2.19-7,5.15-8.64,9-1.83,4.39-1.44,9.34-2.29,13.94-0.92,5-3.91,8.75-5.64,13.37A47,47,0,0,0,172,157c0,4.46.09,8-1.07,12.44-1.46,5.53-4.13,11.23-4.75,16.93-0.57,5.17.48,10.9,1,16,0.6,5.79,1.39,11.57,2.14,17.34s1.45,11.2,2.67,16.75c1.57,7.2,3.31,14.51,2.18,21.92-0.72,4.72-1.76,8.71-1.42,13.55a54.07,54.07,0,0,0,3,14.5c2.62,7.29,9.37,18.07,18.92,14.72,3.13-1.1,5.93-4,4.16-7.28-1.3-2.4-4.06-3.84-5.52-6.19-2.07-3.33-2.63-7.13-.76-10.66l-3.52,2.15c3.18-.76,3.85,3.22,5.56,4.82,0.87,0.81,3.66-.87,4.24-1.35C203,279.17,201,271.91,200,267.3c-1.19-5.8-5-9.92-6.76-15.45-5.05-15.59,3.77-32.27,2.65-48.18-0.22-3.19-1.22-6.2-1.57-9.35s0.94-5.06,2.51-7.53a98.39,98.39,0,0,0,7.57-13.59,58.33,58.33,0,0,0,4.65-17.64,57.26,57.26,0,0,1,4.34-17.6c0.86-2-4.48,0-5.13,1.29a33.86,33.86,0,0,0-3.34,18.4c0.66,7.12,4.26,12.47,8,18.31a39.62,39.62,0,0,1,6.52,19.17c0.61,8-3.25,15-6.92,21.87-3.52,6.56-6.64,12.86-7.6,20.35-1,7.91-.31,16.1.76,24,2.16,15.88,9.79,29.58,17,43.59,7.09,13.72,13.87,28.92,24.82,40.08l2.22-2.29c-6.56,2.84-12.48,5.42-16.34,11.83-4.32,7.18-5.29,17.21-4.76,25.41,0.33,5.07,1.56,10,1.15,15.12-0.49,6.12-2.55,12-4.12,17.88-1,3.67-1.9,7.31-3.14,10.9-1.51,4.39-4.87,8.26-5.77,12.8-1.67,8.36,3.48,13.8,6.75,20.84,3.06,6.57,5.09,13.64,8,20.3s5.54,10.33,13.13,11.82a38.66,38.66,0,0,0,19.95-1.37c0.73-.26,3-1.26,3-2.3-0.26-7.51-1-14.52-5.62-20.67a78.37,78.37,0,0,1-6-9.66c-2.71-5-6.59-9.52-8.91-14.65a40.62,40.62,0,0,1-3.45-13.89c-0.13-2.95,1.32-5.37,2.38-8,4.07-10.29,9.77-20.06,15.2-29.7,3.09-5.49,5.09-11.56,8.55-16.84,2.84-4.33,5.49-8.66,7.91-13.26a77.81,77.81,0,0,0,6.59-15.76c1.48-5.61-1.07-10.65-2.24-16.06-1.37-6.33-.46-12.93-1.52-19.33a128.88,128.88,0,0,0-4.89-19.32c-3.66-11.05-8.26-23.79-16.11-32.65-5.85-6.6-17.6-9.15-26.1-9.53-11.6-.52-18.63-8.69-21-19.61-0.25-1.17-5.78.86-5.39,2.63h0Z" transform="translate(-134.36 -4.7)" style="fill:#382360"/><path d="M256.61,85.32c0.38,6.62.72,13.18,6.94,17.09,6.44,4,10,2.25,16.48-.27a24,24,0,0,1,13.17-1c5.5,1,8.15,3.6,12.23,7.07,2.91,2.47,6.72,3.38,10.23,4.69a35.73,35.73,0,0,1,12,6.89c3.16,2.86,5.5,6.41,8.53,9.35,3.27,3.17,7,5.59,10,9.1,2.26,2.67,6.2,6.65,3.63,10.1-1.24,1.66-3.5,2.81-5.1,4.09-1.83,1.46-3.47,3.12-5.27,4.61-2.95,2.43-6.34,4.16-9.35,6.5-3.27,2.56-6.32,5.39-9.54,8-6.47,5.27-14.28,8.06-20.53,13.56-2.84,2.5-6.45,5.37-8,8.93-2.16,5,2.1,6.36,4.93,9.73,6.13,7.28,5.63,19.47.1,27-1.09,1.48,4.23-.07,5.13-1.29,4.55-6.16,5.14-13.61,3.84-20.94-0.68-3.86-3-6.94-5.82-9.63-1.85-1.79-4-2.68-3.22-5.66,0.6-2.41,3-4.33,4.71-6,6.58-6.35,15.29-9.55,22.4-15.33,3.22-2.62,6.26-5.47,9.54-8,3-2.34,6.39-4.07,9.35-6.5,3.13-2.58,6.32-5.14,9.4-7.76,1.87-1.6,4.68-4,4-6.75-1.7-7-10.15-11.9-15-16.55-6.46-6.24-10.58-12.47-19.33-15.91-3.91-1.54-8.26-2.43-11.53-5.18-3.54-3-6-5.47-10.63-6.76-7.9-2.19-15.06-.53-22.43,2.38-4.76,1.88-9.36-1.06-12.23-4.9s-2.91-7.73-3.19-12.62c-0.1-1.66-5.54.48-5.45,2h0Z" transform="translate(-134.36 -4.7)" style="fill:#382360"/><path d="M213,285.82c2.7,13.09,8.28,25.42,10.69,38.57,1.76,9.59,1.37,19.5.63,29.18a187.11,187.11,0,0,1-4.44,29.86c-2.63,10.84-7.76,20.65-13.57,30.1-3,4.91-6.22,9.7-9.44,14.47-3.62,5.35-7,11.09-12,15.26-4.34,3.59-9.45,6.11-14.3,8.93-5.61,3.26-10.72,7.31-16.53,10.23-4.84,2.43-10.21,4.08-14.83,6.89-2.37,1.44-5.55,4.81-4.79,7.9,0.87,3.51,7.33,2.34,10,2.7a128.52,128.52,0,0,0,19.81,1c7.1-.1,14.19-0.56,21.29-0.7a31.21,31.21,0,0,0,7.44-.57c3.28-.86,6.27-2.07,9.7-2.35a29,29,0,0,1,11.4,1.2c2.53,0.82,4.95,2.24,7.61,2.57a45.79,45.79,0,0,0,11.73-.6c1.37-.2,6.05-3.67,3.14-3.23a45,45,0,0,1-10.12.65c-2.89-.26-5.49-1.9-8.24-2.72a30.39,30.39,0,0,0-7.85-1.23,41,41,0,0,0-12.76,1.75c-6.23,1.82-13,1.46-19.48,1.7s-13.18.55-19.75,0.35a79.66,79.66,0,0,1-8.86-1c-2.16-.31-9,0.35-9.6-2.56-1-4.65,10.6-7.67,13.57-9.09,5.53-2.66,10.36-6.07,15.51-9.36,8.32-5.31,17.62-9.21,24.3-16.74,7.39-8.32,13.4-18.79,19.14-28.29,5.23-8.67,10-17.73,12.54-27.57a176,176,0,0,0,4.64-28.73c0.86-9.62,1.42-19.51.13-29.11-1.94-14.48-8.33-27.89-11.27-42.15-0.24-1.15-5.76.85-5.39,2.63h0Z" transform="translate(-134.36 -4.7)" style="fill:#382360"/><path d="M282.41,192.22c8.4-7.07,13.78-15.18,19.49-24.39,2.92-4.7,4.91-10.64,8.61-14.77a24,24,0,0,1,15.06-7.84c1-.14,5.67-3.26,3.66-3.24-7.19,0-14.48.44-21.66,0-5.12-.33-13.31-2.78-16.13-7.43-0.81-1.34-6,1.21-5.39,2.63,5.33,12.22,2.49,22.71-4.09,33.9-3.51,6-4.72,12.33-4.89,19.22-0.16,6.46,2.47,11.32,6.41,16.27a77.33,77.33,0,0,1,16.59,39.87,110.9,110.9,0,0,1-4.56,46.32c-2.24,7-5.43,13.73-7.51,20.81a101.19,101.19,0,0,0-3.72,20.83c-1.1,14.35.4,28.85,3.28,42.92a258.8,258.8,0,0,0,12.36,41.24,113.05,113.05,0,0,0,8.72,18.6c3.19,5.2,7,10,10.36,15,4.4,6.6,7.35,12.81,5.55,20.92-0.84,3.77-2.73,2.63-6,2.14s-6.48-.66-9.75-0.86c-14.39-.86-28.21,4-42.53,2.08-1.48-.2-6.15,3-4.18,3.25,13.57,1.8,26.33-2.84,39.85-2.23,5.84,0.26,11.67,1.43,17.49,1.61,3.38,0.1,7.26-.8,9.23-3.8,3.08-4.67,2.5-12.88.35-17.78-2.54-5.79-6.6-10.84-10.24-16-8.5-12-13.75-25.44-18.35-39.33-9.72-29.36-16.05-62.84-6.23-93,2.49-7.64,5.88-14.91,8.06-22.67a105.66,105.66,0,0,0,3.8-24.32c0.61-15-1.36-29.54-7.5-43.34A50.57,50.57,0,0,0,292,207.81c-2.63-3.32-5.58-6.48-7.53-10.27-3.76-7.3-2.27-18.65,1.44-25.75,3.48-6.65,7.59-12.51,8.34-20.2a31.81,31.81,0,0,0-2.85-17L286,137.17c2.9,4.78,10.74,7.27,16,7.95,7.5,1,15.48.17,23,.12l3.66-3.24c-10.56,1.41-20.81,7.05-26.13,16.62-6.76,12.15-12.86,24.13-23.71,33.26-2.95,2.48,2.22,1.46,3.54.35h0Z" transform="translate(-134.36 -4.7)" style="fill:#382360"/><path d="M187.23,252.05c0,1.38-.53,3.38-1.69,4.17-1.76,1.21-4.61.54-6.15-.6-1.27-.94-6.22,2.11-4.95,3.05,3.39,2.51,8.23,1.18,11.77-.34,3.33-1.43,6.39-4.47,6.46-8.31,0-1.57-5.42.41-5.45,2h0Z" transform="translate(-134.36 -4.7)" style="fill:#382360"/><path d="M250.11,44.93a24.58,24.58,0,0,1,4.71-7.21c1.79-2,6.57-6.18,7.53-1.49,0.16,0.77,3.84-.57,3.6-1.75-0.95-4.62-7.27-2.06-9.83-.34a27.5,27.5,0,0,0-9.65,12.15c-0.25.64,3.2-.24,3.63-1.35h0Z" transform="translate(-134.36 -4.7)" style="fill:#382360"/><path d="M244.26,45.59c-2.57-4-6.63-6.46-11.44-5.8A4.07,4.07,0,0,0,230.28,41c-0.38.54-.43,1,0.45,0.92,4.22-.58,7.74,2,9.94,5.4,0.61,0.94,4.1-1,3.6-1.75h0Z" transform="translate(-134.36 -4.7)" style="fill:#382360"/><path d="M240.48,73.55c0.92-1.21,1.75-2.5,2.75-3.65,0.3-.34,1.56-1.83,1.66-1.86,1.19-.35,3.33,1.88,4,2.44,0.4,0.33,1.46-.4,1.68-0.72A6.66,6.66,0,0,1,252.22,68c1.1-.6,1.39,0,2.18.8a17.07,17.07,0,0,1,2.68,3.77c0.26,0.47,2-.44,1.8-0.88-0.92-1.67-3-5.55-5.34-5.18-1.83.29-3.68,2.24-4.67,3.67l1.68-.72c-1.5-1.22-3.35-3.12-5.47-2.33-2.73,1-4.67,4.68-6.32,6.85-0.37.48,1.4,0,1.71-.43h0Z" transform="translate(-134.36 -4.7)" style="fill:#382360"/><path d="M253.73,72.07a76.91,76.91,0,0,1-14.4,1.79c-0.09,0-.26.08-0.21,0.21,1.56,4.08,4.29,5,8.53,4.46s10.85-.45,10.72-6.2c0-.51-1.2-0.92-1.61-0.88a19.4,19.4,0,0,0-3.17.65c-0.31.08,1.07,1.17,1.65,1a17.2,17.2,0,0,1,2.91-.58l-1.61-.88c0.08,3.66-2.64,4.66-5.81,5.2-2,.34-9.74,2.1-9.59-1.53,0-.61-0.26-0.14.3-0.41a5.17,5.17,0,0,1,1.26-.05c1.26-.08,2.52-0.2,3.77-0.34a74.42,74.42,0,0,0,8.64-1.38C255.79,73,254.22,72,253.73,72.07Z" transform="translate(-134.36 -4.7)" style="fill:#382360"/></svg>