<svg id="Layer_2" data-name="Layer 2" xmlns="http://www.w3.org/2000/svg" viewBox="0 0 489.73 426.28"><title>handfasting</title><path d="M6.84,69.68c13.72,6,27.83,11.12,41.56,17.1,10.71,4.66,20.75,10.33,30.86,16.14,9.87,5.67,19.72,11.69,30.12,16.38,10.06,4.54,20.33,8.64,30.46,13,12.13,5.23,24.24,10.53,36.45,15.58,1.59,0.66,6.08-2.58,4.95-3.05-21.47-8.89-42.69-18.4-64.12-27.4C96.65,108.84,78.65,95.28,58.49,86,43.17,79,27.23,73.4,11.78,66.63c-1.57-.69-6.1,2.55-4.95,3.05h0Z" transform="translate(-4.52 -66.53)" style="fill:#382360"/><path d="M70.59,207.62c-10.81-1.66-22.2-3.13-32.41-7.25-4.4-1.77-8.59-4.13-13.13-5.53s-9.35-1.61-13.83-3.55c-1.58-.68-6.1,2.56-4.95,3.05,4.49,1.94,9.21,2.19,13.83,3.55,4.86,1.42,9.3,4.06,14,5.87,10.24,3.93,21.53,5.44,32.3,7.1,1.47,0.23,6.17-2.94,4.18-3.25h0Z" transform="translate(-4.52 -66.53)" style="fill:#382360"/><path d="M7.47,229.46c14-6.06,29.23-8.66,43.8-13,13.91-4.18,27.57-9.14,41.5-13.24,1.61-.47,5.57-4.08,1.9-3-15,4.42-29.76,9.87-44.83,14.22-14.53,4.19-29.38,7.09-43.32,13.11-3.24,1.4-2.29,3.34.95,1.94h0Z" transform="translate(-4.52 -66.53)" style="fill:#382360"/><path d="M128.06,296.43a223.86,223.86,0,0,0-34.31,10.9c-6.77,2.83-13.26,6.2-19.91,9.26-8.1,3.73-16.5,7.32-24.78,10.66-6.17,2.49-12.56,3.64-18.9,5.51-6.81,2-13.24,5.07-19.88,7.57-2.31.87-4.38,4-.52,2.57,7-2.64,13.81-6,21.09-7.86,5.78-1.49,11.47-2.77,17-5,8.42-3.32,16.76-7.09,25.05-10.72,6-2.64,11.83-5.78,17.86-8.42a209.1,209.1,0,0,1,35.34-11.5c1.66-.4,5.64-3.9,1.9-3h0Z" transform="translate(-4.52 -66.53)" style="fill:#382360"/><path d="M423,149.08c11.48-.9,22.84-0.4,34.34-0.15,4.74,0.1,9.47.12,14.21,0,6.13-.19,12,1,18,1.7,1.48,0.18,6.14-3,4.18-3.25-5.67-.69-11.19-1.82-16.93-1.73-5.54.08-11,.17-16.58,0-11.41-.27-22.69-0.7-34.09.19-1.41.11-6.13,3.47-3.14,3.23h0Z" transform="translate(-4.52 -66.53)" style="fill:#382360"/><path d="M329.66,137.94a90.05,90.05,0,0,0,28,11.34c5.06,1.12,10.42.42,15.56,0.38a191.36,191.36,0,0,0,22.25-1.24c1.38-.17,6.09-3.59,3.14-3.23A193.65,193.65,0,0,1,376,146.42c-4.68,0-9.53.64-14.13-.39a88.89,88.89,0,0,1-27.22-11.14c-1.38-.88-6.21,2.25-4.95,3.05h0Z" transform="translate(-4.52 -66.53)" style="fill:#382360"/><path d="M161.76,159.82c1.5-9.76,11-8.8,18-11.85,5.58-2.42,9.91-6.66,13.92-11.11,1.64-1.82,4.47-6.45,6.83-7.17,2.09-.64,6.41.9,8.61,1.12,6.32,0.63,12.39-.39,18.56-1.66,15-3.06,29.63-7.37,44.49-10.83,5.58-1.3,9.68-1.4,15,.67,6.19,2.4,12.17,5.35,18.26,8,1.58,0.69,6.1-2.55,4.95-3.05-8.47-3.68-17.14-9.08-26.48-10-5.18-.5-10.51,1.5-15.5,2.72-7.14,1.74-14.25,3.6-21.37,5.39-6.25,1.57-12.51,3.12-18.83,4.36-7.18,1.41-13.56,1.21-20.79.38-10.38-1.2-15,7.63-21.61,14.14a21.08,21.08,0,0,1-11.14,6,37.31,37.31,0,0,0-7.89,2.32c-5,2.34-9.65,6.88-10.52,12.53-0.21,1.37,5.19-.34,5.45-2h0Z" transform="translate(-4.52 -66.53)" style="fill:#382360"/><path d="M219.65,153.4c0.33,3.91-3,7.27-6.56,8.21-1,.27-3.13,1-3.52,2.15s0.74,1.09,1.62.86c5.6-1.47,14.51-6.29,13.92-13.24-0.14-1.69-5.58.51-5.45,2h0Z" transform="translate(-4.52 -66.53)" style="fill:#382360"/><path d="M217.06,162.53c-9.33-2.17-19.19-4.49-28.79-5-7.51-.43-16.08-0.88-23.46.81-17.17,3.93-30.94,15.93-36.56,32.76-0.35,1.06,4.89-.34,5.45-2,5.09-15.26,17.84-27.52,34.39-28.26,15.33-.68,29.87,1.52,44.79,5,1.44,0.34,6.22-2.77,4.18-3.25h0Z" transform="translate(-4.52 -66.53)" style="fill:#382360"/><path d="M210.13,185.64a122.26,122.26,0,0,0-43.3-8.6c-6.8-.11-13.75-0.26-20.35,1.58C139,180.71,133.8,185,128.9,190.87c-1.94,2.32,3.56.62,4.48-.49,4.75-5.69,9.31-9.17,16.94-9.84a142.38,142.38,0,0,1,19.6,0,112.63,112.63,0,0,1,35.27,8.17c1.61,0.64,6.07-2.6,4.95-3.05h0Z" transform="translate(-4.52 -66.53)" style="fill:#382360"/><path d="M231.77,203.21a216.77,216.77,0,0,0,4,23.1c1.21,5.18,2.42,10.74,5.05,15.41,4.25,7.53,8.72,14.55,12.13,22.55,3,7,5.5,14.23,8.25,21.34,2.38,6.14,4.06,10.72,10.12,13.9A25.77,25.77,0,0,0,285,302.44c5.08-.16,10.34-1,14.75-3.7,4-2.43,10.84-6.36,12.9-10.74,0.88-1.88-4.49-.08-5.13,1.29-1.13,2.4-4.22,4-6.3,5.5-2.69,1.93-4.62,3.39-8,4-4.48.79-9.37,0.83-13.64-.82-5.45-2.1-8.92-4.88-11.13-10.31-2.58-6.33-4.85-12.78-7.33-19.15a166.07,166.07,0,0,0-8.29-18.43c-2.63-4.91-6.25-9.38-8.26-14.6-4.23-11-6-23.25-7.44-34.88-0.13-1-5.62.77-5.39,2.63h0Z" transform="translate(-4.52 -66.53)" style="fill:#382360"/><path d="M243.65,199.9c9.43,17.63,24.28,31.49,35.42,47.94,5.78,8.53,11,17.42,16.55,26.09,4.94,7.7,9,15.74,18.82,17.23,7.21,1.09,12.33-1.36,17.62-6.12a50.13,50.13,0,0,0,6.16-6.39c2.15-2.78,1.83-4.5,1-7.78a26.89,26.89,0,0,0-6.56-12.46c-3.6-4.19-7-8.5-10.83-12.52-8.23-8.68-17-16.85-25.23-25.52-6.32-6.65-12.17-13.63-18.85-19.93-6.1-5.76-12.6-12.24-20.09-16.17-1.49-.78-6.16,2.42-4.95,3.05,5.51,2.89,10.32,7.33,14.93,11.44a165,165,0,0,1,13.87,13.57c13.85,15.62,29.84,29.36,43,45.51,2.45,3,5.39,5.77,7.29,9.17,1.45,2.6,3.54,8.64,2.24,11.53-1.09,2.4-4.2,4.84-6.1,6.56-1.2,1.09-2.66,2.62-4.26,3.06-2.3.64-6.38-.31-8.54-1.07-8.14-2.86-12.51-13-16.81-19.87-4.76-7.58-9.36-15.26-14.41-22.66-11.06-16.2-25.67-29.9-35-47.3-0.75-1.39-6.1,1.3-5.39,2.63h0Z" transform="translate(-4.52 -66.53)" style="fill:#382360"/><path d="M237.29,235.06c-1.76,18.48-6.25,36.6-8,55.07-1.71,18.21-5,36.16-6.91,54.34-1.84,17.93-1,35.25.37,53.13a393.46,393.46,0,0,1,1.15,40.08c-0.24,9.8-.56,19.6-0.61,29.4,0,6.84-.29,14,1,20.75,0.22,1.14,5.74-.84,5.39-2.63-1.2-6.18-1-12.72-1-19,0-8.73.28-17.46,0.51-26.19a385.33,385.33,0,0,0-.69-39.94c-1.28-16.45-2.63-32.63-1.46-49.14,1.39-19.65,6.24-38.92,7.37-58.56,1.15-19.93,6.38-39.47,8.27-59.35,0.14-1.46-5.29.36-5.45,2h0Z" transform="translate(-4.52 -66.53)" style="fill:#382360"/><path d="M258.39,280c-0.1,28.58-5.62,56.33-8.35,84.65-2.1,21.77.85,44.28,2.45,66,0.88,12,1.86,24,2.36,36,0.07,1.64,5.52-.46,5.45-2-0.95-22.69-3.25-45.31-4.54-68-0.56-9.81-1.25-19.76-.63-29.59,0.76-12,2.89-23.87,4.5-35.76,2.39-17.68,4.14-35.43,4.21-53.28,0-1.59-5.45.42-5.45,2h0Z" transform="translate(-4.52 -66.53)" style="fill:#382360"/><path d="M232,288.69c-5,.66-9.49.83-13.21,4.67l4.94-1.56c-0.73-5.46-3.24-11-5.89-15.86s-6.84-6.56-12.26-6.54c-9.12,0-10.56,7-10.48,14.69,0,4.12.26,8.24,0.34,12.36,0.1,5.12.82,11,5.28,14.24,9,6.55,20.22,4.57,29.26-.17,3.08-1.62,2.22-3.6-.95-1.94-4.74,2.49-8.82,3.74-14,2.59-3.56-.79-8.17-2-10.69-4.81-4.81-5.44-3.41-14.81-3.66-21.64a46.3,46.3,0,0,1,.3-9.37c0.1-.57.31-1.17,0.37-1.74,0.16-1.61,1-1.34-.68-0.9,2.13-.56,5.94.39,7.79,1.35,3.39,1.75,4.77,5.86,6.21,9.19,1.63,3.76,3.18,7.07,3.73,11.18,0.19,1.44,4.53-1.13,4.94-1.56,1-1,4.25-.78,5.58-1s6.08-3.62,3.14-3.23h0Z" transform="translate(-4.52 -66.53)" style="fill:#382360"/><path d="M198,279.93c-3.41,1.4-6.25,2.57-8.66,5.48l4.94-1.56c-1.19-7.4-3.42-15.83-10.2-19.93-6.54-4-16.71-3.32-17.21,6.18-0.22,4.11,1,8.48,1.69,12.52,0.76,4.83,1.21,10.12,3.79,14.38,5.08,8.38,18.48,8.79,26.4,4.52,3.06-1.65,2.2-3.64-.95-1.94-3.83,2.07-11.43,1.38-15.3-.59s-6-6.28-7-10.43a166,166,0,0,1-2.9-17c-0.2-1.39-.71-4.12,0-5.5,1.08-2,3.08-.9,4.72-0.09a16,16,0,0,1,7,6c2.49,4.17,3.81,9.76,4.57,14.48,0.23,1.41,4.52-1.06,4.94-1.56a8.19,8.19,0,0,1,3.66-2.42c2.26-.93,4.33-4.14.52-2.57h0Z" transform="translate(-4.52 -66.53)" style="fill:#382360"/><path d="M425,227.81c-2.51-8-2.43-16.37-2.86-24.65-0.34-6.5-.55-13-0.49-19.53a118.09,118.09,0,0,1,2.15-19.8q0.94-5.31,1.87-10.63c0.34-1.94,1.33-4.61,1.16-6.59-0.46-5.45-8-6.84-12.33-7.07-5.28-.28-10.28-0.12-14.89,2.69-4.92,3-6.53,7.21-7.48,12.66-1.12,6.39-1.83,12.86-2.56,19.31a193.21,193.21,0,0,0,.65,44.57c0.13,1,5.62-.77,5.39-2.63A219.73,219.73,0,0,1,394.52,179c0.47-9.85,1.18-20.94,3.95-30.4,1.21-4.14,3.6-5.78,7.75-5.86,3.7-.07,7.36,0,10.83,1.43,5.59,2.37,4,6.24,3.21,11-2,11.61-4.12,22.72-4,34.53,0,5.71.28,11.42,0.58,17.13,0.42,8,.41,15.9,2.82,23.57,0.4,1.27,5.91-1,5.39-2.63h0Z" transform="translate(-4.52 -66.53)" style="fill:#382360"/><path d="M417.81,206.66l31,4.73c13.44,2,25.91,6.53,39.72,6.67,1.48,0,6-3.23,4.18-3.25-13.75-.13-26.32-4.58-39.72-6.67-10.32-1.61-20.67-3.16-31-4.73-1.47-.22-6.17,2.95-4.18,3.25h0Z" transform="translate(-4.52 -66.53)" style="fill:#382360"/><path d="M368.91,202.36a69.33,69.33,0,0,1,20.88,1c1.46,0.28,6.2-2.87,4.18-3.25a72.78,72.78,0,0,0-21.92-1c-1.39.17-6.09,3.58-3.14,3.23h0Z" transform="translate(-4.52 -66.53)" style="fill:#382360"/><path d="M367.34,205.9c18.07,13.13,38.59,20.34,59.37,27.91,9.55,3.48,19.34,6.37,29,9.57,10.85,3.6,22,8.1,33.39,9.63,1.48,0.2,6.16-3,4.18-3.25-11.52-1.54-22.88-6.17-33.85-9.84-9.62-3.21-19.37-6.08-28.89-9.58-20.42-7.51-40.47-14.58-58.25-27.5-1.29-.94-6.22,2.13-4.95,3.05h0Z" transform="translate(-4.52 -66.53)" style="fill:#382360"/><path d="M337.64,270.68c13.1,0.91,25.85,3.68,37.78,9.24,8.54,4,16.3,9.25,24.39,14,9.42,5.54,19.61,10.28,29.47,15,11.19,5.36,21.63,12.21,32.67,17.88,9.34,4.8,17.7,11.57,26.09,17.81,1.27,0.95,6.22-2.1,4.95-3.05-17.34-12.9-35.57-23.66-54.73-33.7-10.34-5.42-21.2-10-31.36-15.76-8.2-4.62-15.91-10-24.37-14.21-12.77-6.3-26.54-9.49-40.71-10.47-1.48-.1-6.09,3.12-4.18,3.25h0Z" transform="translate(-4.52 -66.53)" style="fill:#382360"/><path d="M276.22,170.37c8.15,1.07,16,3.21,24,5,7.29,1.62,14.74,2,22,3.74,7,1.64,13.42,4.21,20.12,6.6,6.23,2.22,13.08,2.41,18.89,5.83,7.28,4.28,6.12,10.9,4.16,18.19-0.69,2.56-1.07,4.54-4,5.18-1.75.38-4.07,0-5.81-.25-4.68-.56-8.92-2.25-13.37-3.64-7.69-2.41-15.72-3.37-23.56-5.25-6.86-1.64-12.9-5.35-19.85-6.83-1.2-.26-5.88,2.6-4.56,3.15a138.65,138.65,0,0,0,25.51,8.34c8.12,1.67,16,2.8,23.68,6.25,3.43,1.55,7.83,3.59,9.79,7s0.56,9.16-.27,12.91c-1.67,7.52-7.49,7.8-13.89,6.92a141.33,141.33,0,0,1-17.16-3.87c-1.7-.46-5.92,2.79-4.95,3.05,9.61,2.58,22.7,7.53,32.37,2.84a16.93,16.93,0,0,0,9-10.27c1.11-4.13,2.61-10.69.1-14.57-4.86-7.52-17.83-10.56-26-12A154,154,0,0,1,299.16,199l-4.56,3.15c6.33,1.35,11.76,4.76,18,6.39,8.16,2.15,16.63,3,24.68,5.49,9.15,2.88,23.2,8.3,30.93-.59,3.38-3.89,4.26-11.2,4.25-16.14,0-5.34-4.68-8.47-9.22-10.33-5.56-2.28-11.65-2.69-17.21-4.91a137.67,137.67,0,0,0-17.46-5.72c-7.44-1.88-15.06-2.33-22.55-3.92-8.54-1.81-16.89-4.19-25.57-5.33-1.48-.19-6.15,3-4.18,3.25h0Z" transform="translate(-4.52 -66.53)" style="fill:#382360"/><path d="M336,197.59c-0.18-2,1.72-3.31,1.58-5.24-0.08-1.1-1.84-.5-2.47-0.28a7.45,7.45,0,0,0-2,1.11,2.09,2.09,0,0,0-1,1.18c0.13,1.91-1.76,3.27-1.58,5.24,0.1,1.1,1.83.51,2.47,0.28a7.45,7.45,0,0,0,2-1.11,2.08,2.08,0,0,0,1-1.18h0Z" transform="translate(-4.52 -66.53)" style="fill:#382360"/><path d="M335.92,232.36a17.5,17.5,0,0,1,1.13-7.31c0.38-1.09-2.16-.39-2.47-0.28-1.07.4-2.58,1.12-3,2.3a17.5,17.5,0,0,0-1.13,7.31c0.14,1.69,5.58-.51,5.45-2h0Z" transform="translate(-4.52 -66.53)" style="fill:#382360"/><path d="M140.71,468c0.42-32-1-63.79-3.53-95.64-1.26-15.77-2.42-31.54-3.63-47.32-2.06-26.93-7.88-53.91-15.65-79.76A181.57,181.57,0,0,0,100.63,206c-2.19-3.73-6.14-7-7.59-11.11-1.61-4.57,4.07-6.7,7.38-8.41,3.85-2,8.42-4.64,12.8-5,10.52-.76,16.35,17.14,20,24.6,5.42,11,8.33,23,12.11,34.68,3.69,11.37,6.68,22.75,9.31,34.4,2.69,11.91,5.84,23.85,7.58,36,2,14.09,1.8,28.37,2.57,42.55,0.73,13.54,2.57,26.86,2.48,40.45-0.22,32.53,2.66,65.15,1.38,97.68-0.06,1.54,5.39-.4,5.45-2,1.16-29.42-1.69-58.86-1.48-88.26A358.87,358.87,0,0,0,171,361.64c-1.52-14.62-1.08-29.36-2.35-44-1.12-12.84-4.13-25.36-7-37.9-2.81-12.38-5.52-24.7-9.39-36.81-3.95-12.33-6.95-25.38-12.49-37.1-4-8.55-8-20-15.9-25.82-3.68-2.68-8.26-1.89-12.36-.63a82.83,82.83,0,0,0-18.78,8.95C90,190,86.88,192,87.15,195.56c0.38,4.88,5.71,9,8.08,13.09,15.1,25.72,22.37,54.89,28.18,83.89,4.12,20.56,5.19,41.47,6.79,62.33,1.21,15.68,3.09,31.41,3.72,47.12,0.91,22.64,1.63,45.34,1.33,68,0,1.58,5.43-.41,5.45-2h0Z" transform="translate(-4.52 -66.53)" style="fill:#382360"/><path d="M84.6,202.71c1.55-4.88,5.92-9.51,9.68-12.8,2.9-2.53-2.24-1.49-3.54-.35-4.56,4-9.72,9.25-11.6,15.17-0.35,1.1,2.14.39,2.47,0.28,1-.37,2.62-1.13,3-2.3h0Z" transform="translate(-4.52 -66.53)" style="fill:#382360"/><path d="M262.45,289.66c9.54,27.42,9.66,57.88,9.69,86.61,0,23.56,3.07,47.19,5,70.65,1.19,14.45,2.38,28.93,2.79,43.43,0,1.63,5.5-.45,5.45-2-0.77-27.17-3.79-54.27-6-81.35-1.89-23.24-1.29-46.46-2.85-69.7-1.14-16.92-3.11-34.15-8.7-50.24-0.45-1.3-5.95,1-5.39,2.63h0Z" transform="translate(-4.52 -66.53)" style="fill:#382360"/><path d="M392,289.13c0.16,24.74-1.73,49.26-3.16,73.93-0.6,10.34.12,20.62,0.17,31,0.08,16.35-.69,32.69-1.23,49-0.48,14.66-.9,29.45,1,44,0.14,1,5.63-.77,5.39-2.63-3.74-28.9.18-58.61,0.31-87.63,0-11-.85-22.07-0.32-33.09,0.46-9.39,1.29-18.76,1.89-28.14q1.54-24.22,1.42-48.49c0-1.6-5.46.43-5.45,2h0Z" transform="translate(-4.52 -66.53)" style="fill:#382360"/><path d="M420.52,304.16c-2.47,53-.73,106.14-2.88,159.17-0.06,1.54,5.39-.4,5.45-2,2.14-53,.4-106.15,2.88-159.17,0.07-1.53-5.38.39-5.45,2h0Z" transform="translate(-4.52 -66.53)" style="fill:#382360"/><path d="M162.36,292.2c2.31-1,4.87-2.35,7.43-2.45a6.09,6.09,0,0,0,3.81-1.86c0.76-.87.49-1.42-0.67-1.37-4,.16-7.94,2.17-11.52,3.74-0.58.25-2.66,1.39-2.22,2.29s2.67-.13,3.17-0.34h0Z" transform="translate(-4.52 -66.53)" style="fill:#382360"/><path d="M415.35,143.54c4.61,1,9.35,2.38,13.26,5.11,1.32,0.92,6.22-2.17,4.95-3.05-4.13-2.88-9.17-4.24-14-5.3-1.45-.32-6.22,2.8-4.18,3.25h0Z" transform="translate(-4.52 -66.53)" style="fill:#382360"/><path d="M247.6,166.76c5.09-6.43,12.29-11.4,18.87-16.16,7.14-5.16,14.5-10,22-14.6,7.36-4.47,16.87-10.71,25.72-10.34,7.85,0.33,18.52,3.68,22.58,11,0.77,1.4,6.11-1.32,5.39-2.63-4.47-8.11-16.44-11.73-25.1-11.73-9.6,0-20,6-28,10.72-8.44,4.92-16.61,10.37-24.57,16-7.79,5.55-16.09,11.39-22.08,19-0.89,1.12,1.16.9,1.62,0.86a5.91,5.91,0,0,0,3.52-2.15h0Z" transform="translate(-4.52 -66.53)" style="fill:#382360"/><path d="M199.5,132.93c0.27,0.22.54,0.46,0.8,0.69l-0.22-.21a5.07,5.07,0,0,1,.55.66,1.57,1.57,0,0,1,.35.53c0.09,0.37.92,0.32,1.12,0.3a6.06,6.06,0,0,0,2-.65,5.93,5.93,0,0,0,1.77-1.21,1.19,1.19,0,0,0,.45-1.07,3,3,0,0,0-.71-1,10.81,10.81,0,0,0-1.21-1.09,2.41,2.41,0,0,0-1.52,0,7.28,7.28,0,0,0-2.13.92c-0.52.34-2.17,1.41-1.3,2.11h0Z" transform="translate(-4.52 -66.53)" style="fill:#382360"/><path d="M181.47,298.92a14.54,14.54,0,0,0,5.59-.62l-1.31.33,0.18,0a6.81,6.81,0,0,0,3.81-1.86,1.11,1.11,0,0,0,.45-1.07,1.13,1.13,0,0,0-1.12-.3l-0.8.14q-1.39.41,0,0a2.76,2.76,0,0,0-.76.08c-0.63.05-1.25,0-1.88,0a6.3,6.3,0,0,0-3.86,1.45c-0.41.34-1.71,1.79-.32,1.8h0Z" transform="translate(-4.52 -66.53)" style="fill:#382360"/><path d="M208.89,309.81c1.43,0,2.82.25,4.26,0.24a8.82,8.82,0,0,0,5.32-1.85c0.58-.43,1.57-1.58.32-1.8s-2.91.75-3.86,1.45c1.74-1.29,3.16-1,1.64-1.06-0.39,0-.78,0-1.16,0-0.78,0-1.55-.19-2.33-0.22A6.27,6.27,0,0,0,209.2,308c-0.45.35-1.69,1.75-.32,1.8h0Z" transform="translate(-4.52 -66.53)" style="fill:#382360"/><path d="M336.51,136.62a30.17,30.17,0,0,1,2.28,6c0.33,1.23,5.85-.93,5.39-2.63a30.17,30.17,0,0,0-2.28-6c-0.71-1.39-6.09,1.27-5.39,2.63h0Z" transform="translate(-4.52 -66.53)" style="fill:#382360"/><path d="M150.3,180.14c-2.85,2.68-6.44,4.1-9.73,6.11-3.06,1.88-6,3.81-9.23,5.44s-2.23,3.56.95,1.94c3.87-2,7.44-4.32,11.16-6.5,4-2.32,7.95-4.3,11.34-7.49,1-.94.22-1.23-0.67-1.37-1.19-.19-3,1.1-3.81,1.86h0Z" transform="translate(-4.52 -66.53)" style="fill:#382360"/><path d="M342.47,268.57c3.13-6,7.57-16.53.76-21.76-2.33-1.79-5.72-2.61-8.44-3.56a73,73,0,0,0-12.66-3.51c-1.47-.23-6.18,2.94-4.18,3.25,6.12,1,13.61,3,19.08,6.09,7.57,4.26,3.34,15,.3,20.79-0.94,1.8,4.43.06,5.13-1.29h0Z" transform="translate(-4.52 -66.53)" style="fill:#382360"/><path d="M250,162.9c-6.91-6.31-19.53-8.53-28.14-4.64-7.85,3.54-11.68,9.86-14.53,17.67-3.1,8.48-3,16.51,5.27,21.92,6.79,4.42,16.49,6.84,24.28,3.94,2.31-.86,4.38-4,0.52-2.57-6,2.25-14.74-1.1-19.85-4.43-6-3.91-8-9.84-6.15-16.62,1.47-5.47,3.72-12.37,8.28-16,6.84-5.5,19.51-1.55,25.39,3.82,1.11,1,6.21-1.9,4.95-3.05h0Z" transform="translate(-4.52 -66.53)" style="fill:#382360"/><path d="M248.46,163.13c-10.46.61-16.78,7.58-20.13,17.24-2.42,7-4.19,18.31,4.52,21.45,1.64,0.59,6-2.66,4.95-3.05-6.53-2.36-6.37-9.16-5.34-15a34.06,34.06,0,0,1,3.33-10c2.24-4.31,4.46-7.18,9.53-7.47,1.41-.08,6.15-3.41,3.14-3.23h0Z" transform="translate(-4.52 -66.53)" style="fill:#382360"/><path d="M239.69,167.56a16.46,16.46,0,0,0,4.75,3.95c1.51,0.78,3.39,1,4.83,1.84,3.66,2.2,4.57,8.36,3.64,12.15-1,4.13-4.11,8.06-7,11.1-3.82,4.06-8.87,2.68-12.34-1.28-1.19-1.36-6.17,1.75-5.39,2.63,7.87,9,18.64,2.87,24.66-4.68,3.58-4.49,6.58-9.47,5.57-15.39-0.5-2.93-1.53-6-4.22-7.58-3.43-2-6.24-2.12-9.14-5.37-1.21-1.35-6.17,1.76-5.39,2.63h0Z" transform="translate(-4.52 -66.53)" style="fill:#382360"/><path d="M341.59,134.05c-9.89-1.52-19,5.49-27,10.14-7.49,4.33-15.19,8.35-22.51,13-3.83,2.42-7.49,5.14-11.12,7.85q-2.49,1.86-5,3.76c-1.21.93-3.27,1.67-.7,0.71-4.12,1.54-7.72,4.56-11.32,7a106.44,106.44,0,0,0-9.57,7c-2.93,2.5,2.23,1.47,3.54.35a113.18,113.18,0,0,1,18.24-12.35c5.51-3.08,10.31-7.79,15.52-11.37a231,231,0,0,1,20.23-12.08c7.5-4.09,16.57-12.13,25.5-10.76,1.47,0.23,6.17-2.94,4.18-3.25h0Z" transform="translate(-4.52 -66.53)" style="fill:#382360"/><path d="M135.37,470.62c1.54,7.67,6.41,11.51,13.75,13.28,5.59,1.34,16.07,3,19.18,8.53,0.78,1.4,6.12-1.34,5.39-2.63-2.94-5.25-11.68-6.94-17-8.32-8.1-2.1-14.15-4.5-16-13.49-0.23-1.15-5.75.85-5.39,2.63h0Z" transform="translate(-4.52 -66.53)" style="fill:#382360"/><path d="M417.48,463.57c-1.43,5.46-5.49,5.13-10,6.1a23.45,23.45,0,0,0-7.23,3.06,27.28,27.28,0,0,0-11.5,14c-0.36,1,4.85-.35,5.45-2,1.64-4.52,4.87-9.31,9.4-11.36,2.86-1.29,6.16-.8,9.13-1.86,4.67-1.66,8.9-5,10.19-9.93,0.31-1.18-5,.33-5.45,2h0Z" transform="translate(-4.52 -66.53)" style="fill:#382360"/><path d="M225.36,488.13c6.53,0.16,13.67-1.71,18.19-6.73,3.26-3.63,6.29-14.44,12-13.32,1.46,0.29,6.2-2.85,4.18-3.25-4.87-1-9.54,1.55-12.76,5.1a41.48,41.48,0,0,0-4.71,6.92c-3,5-6.27,8.19-12.75,8-1.48,0-6,3.21-4.18,3.25h0Z" transform="translate(-4.52 -66.53)" style="fill:#382360"/><path d="M250.28,469.39a41.76,41.76,0,0,0,.29,10.74c0.08,0.57,1.49.24,1.74,0.19,11.58-2.49,17.56,11.67,28.61,10.5,1.39-.15,6.1-3.55,3.14-3.23-6.63.7-10.7-5.48-16.15-8.17a21,21,0,0,0-13.7-2.1l1.74,0.19a39.17,39.17,0,0,1-.23-10.13c0.15-1.44-5.28.36-5.45,2h0Z" transform="translate(-4.52 -66.53)" style="fill:#382360"/></svg>