<?xml version="1.0" encoding="utf-8"?>
<!-- Generator: Adobe Illustrator 19.2.0, SVG Export Plug-In . SVG Version: 6.00 Build 0)  -->
<svg version="1.1" id="Layer_1" xmlns="http://www.w3.org/2000/svg" xmlns:xlink="http://www.w3.org/1999/xlink" x="0px" y="0px"
	 viewBox="0 0 150 150" style="enable-background:new 0 0 150 150;" xml:space="preserve">
<style type="text/css">
	.st0{fill:#FFEF1C;}
	.st1{fill:#E41C1C;}
	.st2{fill:#FF991C;}
	.st3{fill:#0E8030;}
	.st4{fill:#1C61FF;}
	.st5{fill:#771587;}
</style>
<path class="st0" d="M143.8,50.9H7.3C4.7,58.4,3.2,66.5,3.2,75h144.7C147.9,66.5,146.5,58.4,143.8,50.9z"/>
<path class="st1" d="M129.5,26.8H21.6C34.9,12,54.1,2.7,75.6,2.7S116.3,12,129.5,26.8z"/>
<path class="st2" d="M129.5,26.8H21.6c-6.2,7-11.1,15.1-14.3,24.1h136.5C140.6,41.9,135.7,33.7,129.5,26.8z"/>
<path class="st3" d="M3.2,75c0,8.5,1.4,16.6,4.1,24.1h136.5c2.7-7.5,4.1-15.7,4.1-24.1H3.2z"/>
<path class="st4" d="M21.6,123.2h107.9c6.2-7,11.1-15.1,14.3-24.1H7.3C10.5,108.1,15.4,116.3,21.6,123.2z"/>
<path class="st5" d="M75.6,147.3c21.4,0,40.7-9.3,53.9-24.1H21.6C34.9,138,54.1,147.3,75.6,147.3z"/>
</svg>
