<svg id="brush" xmlns="http://www.w3.org/2000/svg" viewBox="0 0 293.25 481.23"><title>nude</title><path d="M174.1,47.83a60,60,0,0,0,13,13.91c2.61,2.07,6.19,3.83,7.35,7.15,1,2.76.17,6.32-.2,9.17-0.83,6.51-1.89,13.13-5,19-1.52,2.89-3.9,7.35-6.62,9.22a9.27,9.27,0,0,1-9.31,1.25c-1.43-.49-2.85-1.09-4.23-1.7-14.74-6.51-14.19-20.88-13.75-34.89,0.12-3.71-.89-8.23,2.32-10.8,2.18-1.74,5.22-3,7.65-4.33,4.92-2.76,9.15-5.46,12.6-10l-4.66,2.27,1.44,0.08c1.48,0.08,6.07-3.15,4.18-3.25-4.95-.26-5.86,2.88-9.38,5.75-4.94,4-11.49,5.8-16.44,9.79-4.78,3.85-3.12,11.47-3.32,17-0.25,6.93-.47,14.34,2.57,20.76,4.38,9.22,18.09,16.41,27.94,12.44,11.19-4.51,16.78-18.29,18.67-29.29,1-5.54,3.37-13.7-1.15-18.25-2.61-2.62-6.08-4.52-8.87-7a54.88,54.88,0,0,1-9.41-10.87C178.56,43.79,173.34,46.68,174.1,47.83Z" transform="translate(-110.97 -8.39)" style="fill:#382360"/><path d="M223.15,128.79a66.28,66.28,0,0,0-5.36-20.71c-3.2-7.73-4.28-15.93-5.46-24.17C210,67.26,207,45.67,192.82,34.63c-11.27-8.75-28-7.25-38.61,2-10.83,9.52-15,22-17.17,35.69-3.11,19.79,2.48,39.93-8,58.32-1,1.73,4.38,0,5.13-1.29,7.95-14,7.42-29.57,7.55-45.15,0.08-10.32.63-22.61,5.2-32.12,4.15-8.63,10.69-18,20.67-19.67a25.78,25.78,0,0,1,21.45,6.22c12.22,10.49,15.28,30.14,17.49,45.2,1.22,8.32,2,17,5,24.86,2.86,7.38,5.49,14.07,6.11,22.08,0.13,1.68,5.57-.5,5.45-2h0Z" transform="translate(-110.97 -8.39)" style="fill:#382360"/><path d="M331,35.67c-0.42,7.61-2.28,15-2.82,22.64S326.49,75,318,77.44c-6.45,1.87-14.45.11-20.12-3.21-6.3-3.68-9.16-9.88-10-16.92-1.54-13.19-2.57-32.54,9.19-41.73,6.77-5.29,19-5.51,25.75-.18,5.79,4.56,8.45,13.17,8.14,20.27-0.07,1.54,5.38-.39,5.45-2,0.29-6.85-1.84-14.43-6.67-19.47S317.8,7.84,311,8.59c-13.42,1.49-24.47,9.85-27.85,23.15-2,7.8-1.43,16.11-1,24.06,0.34,6.77,1.65,13.69,6.78,18.54,8.64,8.18,24,9.23,34,3.29,6-3.5,9-9.13,10.06-15.84,0.68-4.42.67-8.9,1.36-13.32,0.77-4.95,1.74-9.8,2-14.81C336.51,32.13,331.07,34,331,35.67Z" transform="translate(-110.97 -8.39)" style="fill:#382360"/><path d="M137.18,157c1.48,8.91-2.88,16.79-3.81,25.51-0.77,7.18,1.89,13.43,9.52,15.4a25.22,25.22,0,0,0,16-1.56c2.93-1.21,10-3.92,10-8,0-1.6-5.46.43-5.45,2,0,3.09-7.12,4.63-9.57,4.8-6.18.43-13.66-2.1-15.2-8.92-1.13-5,.93-11.56,2.38-16.31,1.61-5.29,2.45-10.11,1.54-15.62-0.18-1.1-5.7.81-5.39,2.63h0Z" transform="translate(-110.97 -8.39)" style="fill:#382360"/><path d="M209,157.14c0,3.86.09,7.54,1.73,11.11,2.32,5,4.62,9.63,4.74,15.36,0.28,13.49-17.8,11.07-23.87,3.84-1.15-1.37-6.17,1.71-5.39,2.63,6.9,8.21,20.06,8.42,28.52,2.39,5.39-3.85,6.83-8.75,5.76-15.11A36.92,36.92,0,0,0,216.83,167a25.09,25.09,0,0,1-2.41-11.89c0-1.59-5.45.43-5.45,2h0Z" transform="translate(-110.97 -8.39)" style="fill:#382360"/><path d="M173.09,251c0,1.19-.06,2.4,0,3.59,0.06,1,.33,1.94.31,3,0,1.57,5.42-.41,5.45-2a20.35,20.35,0,0,0-.29-2.95,31.66,31.66,0,0,1,0-3.61c0-1.59-5.45.43-5.45,2h0Z" transform="translate(-110.97 -8.39)" style="fill:#382360"/><path d="M158.3,105.7c1.33,6,3.82,19.43-5.31,19.86-3.21.15-6.27-.54-9.51-0.12a42.24,42.24,0,0,0-8,1.82c-11.08,3.71-18.8,13.42-21.83,24.56-6.16,22.65.44,46-2,69.06-0.76,7.13,3.81,14.8,6.69,21.16,3.57,7.86,7.28,15.67,9.77,24,0.38,1.26,5.89-1,5.39-2.63a160.14,160.14,0,0,0-8-20.12c-2.88-6.33-6.67-13-8.15-19.86-1.35-6.22.79-13.62,0.68-20.06-0.11-6.11-.66-12.22-1-18.32-0.74-11.54-.79-22.45,1.82-33.81,1.48-6.42,4.88-13.46,9.94-17.85a21.38,21.38,0,0,1,11.58-4.67c3.66-.46,7.23.53,10.87,0.18A16.18,16.18,0,0,0,163,122c3.35-5.27,2-13.11.67-18.91-0.26-1.17-5.78.87-5.39,2.63h0Z" transform="translate(-110.97 -8.39)" style="fill:#382360"/><path d="M134.93,193c-0.7,5.37-.68,10.83-1.5,16.18a101.28,101.28,0,0,0-1.35,10.36c-0.18,3.57-.7,7.47.08,11A54.09,54.09,0,0,0,138,246.4c0.84,1.4,6.13-1.39,5.39-2.63-2.65-4.43-4.22-9.57-5.49-14.55-1.06-4.15-.56-8.61-0.31-12.86,0.2-3.32.93-6.42,1.35-9.68,0.67-5.19.75-10.45,1.43-15.65,0.18-1.4-5.23.35-5.45,2h0Z" transform="translate(-110.97 -8.39)" style="fill:#382360"/><path d="M171,314.8a78.28,78.28,0,0,1-2.18,22c-1.44,5.61-3.61,11-5.11,16.58-2.2,8.15.12,14.92,0.57,23.09,0.42,7.46-.8,15-1.48,22.44-1.52,16.42-5.94,32.89-3.72,49.38,0.65,4.84.48,8.92-1.71,13.35-1.8,3.65-4.29,6.93-6.26,10.5-1.83,3.33-3.49,6.91-6.06,9.76a12.4,12.4,0,0,1-16.42,2.21A10.49,10.49,0,0,1,124.1,474c0.81-5.29,6.32-6.42,10.2-9a29.66,29.66,0,0,0,11.16-14c2.83-7.65.12-15.43-1.8-23a137.73,137.73,0,0,1-4-30.5A189.55,189.55,0,0,1,141.23,369c0.54-4.25,1.71-8.59,1.24-12.89a48.48,48.48,0,0,0-2.83-10.37A177.15,177.15,0,0,1,130,294.22a94.8,94.8,0,0,1,3.13-28.07c2.54-9.15,7.09-16.6,11.91-24.61,1.57-2.61,3.07-5.6,2.63-8.74-0.51-3.62-2.2-7.3-3.06-10.87a133.36,133.36,0,0,1-4-30c0-1.61-5.47.43-5.45,2a133.65,133.65,0,0,0,3,26.07c0.76,3.62,1.63,7.22,2.69,10.76,1.51,5.05,1.56,8.05-1.34,12.7-4.34,7-8.34,13.65-10.89,21.52a89.48,89.48,0,0,0-4.13,26.28c-0.27,17.92,3.33,36.37,8.49,53.47,1.15,3.82,2.77,7.51,3.61,11.42,1.13,5.32-.32,10.53-1,15.84a185.76,185.76,0,0,0-1.26,31.31,137.92,137.92,0,0,0,4.11,28.19c2.57,9.84,4.62,18.75-1.86,27.53-3,4-6.67,5.67-10.89,8a13.66,13.66,0,0,0-6.2,6c-3,6.44.9,13.37,7.23,15.68s13.07,0.1,18.33-3.46c6.21-4.2,8.91-10.79,12.64-17,4.13-6.88,8-12.5,7-20.89a96.85,96.85,0,0,1,.62-27.07c1.58-10.45,2.7-20.92,3.71-31.44a103.73,103.73,0,0,0,.74-13.76c-0.19-5-1.7-9.83-1.88-14.82-0.26-7.21,3-14.23,5.1-21a80.14,80.14,0,0,0,3.47-26.49c0-1.63-5.5.45-5.45,2h0Z" transform="translate(-110.97 -8.39)" style="fill:#382360"/><path d="M211.83,193.38c-2.2,8.73-1.88,17.93-4.31,26.6-1.28,4.56-3.39,9.14-2.86,14,0.51,4.67,3.38,8.73,5.48,12.81a99.36,99.36,0,0,1,9.77,58.33c-2.63,19.85-14.22,37.66-13.75,57.95,0.22,9.58,2.25,19,1.82,28.64-0.39,8.65-2.19,17.23-3.54,25.77-1.31,8.32-2.65,16.83-2.29,25.28,0.42,9.61,4.21,15.62,13.37,18.84,3.34,1.17,7.09,1.49,10.27,3.05,4.41,2.17,4.74,6.78,3.5,11.11-0.76,2.66-2.25,5.64-5.32,6.23-1.72.33-4.46-1.55-5.78-2.38-3.2-2-6-4.73-9.69-5.88-4.17-1.3-8.4,0-12.61-.68-6.47-1.08-9.21-7.12-8.65-13.15,0.42-4.44,2.12-8.57,2.28-13.08a76.83,76.83,0,0,0-1.18-14.68c-2-12.63-4.87-25.1-6.43-37.8-0.74-6-1.58-12.42-.3-18.43a66.45,66.45,0,0,0,.82-23.62c-1.24-9-3.46-17.79-4.86-26.74a107.7,107.7,0,0,1-.34-33.59c0.21-1.36-5.19.34-5.45,2-3,18.86,1,36.57,4.31,55,1.49,8.29,2.51,16.81.95,25.17a58.63,58.63,0,0,0-1.15,16.68c1.15,13.54,4,26.85,6.45,40.21a99.42,99.42,0,0,1,1.74,14.14c0.19,5.59-1.36,10.44-2.15,15.88-1.37,9.44,4.4,15.42,13.62,15.32,5.62-.07,9.38.42,14,3.63,3,2.08,6,4.55,9.68,5.09,6.07,0.87,12.09-3.32,14.54-8.68a16.54,16.54,0,0,0,1.5-9c-0.63-4.26-3.91-5.86-7.71-6.94s-7.72-1.85-11.3-3.7c-6-3.08-8.11-8.33-8.58-14.77-1.34-18.53,5.69-36.54,5.83-55,0.07-9.81-2.14-19.49-1.9-29.3,0.29-11.31,4.45-21.61,8.16-32.13,7.65-21.71,8.79-45.3,1.64-67.33a98.48,98.48,0,0,0-7.08-16.39c-3.37-6.24-5.11-11.15-3.13-18.18a103.22,103.22,0,0,0,3.54-15.52c0.7-5.63,1.16-11.29,2.55-16.81,0.3-1.2-5,.33-5.45,2h0Z" transform="translate(-110.97 -8.39)" style="fill:#382360"/><path d="M264.78,221.75c-9.3-1.82-18.77-3.15-27.8-6.14-3.74-1.24-7.14-2.43-9.19-5.9-3.75-6.32-8.66-12.05-10.53-19.29-0.31-1.21-5.84.91-5.39,2.63,1.85,7.18,6.83,14.45,11.12,20.44,2.08,2.91,5.77,4.09,9,5.17,9.28,3.07,19,4.47,28.57,6.34,1.46,0.29,6.2-2.86,4.18-3.25h0Z" transform="translate(-110.97 -8.39)" style="fill:#382360"/><path d="M183.45,106.11c-1.94,9.72-.28,23,12.08,22.88,6.08,0,12.83-1.58,18.64.74,6.2,2.47,10.51,7.55,13,13.6,5.92,14.14,8.32,29,10.47,44,0.55,3.85,1.13,7.7,1.89,11.52,0.21,1,.27,2.88.95,3.6s3.36,1.21,4.11,1.47c6,2,12.11,3.73,18.26,5.21,1.44,0.35,6.23-2.76,4.18-3.25-6.11-1.48-13.21-2.77-18.91-5.5-3.61-1.73-3.53-5.75-4.13-9.4s-1.08-7.17-1.58-10.76C240.54,166.38,238,152.07,232,139.3c-4.72-10.08-13.51-14.29-24.22-13.93-6,.2-12.53,2-16.64-3.5-3.78-5.06-3.42-11.89-2.24-17.78,0.26-1.29-5.11.33-5.45,2h0Z" transform="translate(-110.97 -8.39)" style="fill:#382360"/><path d="M204.27,289.57c-5.95-1.26-8.33-3.35-11.55-8.49-2.26-3.6-4.72-7.25-8.41-9.51-9.18-5.63-20.73-3.11-30.74-5.53-1.15-.28-5.22,1.39-4.79,2.94,2.26,8.08,4,18.05,11.6,22.9,9.65,6.14,23.07,1.14,32.26-3.36,3.14-1.54,2.25-3.51-.95-1.94-9.43,4.62-24,8.59-31-2.25-3.48-5.41-4.79-11.87-6.5-18l-4.79,2.94c10.29,2.48,23.16-.59,31.9,6.71,3.95,3.29,5.61,8.18,8.76,12.06,2.71,3.34,6.09,3.93,10,4.77,1.45,0.31,6.21-2.82,4.18-3.25h0Z" transform="translate(-110.97 -8.39)" style="fill:#382360"/><path d="M156.79,276.31c5,7.78,16.07,9,24.3,10.49,1.46,0.26,6.19-2.9,4.18-3.25-7.77-1.37-18.34-2.5-23.08-9.86-0.91-1.4-6.15,1.46-5.39,2.63h0Z" transform="translate(-110.97 -8.39)" style="fill:#382360"/><path d="M162.36,283.18c1.8-.91,4.12-1.7,5.52-3.17,1.21-1.27.84-3.37,0.48-4.93-0.28-1.19-5.8.88-5.39,2.63a6.4,6.4,0,0,1,.05,3.45l0.48-.77c0.22-.22,1.46-0.84.54-0.47-0.32.13-.63,0.32-0.94,0.47l-1.69.85c-0.6.3-2.63,1.33-2.22,2.29s2.73-.12,3.17-0.34h0Z" transform="translate(-110.97 -8.39)" style="fill:#382360"/><path d="M169.74,286.13c1.46-.92,4-1.54,4.3-3.52s-0.32-3.86-.54-5.67c-0.13-1-5.63.77-5.39,2.63,0.21,1.64,1,3.92.38,5.53l1-1.18c1.38-1,0-.1-0.37.1-0.57.29-1.13,0.6-1.67,0.95s-2.16,1.41-1.3,2.11,3-.54,3.65-0.94h0Z" transform="translate(-110.97 -8.39)" style="fill:#382360"/><path d="M176.36,289.25c1.75-.95,6.05-2.56,6.12-5,0-.94-0.73-1.84-1-2.7a12.45,12.45,0,0,1-.61-4.34c0-1.59-5.45.42-5.45,2a14.56,14.56,0,0,0,.58,4.68,21.35,21.35,0,0,1,.93,2.14c0.12,0.59.41-.15,0,0.48a6,6,0,0,1-1.45.8c-0.56.3-2.68,1.35-2.22,2.29s2.7-.09,3.17-0.34h0Z" transform="translate(-110.97 -8.39)" style="fill:#382360"/><path d="M290.74,76.21a39.24,39.24,0,0,1,.77,13.68c-0.31,2.55-.85,4.21-3.19,5.49a33.28,33.28,0,0,1-6.72,2.53c-9.53,2.62-19.5,1.25-28.95,4.72-18.3,6.72-22.38,26.17-24.08,43.6-0.14,1.46,5.29-.36,5.45-2,1.07-10.95,2.72-22,8.72-31.45,6.84-10.81,20.48-9.24,31.49-10.84,6.5-.94,14.56-2.9,19.59-7.39,5.21-4.65,3.8-14.82,2.31-20.94-0.29-1.2-5.81.9-5.39,2.63h0Z" transform="translate(-110.97 -8.39)" style="fill:#382360"/><path d="M303,144.62v3.83c0,1.11,1.9.49,2.47,0.28a7.36,7.36,0,0,0,2-1.11,2.14,2.14,0,0,0,1-1.18V142.6c0-1.11-1.9-.49-2.47-0.28a7.36,7.36,0,0,0-2,1.11,2.14,2.14,0,0,0-1,1.18h0Z" transform="translate(-110.97 -8.39)" style="fill:#382360"/><path d="M253.49,144.28c0.18,6.3.19,16.69,7,19.64a31.47,31.47,0,0,0,16.26,1.8c1.12-.18,3.23-0.76,3.81-1.86,0.41-.78.76-1.6-0.67-1.37a28.32,28.32,0,0,1-14.45-1.62c-6.32-2.73-6.35-12.86-6.52-18.61,0-1.63-5.5.45-5.45,2h0Z" transform="translate(-110.97 -8.39)" style="fill:#382360"/><path d="M350.86,142.41a45.58,45.58,0,0,1-1.45,14.84c-1,3.18-2.8,4.18-6,4.9a45.19,45.19,0,0,1-8.35,1c-1.42.05-6.16,3.35-3.14,3.23,6.49-.24,14.81-1.2,19.89-5.74s4.74-14.17,4.48-20.22c-0.07-1.64-5.52.46-5.45,2h0Z" transform="translate(-110.97 -8.39)" style="fill:#382360"/><path d="M254.58,168.88c0,11.46-6.55,23.41-13.1,32.44-1.08,1.5,4.24-.06,5.13-1.29,6.64-9.16,13.45-21.53,13.41-33.17,0-1.6-5.46.43-5.45,2h0Z" transform="translate(-110.97 -8.39)" style="fill:#382360"/><path d="M301.1,228.64v5.13c0,1.59,5.45-.43,5.45-2v-5.13c0-1.59-5.45.43-5.45,2h0Z" transform="translate(-110.97 -8.39)" style="fill:#382360"/><path d="M254.3,156.12a67.72,67.72,0,0,0,.81,16c1.07,5.8,3.49,10.94,5.31,16.48,2.17,6.61,2.6,14.51,3,21.42,0.64,10.71-4.5,18.63-7.12,28.65-3.6,13.73-5.07,28-5.65,42.14-0.55,13.48-.71,26.77,2.08,40,1.71,8.13,2.27,16.5,2.81,24.78,0.24,3.59-1,6.47-1.92,10a111.73,111.73,0,0,0-2.93,18.79c-0.82,11.42.81,22.45,1.4,33.81,0.69,13.27,4.64,30.42-7.26,40.21-7.5,6.17-19.69,3.55-25.6,12-1.07,1.54,4.26,0,5.13-1.29,2.36-3.39,9.12-3.21,12.81-4.46A35.2,35.2,0,0,0,249.33,448c8.51-7.55,10-18.39,9.17-29.2-0.92-12.69-2.86-25.62-2.68-38.34a130.57,130.57,0,0,1,.88-13.69q0.58-4.86,1.59-9.66c0.72-3.4,2.62-7.38,2.89-10.8,0.48-6.13-.89-13-1.6-19-0.5-4.29-1.41-8.4-2.22-12.63a118.07,118.07,0,0,1-1.61-23.8c0.2-14.4,1-28.88,3.59-43.07a101.4,101.4,0,0,1,4.77-18.45c1.6-4.13,3.7-8,4.45-12.45,1.47-8.65-.37-18.75-1.94-27.29-0.92-5-3.34-9.51-4.75-14.4a62.84,62.84,0,0,1-2.11-21.13c0.08-1.52-5.36.39-5.45,2h0Z" transform="translate(-110.97 -8.39)" style="fill:#382360"/><path d="M350.41,152.69A84,84,0,0,1,345.79,181c-3.17,9.09-6.53,17.75-7.44,27.45a47,47,0,0,0,4.54,25.45,89.22,89.22,0,0,1,6.6,19.63c4.14,19.8,4.7,40.58,4.59,60.75,0,5.71-.2,11.42-0.58,17.12-0.32,4.72-1.94,10.45-1.4,15.08,0.41,3.51,3.45,6.58,4.81,9.8a70.46,70.46,0,0,1,4.2,16.33c2.29,14.09,1.35,28.11,2,42.27,0.41,9.1,2.34,18.61,8,26,4.72,6.2,11.57,9.14,18,13.15,3,1.89,6.7,4,8.45,7.27,2.17,4,1.63,16-5.21,14.95-5.93-.93-10.83-8.77-15.2-12.36a19.73,19.73,0,0,0-8.07-3.74c-4-1.07-9.21-1.14-12.88-2.9-5.19-2.49-4.11-8.39-3.78-13.09,0.38-5.4.1-10.46-2.06-15.49-5.27-12.3-10.11-24.29-12.87-37.46a157.9,157.9,0,0,1-3-21.13c-0.44-6.14.05-12.28-.25-18.39-0.27-5.53-3.66-11-5.62-16.11-2.39-6.22-4.5-12.54-7.17-18.65-5.32-12.2-12.07-24-13-37.58,0-.64-0.61-0.66-1.15-0.61l-0.31,0c-1.18.11-4.14,1.17-4.3,2.63-1.66,14.85-5.79,29-11,43-2.84,7.68-5.61,15.35-6.52,23.54-0.82,7.33,2.4,14.69,2.31,22.14-0.18,14.64-3.58,29.55-7.69,43.53-2.2,7.46-5,14.84-6.82,22.41-1.64,7,.26,13.69-0.25,20.68-0.42,5.84-3,7.7-8.65,8.66a24.77,24.77,0,0,0-7.72,2.35c-3.1,1.66-5.27,4.27-7.89,6.53-4.74,4.1-10.83,5.38-17,5.05-1.48-.08-6.07,3.15-4.18,3.25a36,36,0,0,0,20-4.61,35.17,35.17,0,0,0,7.06-5.48c3.91-3.8,7.71-3.61,12.56-4.94,4.08-1.13,9-4.29,10.55-8.42,2.6-7-.59-15.27.5-22.53,1.3-8.68,5.05-17.25,7.51-25.67a198.3,198.3,0,0,0,5.34-23.11c1.35-8.14,2.73-16.64,1.95-24.9-0.46-4.9-2.31-9.87-2.32-14.77,0-4.12,1.12-8.52,2.22-12.46,2.79-10.06,7-19.68,10-29.68a147.53,147.53,0,0,0,5.45-26.54l-4.3,2.63,0.31,0-1.15-.61c0.78,12,5.87,22.63,10.83,33.37,2.52,5.45,4.76,11,6.83,16.62,2.3,6.25,5.36,12.41,7.24,18.79,1.47,5,.58,10.49.75,15.64a162.77,162.77,0,0,0,1.51,17.38,160.72,160.72,0,0,0,9.64,36.57c2.14,5.43,5.61,10.75,6.77,16.48,1.2,5.94-.89,11.9.11,17.75,1.53,8.94,13.55,7.8,20.27,10,10.91,3.64,18.92,23.8,32,12.16,5.52-4.91,7.43-14.37,2-20s-13.6-8.06-19.73-13c-14-11.26-12.55-30.28-12.75-46.41a177.68,177.68,0,0,0-1.72-25.1,81,81,0,0,0-3.85-16.47c-1.69-4.45-5.5-8.14-5.25-13,0.62-11.89,1.95-23.56,1.84-35.53-0.09-10.54-.45-21.1-1.34-31.6-0.91-10.89-2.24-21.9-5.34-32.41-2.3-7.78-6.74-14.7-8.62-22.62-2.87-12.06,1.24-25.5,5.45-36.75a90.38,90.38,0,0,0,6.21-32.67c0-1.6-5.46.43-5.45,2h0Z" transform="translate(-110.97 -8.39)" style="fill:#382360"/><path d="M350.23,155.51c0.82,8.86,6.87,16.92,12,23.88,2.31,3.16,4.77,6.22,7.09,9.37a12.06,12.06,0,0,1,1.81,2.64c0.23,0.67,1-1,0,0a14.08,14.08,0,0,1-2.42,1.56c-11.92,7.52-18.38,21-27.74,31.2-2,2.21,3.52.56,4.48-.49C350,218.72,353.85,213,358,207.79c2.69-3.39,5.36-6.83,8.31-10,2.32-2.5,5.36-3.86,8.08-5.86,2.15-1.58,2.67-2.07,1.37-4.27-1.8-3-4.38-5.79-6.5-8.62-5.44-7.26-12.73-16.16-13.6-25.55-0.16-1.69-5.59.51-5.45,2h0Z" transform="translate(-110.97 -8.39)" style="fill:#382360"/><path d="M270.32,275.5c5.68-2,9.3,1.49,14.34,3.15a40.06,40.06,0,0,0,10.23,2,43.1,43.1,0,0,0,18-2.95,40.2,40.2,0,0,0,15.22-10.35c1.67-1.86,9-9.22,6.19-11.32-1.33-1-4.15-.73-5.67-1-3.23-.53-6.21-1.86-9.33-2.81a31.74,31.74,0,0,0-19.15.09C288.84,256,282,263.85,280,275.5c-0.23,1.33,5.16-.33,5.45-2,0.72-4.1,1.89-8.31,4.27-11.8,3.94-5.75,11.5-8.06,18.19-7.61,5.45,0.36,10.19,3,15.46,4.07,1.12,0.22,2.28.24,3.41,0.41a5.4,5.4,0,0,1,2,.37c1,0.83-.33,2.41-1.06,3.58a31.32,31.32,0,0,1-31.13,14.66c-5.63-.7-9.79-3.15-14.94-5.07-3.58-1.34-7.36-.35-10.83.85-2.35.81-4.41,3.92-.52,2.57h0Z" transform="translate(-110.97 -8.39)" style="fill:#382360"/><path d="M323.16,261.92c-11.89-3.6-24.64,4.77-34.48,10.27-3.58,2,.2,2.37,2.35,1.17,7.77-4.34,17.81-11.23,27.18-8.39,1.68,0.51,6-2.75,4.95-3.05h0Z" transform="translate(-110.97 -8.39)" style="fill:#382360"/><path d="M310.88,259.34l-1.14,2.84a4.4,4.4,0,0,0-.64,2.39,3,3,0,0,0,1.41,1.55,8.09,8.09,0,0,1,2,2.24c0.86,1.4,6.14-1.41,5.39-2.63a8.85,8.85,0,0,0-1.37-1.73c-0.5-.49-1.61-1.07-1.87-1.7s0.25-1.48.52-2.14l1.14-2.84c0.43-1.07-2.2-.37-2.47-0.28a4.92,4.92,0,0,0-3,2.3h0Z" transform="translate(-110.97 -8.39)" style="fill:#382360"/><path d="M301.38,261.18c-1,1.31-2,3.73-.67,5,1.62,1.57,3.69,2.66,5.31,4.27,1.32,1.31,6.14-1.88,5.39-2.63a35.92,35.92,0,0,0-4.43-3.72c-0.46-.33-1.36-0.72-1.5-1.34a4.87,4.87,0,0,1,1-2.92c0.81-1.1-1.08-1-1.62-.86a6.28,6.28,0,0,0-3.52,2.15h0Z" transform="translate(-110.97 -8.39)" style="fill:#382360"/><path d="M293.39,263c-0.93,2.29-2.32,5-.32,7.07a19.9,19.9,0,0,0,6.77,4.11c1.12,0.46,2.71-.36,3.65-0.94,0.32-.2,2.35-1.69,1.3-2.11a22.22,22.22,0,0,1-6-3.42c-2.24-1.9-.91-4.42,0-6.73,0.43-1.07-2.2-.37-2.47-0.28a4.9,4.9,0,0,0-3,2.3h0Z" transform="translate(-110.97 -8.39)" style="fill:#382360"/><path d="M351.49,239c10.35-12.8,25.74-20,37.56-31.26,5-4.72,9.48-10.1,10.64-17.05a37.52,37.52,0,0,0,.16-10.46c-0.52-4.53-3.12-9-4.73-13.24-5-13.32-7.6-27.43-12.46-40.84-2.13-5.88-4.52-11.94-8.58-16.79-4.66-5.56-11.16-7.29-17.91-9.1a76.16,76.16,0,0,0-10.81-2.16c-5.6-.67-11.58-0.51-16.79-3-6.12-2.91-5.5-13.21-4.43-18.94,0.24-1.31-5.14.33-5.45,2-0.92,4.94-1,11.49,1,16.18,2.66,6.29,13.17,6.19,18.84,6.71,7.57,0.7,15.92,2.24,22.89,5.42,6.15,2.81,9.93,8.42,12.67,14.39,5.4,11.75,8.56,24.54,11.78,37A116.86,116.86,0,0,0,390,170.45c1.78,4.66,4.26,9.18,4.57,14.22,0.53,8.69-2.06,15.42-8.1,21.65-12.29,12.67-28.94,20.11-40.16,34-1.11,1.38,4.18-.11,5.13-1.29h0Z" transform="translate(-110.97 -8.39)" style="fill:#382360"/><path d="M224.39,208.59c-3.82,1.21-7.56,2.61-11.39,3.79-1,.32-3.12,1-3.52,2.15s0.73,1.13,1.62.86c4.29-1.32,8.49-2.87,12.77-4.22,0.68-.21,3.14-1.33,3-2.3s-1.79-.49-2.47-0.28h0Z" transform="translate(-110.97 -8.39)" style="fill:#382360"/></svg>