<svg id="Layer_2" data-name="Layer 2" xmlns="http://www.w3.org/2000/svg" viewBox="0 0 360.09 477.19"><title>vow</title><path d="M208,242.64a104.52,104.52,0,0,0-5.68,27.77c-0.48,8.59.23,18.28-7.46,24-3.07,2.3,2.19,1.36,3.54.35,7.87-5.89,8.89-14.32,9.25-23.52a107.76,107.76,0,0,1,5.81-30.66c0.35-1-4.88.34-5.45,2h0Z" transform="translate(-69.29 -13.29)" style="fill:#381860"/><path d="M220.35,178.05a7.31,7.31,0,0,0-4.09,2c-0.2.21-.36,0.43-0.55,0.65q0.27-.32,0,0l-0.45.56a1.81,1.81,0,0,0-.34,1.52c0.28,0.56,1.17.52,1.69,0.51a6.69,6.69,0,0,0,5.31-2.64,12.48,12.48,0,0,0,.91-2.34l-0.48.77,0,0-4.72,1.77c-0.34-.16-0.06-0.15-0.06.08,0,0.59.19-.26,0.21-0.28l5.26-2a1.36,1.36,0,0,0-1-.55c-0.16,0-1.37,0-.78,0a6.48,6.48,0,0,0-5.32,2.53,2,2,0,0,0-.22,2,1.76,1.76,0,0,0,1.55.39c-0.54,0,.38,0,0.54,0a6.55,6.55,0,0,0,1.49-.36,9,9,0,0,0,2.56-1.42c0.18-.14,1-0.84.44-0.39l0.24-.19c0.9-.74,1.57-1.82.65-2.8a1.81,1.81,0,0,0-1.26-.69,1.86,1.86,0,0,1-.54,0c-0.22,0-.45,0-0.67,0a7.56,7.56,0,0,0-4.69,2.23,2.55,2.55,0,0,0-.49,2.44,2.27,2.27,0,0,0,2.27,1.16,7.61,7.61,0,0,0,4.65-1.72,3.25,3.25,0,0,0,1.29-3c-0.11-2-3.21-1.69-4.52-1.34-1.56.41-3.57,1.39-4.18,3a2.69,2.69,0,0,0,.2,2.39,3.27,3.27,0,0,0,2.48,1.16,7.73,7.73,0,0,0,5-1.66,2.66,2.66,0,0,0,1.16-3,2.59,2.59,0,0,0-1.8-2,4,4,0,0,0-1.83.34,7.24,7.24,0,0,0-2,1.11c-0.58.48-1.6,1.55-.32,1.8-0.39-.08,0,0.15.1,0.35a3.77,3.77,0,0,1,.38.7,2,2,0,0,1,.14.63,2.87,2.87,0,0,1,0,.35,0.86,0.86,0,1,1,0,.09l0.8-.82-0.12.09,1.3-.8q2.14-.53,1.29-0.45h0.12c-0.12,0-.28,0-0.38,0a1.82,1.82,0,0,1-.84-0.43,1.6,1.6,0,0,1-.34-0.76,1.82,1.82,0,0,1,0-.52c0.07-.57.4-0.47-0.45,0.2l-1.3.8,0.15-.08-1.43.53s-0.56,0-.33,0,0.31,0,.47,0a2.48,2.48,0,0,1,.46,0c0.11,0-.06-0.11.12,0.08a0.79,0.79,0,0,1,.26.49,3.13,3.13,0,0,1,0,.67c-0.05.65-.39,0.54,0.49-0.18l1.3-.8,0.43-.18,1.31-.33q-0.32,0-.07,0h-0.36c0.09,0-.31-0.23-0.36-0.3a0.72,0.72,0,0,1-.12-0.46c-0.05-.44.18-0.71-0.31-0.18l-1.07.83-0.42.23-1.43.53c0.54-.16-0.34.09-0.34,0l0.71,0q-0.5-.08-0.3,0s0.3,0.33.34,0.4,0,0.35.11,0.27l0.8-.82-0.38.31-0.47.42a2.87,2.87,0,0,1,.42-0.31L220,180l-0.19.07,1.31-.33a0.44,0.44,0,1,0-.11,0,2,2,0,1,0-.45,0s0.58,0,.44.09a2.48,2.48,0,0,1,0-.33c0-.49.55-0.39-0.49,0.35l-2.72,1.33,0.2,0-1.14.12,0.43,0h0.26q0.27,0,.07,0,0-.09,0,0c0.5,0.65,1.85.2,2.44,0a6.4,6.4,0,0,0,2.83-1.93,1.2,1.2,0,0,0-.33-1.57,3.16,3.16,0,0,0-2.21.24,6.33,6.33,0,0,0-2.5,1.53,3.74,3.74,0,0,0-.74,1.5c-0.07.21-.13,0.43-0.22,0.64a0.18,0.18,0,0,0,0,.08,2.58,2.58,0,1,0,.44-0.36l1.3-.8-0.09,0,1.43-.53c0.64-.16.22,0,0.1-0.1,0.51,0.4.08,0.05,0.32-.06,0,0-.18.33,0,0l0.33-.4q-0.23.26,0,0l-1.07.83,0.13-.08-2.75,1,0.15,0a6.74,6.74,0,0,0,3.81-1.86,1.11,1.11,0,0,0,.45-1.07,1.13,1.13,0,0,0-1.12-.3h0Z" transform="translate(-69.29 -13.29)" style="fill:#381860"/><path d="M138.94,193.56a2.7,2.7,0,0,0,0,1.17,1.16,1.16,0,0,0,1,.52,6.1,6.1,0,0,0,2.69.05,8,8,0,0,0,2.94-1.43c0.49-.39,1.18-1,0.95-1.73a2.9,2.9,0,0,0-2.06-1.55,6.44,6.44,0,0,0-4.63,1.21,4.16,4.16,0,0,0-2.19,3.15c-0.13,2.21,2.17,2.56,3.92,2.24a7.33,7.33,0,0,0,4.66-2.7,4.38,4.38,0,0,0,.51-2.43,2.49,2.49,0,0,0-.17-1.33,2.08,2.08,0,0,0-1.52-.83c-0.54-.08-1.1,0-1.65-0.05a6.85,6.85,0,0,0-2.68.37c-1.36.47-3.47,1.53-3.63,3.19a3.05,3.05,0,0,0,.62,2.41c1.74,1.79,5,.82,6.85-0.3,0.74-.46,2.16-1.44,1.66-2.5A2.64,2.64,0,0,0,145,192a3.69,3.69,0,0,0-2.77,0,7.21,7.21,0,0,0-3,1.73,1.7,1.7,0,0,0-.59,1.19c0.06,1.1,1.86.51,2.47,0.28a7.8,7.8,0,0,0,2-1.11,2.1,2.1,0,0,0,1-1.18c0-.68.46-0.19-0.78,0.7l-1.3.8,0.06,0-1.43.53a3.17,3.17,0,0,0-.75.11c-0.34,0-.17-0.08,0,0s0.41,0.21.61,0.35a0.69,0.69,0,0,1,.26.28s0.08,0.21.1,0.22c-0.31-.11,1-1.21.73-1l1.3-.8a4.55,4.55,0,0,1,1.46-.47l-0.17,0c0.27,0.13-.18,0-0.29,0a1.79,1.79,0,0,1-.92-0.41,1.64,1.64,0,0,1-.44-1,3.2,3.2,0,0,1,0-.54c0-.39.24-0.61-0.18-0.15l-1.07.83-1.08.53-1.31.33a6.45,6.45,0,0,1,1.77,0,0.66,0.66,0,0,1,.65.62,6.21,6.21,0,0,1,0,1.27,3.57,3.57,0,0,1-.08.54q-0.09.28,0,.1-0.31.48,0.38-.37l1.3-.8c1.75-.91,1.61-0.28.94-0.5a0.92,0.92,0,0,1-.53-0.36,1.13,1.13,0,0,1-.17-0.6,4.64,4.64,0,0,1,.08-0.59c0.08-.81.88-0.3-1.38,0.76l-1.43.53a1.22,1.22,0,0,1-.46,0s0.55,0.25.62,0.3a1.85,1.85,0,0,1,.38.33c0.27,0.31.11,0.48,0.35,0l0.8-.82-0.08.06,2.72-1.33a0.87,0.87,0,1,0,.33-0.12c-0.21-.05-0.44-0.06-0.65-0.1l-0.3-.05a0.84,0.84,0,1,0,.29.12,3.21,3.21,0,0,0,0-.56c0.05-1.11-1.94-.48-2.47-0.28a7.8,7.8,0,0,0-2,1.11,2.16,2.16,0,0,0-1,1.18h0Z" transform="translate(-69.29 -13.29)" style="fill:#381860"/><path d="M139.17,193.05c-7,7.36-7,16-6.64,25.74,0.46,11.78,2.45,23.42,4.08,35.08,1.7,12.15,3.1,24.25.23,36.34-1.11,4.67-2.38,11.32-6.11,14.68-6.38,5.75-10-4.83-10.32-4.66,3.15-1.53,2.25-3.49-.95-1.94-3.5,1.7-5.26,4.21-3,7.89s6.2,3.89,10,3.15c10.89-2.09,14.46-14.24,16.33-23.69,3-15.21-.4-30.89-2.53-46a203.67,203.67,0,0,1-2.45-26.75c-0.06-7.73.18-14.47,5.77-20.33,2.06-2.16-3.5-.54-4.48.49h0Z" transform="translate(-69.29 -13.29)" style="fill:#381860"/><path d="M247.81,110.55c-1.29-8.07-5.65-15.1-7.15-23a94,94,0,0,1-1.86-20.13c0.3-8.68,3.89-16.28,7.79-23.88a42.76,42.76,0,0,1,16.67-18c14-8.72,32.81-11.92,48.62-6.35s26.43,21.94,29.38,37.71c2.78,14.9-2.62,29.26-2.8,44.1,0,1.58,5.43-.42,5.45-2,0.18-14.57,5.3-28.62,3-43.27C344.18,38.47,332,20.31,314.47,15.41c-15.86-4.42-32.55-1.62-47.19,5.43-7.16,3.45-14.77,8.24-19.91,14.4-5.33,6.38-9.36,15.14-12,23-2.83,8.47-2,17.07-1,25.77,1.16,10.23,6.38,19,8,29.15,0.17,1.09,5.68-.8,5.39-2.63h0Z" transform="translate(-69.29 -13.29)" style="fill:#381860"/><path d="M332.36,106.29a50.71,50.71,0,0,0-3.95,13.62c-0.42,2.48-1.21,12.17-3.32,12.86s-8-2.23-10.1-2.88c-2.69-.81-5.39-1.6-8.13-2.27a49,49,0,0,0-13.25-1.6,56.11,56.11,0,0,0-14.72,2.77c-3.17,1-6.28,2.12-9.36,3.33-4.32,1.7-6.51,2.16-8.84-1.84-3.22-5.53-4.07-11.94-7.23-17.49-1.9-3.35-3.81-7.82-7.62-9.34-1.28-.51-5.51,1.11-5.17,2.84,1.33,6.75,1.78,13.69,3.38,20.39,0.93,3.89,2.6,7.53,3.48,11.45a116.72,116.72,0,0,1,2,14.82c0.76,8.13,1.71,14.92,7.08,21.34A51.71,51.71,0,0,0,276,189c15.81,6.48,32.28,1.29,45.64-8.16a48.17,48.17,0,0,0,13-14.12c4.8-7.65,5.94-15.25,6.26-24.19,0.34-9.47,2.09-18.66,2.59-28.09,0.48-9,.15-18.12.86-27.15,0.14-1.78-5,.84-5.45,2l-6.68,17.33c-0.37,1,4.81-.36,5.45-2l6.68-17.33-5.45,2c-1.06,13.47-.22,26.88-2.42,40.26-1.39,8.49-.53,17.16-1.87,25.65-1.16,7.31-5.19,14.15-10.1,19.65-11.71,13.1-31.27,17.82-47,9.47a51,51,0,0,1-17.62-15.39c-4.5-6.44-4.55-14.32-5.28-21.9a93,93,0,0,0-1.67-11.55c-0.88-3.92-2.56-7.56-3.48-11.45-1.59-6.7-2-13.63-3.38-20.39l-5.17,2.84c4.54,1.82,8.11,9.79,9.7,14.22s3,13.64,8.08,15.92,13-3.09,17.55-4.59c6.22-2,12.58-3.28,19.14-2.55s12.86,2.87,19.13,4.79c4.85,1.48,9.49,3,14-.25,3.7-2.66,3.54-7.16,4.36-11.25,1.23-6.13,2-12.08,4.67-17.81C338.37,103.11,333,104.91,332.36,106.29Z" transform="translate(-69.29 -13.29)" style="fill:#381860"/><path d="M269.37,185.61c0.31,11.21-.41,23.9-7.63,33.11-3.46,4.41-8.21,7-12.89,9.89a133.32,133.32,0,0,0-17.29,12.31c-19.61,17.1-24.2,44.46-23.05,69.32,0.08,1.65,5.52-.47,5.45-2a120.16,120.16,0,0,1,3.92-38.16c4.22-14.92,12.45-26.07,25.15-34.95,8.48-5.92,18.65-10.15,24.72-18.89,6.55-9.42,7.37-21.53,7.07-32.63,0-1.63-5.49.45-5.45,2h0Z" transform="translate(-69.29 -13.29)" style="fill:#381860"/><path d="M358.12,293.68c-0.29,7.49-3.63,14-7,20.51s-6.56,13.3-9.9,19.92A416.45,416.45,0,0,1,320,371.3c-15.18,23.62-33.1,45.56-54.44,63.88-2.92,2.51,2.23,1.47,3.54.35,21.51-18.45,39.7-40.35,55.11-64.08a414.79,414.79,0,0,0,22.11-38.63c3.61-7.14,7-14.36,10.71-21.46,3.24-6.23,6.28-12.56,6.55-19.7,0.06-1.54-5.39.4-5.45,2h0Z" transform="translate(-69.29 -13.29)" style="fill:#381860"/><path d="M186.84,275.24c-0.42,29.63,36.46,40.21,45.83,65.27,5.82,15.55,5.17,33.3,7.08,49.6,1.86,15.82,4.91,31.79,15.33,44.36,1.14,1.37,6.17-1.69,5.39-2.63-21.56-26-12-62.46-21.9-92.52-4.48-13.56-16.63-23.42-26.88-32.7-9.59-8.67-19.59-19.51-19.39-33.4,0-1.58-5.43.41-5.45,2h0Z" transform="translate(-69.29 -13.29)" style="fill:#381860"/><path d="M261.8,434.63c4.27,5.35,6,14.07,7.29,20.64,1.86,9.2,1.27,19.3,1,28.62,0,1.55,5.4-.4,5.45-2,0.28-9.29.78-19.21-.88-28.42-1.22-6.78-3.06-16-7.45-21.46-1.1-1.38-6.17,1.65-5.39,2.63h0Z" transform="translate(-69.29 -13.29)" style="fill:#381860"/><path d="M272.54,484c12.38-5.27,23.25-13,33.88-21.09,11.58-8.87,23.1-17.78,34.76-26.54,10.26-7.71,19.92-15.64,28.61-25.11a328.64,328.64,0,0,0,26.62-32.72c16.26-23.07,29.44-49.49,32.36-77.89,2.87-27.93-4.19-59.84-26.47-78.57a103.71,103.71,0,0,0-21.52-13.43c-7.18-3.5-14.83-6.43-21.28-11.22s-8.76-11.56-11.87-18.75c-3.85-8.91-7-18-7.3-27.82,0-1.63-5.5.45-5.45,2a65.1,65.1,0,0,0,4,20.14c2.41,6.72,5.09,14.67,8.92,20.7,6.54,10.3,20.78,14.23,31,19.49C392.19,220,404,229,411.61,242.12,419,254.72,422.76,269.5,423.7,284c1.81,28-7.62,55.24-21.64,79.14a264.12,264.12,0,0,1-25,35.21c-8.21,9.85-16.72,19.62-26.67,27.77-11.22,9.19-23.19,17.4-34.58,26.37-13.41,10.56-26.87,22.17-42.73,28.92-2.24,1-4.31,4.19-.52,2.57h0Z" transform="translate(-69.29 -13.29)" style="fill:#381860"/><path d="M141.52,382.14c9.85,17.74,29.06,28.84,47.18,36.52,23.25,9.85,48.33,14.47,73.38,16.61,1.48,0.13,6.11-3.09,4.18-3.25-24.81-2.12-49.58-6.66-72.61-16.41-18-7.6-37-18.54-46.74-36.1-0.78-1.4-6.11,1.33-5.39,2.63h0Z" transform="translate(-69.29 -13.29)" style="fill:#381860"/><path d="M350.72,197.21c-1.67,6.74-6.49,13.28-10.94,18.49a78.48,78.48,0,0,1-22,17.71c-18.63,10.1-39.29.55-50.93-15.42-1-1.4-6.17,1.57-5.39,2.63A49.77,49.77,0,0,0,286,239c10.53,3.66,20.84,2.18,30.71-2.65a89.52,89.52,0,0,0,25.87-19.32c5.61-6,11.57-13.76,13.58-21.87,0.3-1.21-5,.33-5.45,2h0Z" transform="translate(-69.29 -13.29)" style="fill:#381860"/><path d="M128.57,280.54a74.91,74.91,0,0,0,35.43,10c8.72,0.16,20-.8,27.44-5.84,3.38-2.29-.26-2.59-2.35-1.17-3.48,2.36-8.77,2.79-12.83,3.27a59.25,59.25,0,0,1-14.36,0,75,75,0,0,1-28.39-9.32c-1.43-.84-6.19,2.33-4.95,3.05h0Z" transform="translate(-69.29 -13.29)" style="fill:#381860"/><path d="M129.09,255.23c0,13.4.49,30.65-8.12,41.86-6.86,8.93-19.38,11.63-28.23,18.16-20.72,15.27-26.54,41.65-22,65.87,2.43,13,8.64,25.65,14.88,37.17a139.51,139.51,0,0,0,25.43,34.14C130,470.69,155.11,481,180.6,486.27c30.31,6.23,63.79,6.72,92.27-6.72,3.17-1.5,2.26-3.45-.95-1.94-26.24,12.38-57.7,11.21-85.59,5.72-25.06-4.93-50.07-15-68.92-32.61A136.51,136.51,0,0,1,91.81,417.1c-6-10.89-12-22.88-14.92-35-5.9-24.63-.47-54.61,22.71-68.65,9-5.48,19.71-8.65,26.37-17.38,8.89-11.66,8.56-28.9,8.58-42.82,0-1.59-5.45.42-5.45,2h0Z" transform="translate(-69.29 -13.29)" style="fill:#381860"/><path d="M118.2,202.38c1.53-2.92,1.53-3.57,4.55-4.2,2.2-.46,4.39-1,6.58-1.46,4.54-1,9.1-2.2,13.71-2.91,1.37-.21,6-3.68,3.14-3.23-6.67,1-13.23,2.78-19.82,4.22-6.41,1.4-10.09,2.73-13.3,8.86-0.94,1.8,4.43.06,5.13-1.29h0Z" transform="translate(-69.29 -13.29)" style="fill:#381860"/><path d="M145.75,185.59c-4.33,3.86-4.55,9.09-2.89,14.31,1.22,3.85,3.19,9.72,7.27,11.32,4.26,1.67,11.09.11,15.35-1.12,3.92-1.13,8.52-3.75,10.91-7.14,3.4-4.81,4.72-18.64-1.57-21.62-4.75-2.25-11.89-1.12-16.83-.21-3.92.72-8.46,1.68-11.77,4-3.11,2.23,2.18,1.32,3.54.35-0.76.54,2.07-.45,2.61-0.6a43.23,43.23,0,0,1,5.84-1.09c3.38-.41,9.3-1.13,12.37.86,4.49,2.92,3,12,2,16.39-0.87,3.66-3.61,5.62-7.17,6.42-3.8.86-9.44,2.24-12.45-.86-4.72-4.86-8.38-16.47-2.69-21.55,1-.92.19-1.24-0.67-1.37C148.34,183.54,146.59,184.84,145.75,185.59Z" transform="translate(-69.29 -13.29)" style="fill:#381860"/><path d="M186.47,183.66c-1.44,8.72,3.94,19.22,13.29,19.82a25.43,25.43,0,0,0,12.87-2.73c3.63-1.93,5-4.39,5.72-8.3,0.86-4.47,1.87-9.77.71-14.27-1.24-4.79-6-4.73-10.16-4.4-6.17.49-20.71,2.17-22.44,9.88-0.28,1.25,5.07-.33,5.45-2,0.93-4.13,16.55-6.18,19.8-4,4.45,2.94,2,12.55,1.18,16.87-0.66,3.41-2.11,5.12-6,5.6-3.64.45-7.93-.12-10.49-3-3.12-3.54-5.24-10.78-4.48-15.4C192.14,180.29,186.74,182,186.47,183.66Z" transform="translate(-69.29 -13.29)" style="fill:#381860"/><path d="M175.51,192.46c3.83-.55,7.62-1.32,11.45-1.87a6.35,6.35,0,0,0,3.81-1.86c0.65-.79.58-1.55-0.67-1.37-3.83.55-7.62,1.32-11.45,1.87a6.36,6.36,0,0,0-3.81,1.86c-0.65.79-.58,1.55,0.67,1.37h0Z" transform="translate(-69.29 -13.29)" style="fill:#381860"/><path d="M112.25,211.28c-0.43,8.11,2.39,16.33,5.25,23.8a64.15,64.15,0,0,0,11,19.35,77.09,77.09,0,0,0,19.71,16.51c6.84,4,13.84,5.16,21.67,5.63,7.35,0.45,15.17.62,21.94-2.73,7.72-3.82,11.94-11,15.57-18.5a167.19,167.19,0,0,0,15.32-54.55,105.13,105.13,0,0,0-.24-26.48c-1.35-9.31-2.67-19.12-6.37-27.83-0.57-1.35-6,1.14-5.39,2.63,2.94,6.92,4.24,14.54,5.46,21.91A111.7,111.7,0,0,1,218,191.84c-0.37,16.47-3.85,33-9.16,48.6a123.78,123.78,0,0,1-10.17,23c-2.89,4.9-6.49,8.83-12.37,9.72a58.7,58.7,0,0,1-12.23.14c-7.06-.43-13.58-1.39-19.84-4.83a74.63,74.63,0,0,1-19.35-15.57,61.87,61.87,0,0,1-11.33-18.8c-3.08-7.72-6.29-16.42-5.84-24.86,0.08-1.52-5.37.39-5.45,2h0Z" transform="translate(-69.29 -13.29)" style="fill:#381860"/><path d="M209,148.62c4.93,1.4,11.11-.94,12.35-6.28,0.85-3.67-.67-6-2.22-9.11A10.32,10.32,0,0,1,218,128.1a7.81,7.81,0,0,0,.08-2.44c-0.58-1.76-1.66-1.67-3.22-2.35a8.44,8.44,0,0,1-4.92-5c-0.66-1.89-.07-4.24-1-6-0.74-1.42-1.84-1.68-3.31-2-3.24-.66-4.56-1.64-6.24-4.6-1.89-3.34-3.76-6.67-8.09-6.28-3.6.32-4.82,2.75-7.4,4.6l3.34-1.44c-1.79.11-4.19-3.52-6.53-3.86a19.35,19.35,0,0,0-3.23.09,27,27,0,0,1-8-1.18c-7-1.81-12.87,2-19.76,3.06-5.23.79-11.38,0.23-15.07,4.79-0.67.82-1,2.07-1.69,2.81-1.65,1.68-4.83,1.45-7,1.65-3.51.31-7.16,0.3-10.57,1.24-4.23,1.16-6.15,3.7-7.62,7.63-1.19,3.2-2.65,4-5.26,5.88-2.45,1.73-2.9,3.82-4.13,6.38-1.39,2.88-3.85,3.65-5.69,6a4.91,4.91,0,0,0-1.24,2.63,7.6,7.6,0,0,0,.15,1.34c0.14,2,0,2.23-.82,4.11-1.09,2.54-.42,5.06-2.41,7.2-1.75,1.88-2.29,2.23-2.26,4.93,0,3-1.07,3.46-2.12,5.89a4.92,4.92,0,0,0-.56,2.68c0.13,1.71,1.11,3.26,1.24,5,0.1,1.36-.31,2.74-0.06,4.09,0.32,1.75,1.49,2.71,2.33,4.17,1.19,2.06.58,3.69,0.87,5.88a14.1,14.1,0,0,0,1.06,2.93c0.86,2.38.3,3.84,0.23,6.14-0.09,2.71,1.61,3.53,3,5.54,1.79,2.63.41,6.34,3.08,8.49,1.87,1.5,4.72,2.06,6.79,3.42s3.09,1.12,5.52.7c4.14-.71,8.69.45,12.07-2.87,1.48-1.45,1.63-2.67.81-4.52-0.48-1.09-1.57-1.86-1.95-3-1-3.14,1.33-4.82,3-6.94,1.36-1.79,2.65-3.52,2.31-5.89s-1.67-2.72-1.14-5.07c0.35-1.58,1.36-2.31,1.85-3.76a6,6,0,0,0-.1-3.68c-0.26-1-2.2-4.05-2-4.85s4.28-2.59,5-4c1-2,.2-6.33,1.81-7.71,0.52-.45,2.51-0.42,3.28-0.72a11.21,11.21,0,0,0,3-1.69c1.84-1.53,2.05-3,1.43-5.22s-2.35-4.52.81-5c1.79-.27,3.38,1.06,5,1.44,3.4,0.77,6.69-.9,10,0.28,2.93,1,4.59,2.16,7.78,1.2a12.56,12.56,0,0,0,6.36-4.38c2.32-3.12,1.9-7.82,4.88-10.49L168.59,137c1.1-.24,4,0.94,5.38,1,6.24,0.14,4.78,1.32,6.42,5.46,2.31,5.83,7.74,2.73,11.52,6.15,3.21,2.91,4.66,4.69,9,2,1.62-1,2.51-2.42,3.85-3.68s0.57-1.34,2.21-.71a22.43,22.43,0,0,1,2,1.35c1.49,0.78,6.16-2.41,4.95-3.05-2.32-1.22-3.76-3-6.58-2.48-3.28.56-5.07,2.72-7,5.18l-0.38.49q-1.84,3.29-1.32-.15a20.8,20.8,0,0,0-1.41-1.79A7,7,0,0,0,194,145c-1.68-.43-3.75-0.08-5.34-0.82-2.48-1.16-2.74-3.43-3.46-5.71-1.07-3.4-2.46-4.06-5.85-4.1-1.57,0-1.95.52-3.94,0.14-0.8-.15-1.35-0.68-2.22-0.79a7,7,0,0,0-3.37.5,9.5,9.5,0,0,0-5.42,6c-0.84,2.28-1.3,6.26-4.4,6.76-1.07.17-3.62-1.92-4.87-2.17-2-.39-3.47.34-5.37,0.59-2.23.29-3.67-.65-5.71-1.18a13.38,13.38,0,0,0-8,.61c-2.06.79-4.6,2.16-5.49,4.32a5.19,5.19,0,0,0,.15,3.89c0.22,0.7,1,1.63,1,2.35,0,2.51.25,0.63-1.57,1.67-2.25,1.29-4.67,1.61-6.17,4-2,3.23-.44,6.41-3.68,9-2.36,1.91-3.4,2.73-2.5,6,0.67,2.41,2,4.24.59,6.68-0.85,1.52-2.1,1.81-2,3.83,0.1,2.18,2.14,3.57,1.83,5.93s-2.58,3.74-3.77,5.47c-3,4.36-1.14,5.59.78,9.81,0.5,1.11,2.82.47-.54,0.81-0.58.06-1.23-.1-1.81-0.08-1.17,0-2.4.48-3.52,0.49-2,0-2.13-.71-3.71-1.76-1.83-1.21-4.81-1.16-6.19-3-1.25-1.72-.37-4.58-1.36-6.48-0.78-1.49-2.51-2.34-3.2-3.87-0.89-2,.41-3.8.3-5.78-0.14-2.38-1.8-4.25-2-6.7-0.19-2.79.19-3.16-1.34-5.64A9.49,9.49,0,0,1,90,170.09a29.15,29.15,0,0,0-.7-5c-0.69-3.78,1.17-4.15,2.1-6.89s-0.74-3.81,1.59-6.39a9.27,9.27,0,0,0,1.71-2.13c1-2,.56-4.32,1.4-6.4a10.21,10.21,0,0,0,1.12-3.78c0.41-4.39,3.78-4.9,5.72-8.47,1.15-2.12,1.15-4.37,3.11-6,1.24-1,2.83-1.43,4-2.6,2.15-2.09,2.18-4.69,3.54-7.15,1.77-3.18,9.86-2.1,13.41-2.69,2.93-.48,6-1.21,8.47-3a12,12,0,0,0,2.89-3.27c1.72-2.49,4.28-1.93,7.2-2.33a69.83,69.83,0,0,0,9.09-1.78c3.68-1,5.53-2.4,9.81-1.6,2.25,0.42,4.21,1.42,6.55,1.55,2.49,0.14,5.2-.95,7.47.5,3,1.88,3.72,4.27,7.6,2.44,1.13-.53,2.27-2.28,3.24-2.64,1.15-.43,3.69,4.19,4.61,5.81s2.17,3.71,4.1,4.61c2.12,1,4.54-.16,5.67,2.48,0.8,1.85.16,4.17,1,6.12a9.25,9.25,0,0,0,3.45,4c2.38,1.51,4.18,1.15,4.34,4.58,0.11,2.3,0,3.57,1.14,5.74s2.2,3.34,2.36,5.75c0.11,1.77.26,4.64-2.14,4C212.23,145.09,208,148.34,209,148.62Z" transform="translate(-69.29 -13.29)" style="fill:#381860"/></svg>