<?xml version="1.0" encoding="utf-8"?>
<!-- Generator: Adobe Illustrator 19.2.0, SVG Export Plug-In . SVG Version: 6.00 Build 0)  -->
<svg version="1.1" id="Layer_1" xmlns="http://www.w3.org/2000/svg" xmlns:xlink="http://www.w3.org/1999/xlink" x="0px" y="0px"
	 viewBox="0 0 150 150" style="enable-background:new 0 0 150 150;" xml:space="preserve">
<style type="text/css">
	.st0{fill:#361772;}
	.st1{fill:#FFFFFF;}
</style>
<circle class="st0" cx="76.1" cy="73.9" r="68.3"/>
<path class="st1" d="M91.9,42.3C96,42.3,100,44,103,47s4.6,7,4.6,11.2v31.6c0,4.2-1.7,8.2-4.6,11.2s-7,4.6-11.2,4.6H60.3
	c-4.2,0-8.2-1.7-11.2-4.6c-3-3-4.6-7-4.6-11.2V58.1c0-4.2,1.7-8.2,4.6-11.2c3-3,7-4.6,11.2-4.6H91.9 M91.9,36H60.3
	c-12.2,0-22.1,10-22.1,22.1v31.6c0,12.2,10,22.1,22.1,22.1h31.6c12.2,0,22.1-10,22.1-22.1V58.1C114,46,104,36,91.9,36z"/>
<path class="st1" d="M96.9,58.1c-2.6,0-4.7-2.1-4.7-4.7s2.1-4.7,4.7-4.7c2.6,0,4.7,2.1,4.7,4.7S99.5,58.1,96.9,58.1z M76.4,61.3
	c7,0,12.6,5.7,12.6,12.6s-5.7,12.6-12.6,12.6s-12.6-5.7-12.6-12.6C63.7,66.9,69.4,61.3,76.4,61.3 M76.4,54.9c-10.5,0-19,8.5-19,19
	s8.5,19,19,19s19-8.5,19-19S86.8,54.9,76.4,54.9z"/>
</svg>
