<?xml version="1.0" encoding="utf-8"?>
<!-- Generator: Adobe Illustrator 19.2.0, SVG Export Plug-In . SVG Version: 6.00 Build 0)  -->
<svg version="1.1" id="Layer_1" xmlns="http://www.w3.org/2000/svg" xmlns:xlink="http://www.w3.org/1999/xlink" x="0px" y="0px"
	 viewBox="0 0 266.9 266.9" style="enable-background:new 0 0 266.9 266.9;" xml:space="preserve">
<style type="text/css">
	.st0{fill:#4B2684;}
	.st1{fill:#FFFFFF;}
</style>
<circle class="st0" cx="133.4" cy="133.4" r="125.1"/>
<path class="st1" d="M165.4,137.7L165.4,137.7c0-0.2,0-0.3,0-0.5c0,0,0,0,0,0l2.6-19.8c0,0,0,0,0-0.1c0-1.2-1-2.3-2.3-2.3
	c0,0,0,0,0,0h-21.6V99.4c0-7.1,2-11.9,12.1-11.9l10.7,0c1.2,0,2.2-1,2.2-2.3V67.7c0-1.2-1-2.2-2.3-2.2c0,0,0,0-0.1,0
	c-3.5-0.3-9.6-0.7-16.5-0.7c-18.7,0-31.4,11.4-31.4,32.3v18H100c-1.2,0-2.3,1-2.3,2.3v19.9c0,0,0,0,0,0c0,1.2,1,2.2,2.2,2.3h18.9
	V200c0,1.2,1,2.1,2.1,2.2h20.8c1.2,0,2.3-1,2.3-2.3c0,0,0,0,0,0v-60.4h19.1C164.3,139.5,165.2,138.7,165.4,137.7z"/>
</svg>
