<svg id="Layer_1" data-name="Layer 1" xmlns="http://www.w3.org/2000/svg" xmlns:xlink="http://www.w3.org/1999/xlink" viewBox="0 0 454.81 485"><defs><linearGradient id="linear-gradient" x1="122.87" y1="471.17" x2="38.16" y2="382.97" gradientTransform="matrix(1.14, -0.1, 0.1, 1.19, -50.16, -69.69)" gradientUnits="userSpaceOnUse"><stop offset="0.26" stop-color="#5e547b"/><stop offset="0.74" stop-color="#51426a"/><stop offset="1" stop-color="#371f50"/></linearGradient><linearGradient id="linear-gradient-2" x1="273.15" y1="69.63" x2="251.75" y2="119.98" gradientUnits="userSpaceOnUse"><stop offset="0.11" stop-color="#b4b4b4"/><stop offset="0.22" stop-color="#bababa"/><stop offset="0.53" stop-color="#c8c8c8"/><stop offset="1" stop-color="#dcdcdc"/></linearGradient><linearGradient id="linear-gradient-3" x1="184.96" y1="347.65" x2="184.96" y2="347.65" gradientUnits="userSpaceOnUse"><stop offset="0.36" stop-color="#9c9c9c"/><stop offset="1" stop-color="#fff"/></linearGradient><linearGradient id="linear-gradient-4" x1="246.9" y1="70.43" x2="246.9" y2="70.43" gradientUnits="userSpaceOnUse"><stop offset="0" stop-color="#d1c5db"/><stop offset="0.3" stop-color="#c3b8d1"/><stop offset="0.87" stop-color="#9f96b7"/><stop offset="1" stop-color="#968db0"/></linearGradient><linearGradient id="linear-gradient-5" x1="252.88" y1="70.43" x2="252.88" y2="70.43" gradientUnits="userSpaceOnUse"><stop offset="0" stop-color="#d1c5db"/><stop offset="0.13" stop-color="#c8bcd4"/><stop offset="0.7" stop-color="#a49aba"/><stop offset="1" stop-color="#968db0"/></linearGradient><linearGradient id="linear-gradient-6" x1="261.59" y1="22.07" x2="262.82" y2="22.07" xlink:href="#linear-gradient-5"/><linearGradient id="linear-gradient-7" x1="187.98" y1="316.68" x2="320.91" y2="191.5" gradientUnits="userSpaceOnUse"><stop offset="0.07" stop-color="#b4b4b4"/><stop offset="0.24" stop-color="#c1c1c1"/><stop offset="0.42" stop-color="#c8c8c8"/><stop offset="0.47" stop-color="#cbcbcb"/><stop offset="0.74" stop-color="#d8d8d8"/><stop offset="1" stop-color="#dcdcdc"/></linearGradient><linearGradient id="linear-gradient-8" x1="3.46" y1="501.56" x2="132.11" y2="264.48" gradientTransform="matrix(1.01, 0.24, -0.23, 0.96, 156.98, -134.1)" gradientUnits="userSpaceOnUse"><stop offset="0.12" stop-color="#371f50"/><stop offset="0.15" stop-color="#392252"/><stop offset="0.51" stop-color="#51426a"/><stop offset="1" stop-color="#5e547b"/></linearGradient><linearGradient id="linear-gradient-9" x1="331.6" y1="-265.12" x2="249.17" y2="-98.46" gradientTransform="matrix(0.97, -0.09, 0.08, 0.86, 60.83, 355.71)" gradientUnits="userSpaceOnUse"><stop offset="0" stop-color="#dcdcdc"/><stop offset="0.35" stop-color="#d3d3d3"/><stop offset="0.64" stop-color="#c8c8c8"/><stop offset="1" stop-color="#b4b4b4"/></linearGradient><linearGradient id="linear-gradient-10" x1="220.81" y1="273.8" x2="384.66" y2="460.82" gradientUnits="userSpaceOnUse"><stop offset="0.05" stop-color="#dcdcdc"/><stop offset="0.57" stop-color="#dadada"/><stop offset="0.83" stop-color="#d2d2d2"/><stop offset="1" stop-color="#c8c8c8"/></linearGradient><linearGradient id="linear-gradient-11" x1="211.11" y1="44.39" x2="223.84" y2="81.17" gradientUnits="userSpaceOnUse"><stop offset="0" stop-color="#51426a"/><stop offset="0.5" stop-color="#5a4e75"/><stop offset="1" stop-color="#5e547b"/></linearGradient><linearGradient id="linear-gradient-12" x1="395.82" y1="489.01" x2="465.89" y2="402.83" gradientUnits="userSpaceOnUse"><stop offset="0.09" stop-color="#b4b4b4"/><stop offset="0.39" stop-color="#c2c2c2"/><stop offset="0.49" stop-color="#c8c8c8"/><stop offset="0.88" stop-color="#d8d8d8"/><stop offset="0.96" stop-color="#dcdcdc"/></linearGradient></defs><title>Logo_SR</title><path d="M78,396.67c-0.22-1.73-.81-3-2-3.36-2.24-.64-5.27.49-7.6,0.49a30.8,30.8,0,0,1-10.27-1.58,20.17,20.17,0,0,1-11-8.81,18.6,18.6,0,0,0-2-3.27,3.47,3.47,0,0,0-4.91-.67c-6.45,5.12-5.77,18.4-5.65,25.77a90.93,90.93,0,0,0,4.59,27.41c8.25,24.59,28.15,42,53.76,46.32,29.31,5,63.44-2.71,89.52-17-2.14,1.18-5.92.9-8.35,1q-4.94.29-9.88,0.23c-22.2-.27-46,0.77-65.69-11.29a45.69,45.69,0,0,1-21.78-41.3C76.76,408.12,78.54,401,78,396.67Z" transform="translate(-26.73 -10.1)" style="fill:url(#linear-gradient)"/><path d="M289.8,46.11c-43.65,14.46-50.58,44.37-34.86,94.8a1.65,1.65,0,0,0,2.18-1.36v0c1.85-13.88,9-22.26,14.52-23.5h0a2.34,2.34,0,0,0,1.09-2.81C266.36,94.16,260.83,61.83,289.8,46.11Z" transform="translate(-26.73 -10.1)" style="fill:url(#linear-gradient-2)"/><path d="M185,347.65" transform="translate(-26.73 -10.1)" style="stroke:#020101;stroke-miterlimit:10;stroke-width:0.679891666532646px;fill:url(#linear-gradient-3)"/><path d="M246.9,70.43" transform="translate(-26.73 -10.1)" style="fill:url(#linear-gradient-4)"/><path d="M252.88,70.43" transform="translate(-26.73 -10.1)" style="fill:url(#linear-gradient-5)"/><path d="M262.82,21.8l-1.23.55A6.35,6.35,0,0,1,262.82,21.8Z" transform="translate(-26.73 -10.1)" style="fill:url(#linear-gradient-6)"/><path d="M333.28,259.83c-60.41,51.54-153,42.6-187.13,16.26,5-2.93,15-5.69,23.48-6.37C206,279.52,271.08,284.83,333.28,259.83Z" transform="translate(-26.73 -10.1)" style="fill:url(#linear-gradient-7)"/><path d="M240.47,308.92c9.36,22,11.48,53.17,8.12,76.32-6.89,47.49-40.91,90.13-88.82,100.53a112.36,112.36,0,0,1-21.44,2.5,131.15,131.15,0,0,1-77.26-23.61c22.88,2,42.4,7.63,65.68,2s45-18.43,60.25-37.08c32.94-40.39,31.11-109.47-1.69-149.61-19-23.26-47.9-35.56-75.12-48.26-45.85-21.39-84.32-53.26-83.45-107.84,0.67-42.48,25.86-83.15,64-102a114.13,114.13,0,0,1,39.62-11.2c25.76-2.49,53.42,2.92,73.18,20.45,10.15,9,18,20.63,21,33.77C201.22,44.68,167,37.44,137.47,46.47,96.68,59,63.67,105.21,79.36,148c16.52,45.06,67.46,70.1,103.51,97.33C206.07,262.84,228.5,280.76,240.47,308.92Z" transform="translate(-26.73 -10.1)" style="fill:url(#linear-gradient-8)"/><path d="M249.23,83.31c17.7-66,125.4-82.73,178.67-21.43C483,125.31,446.7,253.66,281.17,286c110.1-40.54,165.08-153.22,99.28-221.15C349.94,33.4,274.82,29.82,249.23,83.31Z" transform="translate(-26.73 -10.1)" style="fill:url(#linear-gradient-9)"/><path d="M463.66,463.58c-9.29,16.37-68.15,34.71-102.42,23-34.07-11.69-58.38-53.05-75.46-106.82-4-12.56-22.72-68.5-41.49-85.85-20.57-19-63.47-30.72-98.28-18-2-4.46-2.67-21.19-.68-26.35,50.64-18.26,121.81,19.13,140.75,45.8,19.13,26.92,35.1,70.85,44.27,90.32C358.15,444.55,371.38,474.91,463.66,463.58Z" transform="translate(-26.73 -10.1)" style="fill:url(#linear-gradient-10)"/><path d="M237.52,112.71a2.09,2.09,0,0,0,2.64.23c5.52-57.26-32-82.53-52.67-92.49C202.62,33.29,223.57,70.88,216,94.53v0a1.58,1.58,0,0,0,1.17,2.07h0c7.87,1.69,17.6,9.17,20.38,16.08h0Z" transform="translate(-26.73 -10.1)" style="fill:url(#linear-gradient-11)"/><path d="M480.89,417.84c-0.76-7-1.76-15.31-4.87-21.55a3.68,3.68,0,0,0-1.37-1.62c-1.59-.91-3.49-0.17-5,0.41a30.28,30.28,0,0,1-5.53,1.73,21.61,21.61,0,0,1-6.41-.08c-3.42-.45-7.18-1-10.23-2.7a6.05,6.05,0,0,0-1.44-.66,2.45,2.45,0,0,0-2.15.66c-2,1.83-.25,5.55.27,7.63,0.82,3.3,1.6,6.62,2.2,10a59.48,59.48,0,0,1,.66,19.63,48.84,48.84,0,0,1-12.78,25.37C420.34,471.53,399.69,478,380,480.17a169.32,169.32,0,0,1-17.61,1c-5.14,0-10.06.28-15.37-.84,22.54,12.58,56.61,18.88,84.51,11.92,14.76-3.68,29.87-13.86,39-26.53a58.21,58.21,0,0,0,9.61-22.62,79.8,79.8,0,0,0,.84-24.31Z" transform="translate(-26.73 -10.1)" style="fill:url(#linear-gradient-12)"/></svg>