<svg id="Layer_1" data-name="Layer 1" xmlns="http://www.w3.org/2000/svg" xmlns:xlink="http://www.w3.org/1999/xlink" viewBox="0 0 930.11 1001.87"><defs><linearGradient id="linear-gradient" x1="329.43" y1="7869.59" x2="129.95" y2="7720.14" gradientUnits="userSpaceOnUse"><stop offset="0.26" stop-color="#5e547b"/><stop offset="0.74" stop-color="#51426a"/><stop offset="1" stop-color="#371f50"/></linearGradient><linearGradient id="linear-gradient-2" x1="525.93" y1="7021.87" x2="478.92" y2="7132.53" gradientUnits="userSpaceOnUse"><stop offset="0.11" stop-color="#b4b4b4"/><stop offset="0.22" stop-color="#bababa"/><stop offset="0.53" stop-color="#c8c8c8"/><stop offset="1" stop-color="#dcdcdc"/></linearGradient><linearGradient id="linear-gradient-3" x1="378.76" y1="7532.44" x2="378.76" y2="7532.44" gradientUnits="userSpaceOnUse"><stop offset="0.36" stop-color="#9c9c9c"/><stop offset="1" stop-color="#fff"/></linearGradient><linearGradient id="linear-gradient-4" x1="616.45" y1="7561.1" x2="861.42" y2="7838.85" gradientTransform="matrix(1.04, 0.09, -0.08, 0.9, 155.06, 159.34)" gradientUnits="userSpaceOnUse"><stop offset="0" stop-color="#371f50"/><stop offset="0.53" stop-color="#51426a"/><stop offset="1" stop-color="#5e547b"/></linearGradient><linearGradient id="linear-gradient-5" x1="496.81" y1="6966.65" x2="496.81" y2="6966.65" gradientUnits="userSpaceOnUse"><stop offset="0" stop-color="#d1c5db"/><stop offset="0.3" stop-color="#c3b8d1"/><stop offset="0.87" stop-color="#9f96b7"/><stop offset="1" stop-color="#968db0"/></linearGradient><linearGradient id="linear-gradient-6" x1="508.2" y1="6966.65" x2="508.2" y2="6966.65" gradientUnits="userSpaceOnUse"><stop offset="0" stop-color="#d1c5db"/><stop offset="0.13" stop-color="#c8bcd4"/><stop offset="0.7" stop-color="#a49aba"/><stop offset="1" stop-color="#968db0"/></linearGradient><linearGradient id="linear-gradient-7" x1="545.5" y1="6860.55" x2="547.86" y2="6860.55" xlink:href="#linear-gradient-6"/><linearGradient id="linear-gradient-8" x1="433.43" y1="7506.85" x2="711.78" y2="7244.75" gradientUnits="userSpaceOnUse"><stop offset="0.07" stop-color="#b4b4b4"/><stop offset="0.24" stop-color="#c1c1c1"/><stop offset="0.42" stop-color="#c8c8c8"/><stop offset="0.47" stop-color="#cbcbcb"/><stop offset="0.74" stop-color="#d8d8d8"/><stop offset="1" stop-color="#dcdcdc"/></linearGradient><linearGradient id="linear-gradient-9" x1="1174.38" y1="7732.25" x2="960.8" y2="7419.32" gradientTransform="matrix(0.9, 0.22, -0.24, 0.99, 1187.41, -85.23)" gradientUnits="userSpaceOnUse"><stop offset="0.12" stop-color="#371f50"/><stop offset="0.15" stop-color="#392252"/><stop offset="0.51" stop-color="#51426a"/><stop offset="1" stop-color="#5e547b"/></linearGradient><linearGradient id="linear-gradient-10" x1="413.33" y1="7118.2" x2="253.41" y2="7441.55" gradientTransform="matrix(1, -0.09, 0.08, 0.86, -288.65, 952.4)" gradientUnits="userSpaceOnUse"><stop offset="0" stop-color="#dcdcdc"/><stop offset="0.35" stop-color="#d3d3d3"/><stop offset="0.64" stop-color="#c8c8c8"/><stop offset="1" stop-color="#b4b4b4"/></linearGradient><linearGradient id="linear-gradient-11" x1="506.03" y1="7447.18" x2="824.36" y2="7810.52" gradientUnits="userSpaceOnUse"><stop offset="0.05" stop-color="#dcdcdc"/><stop offset="0.57" stop-color="#dadada"/><stop offset="0.83" stop-color="#d2d2d2"/><stop offset="1" stop-color="#c8c8c8"/></linearGradient><linearGradient id="linear-gradient-12" x1="476.31" y1="6971.1" x2="500.55" y2="7041.14" gradientUnits="userSpaceOnUse"><stop offset="0" stop-color="#5e547b"/><stop offset="0.5" stop-color="#5a4e75"/><stop offset="1" stop-color="#51426a"/></linearGradient><linearGradient id="linear-gradient-13" x1="849.63" y1="7849.7" x2="992.73" y2="7673.66" gradientUnits="userSpaceOnUse"><stop offset="0.09" stop-color="#b4b4b4"/><stop offset="0.39" stop-color="#c2c2c2"/><stop offset="0.49" stop-color="#c8c8c8"/><stop offset="0.88" stop-color="#d8d8d8"/><stop offset="0.96" stop-color="#dcdcdc"/></linearGradient></defs><title>Logo_SR</title><path d="M202.07,7705.37a0.48,0.48,0,0,1,0,0,3.35,3.35,0,0,0-2.3-4.15h0c-31.12,2.52-49.19-23.09-57.17-43.1l0,0a3.35,3.35,0,0,0-4.72-.23c-36.72,46.84-18.16,133,23.78,168,56.55,47.19,146,31.9,213.74-3.88C243.37,7843.17,174.7,7774.62,202.07,7705.37Z" transform="translate(-89.36 -6859.99)" style="fill:url(#linear-gradient)"/><path d="M554.18,6966.65c-76.65,35.48-94.65,108.16-70.86,210.77,1.74,0.86,3.65-.41,4.27-2.86l0,0c3.61-29.12,17.51-46.71,28.41-49.32l0,0c1.74-.81,2.69-3.44,2.14-5.9C509.59,7080.55,498.07,7026.85,554.18,6966.65Z" transform="translate(-89.36 -6859.99)" style="fill:url(#linear-gradient-2)"/><path d="M378.76,7532.44" transform="translate(-89.36 -6859.99)" style="stroke:#020101;stroke-miterlimit:10;stroke-width:1.340846000920891px;fill:url(#linear-gradient-3)"/><path d="M422.84,7396.18c-21.5-13.85-66.72-40.92-107.75-66.92-119.44-75.68-154.71-208.73-86.52-302.88,39.47-54.5,165-96.83,260.4-21.26-37.19-130.94-235.74-138.88-336.5-35.18-78,80.31-63,172.25-60,184.1,32.8,131.45,134.68,184,293.15,248.26Z" transform="translate(-89.36 -6859.99)" style="fill:url(#linear-gradient-4)"/><path d="M496.81,6966.65" transform="translate(-89.36 -6859.99)" style="fill:url(#linear-gradient-5)"/><path d="M508.2,6966.65" transform="translate(-89.36 -6859.99)" style="fill:url(#linear-gradient-6)"/><path d="M547.86,6860l-2.35,1.11A11.72,11.72,0,0,1,547.86,6860Z" transform="translate(-89.36 -6859.99)" style="fill:url(#linear-gradient-7)"/><path d="M721,7370.07c-147.13,129.71-290.21,121.41-358.38,69.55,10-6.48,29.64-12.59,46.5-14.11C480.51,7456.65,603.86,7434.07,721,7370.07Z" transform="translate(-89.36 -6859.99)" style="fill:url(#linear-gradient-8)"/><path d="M463.7,7426c-18.37-7.17-39.92-8.46-54.68-.23,63.23,80.45,94.72,226.27,17.47,320.31-42.42,51.65-100.15,107.83-244.87,93.9,63.8,27.33,187.16,44.35,296.15-45C579.38,7711.68,568.85,7497.64,463.7,7426Z" transform="translate(-89.36 -6859.99)" style="fill:url(#linear-gradient-9)"/><path d="M481.17,7047.15c23.29-135.62,268.23-175.51,375.17-47.15,110.63,132.8-16.88,366.72-253.65,446,160.39-98.7,307.56-286.22,158.08-439.44C697.9,6942.15,533.9,6951.93,481.17,7047.15Z" transform="translate(-89.36 -6859.99)" style="fill:url(#linear-gradient-10)"/><path d="M970.54,7822.39c-17.93,33.55-131.94,45.4-189.08,25.43-66.06-23.08-116.53-86.79-149.5-197-7.7-25.74-37-150.41-77.36-185.28-42-36.22-125.45-58.24-192.41-27.58-3.85-9.13-3.85-30,0-40.53,142.6-33.6,249.82,47,278.39,108.73,18.77,40.52,36.35,84.66,52.74,125C742.15,7751.32,775.65,7844.23,970.54,7822.39Z" transform="translate(-89.36 -6859.99)" style="fill:url(#linear-gradient-11)"/><path d="M521.93,7102.87a3.48,3.48,0,0,0,4.7.45c24.69-74.89-26.45-147.15-97.23-177.14,76.07,56.93,67.43,116.92,54.15,141.2v0a3.13,3.13,0,0,0,2.08,4h0c14,3.3,31.33,17.91,36.28,31.39h0Z" transform="translate(-89.36 -6859.99)" style="fill:url(#linear-gradient-12)"/><path d="M1014.87,7696.9c-8.4-31.73-11.43-40.12-14.76-47.9l0,0a3.08,3.08,0,0,0-3.91-1.94l-0.15,0c-15.91,4.87-41.65,5.69-59.55-2.45h-0.14a3.08,3.08,0,0,0-3.57,2.5v0c7.7,19.41,15.22,46.5,19,72.83,5.35,37-13.36,94.65-104.09,115.66-31.83,7.37-57.51,4.09-94.12-.74a340.46,340.46,0,0,0,45.84,17.78c49.66,14.54,103.11,4.15,112.3,1.38,43-12.94,61-23.3,73.86-38.57C1014.53,7781.1,1027,7742.65,1014.87,7696.9Z" transform="translate(-89.36 -6859.99)" style="fill:url(#linear-gradient-13)"/></svg>