<svg xmlns="http://www.w3.org/2000/svg" xmlns:xlink="http://www.w3.org/1999/xlink" data-name="Layer 1" viewBox="0 0 454.81 485"><defs/><defs><linearGradient id="b" x1="122.87" x2="38.16" y1="471.17" y2="382.97" gradientTransform="matrix(1.14 -.1 .1 1.19 -50.16 -69.69)" gradientUnits="userSpaceOnUse"><stop offset=".26" stop-color="#5e547b"/><stop offset=".74" stop-color="#51426a"/><stop offset="1" stop-color="#371f50"/></linearGradient><linearGradient id="c" x1="273.15" x2="251.75" y1="69.63" y2="119.98" gradientUnits="userSpaceOnUse"><stop offset=".11" stop-color="#b4b4b4"/><stop offset=".22" stop-color="#bababa"/><stop offset=".53" stop-color="#c8c8c8"/><stop offset="1" stop-color="#dcdcdc"/></linearGradient><linearGradient id="d" x1="184.96" x2="184.96" y1="347.65" y2="347.65" gradientUnits="userSpaceOnUse"><stop offset=".36" stop-color="#9c9c9c"/><stop offset="1" stop-color="#fff"/></linearGradient><linearGradient id="e" x1="246.9" x2="246.9" y1="70.43" y2="70.43" gradientUnits="userSpaceOnUse"><stop offset="0" stop-color="#d1c5db"/><stop offset=".3" stop-color="#c3b8d1"/><stop offset=".87" stop-color="#9f96b7"/><stop offset="1" stop-color="#968db0"/></linearGradient><linearGradient id="a" x1="252.88" x2="252.88" y1="70.43" y2="70.43" gradientUnits="userSpaceOnUse"><stop offset="0" stop-color="#d1c5db"/><stop offset=".13" stop-color="#c8bcd4"/><stop offset=".7" stop-color="#a49aba"/><stop offset="1" stop-color="#968db0"/></linearGradient><linearGradient id="f" x1="261.59" x2="262.82" y1="22.07" y2="22.07" xlink:href="#a"/><linearGradient id="g" x1="187.98" x2="320.91" y1="316.68" y2="191.5" gradientUnits="userSpaceOnUse"><stop offset=".07" stop-color="#b4b4b4"/><stop offset=".24" stop-color="#c1c1c1"/><stop offset=".42" stop-color="#c8c8c8"/><stop offset=".47" stop-color="#cbcbcb"/><stop offset=".74" stop-color="#d8d8d8"/><stop offset="1" stop-color="#dcdcdc"/></linearGradient><linearGradient id="h" x1="3.46" x2="132.11" y1="501.56" y2="264.48" gradientTransform="matrix(1.01 .24 -.23 .96 156.98 -134.1)" gradientUnits="userSpaceOnUse"><stop offset=".12" stop-color="#371f50"/><stop offset=".15" stop-color="#392252"/><stop offset=".51" stop-color="#51426a"/><stop offset="1" stop-color="#5e547b"/></linearGradient><linearGradient id="i" x1="331.6" x2="249.17" y1="-265.12" y2="-98.46" gradientTransform="matrix(.97 -.09 .08 .86 60.83 355.71)" gradientUnits="userSpaceOnUse"><stop offset="0" stop-color="#dcdcdc"/><stop offset=".35" stop-color="#d3d3d3"/><stop offset=".64" stop-color="#c8c8c8"/><stop offset="1" stop-color="#b4b4b4"/></linearGradient><linearGradient id="j" x1="220.81" x2="384.66" y1="273.8" y2="460.82" gradientUnits="userSpaceOnUse"><stop offset=".05" stop-color="#dcdcdc"/><stop offset=".57" stop-color="#dadada"/><stop offset=".83" stop-color="#d2d2d2"/><stop offset="1" stop-color="#c8c8c8"/></linearGradient><linearGradient id="k" x1="211.11" x2="223.84" y1="44.39" y2="81.17" gradientUnits="userSpaceOnUse"><stop offset="0" stop-color="#51426a"/><stop offset=".5" stop-color="#5a4e75"/><stop offset="1" stop-color="#5e547b"/></linearGradient><linearGradient id="l" x1="395.82" x2="465.89" y1="489.01" y2="402.83" gradientUnits="userSpaceOnUse"><stop offset=".09" stop-color="#b4b4b4"/><stop offset=".39" stop-color="#c2c2c2"/><stop offset=".49" stop-color="#c8c8c8"/><stop offset=".88" stop-color="#d8d8d8"/><stop offset=".96" stop-color="#dcdcdc"/></linearGradient></defs><path fill="url(#b)" d="M78 396.67c-.22-1.73-.81-3-2-3.36-2.24-.64-5.27.49-7.6.49a30.8 30.8 0 01-10.27-1.58 20.17 20.17 0 01-11-8.81 18.6 18.6 0 00-2-3.27 3.47 3.47 0 00-4.91-.67c-6.45 5.12-5.77 18.4-5.65 25.77a90.93 90.93 0 004.59 27.41c8.25 24.59 28.15 42 53.76 46.32 29.31 5 63.44-2.71 89.52-17-2.14 1.18-5.92.9-8.35 1q-4.94.29-9.88.23c-22.2-.27-46 .77-65.69-11.29a45.69 45.69 0 01-21.78-41.3c.02-2.49 1.8-9.61 1.26-13.94z" transform="translate(-26.73 -10.1)"/><path fill="url(#c)" d="M289.8 46.11c-43.65 14.46-50.58 44.37-34.86 94.8a1.65 1.65 0 002.18-1.36c1.85-13.88 9-22.26 14.52-23.5a2.34 2.34 0 001.09-2.81c-6.37-19.08-11.9-51.41 17.07-67.13z" transform="translate(-26.73 -10.1)"/><path fill="url(#f)" d="M262.82 21.8l-1.23.55a6.35 6.35 0 011.23-.55z" transform="translate(-26.73 -10.1)"/><path fill="url(#g)" d="M333.28 259.83c-60.41 51.54-153 42.6-187.13 16.26 5-2.93 15-5.69 23.48-6.37 36.37 9.8 101.45 15.11 163.65-9.89z" transform="translate(-26.73 -10.1)"/><path fill="url(#h)" d="M240.47 308.92c9.36 22 11.48 53.17 8.12 76.32-6.89 47.49-40.91 90.13-88.82 100.53a112.36 112.36 0 01-21.44 2.5 131.15 131.15 0 01-77.26-23.61c22.88 2 42.4 7.63 65.68 2s45-18.43 60.25-37.08c32.94-40.39 31.11-109.47-1.69-149.61-19-23.26-47.9-35.56-75.12-48.26-45.85-21.39-84.32-53.26-83.45-107.84.67-42.48 25.86-83.15 64-102a114.13 114.13 0 0139.62-11.2c25.76-2.49 53.42 2.92 73.18 20.45 10.15 9 18 20.63 21 33.77-23.32-20.21-57.54-27.45-87.07-18.42C96.68 59 63.67 105.21 79.36 148c16.52 45.06 67.46 70.1 103.51 97.33 23.2 17.51 45.63 35.43 57.6 63.59z" transform="translate(-26.73 -10.1)"/><path fill="url(#i)" d="M249.23 83.31c17.7-66 125.4-82.73 178.67-21.43C483 125.31 446.7 253.66 281.17 286c110.1-40.54 165.08-153.22 99.28-221.15-30.51-31.45-105.63-35.03-131.22 18.46z" transform="translate(-26.73 -10.1)"/><path fill="url(#j)" d="M463.66 463.58c-9.29 16.37-68.15 34.71-102.42 23-34.07-11.69-58.38-53.05-75.46-106.82-4-12.56-22.72-68.5-41.49-85.85-20.57-19-63.47-30.72-98.28-18-2-4.46-2.67-21.19-.68-26.35 50.64-18.26 121.81 19.13 140.75 45.8 19.13 26.92 35.1 70.85 44.27 90.32 27.8 58.87 41.03 89.23 133.31 77.9z" transform="translate(-26.73 -10.1)"/><path fill="url(#k)" d="M237.52 112.71a2.09 2.09 0 002.64.23c5.52-57.26-32-82.53-52.67-92.49 15.13 12.84 36.08 50.43 28.51 74.08a1.58 1.58 0 001.17 2.07c7.87 1.69 17.6 9.17 20.38 16.08z" transform="translate(-26.73 -10.1)"/><path fill="url(#l)" d="M480.89 417.84c-.76-7-1.76-15.31-4.87-21.55a3.68 3.68 0 00-1.37-1.62c-1.59-.91-3.49-.17-5 .41a30.28 30.28 0 01-5.53 1.73 21.61 21.61 0 01-6.41-.08c-3.42-.45-7.18-1-10.23-2.7a6.05 6.05 0 00-1.44-.66 2.45 2.45 0 00-2.15.66c-2 1.83-.25 5.55.27 7.63.82 3.3 1.6 6.62 2.2 10a59.48 59.48 0 01.66 19.63 48.84 48.84 0 01-12.78 25.37c-13.9 14.87-34.55 21.34-54.24 23.51a169.32 169.32 0 01-17.61 1c-5.14 0-10.06.28-15.37-.84 22.54 12.58 56.61 18.88 84.51 11.92 14.76-3.68 29.87-13.86 39-26.53a58.21 58.21 0 009.61-22.62 79.8 79.8 0 00.84-24.31z" transform="translate(-26.73 -10.1)"/></svg>