<svg id="Layer_1" data-name="Layer 1" xmlns="http://www.w3.org/2000/svg" viewBox="0 0 581.6 67.3"><title>Logo_name--dark</title><g style="isolation:isolate"><path d="M241.67,159.06l0.6-2.8c-0.3-3.9-3.1-5.9-8.3-5.9a11.1,11.1,0,0,0-7.9,3.1c-2.2,2.1-3.3,4.3-3.3,6.5a7.81,7.81,0,0,0,3,6,33.87,33.87,0,0,0,7.3,4.6c2.8,1.3,5.7,2.8,8.5,4.4a26.64,26.64,0,0,1,7.3,6,13.11,13.11,0,0,1,3,8.4,17.61,17.61,0,0,1-7.9,15.3,29.36,29.36,0,0,1-17.1,5.6,34.18,34.18,0,0,1-15.5-3.3,10.34,10.34,0,0,1-6.1-9.8,9.18,9.18,0,0,1,2.5-6.3c1.7-1.9,4-2.8,7.1-2.8a5.58,5.58,0,0,1,3.3,1,3.93,3.93,0,0,1,1.8,2.6c0,1.1-.7,1.6-2,1.6-2.6,0-3.9,1.1-3.9,3.2a8.87,8.87,0,0,0,3.6,6.5c2.3,2,5.6,2.9,9.8,2.9a15.19,15.19,0,0,0,10.8-4.1,13.17,13.17,0,0,0,4.5-10,9.8,9.8,0,0,0-3.1-7.1,27.72,27.72,0,0,0-7.4-5.4l-8.7-4.5a26.26,26.26,0,0,1-7.4-5.6,10.72,10.72,0,0,1-3.1-7.4c0-4.9,2.2-8.8,6.5-11.7a26,26,0,0,1,14.8-4.4,22.35,22.35,0,0,1,10.1,2.2c3,1.5,4.6,3.7,4.7,6.6a7.22,7.22,0,0,1-1.4,4.4,4.25,4.25,0,0,1-3.7,1.7Q241.82,160.71,241.67,159.06Z" transform="translate(-205.27 -142.96)" style="fill:#31273c"/><path d="M287.57,209.56c-3,0-5.2-.6-6.8-1.8-0.5-.5-0.8-1.8-0.8-3.9s0.1-4.9.2-8.4a42.86,42.86,0,0,1-5.9,10.6,9.3,9.3,0,0,1-7.5,3.5c-3.1,0-5.7-1.4-8-4.1s-3.4-7.1-3.4-13a25.13,25.13,0,0,1,5.2-15.7,16.51,16.51,0,0,1,13.7-6.8c2.4,0,5.2,1.5,8.2,4.6a14.49,14.49,0,0,1,3.3-2.9,7.69,7.69,0,0,1,4-1.7c1.1,0,1.7,1.4,1.7,4.2a29.12,29.12,0,0,1-.6,4.3,16.88,16.88,0,0,1-1.4,4.6c-0.7,1.7-1,7.7-1,17.9,0,2,.2,3,0.7,3,1.3-.1,3.1-1.6,5.4-4.7a61.36,61.36,0,0,0,6.8-11.7c2.3-4.8,3.6-7.1,4.1-7.1s0.7,0.3.7,0.9c0,2.1-1.1,5.3-3.3,9.8C296.77,203.46,291.67,209.56,287.57,209.56Zm-13.9-35.1c-2.1,0-4.4,1.5-6.8,4.6a16.67,16.67,0,0,0-3.6,10.7,22.75,22.75,0,0,0,1.9,10.1c1.3,2.6,2.9,4,5,4,2.5,0,6.2-6.1,11.1-18.2q0.15-.9.3-3c0.1-1.4.2-2.5,0.3-3.2a10.8,10.8,0,0,0-3.6-3.4A9.06,9.06,0,0,0,273.67,174.46Z" transform="translate(-205.27 -142.96)" style="fill:#31273c"/><path d="M307.67,203.16l0.1,3.4c0,2.1-.6,3.1-1.8,3.1a18.82,18.82,0,0,1-5.3-.7c-1.7-.5-2.5-1.1-2.5-2s0.2-3.7.6-8.7,0.6-8.7.6-11.2v-6.5c0-3.5.4-5.6,1.1-6.4a46.48,46.48,0,0,1,4.1-3.2c1.9-1.4,3.4-2.1,4.2-2.1a2.34,2.34,0,0,1,1.7.4,3,3,0,0,1,.3,1.6,27.09,27.09,0,0,1-2.3,11q-0.6,6.3-.6,8.7c4-7.3,6.9-12,8.5-14.3,2.8-4.3,5.4-6.4,7.7-6.4a6.27,6.27,0,0,1,4.1,1.6,5.16,5.16,0,0,1,1.9,4.1c0,1.6,0,3.1-.1,4.6a29.6,29.6,0,0,1-.2,3.4,11.45,11.45,0,0,0-.1,1.5,44.83,44.83,0,0,1,3.9-4.9c2.3-2.7,3.8-4.5,4.6-5.3s1.7-1.6,2.6-2.4c1.8-1.7,3.3-2.5,4.8-2.5a6.43,6.43,0,0,1,4,1.5,4.6,4.6,0,0,1,1.9,3.8,141.39,141.39,0,0,1-1.1,14.2c-0.7,6.3-1.1,10.2-1.1,11.9s0.2,2.5.7,2.5c1.3-.1,3.1-1.6,5.4-4.7a61.36,61.36,0,0,0,6.8-11.7c2.3-4.8,3.6-7.1,4.1-7.1s0.7,0.3.7,0.9c0,2.1-1.1,5.3-3.3,9.8-6,12.3-11.1,18.5-15.2,18.5a9.73,9.73,0,0,1-6.2-1.8c-0.5-.5-0.8-1.9-0.8-4s0.2-5.7.6-10.6,0.6-8.5.6-10.9-0.4-3.6-1.3-3.6-3.1,1.6-6.5,4.8-5.1,5.5-5.3,6.8c-0.5,2.5-.7,7.9-0.7,16.2,0,2.1-.6,3.1-1.7,3.1a16.34,16.34,0,0,1-5-.7c-1.6-.5-2.3-1.1-2.3-2s0.2-4.5.7-10.8,0.7-10.9.7-13.5-0.4-3.9-1.3-3.9-3,2.5-6.4,7.5-5.2,8.5-5.6,10.5C307.77,198.76,307.67,200.86,307.67,203.16Z" transform="translate(-205.27 -142.96)" style="fill:#31273c"/><path d="M391.27,209.56c-3,0-5.2-.6-6.8-1.8-0.5-.5-0.8-1.8-0.8-3.9s0.1-4.9.2-8.4a42.86,42.86,0,0,1-5.9,10.6,9.3,9.3,0,0,1-7.5,3.5c-3.1,0-5.7-1.4-8-4.1s-3.4-7.1-3.4-13a25.13,25.13,0,0,1,5.2-15.7A16.51,16.51,0,0,1,378,170c2.4,0,5.2,1.5,8.2,4.6a14.49,14.49,0,0,1,3.3-2.9,7.69,7.69,0,0,1,4-1.7c1.1,0,1.7,1.4,1.7,4.2a29.12,29.12,0,0,1-.6,4.3,16.88,16.88,0,0,1-1.4,4.6c-0.7,1.7-1,7.7-1,17.9,0,2,.2,3,0.7,3,1.3-.1,3.1-1.6,5.4-4.7a61.36,61.36,0,0,0,6.8-11.7c2.3-4.8,3.6-7.1,4.1-7.1s0.7,0.3.7,0.9c0,2.1-1.1,5.3-3.3,9.8C400.47,203.46,395.37,209.56,391.27,209.56Zm-14-35.1c-2.1,0-4.4,1.5-6.8,4.6a16.67,16.67,0,0,0-3.6,10.7,22.76,22.76,0,0,0,1.9,10.1c1.3,2.6,2.9,4,5,4,2.5,0,6.2-6.1,11.1-18.2q0.15-.9.3-3c0.1-1.4.2-2.5,0.3-3.2a10.8,10.8,0,0,0-3.6-3.4A9.06,9.06,0,0,0,377.27,174.46Z" transform="translate(-205.27 -142.96)" style="fill:#31273c"/><path d="M410.67,203.16l0.1,3.4c0,2.1-.6,3.1-1.8,3.1a18.82,18.82,0,0,1-5.3-.7c-1.7-.5-2.5-1.1-2.5-2s0.2-3.7.6-8.7,0.6-8.7.6-11.2v-6.5c0-3.5.4-5.6,1.1-6.4a46.48,46.48,0,0,1,4.1-3.2c1.9-1.4,3.4-2.1,4.2-2.1a2.34,2.34,0,0,1,1.7.4,3,3,0,0,1,.3,1.6,27.09,27.09,0,0,1-2.3,11q-0.6,6.3-.6,8.7,0.45-.6,4.8-7.5a71.78,71.78,0,0,1,7.4-10c2-2.1,3.8-3.2,5.4-3.2a6.82,6.82,0,0,1,4.3,1.5,4.6,4.6,0,0,1,1.9,3.8,141.39,141.39,0,0,1-1.1,14.2c-0.7,6.3-1.1,10.2-1.1,11.9s0.2,2.5.7,2.5c1.3-.1,3.1-1.6,5.4-4.7a61.36,61.36,0,0,0,6.8-11.7c2.3-4.8,3.6-7.1,4.1-7.1s0.7,0.3.7,0.9c0,2.1-1.1,5.3-3.3,9.8-6,12.3-11.1,18.5-15.2,18.5-3,0-5.2-.6-6.8-1.8-0.5-.5-0.8-1.9-0.8-4s0.2-5.7.6-10.6,0.6-8.5.6-10.9-0.4-3.6-1.3-3.6-3.2,2.5-6.9,7.5-5.7,8.2-6,9.6C410.87,198.46,410.67,200.86,410.67,203.16Z" transform="translate(-205.27 -142.96)" style="fill:#31273c"/><path d="M468.77,191.16c-6,12.3-11.1,18.5-15.3,18.5s-6.6-.5-7.3-1.4-1.1-4.1-1.1-9.5a227.55,227.55,0,0,1,1.6-23.2c-3.8-.7-5.8-2.2-6.1-4.5q0-1.8,2.4-1.8a9.28,9.28,0,0,1,4.2.9c0.7-5.3,1.5-10.6,2.4-16.1a7.66,7.66,0,0,1,2.2-4,5.36,5.36,0,0,1,3.5-1.9q1.5,0,1.5,4.5c0,1.4-.5,7.8-1.6,19.2a31.34,31.34,0,0,0,6.8-2.2,19.92,19.92,0,0,1,4.4-1.6q2.1,0,2.1,1.2t-4.2,3a39.65,39.65,0,0,1-9.4,2.9c-0.9,10.7-1.4,18.8-1.4,24.3,0,2.9.5,4.4,1.4,4.4,1.4-.1,3.2-1.6,5.5-4.6a61.36,61.36,0,0,0,6.8-11.7c2.3-4.8,3.6-7.2,4.1-7.2s0.7,0.3.7,0.9C472.07,183.36,471,186.66,468.77,191.16Z" transform="translate(-205.27 -142.96)" style="fill:#31273c"/><path d="M474.47,203.16l0.1,3.4c0,2.1-.6,3.1-1.8,3.1a18.82,18.82,0,0,1-5.3-.7c-1.7-.5-2.5-1.1-2.5-2s0.2-3.7.6-8.7,0.6-8.7.6-11.2v-6.4c0-18.8,3.5-30.7,10.4-35.9a8,8,0,0,1,4.9-1.8c0.8,0,1.5.8,2.3,2.4a14.24,14.24,0,0,1,1.1,6.3,47.21,47.21,0,0,1-3.3,17.7,51.2,51.2,0,0,1-6.8,12.6c-0.1,1.8-.1,4.7-0.1,8.6q0.45-.6,4.8-7.5a71.78,71.78,0,0,1,7.4-10c2-2.1,3.8-3.2,5.4-3.2a6.82,6.82,0,0,1,4.3,1.5,4.6,4.6,0,0,1,1.9,3.8,141.39,141.39,0,0,1-1.1,14.2c-0.7,6.3-1.1,10.2-1.1,11.9s0.2,2.5.7,2.5c1.3-.1,3.1-1.6,5.4-4.7a61.36,61.36,0,0,0,6.8-11.7c2.3-4.8,3.6-7.1,4.1-7.1s0.7,0.3.7,0.9c0,2.1-1.1,5.3-3.3,9.8-6,12.3-11.1,18.5-15.2,18.5-3,0-5.2-.6-6.8-1.8-0.5-.5-0.8-1.9-0.8-4s0.2-5.7.6-10.6,0.6-8.5.6-10.9-0.4-3.6-1.3-3.6-3.2,2.5-6.9,7.5-5.7,8.2-6,9.6C474.67,198.46,474.47,200.86,474.47,203.16Zm7.4-49c0-3.1-.4-4.6-1.3-4.6-1.4,0-2.7,4.1-4,12.2a139.86,139.86,0,0,0-1.5,15.1C479.67,167.86,481.87,160.26,481.87,154.16Z" transform="translate(-205.27 -142.96)" style="fill:#31273c"/><path d="M538.47,209.56c-3,0-5.2-.6-6.8-1.8-0.5-.5-0.8-1.8-0.8-3.9s0.1-4.9.2-8.4a42.86,42.86,0,0,1-5.9,10.6,9.3,9.3,0,0,1-7.5,3.5c-3.1,0-5.7-1.4-8-4.1s-3.4-7.1-3.4-13a25.13,25.13,0,0,1,5.2-15.7,16.51,16.51,0,0,1,13.7-6.8c2.4,0,5.2,1.5,8.2,4.6a14.5,14.5,0,0,1,3.3-2.9,7.69,7.69,0,0,1,4-1.7c1.1,0,1.7,1.4,1.7,4.2a29.12,29.12,0,0,1-.6,4.3,16.88,16.88,0,0,1-1.4,4.6c-0.7,1.7-1,7.7-1,17.9,0,2,.2,3,0.7,3,1.3-.1,3.1-1.6,5.4-4.7a61.36,61.36,0,0,0,6.8-11.7c2.2-4.8,3.6-7.1,4.1-7.1s0.7,0.3.7,0.9c0,2.1-1.1,5.3-3.3,9.8C547.67,203.46,542.57,209.56,538.47,209.56Zm-14-35.1c-2.1,0-4.4,1.5-6.8,4.6a16.67,16.67,0,0,0-3.6,10.7,22.76,22.76,0,0,0,1.9,10.1c1.3,2.6,2.9,4,5,4,2.5,0,6.2-6.1,11.1-18.2q0.15-.9.3-3c0.1-1.4.2-2.5,0.3-3.2a10.8,10.8,0,0,0-3.6-3.4A9.06,9.06,0,0,0,524.47,174.46Z" transform="translate(-205.27 -142.96)" style="fill:#31273c"/><path d="M600.67,209.06l-16.9-26.3h-19.6v26.3h-2.4v-58.7h20.8c5.6,0,10.1,1.4,13.3,4.3s4.9,6.8,4.9,11.9a15.72,15.72,0,0,1-3.8,10.9c-2.5,2.8-6,4.5-10.5,5.2l17,26.4h-2.8Zm-6.5-32.2c2.8-2.4,4.1-5.9,4.1-10.3s-1.4-7.8-4.1-10.3-6.7-3.7-11.7-3.7h-18.4v27.9h18.4Q590.12,180.46,594.17,176.86Z" transform="translate(-205.27 -142.96)" style="fill:#31273c"/><path d="M636.17,190.26h-31.9c0.2,5.5,1.7,9.9,4.5,13s6.6,4.6,11.4,4.6a16.08,16.08,0,0,0,8.5-2.2,13.53,13.53,0,0,0,5.5-6.1l1.8,1a16.55,16.55,0,0,1-6.2,6.9,17.51,17.51,0,0,1-9.5,2.5c-5.6,0-10.1-1.8-13.2-5.5s-4.8-8.8-4.8-15.3,1.6-11.6,4.7-15.3,7.4-5.5,12.9-5.5c5.2,0,9.3,1.9,12.2,5.6s4.4,8.7,4.4,15.1ZM608.57,175q-4.05,4.8-4.2,13.2h30c-0.2-5.7-1.5-10.1-4-13.2s-6-4.8-10.6-4.8C615,170.16,611.27,171.76,608.57,175Z" transform="translate(-205.27 -142.96)" style="fill:#31273c"/><path d="M669.37,172.06q3.9,3.9,3.9,10.8v26.2h-2.2v-25.6c0-4.3-1.1-7.5-3.4-9.8s-5.4-3.4-9.3-3.4a15.13,15.13,0,0,0-7.6,2,16.08,16.08,0,0,0-5.5,5.5,15.6,15.6,0,0,0-2,7.8v23.5h-2.2v-40h2v9.6a14.64,14.64,0,0,1,5.8-7.6,17.07,17.07,0,0,1,9.8-2.8C663.27,168.26,666.77,169.56,669.37,172.06Z" transform="translate(-205.27 -142.96)" style="fill:#31273c"/><path d="M714.17,207.26l-0.2,1.8a5.7,5.7,0,0,1-3.1.7c-3.9,0-5.9-2.6-5.9-7.7h0a11.2,11.2,0,0,1-6,5.7,20.9,20.9,0,0,1-9.2,2c-3.8,0-6.8-.9-9-2.6a8.51,8.51,0,0,1-3.3-7.1,9.16,9.16,0,0,1,3.5-7.5c2.3-1.9,6-3.3,11-4.2l13.1-2.5v-4.5c0-3.6-1-6.3-3-8.3s-4.9-3-8.7-3a14.59,14.59,0,0,0-8.4,2.2,13.39,13.39,0,0,0-4.9,6.9l-1.7-1.3c2.3-6.5,7.3-9.8,15.1-9.8,4.5,0,7.9,1.1,10.3,3.3s3.6,5.5,3.6,9.7v21.4a6.25,6.25,0,0,0,1,3.9,3.54,3.54,0,0,0,3,1.3A3.16,3.16,0,0,0,714.17,207.26Zm-17.3-.6a14.31,14.31,0,0,0,5.8-3.8,8.45,8.45,0,0,0,2.3-6.1v-8.9l-12.1,2.3c-4.7.9-8,2.1-10.1,3.7a7.5,7.5,0,0,0-3.1,6.3,6.55,6.55,0,0,0,2.8,5.7,13.07,13.07,0,0,0,7.7,2A20.19,20.19,0,0,0,696.87,206.66Z" transform="translate(-205.27 -142.96)" style="fill:#31273c"/><path d="M746.57,169.06v40h-2l-0.1-9.5a14.1,14.1,0,0,1-5.9,7.5,17.28,17.28,0,0,1-10,2.8c-4.2,0-7.6-1.2-10-3.7s-3.6-6-3.6-10.6v-26.5h2.2v26.1c0,4.2,1,7.3,3.1,9.5s5,3.2,8.8,3.2a14.73,14.73,0,0,0,8.3-2.3,14.51,14.51,0,0,0,5.2-5.8,14.8,14.8,0,0,0,1.8-6.9v-23.8h2.2Z" transform="translate(-205.27 -142.96)" style="fill:#31273c"/><path d="M786.87,150.66v58.4h-2l-0.1-10.7a15.44,15.44,0,0,1-5.6,8.5,16.07,16.07,0,0,1-9.8,3c-5.5,0-9.9-1.8-13-5.5s-4.7-8.8-4.7-15.3,1.6-11.6,4.7-15.3,7.5-5.5,13-5.5a15.77,15.77,0,0,1,9.7,3,15.18,15.18,0,0,1,5.6,8.4v-29h2.2Zm-6.4,52.4c2.7-3.2,4.1-7.6,4.2-13.1v-1.8q-0.15-8.25-4.2-13.2a13.42,13.42,0,0,0-10.8-4.8c-5,0-8.9,1.7-11.7,5s-4.2,8-4.2,13.9,1.4,10.5,4.2,13.8,6.7,5,11.7,5A13.56,13.56,0,0,0,780.47,203.06Z" transform="translate(-205.27 -142.96)" style="fill:#31273c"/></g></svg>