<?xml version="1.0" encoding="utf-8"?>
<!-- Generator: Adobe Illustrator 19.2.0, SVG Export Plug-In . SVG Version: 6.00 Build 0)  -->
<svg version="1.1" id="logo_name" xmlns="http://www.w3.org/2000/svg" xmlns:xlink="http://www.w3.org/1999/xlink" x="0px" y="0px"
	 viewBox="0 0 581.6 67.3" style="enable-background:new 0 0 581.6 67.3;" xml:space="preserve">
<style type="text/css">
	.st0{fill:#C6B8E0;}
</style>
<title>samantharenaud</title>
<path class="st0" d="M36.4,16.1l0.6-2.8c-0.3-3.9-3.1-5.9-8.3-5.9c-2.9-0.1-5.8,1.1-7.9,3.1c-2.2,2.1-3.3,4.3-3.3,6.5
	c0,2.3,1.1,4.6,3,6c2.2,1.8,4.7,3.4,7.3,4.6c2.8,1.3,5.7,2.8,8.5,4.4c2.8,1.5,5.2,3.6,7.3,6c2,2.4,3,5.3,3,8.4
	c0.2,6.1-2.8,11.9-7.9,15.3c-5,3.6-11,5.6-17.1,5.6c-5.4,0.1-10.7-1-15.5-3.3c-3.8-1.7-6.2-5.6-6.1-9.8c0-2.3,0.9-4.6,2.5-6.3
	c1.7-1.9,4-2.8,7.1-2.8c1.2,0,2.3,0.3,3.3,1c0.9,0.6,1.6,1.5,1.8,2.6c0,1.1-0.7,1.6-2,1.6c-2.6,0-3.9,1.1-3.9,3.2
	c0.2,2.6,1.5,5,3.6,6.5c2.3,2,5.6,2.9,9.8,2.9c4,0.1,7.9-1.4,10.8-4.1c2.9-2.5,4.5-6.2,4.5-10c0-2.7-1.1-5.3-3.1-7.1
	c-2.2-2.2-4.7-4-7.4-5.4l-8.7-4.5c-2.8-1.4-5.3-3.3-7.4-5.6c-2-2-3.1-4.6-3.1-7.4c0-4.9,2.2-8.8,6.5-11.7c4.4-2.9,9.5-4.5,14.8-4.4
	c3.5-0.1,7,0.7,10.1,2.2c3,1.5,4.6,3.7,4.7,6.6c0,1.6-0.5,3.1-1.4,4.4c-0.9,1.2-2.3,1.8-3.7,1.7C37.3,17.7,36.5,17.2,36.4,16.1z"/>
<path class="st0" d="M351.1,37.5c-0.5,0-1.9,2.3-4.1,7.1c-1.8,4.1-4.1,8.1-6.8,11.7c-2.3,3.1-4.1,4.6-5.4,4.7c-0.5,0-0.7-1-0.7-3
	c0-10.2,0.3-16.2,1-17.9c0.7-1.5,1.2-3,1.4-4.6c0.3-1.4,0.5-2.9,0.6-4.3c0-2.8-0.6-4.2-1.7-4.2c-1.5,0.2-2.9,0.8-4,1.7
	c-1.2,0.8-2.4,1.8-3.3,2.9c-3-3.1-5.8-4.6-8.2-4.6c-5.4-0.1-10.5,2.4-13.7,6.8c-3.5,4.5-5.3,10-5.2,15.7c0,0.2,0,0.4,0,0.6
	c-1.2,2.1-2.5,4.1-3.9,6c-2.3,3.1-4.1,4.6-5.4,4.7c-0.5,0-0.7-0.8-0.7-2.5s0.4-5.6,1.1-11.9c0.6-4.7,1-9.5,1.1-14.2
	c0-1.5-0.7-2.9-1.9-3.8c-1.2-1-2.7-1.5-4.3-1.5c-1.6,0-3.4,1.1-5.4,3.2c-2.8,3.1-5.2,6.5-7.4,10c-2.9,4.6-4.5,7.1-4.8,7.5
	c0-3.9,0-6.8,0.1-8.6c2.8-3.9,5.1-8.1,6.8-12.6c2.2-5.6,3.3-11.6,3.3-17.7c0.1-2.2-0.3-4.3-1.1-6.3C277.7,0.8,277,0,276.2,0
	c-1.8,0-3.5,0.7-4.9,1.8c-5.2,3.9-8.5,11.7-9.8,23.3h-0.4c-1.5,0.4-3,0.9-4.4,1.6c-2.2,1-4.5,1.7-6.8,2.2
	c1.1-11.4,1.6-17.8,1.6-19.2c0-3-0.5-4.5-1.5-4.5c-1.4,0.2-2.6,0.8-3.5,1.9c-1.1,1.1-1.9,2.5-2.2,4c-0.9,5.5-1.7,10.8-2.4,16.1
	c-1.3-0.6-2.7-0.9-4.2-0.9c-1.6,0-2.4,0.6-2.4,1.8c0.3,2.3,2.3,3.8,6.1,4.5c-0.5,3.8-0.8,7.5-1.1,11.3l-0.2,0.5
	c-1.8,4.1-4.1,8.1-6.8,11.7c-2.3,3.1-4.1,4.6-5.4,4.7c-0.5,0-0.7-0.8-0.7-2.5s0.4-5.6,1.1-11.9c0.6-4.7,1-9.5,1.1-14.2
	c0-1.5-0.7-2.9-1.9-3.8c-1.2-1-2.7-1.5-4.3-1.5c-1.6,0-3.4,1.1-5.4,3.2c-2.8,3.1-5.2,6.5-7.4,10c-2.9,4.6-4.5,7.1-4.8,7.5
	c0-1.6,0.2-4.5,0.6-8.7c1.5-3.5,2.3-7.2,2.3-11c0-0.6-0.1-1.1-0.3-1.6c-0.5-0.3-1.1-0.5-1.7-0.4c-0.8,0-2.3,0.7-4.2,2.1
	c-1.4,1-2.8,2.1-4.1,3.2c-0.7,0.8-1.1,2.9-1.1,6.4v6.5c0,1.6-0.1,3.7-0.2,6.3c-1.2,2-2.5,4-3.9,5.9c-2.3,3.1-4.1,4.6-5.4,4.7
	c-0.5,0-0.7-1-0.7-3c0-10.2,0.3-16.2,1-17.9c0.7-1.5,1.2-3,1.4-4.6c0.3-1.4,0.5-2.9,0.6-4.3c0-2.8-0.6-4.2-1.7-4.2
	c-1.5,0.2-2.9,0.8-4,1.7c-1.2,0.8-2.4,1.8-3.3,2.9c-3-3.1-5.8-4.6-8.2-4.6c-5.4-0.1-10.5,2.4-13.7,6.8c-3.5,4.5-5.3,10-5.2,15.7
	c0,0.4,0,0.7,0,1c-1.1,2-2.4,3.8-3.7,5.7c-2.3,3.1-4.1,4.6-5.4,4.7c-0.5,0-0.7-0.8-0.7-2.5s0.4-5.6,1.1-11.9c0.6-4.7,1-9.5,1.1-14.2
	c0-1.5-0.7-2.9-1.9-3.8c-1.1-0.9-2.5-1.5-4-1.5c-1.5,0-3,0.8-4.8,2.5c-0.9,0.8-1.8,1.6-2.6,2.4c-0.8,0.8-2.3,2.6-4.6,5.3
	c-1.4,1.5-2.7,3.2-3.9,4.9c0-0.5,0-1,0.1-1.5c0.1-1.1,0.2-2.3,0.2-3.4c0.1-1.5,0.1-3,0.1-4.6c0-1.6-0.7-3.1-1.9-4.1
	c-1.1-1-2.6-1.6-4.1-1.6c-2.3,0-4.9,2.1-7.7,6.4c-1.6,2.3-4.5,7-8.5,14.3c0-1.6,0.2-4.5,0.6-8.7c1.5-3.5,2.3-7.2,2.3-11
	c0-0.6-0.1-1.1-0.3-1.6c-0.5-0.3-1.1-0.5-1.7-0.4c-0.8,0-2.3,0.7-4.2,2.1c-1.4,1-2.8,2.1-4.1,3.2c-0.7,0.8-1.1,2.9-1.1,6.4v6.5
	c0,1.3-0.1,2.9-0.2,4.9c-1.4,2.6-2.9,5-4.6,7.4c-2.3,3.1-4.1,4.6-5.4,4.7c-0.5,0-0.7-1-0.7-3c0-10.2,0.3-16.2,1-17.9
	c0.7-1.5,1.2-3,1.4-4.6c0.3-1.4,0.5-2.9,0.6-4.3c0-2.8-0.6-4.2-1.7-4.2c-1.5,0.2-2.9,0.8-4,1.7c-1.2,0.8-2.4,1.8-3.3,2.9
	c-3-3.1-5.8-4.6-8.2-4.6c-5.4-0.1-10.5,2.4-13.7,6.8c-3.5,4.5-5.3,10-5.2,15.7c0,5.9,1.1,10.3,3.4,13c2.3,2.7,4.9,4.1,8,4.1
	c2.9,0.1,5.7-1.2,7.5-3.5c2.5-3.2,4.4-6.8,5.9-10.6c-0.1,3.5-0.2,6.3-0.2,8.4s0.3,3.4,0.8,3.9c1.6,1.2,3.8,1.8,6.8,1.8
	s6.8-3.6,11.2-10.8c-0.4,4.6-0.6,7.3-0.6,8.2s0.8,1.5,2.5,2c1.7,0.5,3.5,0.7,5.3,0.7c1.2,0,1.8-1,1.8-3.1l-0.1-3.4
	c0-2.3,0.1-4.4,0.3-6.5c0.4-2,2.2-5.5,5.6-10.5s5.5-7.5,6.4-7.5s1.3,1.3,1.3,3.9s-0.2,7.2-0.7,13.5s-0.7,9.9-0.7,10.8s0.7,1.5,2.3,2
	c1.6,0.5,3.3,0.7,5,0.7c1.1,0,1.7-1,1.7-3.1c0-8.3,0.2-13.7,0.7-16.2c0.2-1.3,1.9-3.6,5.3-6.8s5.6-4.8,6.5-4.8s1.3,1.2,1.3,3.6
	s-0.2,6-0.6,10.9s-0.6,8.5-0.6,10.6s0.3,3.5,0.8,4c1.8,1.3,4,1.9,6.2,1.8c3.1,0,6.9-3.6,11.1-10.9c0.4,2.5,1.3,4.8,2.9,6.8
	c2.3,2.7,4.9,4.1,8,4.1c2.9,0.1,5.7-1.2,7.5-3.5c2.5-3.2,4.4-6.8,5.9-10.6c-0.1,3.5-0.2,6.3-0.2,8.4s0.3,3.4,0.8,3.9
	c1.6,1.2,3.8,1.8,6.8,1.8s6.4-3.2,10.4-9.4c-0.3,3.8-0.4,6.1-0.4,6.8s0.8,1.5,2.5,2c1.7,0.5,3.5,0.7,5.3,0.7c1.2,0,1.8-1,1.8-3.1
	l-0.1-3.4c0-2.3,0.2-4.7,0.4-7.5c0.3-1.4,2.3-4.6,6-9.6c3.7-5,6-7.5,6.9-7.5s1.3,1.2,1.3,3.6s-0.2,6-0.6,10.9s-0.6,8.5-0.6,10.6
	s0.3,3.5,0.8,4c1.6,1.2,3.8,1.8,6.8,1.8c3.7,0,8.2-5.1,13.5-15.2c-0.1,1.5-0.1,3-0.1,4.5c0,5.4,0.4,8.6,1.1,9.5s3.1,1.4,7.3,1.4
	c3.4,0,7.5-4.2,12.2-12.5c0,0.4-0.1,0.7-0.1,1.1c-0.4,5-0.6,7.8-0.6,8.7s0.8,1.5,2.5,2c1.7,0.5,3.5,0.7,5.3,0.7c1.2,0,1.8-1,1.8-3.1
	l-0.1-3.4c0-2.3,0.2-4.7,0.4-7.5c0.3-1.4,2.3-4.6,6-9.6c3.7-5,6-7.5,6.9-7.5s1.3,1.2,1.3,3.6s-0.2,6-0.6,10.9s-0.6,8.5-0.6,10.6
	s0.3,3.5,0.8,4c1.6,1.2,3.8,1.8,6.8,1.8c3.2,0,6.9-3.7,11.3-11.1c0.3,2.6,1.3,5,2.9,7.1c2.3,2.7,4.9,4.1,8,4.1
	c2.9,0.1,5.7-1.2,7.5-3.5c2.5-3.2,4.4-6.8,5.9-10.6c-0.1,3.5-0.2,6.3-0.2,8.4s0.3,3.4,0.8,3.9c1.6,1.2,3.8,1.8,6.8,1.8
	c4.1,0,9.2-6.1,15.3-18.4c2.2-4.5,3.3-7.7,3.3-9.8C351.8,37.8,351.6,37.5,351.1,37.5z M271.3,18.8c1.3-8.1,2.6-12.2,4-12.2
	c0.9,0,1.3,1.5,1.3,4.6c0,6.1-2.2,13.7-6.8,22.7C270,28.8,270.5,23.8,271.3,18.8z M76.3,39.7c-0.1,1.4-0.2,2.4-0.3,3
	c-4.9,12.1-8.6,18.2-11.1,18.2c-2.1,0-3.7-1.4-5-4c-1.4-3.2-2-6.6-1.9-10.1c-0.1-3.9,1.2-7.7,3.6-10.7c2.4-3.1,4.7-4.6,6.8-4.6
	c1.7,0.1,3.2,0.7,4.6,1.6c1.4,0.8,2.7,2,3.6,3.4C76.5,37.2,76.4,38.3,76.3,39.7z M179.9,39.7c-0.1,1.4-0.2,2.4-0.3,3
	c-4.9,12.1-8.6,18.2-11.1,18.2c-2.1,0-3.7-1.4-5-4c-1.4-3.2-2-6.6-1.9-10.1c-0.1-3.9,1.2-7.7,3.6-10.7c2.4-3.1,4.7-4.6,6.8-4.6
	c1.7,0.1,3.2,0.7,4.6,1.6c1.4,0.8,2.7,2,3.6,3.4C180.1,37.2,180,38.3,179.9,39.7z M255.1,56.3c-2.3,3-4.1,4.5-5.5,4.6
	c-0.9,0-1.4-1.5-1.4-4.4c0-5.5,0.5-13.6,1.4-24.3c3.2-0.6,6.4-1.5,9.4-2.9c0.8-0.3,1.5-0.7,2.2-1.1c-0.2,2.9-0.3,6.1-0.3,9.5v6.4
	c0,0.8,0,1.7-0.1,2.7C259.2,50.2,257.3,53.3,255.1,56.3L255.1,56.3z M327.1,39.7c-0.1,1.4-0.2,2.4-0.3,3
	c-4.9,12.1-8.6,18.2-11.1,18.2c-2.1,0-3.7-1.4-5-4c-1.4-3.2-2-6.6-1.9-10.1c-0.1-3.9,1.2-7.7,3.6-10.7c2.4-3.1,4.7-4.6,6.8-4.6
	c1.7,0.1,3.2,0.7,4.6,1.6c1.4,0.8,2.7,2,3.6,3.4C327.3,37.2,327.2,38.3,327.1,39.7L327.1,39.7z"/>
<path class="st0" d="M395.4,66.1l-16.9-26.3h-19.6v26.3h-2.4V7.4h20.8c5.6,0,10.1,1.4,13.3,4.3s4.9,6.8,4.9,11.9
	c0.2,4-1.2,7.9-3.8,10.9c-2.5,2.8-6,4.5-10.5,5.2l17,26.4H395.4z M388.9,33.9c2.8-2.4,4.1-5.9,4.1-10.3s-1.4-7.8-4.1-10.3
	s-6.7-3.7-11.7-3.7h-18.4v27.9h18.4C382.3,37.5,386.2,36.3,388.9,33.9L388.9,33.9z"/>
<path class="st0" d="M430.9,47.3H399c0.2,5.5,1.7,9.9,4.5,13s6.6,4.6,11.4,4.6c3,0.1,5.9-0.7,8.5-2.2c2.4-1.4,4.3-3.5,5.5-6.1l1.8,1
	c-1.4,2.8-3.5,5.2-6.2,6.9c-2.9,1.7-6.2,2.6-9.5,2.5c-5.6,0-10.1-1.8-13.2-5.5s-4.8-8.8-4.8-15.3s1.6-11.6,4.7-15.3
	s7.4-5.5,12.9-5.5c5.2,0,9.3,1.9,12.2,5.6s4.4,8.7,4.4,15.1L430.9,47.3z M403.3,32c-2.7,3.2-4.1,7.6-4.2,13.2h30
	c-0.2-5.7-1.5-10.1-4-13.2c-2.6-3.2-6.5-5-10.6-4.8C409.7,27.2,406,28.8,403.3,32z"/>
<path class="st0" d="M464.1,29.1c2.6,2.6,3.9,6.2,3.9,10.8v26.2h-2.2V40.5c0-4.3-1.1-7.5-3.4-9.8s-5.4-3.4-9.3-3.4
	c-2.7,0-5.3,0.7-7.6,2c-2.3,1.4-4.1,3.2-5.5,5.5c-1.3,2.4-2,5.1-2,7.8v23.5h-2.2v-40h2v9.6c1-3.1,3.1-5.8,5.8-7.6
	c2.9-1.9,6.3-2.9,9.8-2.8C458,25.3,461.5,26.6,464.1,29.1z"/>
<path class="st0" d="M508.9,64.3l-0.2,1.8c-0.9,0.5-2,0.8-3.1,0.7c-3.9,0-5.9-2.6-5.9-7.7l0,0c-1.2,2.6-3.3,4.6-6,5.7
	c-2.9,1.4-6,2-9.2,2c-3.8,0-6.8-0.9-9-2.6c-2.2-1.7-3.4-4.3-3.3-7.1c-0.1-2.9,1.2-5.7,3.5-7.5c2.3-1.9,6-3.3,11-4.2l13.1-2.5v-4.5
	c0-3.6-1-6.3-3-8.3s-4.9-3-8.7-3c-3-0.1-5.9,0.6-8.4,2.2c-2.3,1.7-4.1,4.1-4.9,6.9l-1.7-1.3c2.3-6.5,7.3-9.8,15.1-9.8
	c4.5,0,7.9,1.1,10.3,3.3s3.6,5.5,3.6,9.7v21.4c-0.1,1.4,0.2,2.7,1,3.9c0.7,0.9,1.8,1.4,3,1.3C507.1,65,508.1,64.9,508.9,64.3z
	 M491.6,63.7c2.2-0.8,4.2-2.1,5.8-3.8c1.6-1.6,2.4-3.8,2.3-6.1v-8.9l-12.1,2.3c-4.7,0.9-8,2.1-10.1,3.7c-2,1.5-3.2,3.8-3.1,6.3
	c-0.1,2.3,0.9,4.4,2.8,5.7c2.3,1.5,5,2.1,7.7,2C487.2,64.9,489.5,64.5,491.6,63.7L491.6,63.7L491.6,63.7z"/>
<path class="st0" d="M541.3,26.1v40h-2l-0.1-9.5c-1,3.1-3.1,5.8-5.9,7.5c-3,1.9-6.5,2.9-10,2.8c-4.2,0-7.6-1.2-10-3.7
	s-3.6-6-3.6-10.6V26.1h2.2v26.1c0,4.2,1,7.3,3.1,9.5s5,3.2,8.8,3.2c2.9,0.1,5.8-0.7,8.3-2.3c2.2-1.4,4-3.4,5.2-5.8
	c1.2-2.1,1.8-4.5,1.8-6.9V26.1H541.3L541.3,26.1z"/>
<path class="st0" d="M581.6,7.7v58.4h-2l-0.1-10.7c-0.9,3.4-2.8,6.4-5.6,8.5c-2.9,2-6.3,3.1-9.8,3c-5.5,0-9.9-1.8-13-5.5
	s-4.7-8.8-4.7-15.3s1.6-11.6,4.7-15.3s7.5-5.5,13-5.5c3.5-0.1,6.9,1,9.7,3c2.8,2.1,4.7,5,5.6,8.4v-29H581.6L581.6,7.7z M575.2,60.1
	c2.7-3.2,4.1-7.6,4.2-13.1v-1.8c-0.1-5.5-1.5-9.9-4.2-13.2c-2.7-3.2-6.7-5-10.8-4.8c-5,0-8.9,1.7-11.7,5s-4.2,8-4.2,13.9
	s1.4,10.5,4.2,13.8s6.7,5,11.7,5C568.6,65,572.5,63.3,575.2,60.1C575.2,60.1,575.2,60.1,575.2,60.1z"/>
</svg>
