<svg id="logo_name" xmlns="http://www.w3.org/2000/svg" viewBox="0 0 581.61 67.31"><title>samantharenaud</title><path d="M36.4,16.1L37,13.3c-0.3-3.9-3.1-5.9-8.3-5.9a11.1,11.1,0,0,0-7.9,3.1c-2.2,2.1-3.3,4.3-3.3,6.5a7.81,7.81,0,0,0,3,6,33.87,33.87,0,0,0,7.3,4.6c2.8,1.3,5.7,2.8,8.5,4.4a26.64,26.64,0,0,1,7.3,6,13.11,13.11,0,0,1,3,8.4,17.61,17.61,0,0,1-7.9,15.3,29.36,29.36,0,0,1-17.1,5.6A34.18,34.18,0,0,1,6.1,64,10.34,10.34,0,0,1,0,54.2a9.18,9.18,0,0,1,2.5-6.3c1.7-1.9,4-2.8,7.1-2.8a5.58,5.58,0,0,1,3.3,1,3.93,3.93,0,0,1,1.8,2.6c0,1.1-.7,1.6-2,1.6-2.6,0-3.9,1.1-3.9,3.2A8.87,8.87,0,0,0,12.4,60c2.3,2,5.6,2.9,9.8,2.9A15.19,15.19,0,0,0,33,58.8a13.17,13.17,0,0,0,4.5-10,9.8,9.8,0,0,0-3.1-7.1A27.72,27.72,0,0,0,27,36.3l-8.7-4.5a26.26,26.26,0,0,1-7.4-5.6,10.72,10.72,0,0,1-3.1-7.4c0-4.9,2.2-8.8,6.5-11.7A26,26,0,0,1,29.1,2.7,22.35,22.35,0,0,1,39.2,4.9c3,1.5,4.6,3.7,4.7,6.6a7.22,7.22,0,0,1-1.4,4.4,4.25,4.25,0,0,1-3.7,1.7Q36.55,17.75,36.4,16.1Z" transform="translate(0.01 0)" style="fill:#473f72"/><path d="M351.12,37.53c-0.5,0-1.9,2.3-4.1,7.1a61.36,61.36,0,0,1-6.8,11.7c-2.3,3.1-4.1,4.6-5.4,4.7-0.5,0-.7-1-0.7-3,0-10.2.3-16.2,1-17.9a16.88,16.88,0,0,0,1.4-4.6,29.12,29.12,0,0,0,.6-4.3c0-2.8-.6-4.2-1.7-4.2a7.69,7.69,0,0,0-4,1.7,14.5,14.5,0,0,0-3.3,2.9c-3-3.1-5.8-4.6-8.2-4.6A16.51,16.51,0,0,0,306.2,33.8,25.13,25.13,0,0,0,301,49.5c0,0.2,0,.39,0,0.59a61.34,61.34,0,0,1-3.91,6c-2.3,3.1-4.1,4.6-5.4,4.7-0.5,0-.7-0.8-0.7-2.5s0.4-5.6,1.1-11.9a141.4,141.4,0,0,0,1.1-14.2,4.6,4.6,0,0,0-1.9-3.8,6.82,6.82,0,0,0-4.3-1.5c-1.6,0-3.4,1.1-5.4,3.2a71.78,71.78,0,0,0-7.4,10q-4.35,6.9-4.8,7.5c0-3.9,0-6.8.1-8.6a51.2,51.2,0,0,0,6.8-12.6,47.21,47.21,0,0,0,3.3-17.7,14.24,14.24,0,0,0-1.1-6.3C277.7,0.8,277,0,276.2,0a8,8,0,0,0-4.9,1.8c-5.21,3.92-8.48,11.67-9.77,23.32l-0.43,0a19.92,19.92,0,0,0-4.4,1.6,31.34,31.34,0,0,1-6.8,2.2c1.1-11.4,1.6-17.8,1.6-19.2q0-4.5-1.5-4.5a5.36,5.36,0,0,0-3.5,1.9,7.66,7.66,0,0,0-2.2,4c-0.9,5.5-1.7,10.8-2.4,16.1a9.28,9.28,0,0,0-4.2-.9q-2.4,0-2.4,1.8c0.3,2.3,2.3,3.8,6.1,4.5q-0.68,5.65-1.08,11.34l-0.22.46a61.36,61.36,0,0,1-6.8,11.7c-2.3,3.1-4.1,4.6-5.4,4.7-0.5,0-.7-0.8-0.7-2.5s0.4-5.6,1.1-11.9a141.39,141.39,0,0,0,1.1-14.2,4.6,4.6,0,0,0-1.9-3.8,6.82,6.82,0,0,0-4.3-1.5c-1.6,0-3.4,1.1-5.4,3.2a71.78,71.78,0,0,0-7.4,10q-4.35,6.9-4.8,7.5,0-2.4.6-8.7a27.09,27.09,0,0,0,2.3-11,3,3,0,0,0-.3-1.6,2.34,2.34,0,0,0-1.7-.4c-0.8,0-2.3.7-4.2,2.1a46.47,46.47,0,0,0-4.1,3.2c-0.7.8-1.1,2.9-1.1,6.4v6.5c0,1.6-.08,3.69-0.25,6.3A61.35,61.35,0,0,1,193,56.3c-2.3,3.1-4.1,4.6-5.4,4.7-0.5,0-.7-1-0.7-3,0-10.2.3-16.2,1-17.9a16.88,16.88,0,0,0,1.4-4.6,29.11,29.11,0,0,0,.6-4.3c0-2.8-.6-4.2-1.7-4.2a7.69,7.69,0,0,0-4,1.7,14.49,14.49,0,0,0-3.3,2.9c-3-3.1-5.8-4.6-8.2-4.6A16.51,16.51,0,0,0,159,33.8a25.13,25.13,0,0,0-5.2,15.7c0,0.36,0,.69,0,1a61.36,61.36,0,0,1-3.73,5.66c-2.3,3.1-4.1,4.6-5.4,4.7-0.5,0-.7-0.8-0.7-2.5s0.4-5.6,1.1-11.9a141.41,141.41,0,0,0,1.1-14.2,4.6,4.6,0,0,0-1.9-3.8,6.43,6.43,0,0,0-4-1.5c-1.5,0-3,.8-4.8,2.5-0.9.8-1.8,1.6-2.6,2.4s-2.3,2.6-4.6,5.3a44.84,44.84,0,0,0-3.9,4.9,11.45,11.45,0,0,1,.1-1.5,29.59,29.59,0,0,0,.2-3.4c0.1-1.5.1-3,.1-4.6a5.16,5.16,0,0,0-1.9-4.1,6.27,6.27,0,0,0-4.1-1.6c-2.3,0-4.9,2.1-7.7,6.4-1.6,2.3-4.5,7-8.5,14.3q0-2.4.6-8.7a27.09,27.09,0,0,0,2.3-11,3,3,0,0,0-.3-1.6,2.34,2.34,0,0,0-1.7-.4c-0.8,0-2.3.7-4.2,2.1a46.47,46.47,0,0,0-4.1,3.2c-0.7.8-1.1,2.9-1.1,6.4v6.5q0,1.94-.16,4.86A61.35,61.35,0,0,1,89.3,56.3c-2.3,3.1-4.1,4.6-5.4,4.7-0.5,0-.7-1-0.7-3,0-10.2.3-16.2,1-17.9a16.88,16.88,0,0,0,1.4-4.6,29.12,29.12,0,0,0,.6-4.3c0-2.8-.6-4.2-1.7-4.2a7.69,7.69,0,0,0-4,1.7,14.49,14.49,0,0,0-3.3,2.9c-3-3.1-5.8-4.6-8.2-4.6a16.51,16.51,0,0,0-13.7,6.8,25.13,25.13,0,0,0-5.2,15.7c0,5.9,1.1,10.3,3.4,13s4.9,4.1,8,4.1A9.3,9.3,0,0,0,69,63.1a42.86,42.86,0,0,0,5.9-10.6c-0.1,3.5-.2,6.3-0.2,8.4s0.3,3.4.8,3.9c1.6,1.2,3.8,1.8,6.8,1.8S89.15,63,93.46,55.85c-0.37,4.64-.56,7.28-0.56,8.15s0.8,1.5,2.5,2a18.82,18.82,0,0,0,5.3.7c1.2,0,1.8-1,1.8-3.1l-0.1-3.4c0-2.3.1-4.4,0.3-6.5,0.4-2,2.2-5.5,5.6-10.5s5.5-7.5,6.4-7.5S116,37,116,39.6s-0.2,7.2-.7,13.5-0.7,9.9-.7,10.8,0.7,1.5,2.3,2a16.34,16.34,0,0,0,5,.7c1.1,0,1.7-1,1.7-3.1,0-8.3.2-13.7,0.7-16.2,0.2-1.3,1.9-3.6,5.3-6.8s5.6-4.8,6.5-4.8,1.3,1.2,1.3,3.6-0.2,6-.6,10.9-0.6,8.5-.6,10.6,0.3,3.5.8,4a9.73,9.73,0,0,0,6.2,1.8c3.14,0,6.86-3.64,11.12-10.86a14.36,14.36,0,0,0,2.88,6.76c2.3,2.7,4.9,4.1,8,4.1a9.3,9.3,0,0,0,7.5-3.5,42.86,42.86,0,0,0,5.9-10.6c-0.1,3.5-.2,6.3-0.2,8.4s0.3,3.4.8,3.9c1.6,1.2,3.8,1.8,6.8,1.8s6.39-3.15,10.35-9.44c-0.3,3.84-.45,6.06-0.45,6.84s0.8,1.5,2.5,2a18.82,18.82,0,0,0,5.3.7c1.2,0,1.8-1,1.8-3.1l-0.1-3.4c0-2.3.2-4.7,0.4-7.5q0.45-2.1,6-9.6t6.9-7.5c0.9,0,1.3,1.2,1.3,3.6s-0.2,6-.6,10.9-0.6,8.5-.6,10.6,0.3,3.5.8,4c1.6,1.2,3.8,1.8,6.8,1.8,3.72,0,8.25-5.11,13.54-15.22-0.06,1.51-.11,3-0.14,4.52,0,5.4.4,8.6,1.1,9.5s3.1,1.4,7.3,1.4c3.45,0,7.52-4.2,12.19-12.53,0,0.37-.06.74-0.09,1.13-0.4,5-.6,7.8-0.6,8.7s0.8,1.5,2.5,2a18.82,18.82,0,0,0,5.3.7c1.2,0,1.8-1,1.8-3.1l-0.1-3.4c0-2.3.2-4.7,0.4-7.5q0.45-2.1,6-9.6t6.9-7.5c0.9,0,1.3,1.2,1.3,3.6s-0.2,6-.6,10.9-0.6,8.5-.6,10.6,0.3,3.5.8,4c1.6,1.2,3.8,1.8,6.8,1.8,3.17,0,6.94-3.72,11.26-11.09a14.62,14.62,0,0,0,2.94,7.09c2.3,2.7,4.9,4.1,8,4.1a9.3,9.3,0,0,0,7.5-3.5,42.86,42.86,0,0,0,5.9-10.6c-0.1,3.5-.2,6.3-0.2,8.4s0.3,3.4.8,3.9c1.6,1.2,3.8,1.8,6.8,1.8,4.1,0,9.2-6.1,15.32-18.37,2.2-4.5,3.3-7.7,3.3-9.8C351.82,37.83,351.62,37.53,351.12,37.53ZM271.3,18.8c1.3-8.1,2.6-12.2,4-12.2,0.9,0,1.3,1.5,1.3,4.6,0,6.1-2.2,13.7-6.8,22.7A139.86,139.86,0,0,1,271.3,18.8ZM76.3,39.7q-0.15,2.1-.3,3c-4.9,12.1-8.6,18.2-11.1,18.2-2.1,0-3.7-1.4-5-4A22.75,22.75,0,0,1,58,46.8a16.67,16.67,0,0,1,3.6-10.7c2.4-3.1,4.7-4.6,6.8-4.6A9.06,9.06,0,0,1,73,33.1a10.8,10.8,0,0,1,3.6,3.4C76.5,37.2,76.4,38.3,76.3,39.7Zm103.6,0q-0.15,2.1-.3,3c-4.9,12.1-8.6,18.2-11.1,18.2-2.1,0-3.7-1.4-5-4a22.76,22.76,0,0,1-1.9-10.1,16.67,16.67,0,0,1,3.6-10.7c2.4-3.1,4.7-4.6,6.8-4.6a9.06,9.06,0,0,1,4.6,1.6,10.8,10.8,0,0,1,3.6,3.4C180.1,37.2,180,38.3,179.9,39.7Zm75.2,16.6c-2.3,3-4.1,4.5-5.5,4.6-0.9,0-1.4-1.5-1.4-4.4,0-5.5.5-13.6,1.4-24.3a39.65,39.65,0,0,0,9.4-2.9,23.26,23.26,0,0,0,2.24-1.09c-0.23,2.94-.34,6.1-0.34,9.49v6.4c0,0.79,0,1.71-.06,2.73A61.35,61.35,0,0,1,255.1,56.3Zm72-16.6q-0.15,2.1-.3,3c-4.9,12.1-8.6,18.2-11.1,18.2-2.1,0-3.7-1.4-5-4a22.76,22.76,0,0,1-1.9-10.1,16.67,16.67,0,0,1,3.6-10.7c2.4-3.1,4.7-4.6,6.8-4.6a9.06,9.06,0,0,1,4.6,1.6,10.8,10.8,0,0,1,3.6,3.4C327.3,37.2,327.2,38.3,327.1,39.7Z" transform="translate(0.01 0)" style="fill:#473f72"/><path d="M395.4,66.1L378.5,39.8H358.92V66.1h-2.4V7.4h20.8c5.6,0,10.1,1.4,13.3,4.3s4.9,6.8,4.9,11.9a15.72,15.72,0,0,1-3.8,10.9c-2.5,2.8-6,4.5-10.5,5.2l17,26.4H395.4Zm-6.48-32.2c2.8-2.4,4.1-5.9,4.1-10.3s-1.4-7.8-4.1-10.3-6.7-3.7-11.7-3.7h-18.4V37.5h18.4Q384.85,37.5,388.92,33.9Z" transform="translate(0.01 0)" style="fill:#473f72"/><path d="M430.92,47.3H399c0.2,5.5,1.7,9.9,4.5,13s6.6,4.6,11.4,4.6a16.08,16.08,0,0,0,8.5-2.2,13.53,13.53,0,0,0,5.5-6.1l1.8,1a16.55,16.55,0,0,1-6.2,6.9A17.51,17.51,0,0,1,415,67c-5.6,0-10.1-1.8-13.2-5.5S397,52.7,397,46.2s1.6-11.6,4.7-15.3,7.4-5.5,12.9-5.5c5.2,0,9.3,1.9,12.2,5.6s4.4,8.7,4.4,15.1ZM403.3,32q-4.05,4.8-4.2,13.2h30c-0.2-5.7-1.5-10.1-4-13.2a12.9,12.9,0,0,0-10.6-4.8C409.7,27.2,406,28.8,403.3,32Z" transform="translate(0.01 0)" style="fill:#473f72"/><path d="M464.1,29.1Q468,33,468,39.9V66.1h-2.2V40.5c0-4.3-1.1-7.5-3.4-9.8s-5.4-3.4-9.3-3.4a15.13,15.13,0,0,0-7.6,2,16.08,16.08,0,0,0-5.5,5.5,15.6,15.6,0,0,0-2,7.8V66.1h-2.2v-40h2v9.6a14.64,14.64,0,0,1,5.8-7.6,17.07,17.07,0,0,1,9.8-2.8C458,25.3,461.5,26.6,464.1,29.1Z" transform="translate(0.01 0)" style="fill:#473f72"/><path d="M508.92,64.3l-0.2,1.8a5.7,5.7,0,0,1-3.1.7c-3.9,0-5.9-2.6-5.9-7.7h0a11.2,11.2,0,0,1-6,5.7,20.9,20.9,0,0,1-9.2,2c-3.8,0-6.8-.9-9-2.6a8.51,8.51,0,0,1-3.3-7.1,9.16,9.16,0,0,1,3.5-7.5c2.3-1.9,6-3.3,11-4.2l13.1-2.5V38.4c0-3.6-1-6.3-3-8.3s-4.9-3-8.7-3a14.59,14.59,0,0,0-8.4,2.2,13.39,13.39,0,0,0-4.9,6.9l-1.7-1.3c2.3-6.5,7.3-9.8,15.1-9.8,4.5,0,7.9,1.1,10.3,3.3s3.6,5.5,3.6,9.7V59.5a6.25,6.25,0,0,0,1,3.9,3.54,3.54,0,0,0,3,1.3A3.16,3.16,0,0,0,508.92,64.3Zm-17.3-.6a14.31,14.31,0,0,0,5.8-3.8,8.45,8.45,0,0,0,2.3-6.1V44.9l-12.1,2.3c-4.7.9-8,2.1-10.1,3.7a7.5,7.5,0,0,0-3.1,6.3,6.55,6.55,0,0,0,2.8,5.7,13.07,13.07,0,0,0,7.7,2,20.19,20.19,0,0,0,6.68-1.2h0Z" transform="translate(0.01 0)" style="fill:#473f72"/><path d="M541.3,26.1v40h-2l-0.1-9.5a14.1,14.1,0,0,1-5.9,7.5,17.28,17.28,0,0,1-10,2.8c-4.2,0-7.6-1.2-10-3.7s-3.6-6-3.6-10.6V26.1h2.22V52.2c0,4.2,1,7.3,3.1,9.5s5,3.2,8.8,3.2a14.73,14.73,0,0,0,8.3-2.3,14.51,14.51,0,0,0,5.2-5.8,14.8,14.8,0,0,0,1.8-6.9V26.1h2.18Z" transform="translate(0.01 0)" style="fill:#473f72"/><path d="M581.6,7.7V66.1h-2l-0.1-10.7a15.44,15.44,0,0,1-5.6,8.5,16.07,16.07,0,0,1-9.8,3c-5.5,0-9.9-1.8-13-5.5s-4.7-8.8-4.7-15.3,1.6-11.6,4.7-15.3,7.5-5.5,13-5.5a15.77,15.77,0,0,1,9.7,3,15.18,15.18,0,0,1,5.6,8.4V7.7h2.2Zm-6.4,52.4c2.7-3.2,4.1-7.6,4.2-13.1V45.2q-0.15-8.25-4.2-13.2a13.42,13.42,0,0,0-10.8-4.8c-5,0-8.9,1.7-11.7,5s-4.2,8-4.2,13.9,1.4,10.5,4.2,13.8,6.7,5,11.7,5a13.56,13.56,0,0,0,10.8-4.8h0Z" transform="translate(0.01 0)" style="fill:#473f72"/></svg>